<svg xmlns="http://www.w3.org/2000/svg" height="283px" width="511px" version="1.1"><polyline points="1.0,0.0,1.0,8.0,1.0,16.0,1.0,24.0,1.0,32.0,1.0,40.0,1.0,48.0,1.0,56.0,1.0,64.0,1.0,72.0,1.0,80.0,1.0,88.0,1.0,96.0,1.0,104.0,1.0,112.0,1.0,120.0,1.0,128.0,1.0,136.0,1.0,144.0,1.0,152.0,1.0,160.0,1.0,168.0,1.0,176.0,1.0,184.0,1.0,192.0,1.0,200.0,1.0,208.0,1.0,216.0,1.0,224.0,1.0,232.0,1.0,240.0,1.0,248.0,1.0,256.0,1.0,264.0,1.0,272.0,1.0,280.0,7.0,283.0,15.0,283.0,23.0,283.0,31.0,283.0,39.0,283.0,47.0,283.0,55.0,283.0,63.0,283.0,71.0,283.0,79.0,283.0,87.0,283.0,95.0,283.0,103.0,283.0,111.0,283.0,119.0,283.0,127.0,283.0,135.0,283.0,143.0,283.0,151.0,283.0,159.0,283.0,167.0,283.0,175.0,283.0,183.0,283.0,191.0,283.0,199.0,283.0,207.0,283.0,215.0,283.0,223.0,283.0,231.0,283.0,239.0,283.0,247.0,283.0,255.0,283.0,263.0,283.0,271.0,283.0,279.0,283.0,287.0,283.0,295.0,283.0,303.0,283.0,311.0,283.0,319.0,283.0,327.0,283.0,335.0,283.0,343.0,283.0,351.0,283.0,359.0,283.0,367.0,283.0,375.0,283.0,383.0,283.0,391.0,283.0,399.0,283.0,407.0,283.0,415.0,283.0,423.0,283.0,431.0,283.0,439.0,283.0,447.0,283.0,455.0,283.0,463.0,283.0,471.0,283.0,479.0,283.0,487.0,283.0,495.0,283.0,503.0,283.0" stroke="black" stroke-width="1" fill="none" />
<polyline points="369.0,178.0,369.0,170.0,369.0,162.0,369.0,154.0,369.0,146.0,369.0,138.0,369.0,130.0,369.0,122.0,369.0,114.0,369.0,106.0,369.0,98.0,369.0,90.0,369.0,82.0,369.0,74.0,369.0,66.0,369.0,58.0,369.0,50.0,365.0,43.0,357.0,43.0,349.0,43.0,341.0,43.0,333.0,43.0,325.0,43.0,317.0,43.0,309.0,43.0,301.0,43.0,293.0,43.0,285.0,43.0,277.0,43.0,269.0,43.0,261.0,43.0,253.0,43.0,245.0,43.0,237.0,43.0,229.0,43.0,221.0,43.0,213.0,43.0,205.0,43.0,197.0,43.0,189.0,43.0,181.0,43.0,173.0,43.0,165.0,43.0,157.0,43.0,149.0,43.0" stroke="black" stroke-width="1" fill="none" />
<polyline points="145.0,39.0,143.0,47.0,143.0,55.0,143.0,63.0,143.0,71.0,143.0,79.0,143.0,87.0,143.0,95.0,143.0,103.0,143.0,111.0,143.0,119.0,143.0,127.0,143.0,135.0,143.0,143.0,143.0,151.0,143.0,159.0,143.0,167.0,143.0,175.0,143.0,183.0,152.0,182.0,160.0,182.0,168.0,182.0,176.0,182.0,184.0,182.0,192.0,182.0,200.0,182.0,208.0,182.0,216.0,182.0,224.0,182.0,232.0,182.0,240.0,182.0,248.0,182.0,256.0,182.0,264.0,182.0,272.0,182.0,280.0,182.0,288.0,182.0,296.0,182.0,304.0,182.0,312.0,182.0,320.0,182.0,328.0,182.0,336.0,182.0,344.0,182.0,352.0,182.0,360.0,182.0" stroke="black" stroke-width="1" fill="none" />
<polyline points="366.0,181.0,366.0,173.0,366.0,165.0,366.0,157.0,366.0,149.0,366.0,141.0,366.0,133.0,366.0,125.0,366.0,117.0,366.0,109.0,366.0,101.0,366.0,93.0,366.0,85.0,366.0,77.0,366.0,69.0,366.0,61.0,366.0,53.0,366.0,45.0,367.0,39.0,359.0,39.0,351.0,39.0,343.0,39.0,335.0,39.0,327.0,39.0,319.0,39.0,311.0,39.0,303.0,39.0,295.0,39.0,287.0,39.0,279.0,39.0,271.0,39.0,263.0,39.0,255.0,39.0,247.0,39.0,239.0,39.0,231.0,39.0,223.0,39.0,215.0,39.0,207.0,39.0,199.0,39.0,191.0,39.0,183.0,39.0,175.0,39.0,167.0,39.0,159.0,39.0,151.0,39.0,143.0,40.0" stroke="black" stroke-width="1" fill="none" />
<polyline points="0.0,1.0,8.0,1.0,16.0,1.0,24.0,1.0,32.0,1.0,40.0,1.0,48.0,1.0,56.0,1.0,64.0,1.0,72.0,1.0,80.0,1.0,88.0,1.0,96.0,1.0,104.0,1.0,112.0,1.0,120.0,1.0,128.0,1.0,136.0,1.0,144.0,1.0,152.0,1.0,160.0,1.0,168.0,1.0,176.0,1.0,184.0,1.0,192.0,1.0,200.0,1.0,208.0,1.0,216.0,1.0,224.0,1.0,232.0,1.0,240.0,1.0,248.0,1.0,256.0,1.0,264.0,1.0,272.0,1.0,280.0,1.0,288.0,1.0,296.0,1.0,304.0,1.0,312.0,1.0,320.0,1.0,328.0,1.0,336.0,1.0,344.0,1.0,352.0,1.0,360.0,1.0,368.0,1.0,376.0,1.0,384.0,1.0,392.0,1.0,400.0,1.0,408.0,1.0,416.0,1.0,424.0,1.0,432.0,1.0,440.0,1.0,448.0,1.0,456.0,1.0,464.0,1.0,472.0,1.0,480.0,1.0,488.0,1.0,496.0,1.0,504.0,1.0,511.0,3.0,511.0,11.0,511.0,19.0,511.0,27.0,511.0,35.0,511.0,43.0,511.0,51.0,511.0,59.0,511.0,67.0,511.0,75.0,511.0,83.0,511.0,91.0,511.0,99.0,511.0,107.0,511.0,115.0,511.0,123.0,511.0,131.0,511.0,139.0,511.0,147.0,511.0,155.0,511.0,163.0,511.0,171.0,511.0,179.0,511.0,187.0,511.0,195.0,511.0,203.0,511.0,211.0,511.0,219.0,511.0,227.0,511.0,235.0,511.0,243.0,511.0,251.0,511.0,259.0,511.0,267.0,511.0,275.0" stroke="black" stroke-width="1" fill="none" />
<polyline points="144.0,42.0,152.0,42.0" stroke="black" stroke-width="1" fill="none" />
<polyline points="152.0,178.0,144.0,178.0" stroke="black" stroke-width="1" fill="none" />
</svg>