<svg xmlns="http://www.w3.org/2000/svg" height="384px" width="511px" version="1.1"><polyline points="1.0,0.0,1.0,8.0,1.0,16.0,1.0,24.0,1.0,32.0,1.0,40.0,1.0,48.0,1.0,56.0,1.0,64.0,1.0,72.0,1.0,80.0,1.0,88.0,1.0,96.0,1.0,104.0,1.0,112.0,1.0,120.0,1.0,128.0,1.0,136.0,1.0,144.0,1.0,152.0,1.0,160.0,1.0,168.0,1.0,176.0,1.0,184.0,1.0,192.0,1.0,200.0,1.0,208.0,1.0,216.0,1.0,224.0,1.0,232.0,1.0,240.0,1.0,248.0,1.0,256.0,1.0,264.0,1.0,272.0,1.0,280.0,1.0,288.0,1.0,296.0,1.0,304.0,1.0,312.0,1.0,320.0,1.0,328.0,1.0,336.0,1.0,344.0,1.0,352.0,1.0,360.0,1.0,368.0,1.0,376.0,8.0,381.0,8.0,380.0,15.0,383.0,23.0,383.0,29.0,383.0,37.0,383.0" stroke="black" stroke-width="1" fill="none" />
<polyline points="42.0,381.0,36.0,373.0,26.0,365.0,24.0,357.0,26.0,349.0,27.0,341.0,33.0,336.0,31.0,339.0" stroke="black" stroke-width="1" fill="none" />
<polyline points="32.0,347.0,30.0,355.0,35.0,363.0,45.0,370.0,51.0,378.0" stroke="black" stroke-width="1" fill="none" />
<polyline points="51.0,383.0,43.0,377.0,35.0,367.0,27.0,361.0" stroke="black" stroke-width="1" fill="none" />
<polyline points="32.0,355.0,40.0,360.0,48.0,371.0,56.0,379.0,64.0,383.0,72.0,383.0,80.0,383.0,88.0,383.0" stroke="black" stroke-width="1" fill="none" />
<polyline points="124.0,383.0,116.0,383.0,108.0,383.0,101.0,378.0,102.0,370.0,103.0,362.0,104.0,354.0,103.0,346.0,107.0,345.0" stroke="black" stroke-width="1" fill="none" />
<polyline points="105.0,331.0,101.0,339.0,98.0,347.0,91.0,359.0,91.0,370.0" stroke="black" stroke-width="1" fill="none" />
<polyline points="134.0,366.0,142.0,353.0,145.0,358.0,137.0,359.0,134.0,367.0,134.0,375.0,137.0,383.0,145.0,383.0,153.0,383.0,161.0,383.0" stroke="black" stroke-width="1" fill="none" />
<polyline points="150.0,376.0,149.0,368.0" stroke="black" stroke-width="1" fill="none" />
<polyline points="95.0,320.0,87.0,318.0,79.0,316.0,71.0,314.0,63.0,313.0,55.0,315.0,47.0,319.0,39.0,325.0,31.0,331.0,23.0,337.0,15.0,345.0,7.0,352.0,5.0,354.0,14.0,346.0,22.0,338.0,32.0,330.0,43.0,322.0,56.0,314.0" stroke="black" stroke-width="1" fill="none" />
<polyline points="114.0,275.0,117.0,277.0,118.0,285.0,118.0,293.0,117.0,301.0,117.0,309.0,118.0,317.0,126.0,325.0" stroke="black" stroke-width="1" fill="none" />
<polyline points="204.0,231.0,203.0,223.0" stroke="black" stroke-width="1" fill="none" />
<polyline points="201.0,221.0,190.0,229.0,184.0,233.0,192.0,228.0,201.0,221.0" stroke="black" stroke-width="1" fill="none" />
<polyline points="212.0,209.0,222.0,217.0" stroke="black" stroke-width="1" fill="none" />
<polyline points="220.0,213.0,212.0,209.0" stroke="black" stroke-width="1" fill="none" />
<polyline points="207.0,191.0,199.0,203.0,198.0,206.0,202.0,198.0,208.0,190.0" stroke="black" stroke-width="1" fill="none" />
<polyline points="239.0,154.0,228.0,162.0,222.0,170.0,225.0,165.0,233.0,157.0,241.0,154.0" stroke="black" stroke-width="1" fill="none" />
<polyline points="180.0,72.0,172.0,85.0,165.0,101.0,157.0,120.0,143.0,136.0,135.0,156.0" stroke="black" stroke-width="1" fill="none" />
<polyline points="129.0,186.0,133.0,178.0,131.0,172.0,132.0,164.0,135.0,156.0,140.0,148.0,141.0,140.0,145.0,132.0,145.0,124.0,146.0,116.0,144.0,113.0,147.0,105.0,148.0,97.0,151.0,89.0,153.0,81.0,152.0,82.0" stroke="black" stroke-width="1" fill="none" />
<polyline points="181.0,71.0,175.0,79.0,171.0,87.0,168.0,95.0,164.0,103.0,161.0,111.0,158.0,119.0,154.0,127.0,151.0,135.0,148.0,143.0" stroke="black" stroke-width="1" fill="none" />
<polyline points="125.0,195.0,125.0,203.0,124.0,211.0,124.0,217.0,121.0,225.0,118.0,233.0,118.0,241.0,117.0,249.0,114.0,257.0,112.0,265.0,111.0,273.0,110.0,281.0,108.0,289.0,107.0,297.0,105.0,305.0,104.0,313.0,107.0,314.0,112.0,324.0,123.0,321.0,131.0,332.0" stroke="black" stroke-width="1" fill="none" />
<polyline points="349.0,335.0,341.0,340.0,351.0,331.0,352.0,338.0,356.0,331.0,358.0,323.0,362.0,316.0,357.0,314.0,356.0,306.0,365.0,300.0,370.0,289.0,367.0,288.0,373.0,286.0,365.0,287.0" stroke="black" stroke-width="1" fill="none" />
<polyline points="361.0,305.0,349.0,322.0" stroke="black" stroke-width="1" fill="none" />
<polyline points="351.0,303.0,347.0,311.0,344.0,319.0,349.0,317.0,357.0,302.0,365.0,296.0,376.0,291.0" stroke="black" stroke-width="1" fill="none" />
<polyline points="370.0,262.0,378.0,249.0" stroke="black" stroke-width="1" fill="none" />
<polyline points="380.0,241.0,388.0,223.0" stroke="black" stroke-width="1" fill="none" />
<polyline points="393.0,205.0,401.0,207.0" stroke="black" stroke-width="1" fill="none" />
<polyline points="404.0,189.0,412.0,175.0,420.0,166.0,427.0,144.0,435.0,138.0" stroke="black" stroke-width="1" fill="none" />
<polyline points="438.0,134.0,428.0,132.0" stroke="black" stroke-width="1" fill="none" />
<polyline points="445.0,109.0,450.0,113.0,441.0,109.0,445.0,100.0,443.0,92.0,440.0,92.0" stroke="black" stroke-width="1" fill="none" />
<polyline points="439.0,96.0,447.0,99.0,447.0,104.0" stroke="black" stroke-width="1" fill="none" />
<polyline points="458.0,96.0,452.0,93.0,444.0,88.0,436.0,87.0" stroke="black" stroke-width="1" fill="none" />
<polyline points="436.0,87.0,435.0,95.0,435.0,103.0,438.0,111.0,439.0,119.0,440.0,127.0,436.0,127.0,429.0,131.0,431.0,137.0,427.0,145.0,427.0,153.0,423.0,161.0,418.0,169.0,412.0,177.0,407.0,185.0,404.0,193.0,402.0,201.0,393.0,206.0,391.0,214.0,389.0,222.0,386.0,230.0,382.0,238.0,379.0,246.0,374.0,254.0,370.0,262.0,369.0,270.0,365.0,278.0,362.0,286.0,361.0,291.0,359.0,299.0,354.0,300.0,355.0,303.0,352.0,309.0,352.0,317.0,346.0,325.0,347.0,330.0,342.0,338.0,336.0,341.0,341.0,343.0,351.0,351.0" stroke="black" stroke-width="1" fill="none" />
<polyline points="350.0,345.0,358.0,349.0,366.0,352.0,374.0,355.0,382.0,357.0,390.0,359.0,398.0,361.0,406.0,362.0,414.0,363.0,422.0,364.0,430.0,366.0,438.0,367.0,446.0,368.0,454.0,370.0,462.0,372.0,470.0,375.0,478.0,378.0,486.0,382.0,494.0,383.0,502.0,383.0,510.0,383.0" stroke="black" stroke-width="1" fill="none" />
<polyline points="511.0,379.0,511.0,371.0,511.0,363.0,511.0,355.0,511.0,347.0,511.0,339.0,511.0,331.0,511.0,323.0,511.0,315.0,511.0,307.0,511.0,299.0,511.0,291.0,511.0,283.0,511.0,275.0,511.0,267.0,511.0,259.0,511.0,251.0,511.0,243.0,511.0,235.0,511.0,227.0,511.0,219.0,511.0,211.0,511.0,203.0,511.0,195.0,511.0,187.0,511.0,179.0,511.0,171.0,511.0,163.0,511.0,155.0,511.0,147.0,511.0,139.0,511.0,131.0,511.0,123.0,511.0,115.0,511.0,107.0,511.0,99.0,511.0,91.0,511.0,83.0,511.0,75.0,511.0,67.0,511.0,59.0,511.0,51.0,511.0,43.0,511.0,35.0,511.0,27.0,511.0,19.0,511.0,11.0,511.0,3.0,504.0,1.0,496.0,1.0,488.0,1.0,480.0,1.0,472.0,1.0,464.0,1.0,456.0,1.0,448.0,1.0,440.0,1.0,432.0,1.0,424.0,1.0,416.0,1.0,408.0,1.0,400.0,2.0" stroke="black" stroke-width="1" fill="none" />
<polyline points="444.0,11.0,450.0,2.0,446.0,10.0,451.0,11.0,451.0,21.0,446.0,29.0,440.0,29.0,443.0,27.0,443.0,29.0,457.0,30.0" stroke="black" stroke-width="1" fill="none" />
<polyline points="457.0,25.0,454.0,19.0,455.0,7.0,446.0,12.0" stroke="black" stroke-width="1" fill="none" />
<polyline points="450.0,28.0,453.0,36.0,454.0,44.0,456.0,50.0,459.0,55.0,459.0,59.0,463.0,69.0,458.0,75.0,460.0,79.0,461.0,78.0" stroke="black" stroke-width="1" fill="none" />
<polyline points="451.0,79.0,443.0,75.0" stroke="black" stroke-width="1" fill="none" />
<polyline points="449.0,53.0,457.0,56.0" stroke="black" stroke-width="1" fill="none" />
<polyline points="458.0,70.0,449.0,73.0,448.0,69.0,447.0,69.0,452.0,56.0,452.0,46.0,444.0,50.0,436.0,52.0" stroke="black" stroke-width="1" fill="none" />
<polyline points="438.0,50.0,434.0,58.0,439.0,59.0,435.0,67.0,445.0,76.0,454.0,84.0,458.0,92.0,461.0,100.0" stroke="black" stroke-width="1" fill="none" />
<polyline points="384.0,169.0,384.0,177.0,383.0,185.0,382.0,193.0,381.0,201.0,379.0,209.0" stroke="black" stroke-width="1" fill="none" />
<polyline points="313.0,5.0,308.0,12.0,310.0,3.0,302.0,7.0,294.0,11.0,291.0,10.0,297.0,2.0,287.0,13.0,279.0,14.0,271.0,16.0,263.0,16.0" stroke="black" stroke-width="1" fill="none" />
<polyline points="254.0,10.0,262.0,12.0,270.0,11.0,278.0,9.0,286.0,6.0,294.0,2.0,308.0,0.0,296.0,0.0,281.0,8.0" stroke="black" stroke-width="1" fill="none" />
<polyline points="228.0,23.0,220.0,28.0,212.0,32.0,204.0,38.0,196.0,48.0,188.0,60.0,191.0,54.0,197.0,47.0,203.0,39.0,213.0,31.0,227.0,23.0" stroke="black" stroke-width="1" fill="none" />
<polyline points="220.0,34.0,215.0,42.0,220.0,34.0" stroke="black" stroke-width="1" fill="none" />
<polyline points="196.0,33.0,187.0,38.0,178.0,51.0,178.0,51.0,186.0,42.0,190.0,40.0,192.0,37.0,184.0,45.0" stroke="black" stroke-width="1" fill="none" />
<polyline points="150.0,19.0,161.0,11.0,165.0,3.0,165.0,3.0" stroke="black" stroke-width="1" fill="none" />
<polyline points="161.0,8.0,169.0,7.0,177.0,9.0" stroke="black" stroke-width="1" fill="none" />
<polyline points="208.0,1.0,200.0,1.0,192.0,1.0,184.0,1.0,176.0,1.0,168.0,1.0,160.0,1.0,152.0,1.0,144.0,1.0,136.0,1.0,128.0,1.0,120.0,1.0,112.0,1.0,104.0,1.0,96.0,1.0,88.0,1.0,80.0,1.0,72.0,1.0,64.0,1.0,56.0,1.0,48.0,1.0,40.0,1.0,32.0,1.0,24.0,1.0,16.0,1.0,8.0,1.0,0.0,1.0" stroke="black" stroke-width="1" fill="none" />
<polyline points="20.0,71.0,3.0,78.0,11.0,75.0" stroke="black" stroke-width="1" fill="none" />
<polyline points="13.0,112.0,6.0,120.0,5.0,121.0,13.0,112.0" stroke="black" stroke-width="1" fill="none" />
<polyline points="66.0,95.0,72.0,88.0" stroke="black" stroke-width="1" fill="none" />
<polyline points="96.0,39.0,90.0,42.0,98.0,39.0" stroke="black" stroke-width="1" fill="none" />
<polyline points="129.0,27.0,121.0,30.0,113.0,33.0,103.0,37.0,115.0,32.0,137.0,24.0" stroke="black" stroke-width="1" fill="none" />
<polyline points="0.0,74.0,128.0,74.0" stroke="black" stroke-width="1" fill="none" />
<polyline points="136.0,64.0,144.0,56.0" stroke="black" stroke-width="1" fill="none" />
<polyline points="144.0,48.0,128.0,64.0" stroke="black" stroke-width="1" fill="none" />
<polyline points="128.0,56.0,112.0,72.0" stroke="black" stroke-width="1" fill="none" />
<polyline points="104.0,72.0,120.0,56.0" stroke="black" stroke-width="1" fill="none" />
<polyline points="104.0,64.0,96.0,72.0" stroke="black" stroke-width="1" fill="none" />
<polyline points="96.0,64.0,80.0,80.0" stroke="black" stroke-width="1" fill="none" />
<polyline points="80.0,72.0,64.0,88.0" stroke="black" stroke-width="1" fill="none" />
<polyline points="56.0,88.0,72.0,72.0" stroke="black" stroke-width="1" fill="none" />
<polyline points="56.0,80.0,40.0,96.0" stroke="black" stroke-width="1" fill="none" />
<polyline points="40.0,88.0,32.0,96.0" stroke="black" stroke-width="1" fill="none" />
<polyline points="32.0,88.0,24.0,96.0" stroke="black" stroke-width="1" fill="none" />
<polyline points="8.0,104.0,0.0,112.0" stroke="black" stroke-width="1" fill="none" />
<polyline points="0.0,114.0,16.0,114.0" stroke="black" stroke-width="1" fill="none" />
<polyline points="8.0,112.0,0.0,120.0" stroke="black" stroke-width="1" fill="none" />
<polyline points="0.0,122.0,8.0,122.0" stroke="black" stroke-width="1" fill="none" />
<polyline points="0.0,106.0,40.0,106.0" stroke="black" stroke-width="1" fill="none" />
<polyline points="64.0,98.0,0.0,98.0" stroke="black" stroke-width="1" fill="none" />
<polyline points="0.0,90.0,72.0,90.0" stroke="black" stroke-width="1" fill="none" />
<polyline points="48.0,50.0,200.0,50.0" stroke="black" stroke-width="1" fill="none" />
<polyline points="200.0,40.0,160.0,80.0" stroke="black" stroke-width="1" fill="none" />
<polyline points="160.0,86.0,168.0,86.0" stroke="black" stroke-width="1" fill="none" />
<polyline points="168.0,96.0,152.0,112.0" stroke="black" stroke-width="1" fill="none" />
<polyline points="152.0,104.0,176.0,80.0" stroke="black" stroke-width="1" fill="none" />
<polyline points="184.0,64.0,152.0,96.0" stroke="black" stroke-width="1" fill="none" />
<polyline points="152.0,90.0,176.0,90.0" stroke="black" stroke-width="1" fill="none" />
<polyline points="184.0,98.0,440.0,98.0" stroke="black" stroke-width="1" fill="none" />
<polyline points="440.0,96.0,152.0,384.0" stroke="black" stroke-width="1" fill="none" />
<polyline points="160.0,384.0,440.0,104.0" stroke="black" stroke-width="1" fill="none" />
<polyline points="440.0,112.0,168.0,384.0" stroke="black" stroke-width="1" fill="none" />
<polyline points="176.0,384.0,440.0,120.0" stroke="black" stroke-width="1" fill="none" />
<polyline points="432.0,136.0,184.0,384.0" stroke="black" stroke-width="1" fill="none" />
<polyline points="192.0,384.0,424.0,152.0" stroke="black" stroke-width="1" fill="none" />
<polyline points="424.0,160.0,376.0,208.0" stroke="black" stroke-width="1" fill="none" />
<polyline points="376.0,216.0,408.0,184.0" stroke="black" stroke-width="1" fill="none" />
<polyline points="400.0,200.0,376.0,224.0" stroke="black" stroke-width="1" fill="none" />
<polyline points="368.0,216.0,200.0,384.0" stroke="black" stroke-width="1" fill="none" />
<polyline points="232.0,384.0,360.0,256.0" stroke="black" stroke-width="1" fill="none" />
<polyline points="360.0,248.0,224.0,384.0" stroke="black" stroke-width="1" fill="none" />
<polyline points="240.0,384.0,376.0,248.0" stroke="black" stroke-width="1" fill="none" />
<polyline points="368.0,240.0,392.0,216.0" stroke="black" stroke-width="1" fill="none" />
<polyline points="392.0,214.0,384.0,214.0" stroke="black" stroke-width="1" fill="none" />
<polyline points="384.0,206.0,400.0,206.0" stroke="black" stroke-width="1" fill="none" />
<polyline points="400.0,198.0,384.0,198.0" stroke="black" stroke-width="1" fill="none" />
<polyline points="384.0,190.0,400.0,190.0" stroke="black" stroke-width="1" fill="none" />
<polyline points="408.0,182.0,384.0,182.0" stroke="black" stroke-width="1" fill="none" />
<polyline points="384.0,174.0,416.0,174.0" stroke="black" stroke-width="1" fill="none" />
<polyline points="416.0,166.0,384.0,166.0" stroke="black" stroke-width="1" fill="none" />
<polyline points="384.0,158.0,424.0,158.0" stroke="black" stroke-width="1" fill="none" />
<polyline points="424.0,150.0,384.0,150.0" stroke="black" stroke-width="1" fill="none" />
<polyline points="384.0,142.0,424.0,142.0" stroke="black" stroke-width="1" fill="none" />
<polyline points="424.0,134.0,384.0,134.0" stroke="black" stroke-width="1" fill="none" />
<polyline points="384.0,126.0,432.0,126.0" stroke="black" stroke-width="1" fill="none" />
<polyline points="448.0,88.0,456.0,80.0" stroke="black" stroke-width="1" fill="none" />
<polyline points="448.0,80.0,200.0,328.0" stroke="black" stroke-width="1" fill="none" />
<polyline points="200.0,320.0,448.0,72.0" stroke="black" stroke-width="1" fill="none" />
<polyline points="440.0,72.0,192.0,320.0" stroke="black" stroke-width="1" fill="none" />
<polyline points="192.0,312.0,440.0,64.0" stroke="black" stroke-width="1" fill="none" />
<polyline points="440.0,56.0,184.0,312.0" stroke="black" stroke-width="1" fill="none" />
<polyline points="184.0,304.0,200.0,288.0" stroke="black" stroke-width="1" fill="none" />
<polyline points="192.0,288.0,184.0,296.0" stroke="black" stroke-width="1" fill="none" />
<polyline points="200.0,280.0,440.0,40.0" stroke="black" stroke-width="1" fill="none" />
<polyline points="440.0,32.0,192.0,280.0" stroke="black" stroke-width="1" fill="none" />
<polyline points="184.0,280.0,432.0,32.0" stroke="black" stroke-width="1" fill="none" />
<polyline points="432.0,24.0,208.0,248.0" stroke="black" stroke-width="1" fill="none" />
<polyline points="208.0,240.0,432.0,16.0" stroke="black" stroke-width="1" fill="none" />
<polyline points="424.0,16.0,256.0,184.0" stroke="black" stroke-width="1" fill="none" />
<polyline points="256.0,176.0,416.0,16.0" stroke="black" stroke-width="1" fill="none" />
<polyline points="416.0,8.0,256.0,168.0" stroke="black" stroke-width="1" fill="none" />
<polyline points="256.0,160.0,416.0,0.0" stroke="black" stroke-width="1" fill="none" />
<polyline points="408.0,0.0,312.0,96.0" stroke="black" stroke-width="1" fill="none" />
<polyline points="312.0,88.0,400.0,0.0" stroke="black" stroke-width="1" fill="none" />
<polyline points="392.0,0.0,312.0,80.0" stroke="black" stroke-width="1" fill="none" />
<polyline points="312.0,72.0,384.0,0.0" stroke="black" stroke-width="1" fill="none" />
<polyline points="376.0,0.0,304.0,72.0" stroke="black" stroke-width="1" fill="none" />
<polyline points="312.0,56.0,368.0,0.0" stroke="black" stroke-width="1" fill="none" />
<polyline points="360.0,0.0,304.0,56.0" stroke="black" stroke-width="1" fill="none" />
<polyline points="304.0,48.0,352.0,0.0" stroke="black" stroke-width="1" fill="none" />
<polyline points="344.0,0.0,296.0,48.0" stroke="black" stroke-width="1" fill="none" />
<polyline points="296.0,40.0,336.0,0.0" stroke="black" stroke-width="1" fill="none" />
<polyline points="328.0,0.0,288.0,40.0" stroke="black" stroke-width="1" fill="none" />
<polyline points="280.0,40.0,320.0,0.0" stroke="black" stroke-width="1" fill="none" />
<polyline points="320.0,6.0,392.0,6.0" stroke="black" stroke-width="1" fill="none" />
<polyline points="352.0,54.0,432.0,54.0" stroke="black" stroke-width="1" fill="none" />
<polyline points="448.0,40.0,208.0,280.0" stroke="black" stroke-width="1" fill="none" />
<polyline points="208.0,278.0,280.0,278.0" stroke="black" stroke-width="1" fill="none" />
<polyline points="288.0,294.0,256.0,294.0" stroke="black" stroke-width="1" fill="none" />
<polyline points="240.0,270.0,272.0,270.0" stroke="black" stroke-width="1" fill="none" />
<polyline points="272.0,262.0,240.0,262.0" stroke="black" stroke-width="1" fill="none" />
<polyline points="240.0,254.0,264.0,254.0" stroke="black" stroke-width="1" fill="none" />
<polyline points="272.0,246.0,240.0,246.0" stroke="black" stroke-width="1" fill="none" />
<polyline points="240.0,238.0,280.0,238.0" stroke="black" stroke-width="1" fill="none" />
<polyline points="264.0,222.0,248.0,222.0" stroke="black" stroke-width="1" fill="none" />
<polyline points="232.0,230.0,272.0,230.0" stroke="black" stroke-width="1" fill="none" />
<polyline points="240.0,200.0,208.0,232.0" stroke="black" stroke-width="1" fill="none" />
<polyline points="208.0,224.0,232.0,200.0" stroke="black" stroke-width="1" fill="none" />
<polyline points="224.0,200.0,200.0,224.0" stroke="black" stroke-width="1" fill="none" />
<polyline points="192.0,224.0,208.0,208.0" stroke="black" stroke-width="1" fill="none" />
<polyline points="208.0,214.0,216.0,214.0" stroke="black" stroke-width="1" fill="none" />
<polyline points="208.0,222.0,224.0,222.0" stroke="black" stroke-width="1" fill="none" />
<polyline points="224.0,246.0,232.0,246.0" stroke="black" stroke-width="1" fill="none" />
<polyline points="200.0,256.0,184.0,272.0" stroke="black" stroke-width="1" fill="none" />
<polyline points="184.0,270.0,216.0,270.0" stroke="black" stroke-width="1" fill="none" />
<polyline points="224.0,286.0,288.0,286.0" stroke="black" stroke-width="1" fill="none" />
<polyline points="312.0,326.0,344.0,326.0" stroke="black" stroke-width="1" fill="none" />
<polyline points="352.0,328.0,296.0,384.0" stroke="black" stroke-width="1" fill="none" />
<polyline points="344.0,384.0,368.0,360.0" stroke="black" stroke-width="1" fill="none" />
<polyline points="360.0,360.0,336.0,384.0" stroke="black" stroke-width="1" fill="none" />
<polyline points="368.0,384.0,384.0,368.0" stroke="black" stroke-width="1" fill="none" />
<polyline points="384.0,360.0,360.0,384.0" stroke="black" stroke-width="1" fill="none" />
<polyline points="384.0,384.0,400.0,368.0" stroke="black" stroke-width="1" fill="none" />
<polyline points="392.0,368.0,376.0,384.0" stroke="black" stroke-width="1" fill="none" />
<polyline points="392.0,384.0,408.0,368.0" stroke="black" stroke-width="1" fill="none" />
<polyline points="416.0,368.0,400.0,384.0" stroke="black" stroke-width="1" fill="none" />
<polyline points="424.0,384.0,440.0,368.0" stroke="black" stroke-width="1" fill="none" />
<polyline points="432.0,368.0,416.0,384.0" stroke="black" stroke-width="1" fill="none" />
<polyline points="432.0,384.0,440.0,376.0" stroke="black" stroke-width="1" fill="none" />
<polyline points="448.0,376.0,440.0,384.0" stroke="black" stroke-width="1" fill="none" />
<polyline points="456.0,384.0,464.0,376.0" stroke="black" stroke-width="1" fill="none" />
<polyline points="456.0,376.0,448.0,384.0" stroke="black" stroke-width="1" fill="none" />
<polyline points="464.0,384.0,472.0,376.0" stroke="black" stroke-width="1" fill="none" />
<polyline points="424.0,368.0,408.0,384.0" stroke="black" stroke-width="1" fill="none" />
<polyline points="376.0,360.0,352.0,384.0" stroke="black" stroke-width="1" fill="none" />
<polyline points="328.0,384.0,360.0,352.0" stroke="black" stroke-width="1" fill="none" />
<polyline points="352.0,352.0,320.0,384.0" stroke="black" stroke-width="1" fill="none" />
<polyline points="288.0,384.0,352.0,320.0" stroke="black" stroke-width="1" fill="none" />
<polyline points="360.0,304.0,280.0,384.0" stroke="black" stroke-width="1" fill="none" />
<polyline points="264.0,384.0,368.0,280.0" stroke="black" stroke-width="1" fill="none" />
<polyline points="368.0,272.0,256.0,384.0" stroke="black" stroke-width="1" fill="none" />
<polyline points="248.0,384.0,368.0,264.0" stroke="black" stroke-width="1" fill="none" />
<polyline points="368.0,248.0,384.0,232.0" stroke="black" stroke-width="1" fill="none" />
<polyline points="360.0,232.0,208.0,384.0" stroke="black" stroke-width="1" fill="none" />
<polyline points="216.0,384.0,360.0,240.0" stroke="black" stroke-width="1" fill="none" />
<polyline points="360.0,296.0,272.0,384.0" stroke="black" stroke-width="1" fill="none" />
<polyline points="312.0,384.0,344.0,352.0" stroke="black" stroke-width="1" fill="none" />
<polyline points="344.0,344.0,304.0,384.0" stroke="black" stroke-width="1" fill="none" />
<polyline points="304.0,334.0,344.0,334.0" stroke="black" stroke-width="1" fill="none" />
<polyline points="288.0,334.0,272.0,334.0" stroke="black" stroke-width="1" fill="none" />
<polyline points="256.0,342.0,336.0,342.0" stroke="black" stroke-width="1" fill="none" />
<polyline points="344.0,350.0,248.0,350.0" stroke="black" stroke-width="1" fill="none" />
<polyline points="224.0,358.0,352.0,358.0" stroke="black" stroke-width="1" fill="none" />
<polyline points="240.0,318.0,216.0,318.0" stroke="black" stroke-width="1" fill="none" />
<polyline points="208.0,310.0,232.0,310.0" stroke="black" stroke-width="1" fill="none" />
<polyline points="192.0,336.0,152.0,376.0" stroke="black" stroke-width="1" fill="none" />
<polyline points="152.0,374.0,424.0,374.0" stroke="black" stroke-width="1" fill="none" />
<polyline points="352.0,174.0,320.0,174.0" stroke="black" stroke-width="1" fill="none" />
<polyline points="320.0,166.0,344.0,166.0" stroke="black" stroke-width="1" fill="none" />
<polyline points="336.0,158.0,320.0,158.0" stroke="black" stroke-width="1" fill="none" />
<polyline points="312.0,158.0,296.0,158.0" stroke="black" stroke-width="1" fill="none" />
<polyline points="288.0,150.0,312.0,150.0" stroke="black" stroke-width="1" fill="none" />
<polyline points="312.0,142.0,288.0,142.0" stroke="black" stroke-width="1" fill="none" />
<polyline points="264.0,144.0,304.0,104.0" stroke="black" stroke-width="1" fill="none" />
<polyline points="296.0,104.0,264.0,136.0" stroke="black" stroke-width="1" fill="none" />
<polyline points="240.0,152.0,288.0,104.0" stroke="black" stroke-width="1" fill="none" />
<polyline points="280.0,104.0,216.0,168.0" stroke="black" stroke-width="1" fill="none" />
<polyline points="208.0,168.0,272.0,104.0" stroke="black" stroke-width="1" fill="none" />
<polyline points="264.0,104.0,208.0,160.0" stroke="black" stroke-width="1" fill="none" />
<polyline points="200.0,160.0,256.0,104.0" stroke="black" stroke-width="1" fill="none" />
<polyline points="256.0,96.0,200.0,152.0" stroke="black" stroke-width="1" fill="none" />
<polyline points="192.0,152.0,248.0,96.0" stroke="black" stroke-width="1" fill="none" />
<polyline points="240.0,96.0,192.0,144.0" stroke="black" stroke-width="1" fill="none" />
<polyline points="192.0,136.0,232.0,96.0" stroke="black" stroke-width="1" fill="none" />
<polyline points="224.0,96.0,184.0,136.0" stroke="black" stroke-width="1" fill="none" />
<polyline points="184.0,128.0,192.0,120.0" stroke="black" stroke-width="1" fill="none" />
<polyline points="176.0,106.0,440.0,106.0" stroke="black" stroke-width="1" fill="none" />
<polyline points="432.0,118.0,384.0,118.0" stroke="black" stroke-width="1" fill="none" />
<polyline points="384.0,110.0,432.0,110.0" stroke="black" stroke-width="1" fill="none" />
<polyline points="432.0,102.0,384.0,102.0" stroke="black" stroke-width="1" fill="none" />
<polyline points="384.0,94.0,432.0,94.0" stroke="black" stroke-width="1" fill="none" />
<polyline points="440.0,86.0,376.0,86.0" stroke="black" stroke-width="1" fill="none" />
<polyline points="376.0,78.0,440.0,78.0" stroke="black" stroke-width="1" fill="none" />
<polyline points="432.0,70.0,368.0,70.0" stroke="black" stroke-width="1" fill="none" />
<polyline points="360.0,62.0,432.0,62.0" stroke="black" stroke-width="1" fill="none" />
<polyline points="432.0,46.0,336.0,46.0" stroke="black" stroke-width="1" fill="none" />
<polyline points="320.0,38.0,424.0,38.0" stroke="black" stroke-width="1" fill="none" />
<polyline points="408.0,14.0,312.0,14.0" stroke="black" stroke-width="1" fill="none" />
<polyline points="304.0,22.0,408.0,22.0" stroke="black" stroke-width="1" fill="none" />
<polyline points="312.0,0.0,280.0,32.0" stroke="black" stroke-width="1" fill="none" />
<polyline points="272.0,32.0,304.0,0.0" stroke="black" stroke-width="1" fill="none" />
<polyline points="296.0,0.0,264.0,32.0" stroke="black" stroke-width="1" fill="none" />
<polyline points="256.0,32.0,288.0,0.0" stroke="black" stroke-width="1" fill="none" />
<polyline points="280.0,0.0,248.0,32.0" stroke="black" stroke-width="1" fill="none" />
<polyline points="248.0,24.0,272.0,0.0" stroke="black" stroke-width="1" fill="none" />
<polyline points="264.0,0.0,240.0,24.0" stroke="black" stroke-width="1" fill="none" />
<polyline points="232.0,24.0,256.0,0.0" stroke="black" stroke-width="1" fill="none" />
<polyline points="248.0,0.0,224.0,24.0" stroke="black" stroke-width="1" fill="none" />
<polyline points="224.0,34.0,456.0,34.0" stroke="black" stroke-width="1" fill="none" />
<polyline points="416.0,30.0,304.0,30.0" stroke="black" stroke-width="1" fill="none" />
<polyline points="288.0,6.0,248.0,6.0" stroke="black" stroke-width="1" fill="none" />
<polyline points="240.0,0.0,208.0,32.0" stroke="black" stroke-width="1" fill="none" />
<polyline points="216.0,42.0,456.0,42.0" stroke="black" stroke-width="1" fill="none" />
<polyline points="328.0,126.0,320.0,126.0" stroke="black" stroke-width="1" fill="none" />
<polyline points="320.0,182.0,312.0,182.0" stroke="black" stroke-width="1" fill="none" />
<polyline points="296.0,174.0,288.0,174.0" stroke="black" stroke-width="1" fill="none" />
<polyline points="248.0,162.0,424.0,162.0" stroke="black" stroke-width="1" fill="none" />
<polyline points="416.0,178.0,240.0,178.0" stroke="black" stroke-width="1" fill="none" />
<polyline points="240.0,170.0,424.0,170.0" stroke="black" stroke-width="1" fill="none" />
<polyline points="456.0,74.0,240.0,74.0" stroke="black" stroke-width="1" fill="none" />
<polyline points="232.0,74.0,208.0,74.0" stroke="black" stroke-width="1" fill="none" />
<polyline points="208.0,66.0,464.0,66.0" stroke="black" stroke-width="1" fill="none" />
<polyline points="232.0,0.0,192.0,40.0" stroke="black" stroke-width="1" fill="none" />
<polyline points="176.0,56.0,152.0,80.0" stroke="black" stroke-width="1" fill="none" />
<polyline points="152.0,82.0,176.0,82.0" stroke="black" stroke-width="1" fill="none" />
<polyline points="192.0,90.0,456.0,90.0" stroke="black" stroke-width="1" fill="none" />
<polyline points="216.0,96.0,208.0,104.0" stroke="black" stroke-width="1" fill="none" />
<polyline points="208.0,82.0,456.0,82.0" stroke="black" stroke-width="1" fill="none" />
<polyline points="408.0,186.0,224.0,186.0" stroke="black" stroke-width="1" fill="none" />
<polyline points="216.0,178.0,208.0,178.0" stroke="black" stroke-width="1" fill="none" />
<polyline points="208.0,186.0,192.0,186.0" stroke="black" stroke-width="1" fill="none" />
<polyline points="184.0,194.0,408.0,194.0" stroke="black" stroke-width="1" fill="none" />
<polyline points="456.0,50.0,216.0,50.0" stroke="black" stroke-width="1" fill="none" />
<polyline points="208.0,58.0,440.0,58.0" stroke="black" stroke-width="1" fill="none" />
<polyline points="224.0,0.0,208.0,16.0" stroke="black" stroke-width="1" fill="none" />
<polyline points="208.0,8.0,216.0,0.0" stroke="black" stroke-width="1" fill="none" />
<polyline points="216.0,6.0,232.0,6.0" stroke="black" stroke-width="1" fill="none" />
<polyline points="208.0,0.0,200.0,8.0" stroke="black" stroke-width="1" fill="none" />
<polyline points="176.0,16.0,168.0,24.0" stroke="black" stroke-width="1" fill="none" />
<polyline points="152.0,10.0,448.0,10.0" stroke="black" stroke-width="1" fill="none" />
<polyline points="232.0,142.0,208.0,142.0" stroke="black" stroke-width="1" fill="none" />
<polyline points="208.0,134.0,240.0,134.0" stroke="black" stroke-width="1" fill="none" />
<polyline points="224.0,170.0,192.0,170.0" stroke="black" stroke-width="1" fill="none" />
<polyline points="192.0,162.0,232.0,162.0" stroke="black" stroke-width="1" fill="none" />
<polyline points="184.0,154.0,432.0,154.0" stroke="black" stroke-width="1" fill="none" />
<polyline points="200.0,208.0,176.0,232.0" stroke="black" stroke-width="1" fill="none" />
<polyline points="200.0,234.0,384.0,234.0" stroke="black" stroke-width="1" fill="none" />
<polyline points="192.0,256.0,176.0,272.0" stroke="black" stroke-width="1" fill="none" />
<polyline points="168.0,272.0,184.0,256.0" stroke="black" stroke-width="1" fill="none" />
<polyline points="144.0,218.0,392.0,218.0" stroke="black" stroke-width="1" fill="none" />
<polyline points="432.0,146.0,176.0,146.0" stroke="black" stroke-width="1" fill="none" />
<polyline points="160.0,138.0,432.0,138.0" stroke="black" stroke-width="1" fill="none" />
<polyline points="408.0,202.0,168.0,202.0" stroke="black" stroke-width="1" fill="none" />
<polyline points="152.0,210.0,400.0,210.0" stroke="black" stroke-width="1" fill="none" />
<polyline points="208.0,350.0,200.0,350.0" stroke="black" stroke-width="1" fill="none" />
<polyline points="184.0,336.0,152.0,368.0" stroke="black" stroke-width="1" fill="none" />
<polyline points="152.0,366.0,368.0,366.0" stroke="black" stroke-width="1" fill="none" />
<polyline points="176.0,336.0,144.0,368.0" stroke="black" stroke-width="1" fill="none" />
<polyline points="136.0,368.0,120.0,384.0" stroke="black" stroke-width="1" fill="none" />
<polyline points="120.0,376.0,168.0,328.0" stroke="black" stroke-width="1" fill="none" />
<polyline points="160.0,328.0,128.0,360.0" stroke="black" stroke-width="1" fill="none" />
<polyline points="128.0,352.0,160.0,320.0" stroke="black" stroke-width="1" fill="none" />
<polyline points="152.0,320.0,120.0,352.0" stroke="black" stroke-width="1" fill="none" />
<polyline points="120.0,344.0,152.0,312.0" stroke="black" stroke-width="1" fill="none" />
<polyline points="144.0,312.0,128.0,328.0" stroke="black" stroke-width="1" fill="none" />
<polyline points="128.0,320.0,144.0,304.0" stroke="black" stroke-width="1" fill="none" />
<polyline points="136.0,304.0,128.0,312.0" stroke="black" stroke-width="1" fill="none" />
<polyline points="128.0,304.0,136.0,296.0" stroke="black" stroke-width="1" fill="none" />
<polyline points="120.0,298.0,368.0,298.0" stroke="black" stroke-width="1" fill="none" />
<polyline points="176.0,328.0,144.0,360.0" stroke="black" stroke-width="1" fill="none" />
<polyline points="152.0,358.0,216.0,358.0" stroke="black" stroke-width="1" fill="none" />
<polyline points="160.0,382.0,464.0,382.0" stroke="black" stroke-width="1" fill="none" />
<polyline points="136.0,376.0,128.0,384.0" stroke="black" stroke-width="1" fill="none" />
<polyline points="104.0,376.0,96.0,384.0" stroke="black" stroke-width="1" fill="none" />
<polyline points="88.0,384.0,104.0,368.0" stroke="black" stroke-width="1" fill="none" />
<polyline points="104.0,360.0,88.0,376.0" stroke="black" stroke-width="1" fill="none" />
<polyline points="88.0,368.0,104.0,352.0" stroke="black" stroke-width="1" fill="none" />
<polyline points="104.0,344.0,112.0,336.0" stroke="black" stroke-width="1" fill="none" />
<polyline points="104.0,328.0,96.0,336.0" stroke="black" stroke-width="1" fill="none" />
<polyline points="96.0,358.0,104.0,358.0" stroke="black" stroke-width="1" fill="none" />
<polyline points="104.0,366.0,96.0,366.0" stroke="black" stroke-width="1" fill="none" />
<polyline points="96.0,374.0,104.0,374.0" stroke="black" stroke-width="1" fill="none" />
<polyline points="136.0,350.0,176.0,350.0" stroke="black" stroke-width="1" fill="none" />
<polyline points="160.0,342.0,136.0,342.0" stroke="black" stroke-width="1" fill="none" />
<polyline points="136.0,334.0,152.0,334.0" stroke="black" stroke-width="1" fill="none" />
<polyline points="120.0,322.0,352.0,322.0" stroke="black" stroke-width="1" fill="none" />
<polyline points="440.0,122.0,168.0,122.0" stroke="black" stroke-width="1" fill="none" />
<polyline points="168.0,114.0,440.0,114.0" stroke="black" stroke-width="1" fill="none" />
<polyline points="168.0,56.0,152.0,72.0" stroke="black" stroke-width="1" fill="none" />
<polyline points="144.0,74.0,184.0,74.0" stroke="black" stroke-width="1" fill="none" />
<polyline points="168.0,106.0,144.0,106.0" stroke="black" stroke-width="1" fill="none" />
<polyline points="144.0,98.0,168.0,98.0" stroke="black" stroke-width="1" fill="none" />
<polyline points="160.0,122.0,144.0,122.0" stroke="black" stroke-width="1" fill="none" />
<polyline points="144.0,114.0,160.0,114.0" stroke="black" stroke-width="1" fill="none" />
<polyline points="160.0,130.0,440.0,130.0" stroke="black" stroke-width="1" fill="none" />
<polyline points="456.0,2.0,160.0,2.0" stroke="black" stroke-width="1" fill="none" />
<polyline points="128.0,18.0,456.0,18.0" stroke="black" stroke-width="1" fill="none" />
<polyline points="152.0,138.0,144.0,138.0" stroke="black" stroke-width="1" fill="none" />
<polyline points="144.0,154.0,136.0,154.0" stroke="black" stroke-width="1" fill="none" />
<polyline points="136.0,162.0,144.0,162.0" stroke="black" stroke-width="1" fill="none" />
<polyline points="136.0,202.0,128.0,202.0" stroke="black" stroke-width="1" fill="none" />
<polyline points="128.0,210.0,136.0,210.0" stroke="black" stroke-width="1" fill="none" />
<polyline points="136.0,218.0,128.0,218.0" stroke="black" stroke-width="1" fill="none" />
<polyline points="128.0,226.0,392.0,226.0" stroke="black" stroke-width="1" fill="none" />
<polyline points="360.0,314.0,120.0,314.0" stroke="black" stroke-width="1" fill="none" />
<polyline points="120.0,306.0,360.0,306.0" stroke="black" stroke-width="1" fill="none" />
<polyline points="368.0,290.0,120.0,290.0" stroke="black" stroke-width="1" fill="none" />
<polyline points="120.0,282.0,368.0,282.0" stroke="black" stroke-width="1" fill="none" />
<polyline points="368.0,274.0,120.0,274.0" stroke="black" stroke-width="1" fill="none" />
<polyline points="120.0,266.0,376.0,266.0" stroke="black" stroke-width="1" fill="none" />
<polyline points="376.0,258.0,120.0,258.0" stroke="black" stroke-width="1" fill="none" />
<polyline points="120.0,250.0,376.0,250.0" stroke="black" stroke-width="1" fill="none" />
<polyline points="384.0,242.0,120.0,242.0" stroke="black" stroke-width="1" fill="none" />
<polyline points="120.0,234.0,192.0,234.0" stroke="black" stroke-width="1" fill="none" />
<polyline points="104.0,322.0,48.0,322.0" stroke="black" stroke-width="1" fill="none" />
<polyline points="40.0,330.0,352.0,330.0" stroke="black" stroke-width="1" fill="none" />
<polyline points="64.0,352.0,48.0,368.0" stroke="black" stroke-width="1" fill="none" />
<polyline points="40.0,362.0,408.0,362.0" stroke="black" stroke-width="1" fill="none" />
<polyline points="456.0,26.0,112.0,26.0" stroke="black" stroke-width="1" fill="none" />
<polyline points="88.0,34.0,208.0,34.0" stroke="black" stroke-width="1" fill="none" />
<polyline points="208.0,42.0,64.0,42.0" stroke="black" stroke-width="1" fill="none" />
<polyline points="32.0,58.0,192.0,58.0" stroke="black" stroke-width="1" fill="none" />
<polyline points="192.0,66.0,8.0,66.0" stroke="black" stroke-width="1" fill="none" />
<polyline points="0.0,82.0,96.0,82.0" stroke="black" stroke-width="1" fill="none" />
<polyline points="32.0,338.0,352.0,338.0" stroke="black" stroke-width="1" fill="none" />
<polyline points="472.0,378.0,56.0,378.0" stroke="black" stroke-width="1" fill="none" />
<polyline points="40.0,376.0,32.0,384.0" stroke="black" stroke-width="1" fill="none" />
<polyline points="48.0,378.0,0.0,378.0" stroke="black" stroke-width="1" fill="none" />
<polyline points="0.0,370.0,456.0,370.0" stroke="black" stroke-width="1" fill="none" />
<polyline points="352.0,346.0,16.0,346.0" stroke="black" stroke-width="1" fill="none" />
<polyline points="8.0,354.0,368.0,354.0" stroke="black" stroke-width="1" fill="none" />
<polyline points="32.0,362.0,0.0,362.0" stroke="black" stroke-width="1" fill="none" />
</svg>