<svg xmlns="http://www.w3.org/2000/svg" height="286px" width="511px" version="1.1"><polyline points="1.0,0.0,1.0,8.0,1.0,16.0,1.0,24.0,1.0,32.0,1.0,40.0,1.0,48.0,1.0,56.0,1.0,64.0,1.0,72.0,1.0,80.0,1.0,88.0,1.0,96.0,1.0,104.0,1.0,112.0,1.0,120.0,1.0,128.0,1.0,136.0,1.0,144.0,1.0,152.0,1.0,160.0,1.0,168.0,1.0,176.0,1.0,184.0,1.0,192.0,1.0,200.0,1.0,208.0,1.0,216.0,1.0,224.0,1.0,232.0,1.0,240.0,1.0,248.0,1.0,256.0,1.0,264.0,1.0,272.0,1.0,280.0,4.0,286.0,12.0,286.0,20.0,286.0,28.0,286.0,36.0,286.0,44.0,286.0,52.0,286.0,60.0,286.0,68.0,286.0,76.0,286.0,84.0,286.0,92.0,286.0,100.0,286.0,108.0,286.0,116.0,286.0,124.0,286.0,132.0,286.0,140.0,286.0,148.0,286.0,156.0,286.0,164.0,286.0,172.0,286.0,180.0,286.0,188.0,286.0,196.0,286.0,204.0,286.0,212.0,286.0,220.0,286.0,228.0,286.0,236.0,286.0,244.0,286.0,252.0,286.0,260.0,286.0,268.0,286.0,276.0,286.0,284.0,286.0,292.0,286.0,300.0,286.0,308.0,286.0,316.0,286.0,324.0,286.0,332.0,286.0,340.0,286.0,348.0,286.0,356.0,286.0,364.0,286.0,372.0,286.0,380.0,286.0,388.0,286.0,396.0,286.0,404.0,286.0,412.0,286.0,420.0,286.0,428.0,286.0,436.0,286.0,444.0,286.0,452.0,286.0,460.0,286.0,468.0,286.0,476.0,286.0,484.0,286.0,492.0,286.0,500.0,286.0,508.0,286.0" stroke="black" stroke-width="1" fill="none" />
<polyline points="327.0,262.0,323.0,254.0,315.0,252.0,307.0,247.0" stroke="black" stroke-width="1" fill="none" />
<polyline points="331.0,263.0,323.0,244.0,315.0,227.0,307.0,209.0,299.0,189.0,291.0,175.0" stroke="black" stroke-width="1" fill="none" />
<polyline points="240.0,169.0,248.0,176.0,256.0,187.0,264.0,196.0,272.0,205.0,280.0,213.0,288.0,211.0,296.0,205.0,303.0,210.0,306.0,218.0,310.0,226.0,314.0,234.0,306.0,242.0" stroke="black" stroke-width="1" fill="none" />
<polyline points="319.0,258.0,320.0,246.0,312.0,238.0,304.0,244.0,301.0,239.0,293.0,230.0,285.0,219.0,295.0,206.0,298.0,198.0,295.0,190.0,284.0,190.0,279.0,194.0,290.0,186.0,287.0,178.0,286.0,170.0,277.0,166.0,269.0,170.0,261.0,176.0,264.0,174.0,275.0,166.0,281.0,158.0,277.0,150.0,273.0,142.0,268.0,134.0,264.0,126.0,257.0,120.0,249.0,123.0,242.0,130.0,251.0,122.0,259.0,114.0,254.0,106.0,249.0,98.0,234.0,93.0" stroke="black" stroke-width="1" fill="none" />
<polyline points="212.0,91.0,204.0,83.0,192.0,75.0,173.0,67.0,159.0,69.0" stroke="black" stroke-width="1" fill="none" />
<polyline points="154.0,67.0,162.0,62.0,170.0,63.0,178.0,65.0,186.0,68.0,196.0,71.0" stroke="black" stroke-width="1" fill="none" />
<polyline points="202.0,69.0,196.0,61.0,193.0,53.0,200.0,43.0,205.0,35.0,212.0,27.0,207.0,34.0,199.0,42.0" stroke="black" stroke-width="1" fill="none" />
<polyline points="205.0,42.0,213.0,43.0,221.0,42.0,229.0,39.0,237.0,39.0,234.0,47.0,232.0,59.0,234.0,67.0,238.0,58.0,246.0,58.0" stroke="black" stroke-width="1" fill="none" />
<polyline points="254.0,55.0,246.0,51.0,238.0,50.0" stroke="black" stroke-width="1" fill="none" />
<polyline points="236.0,67.0,226.0,66.0,218.0,67.0,213.0,74.0,220.0,66.0" stroke="black" stroke-width="1" fill="none" />
<polyline points="206.0,61.0,207.0,59.0,209.0,48.0,201.0,48.0,193.0,52.0" stroke="black" stroke-width="1" fill="none" />
<polyline points="184.0,47.0,192.0,62.0,200.0,71.0" stroke="black" stroke-width="1" fill="none" />
<polyline points="203.0,76.0,197.0,70.0,189.0,64.0,184.0,56.0,180.0,48.0,178.0,40.0,177.0,32.0,180.0,24.0,187.0,16.0,193.0,13.0,185.0,18.0,177.0,29.0" stroke="black" stroke-width="1" fill="none" />
<polyline points="193.0,18.0,194.0,26.0,202.0,25.0,210.0,22.0,218.0,21.0" stroke="black" stroke-width="1" fill="none" />
<polyline points="162.0,62.0,154.0,70.0,157.0,78.0,157.0,86.0,165.0,93.0,172.0,90.0,180.0,83.0,188.0,82.0,196.0,84.0,204.0,88.0,212.0,88.0,221.0,94.0,229.0,91.0,237.0,90.0,245.0,92.0,253.0,97.0,261.0,109.0,269.0,126.0,277.0,141.0,285.0,156.0" stroke="black" stroke-width="1" fill="none" />
<polyline points="240.0,163.0,239.0,157.0,250.0,149.0,249.0,150.0,241.0,155.0,233.0,162.0,225.0,153.0,217.0,146.0,209.0,136.0" stroke="black" stroke-width="1" fill="none" />
<polyline points="202.0,112.0,210.0,101.0" stroke="black" stroke-width="1" fill="none" />
<polyline points="219.0,113.0,210.0,121.0,209.0,122.0,217.0,115.0" stroke="black" stroke-width="1" fill="none" />
<polyline points="239.0,115.0,226.0,123.0,219.0,131.0,224.0,125.0,232.0,119.0,240.0,115.0" stroke="black" stroke-width="1" fill="none" />
<polyline points="191.0,86.0,206.0,94.0,209.0,102.0,203.0,110.0,201.0,118.0,202.0,126.0,204.0,134.0,208.0,142.0,216.0,150.0,224.0,158.0,232.0,166.0,239.0,174.0,248.0,182.0,253.0,190.0,260.0,198.0,268.0,206.0,275.0,214.0,283.0,222.0,288.0,230.0,293.0,238.0,301.0,246.0,308.0,254.0,318.0,262.0,329.0,270.0" stroke="black" stroke-width="1" fill="none" />
<polyline points="511.0,283.0,511.0,275.0,511.0,267.0,511.0,259.0,511.0,251.0,511.0,243.0,511.0,235.0,511.0,227.0,511.0,219.0,511.0,211.0,511.0,203.0,511.0,195.0,511.0,187.0,511.0,179.0,511.0,171.0,511.0,163.0,511.0,155.0,511.0,147.0,511.0,139.0,511.0,131.0,511.0,123.0,511.0,115.0,511.0,107.0,511.0,99.0,511.0,91.0,511.0,83.0,511.0,75.0,511.0,67.0,511.0,59.0,511.0,51.0,511.0,43.0,511.0,35.0,511.0,27.0,511.0,19.0,511.0,11.0,511.0,3.0,504.0,1.0,496.0,1.0,488.0,1.0,480.0,1.0,472.0,1.0,464.0,1.0,456.0,1.0,448.0,1.0,440.0,1.0,432.0,1.0,424.0,1.0,416.0,1.0,408.0,1.0,400.0,1.0,392.0,1.0,384.0,1.0,376.0,1.0,368.0,1.0,360.0,1.0,352.0,1.0,344.0,1.0,336.0,1.0,328.0,1.0,320.0,1.0,312.0,1.0,304.0,1.0,296.0,1.0,288.0,1.0,280.0,1.0,272.0,1.0,264.0,1.0,256.0,1.0,248.0,1.0,240.0,1.0,232.0,1.0,224.0,1.0,216.0,1.0,208.0,1.0,200.0,1.0,192.0,1.0,184.0,1.0,176.0,1.0,168.0,1.0,160.0,1.0,152.0,1.0,144.0,1.0,136.0,1.0,128.0,1.0,120.0,1.0,112.0,1.0,104.0,1.0,96.0,1.0,88.0,1.0,80.0,1.0,72.0,1.0,64.0,1.0,56.0,1.0,48.0,1.0,40.0,1.0,32.0,1.0,24.0,1.0,16.0,1.0,8.0,1.0,0.0,1.0" stroke="black" stroke-width="1" fill="none" />
<polyline points="160.0,86.0,168.0,85.0" stroke="black" stroke-width="1" fill="none" />
<polyline points="172.0,90.0,181.0,82.0" stroke="black" stroke-width="1" fill="none" />
<polyline points="200.0,74.0,208.0,74.0" stroke="black" stroke-width="1" fill="none" />
<polyline points="208.0,82.0,216.0,82.0" stroke="black" stroke-width="1" fill="none" />
</svg>