<svg xmlns="http://www.w3.org/2000/svg" height="287px" width="511px" version="1.1"><polyline points="1.0,0.0,1.0,8.0,1.0,16.0,1.0,24.0,1.0,32.0,1.0,40.0,1.0,48.0,1.0,56.0,1.0,64.0,1.0,72.0,1.0,80.0,1.0,88.0,1.0,96.0,1.0,104.0,1.0,112.0,1.0,120.0,1.0,128.0,1.0,136.0,1.0,144.0,1.0,152.0,1.0,160.0,1.0,168.0,1.0,176.0,1.0,184.0,1.0,192.0,1.0,200.0,1.0,208.0,1.0,216.0,1.0,224.0,1.0,232.0,1.0,240.0,1.0,248.0,1.0,256.0,1.0,264.0,1.0,272.0,1.0,280.0,3.0,287.0,11.0,287.0,19.0,287.0,27.0,287.0,35.0,287.0,43.0,287.0,51.0,287.0,59.0,287.0,67.0,287.0,75.0,287.0,83.0,287.0,91.0,287.0,99.0,287.0,107.0,287.0,115.0,287.0,123.0,287.0,131.0,287.0,139.0,287.0,147.0,287.0,155.0,287.0,163.0,287.0,171.0,287.0,179.0,287.0,187.0,287.0,195.0,287.0,203.0,287.0,211.0,287.0,219.0,287.0,227.0,287.0,235.0,287.0,243.0,287.0,251.0,287.0,259.0,287.0,267.0,287.0,275.0,287.0,283.0,287.0,291.0,287.0,299.0,287.0,307.0,287.0,315.0,287.0,323.0,287.0,331.0,287.0,339.0,287.0,347.0,287.0,355.0,287.0,363.0,287.0,371.0,287.0,379.0,287.0,387.0,287.0,395.0,287.0,403.0,287.0,411.0,287.0,419.0,287.0,427.0,287.0,435.0,287.0,443.0,287.0,451.0,287.0,459.0,287.0,467.0,287.0,475.0,287.0,483.0,287.0,491.0,287.0,499.0,287.0,507.0,287.0" stroke="black" stroke-width="1" fill="none" />
<polyline points="413.0,140.0,405.0,136.0" stroke="black" stroke-width="1" fill="none" />
<polyline points="404.0,143.0,395.0,153.0,395.0,145.0,395.0,137.0,395.0,129.0" stroke="black" stroke-width="1" fill="none" />
<polyline points="396.0,123.0,402.0,131.0,399.0,139.0,403.0,145.0,400.0,152.0,404.0,157.0,411.0,163.0" stroke="black" stroke-width="1" fill="none" />
<polyline points="380.0,111.0,372.0,111.0" stroke="black" stroke-width="1" fill="none" />
<polyline points="393.0,114.0,385.0,114.0,377.0,107.0,369.0,107.0,361.0,107.0,353.0,104.0,345.0,88.0,337.0,82.0,329.0,69.0,321.0,66.0,313.0,56.0,305.0,56.0,297.0,56.0,289.0,56.0,281.0,56.0,273.0,56.0,265.0,56.0,257.0,53.0,249.0,53.0,241.0,53.0,233.0,50.0,225.0,53.0,217.0,50.0,209.0,53.0,201.0,50.0,193.0,50.0,185.0,53.0,177.0,56.0,169.0,56.0,161.0,59.0,153.0,63.0,145.0,72.0,137.0,75.0,129.0,82.0,121.0,88.0,113.0,95.0,105.0,98.0,97.0,101.0,89.0,101.0,81.0,98.0,73.0,101.0,65.0,101.0,57.0,104.0,49.0,108.0,42.0,114.0,34.0,114.0" stroke="black" stroke-width="1" fill="none" />
<polyline points="34.0,114.0,31.0,122.0,36.0,126.0,37.0,134.0,37.0,142.0,37.0,150.0,41.0,160.0,31.0,165.0,38.0,165.0,46.0,165.0,54.0,165.0,62.0,166.0,70.0,166.0" stroke="black" stroke-width="1" fill="none" />
<polyline points="81.0,177.0,89.0,179.0,89.0,187.0,98.0,192.0,101.0,188.0,108.0,182.0,116.0,185.0" stroke="black" stroke-width="1" fill="none" />
<polyline points="124.0,177.0,130.0,175.0" stroke="black" stroke-width="1" fill="none" />
<polyline points="120.0,162.0,112.0,171.0,104.0,168.0" stroke="black" stroke-width="1" fill="none" />
<polyline points="92.0,165.0,93.0,174.0,90.0,175.0,97.0,176.0,98.0,188.0,100.0,197.0,108.0,197.0,116.0,194.0" stroke="black" stroke-width="1" fill="none" />
<polyline points="82.0,191.0,80.0,183.0,76.0,175.0,82.0,170.0,85.0,162.0,79.0,157.0,82.0,149.0,87.0,141.0,97.0,133.0,91.0,130.0" stroke="black" stroke-width="1" fill="none" />
<polyline points="88.0,127.0,82.0,135.0,75.0,143.0,75.0,151.0,88.0,140.0,97.0,133.0,103.0,127.0,111.0,131.0,119.0,132.0" stroke="black" stroke-width="1" fill="none" />
<polyline points="122.0,143.0,128.0,151.0,121.0,161.0,125.0,164.0,130.0,165.0,136.0,163.0,148.0,158.0" stroke="black" stroke-width="1" fill="none" />
<polyline points="152.0,152.0,144.0,146.0,130.0,149.0,122.0,147.0,121.0,146.0,115.0,139.0,107.0,139.0,94.0,143.0,86.0,146.0,78.0,153.0,64.0,157.0,56.0,158.0,46.0,158.0,37.0,158.0,28.0,159.0,21.0,154.0,18.0,146.0,18.0,138.0,21.0,130.0,26.0,127.0,18.0,133.0" stroke="black" stroke-width="1" fill="none" />
<polyline points="24.0,143.0,26.0,149.0,34.0,155.0" stroke="black" stroke-width="1" fill="none" />
<polyline points="40.0,146.0,48.0,152.0,56.0,149.0,64.0,152.0,72.0,152.0" stroke="black" stroke-width="1" fill="none" />
<polyline points="92.0,148.0,100.0,145.0,108.0,147.0,115.0,143.0" stroke="black" stroke-width="1" fill="none" />
<polyline points="130.0,140.0,138.0,140.0" stroke="black" stroke-width="1" fill="none" />
<polyline points="132.0,158.0,130.0,166.0,126.0,174.0,118.0,183.0,118.0,193.0,121.0,193.0" stroke="black" stroke-width="1" fill="none" />
<polyline points="184.0,167.0,176.0,167.0,174.0,165.0,166.0,167.0,158.0,171.0,159.0,164.0,167.0,156.0,171.0,149.0,168.0,141.0,168.0,133.0,171.0,125.0,172.0,117.0,168.0,108.0,160.0,100.0" stroke="black" stroke-width="1" fill="none" />
<polyline points="170.0,100.0,176.0,100.0,172.0,104.0,174.0,114.0" stroke="black" stroke-width="1" fill="none" />
<polyline points="180.0,107.0,188.0,107.0,196.0,107.0,204.0,107.0,212.0,105.0,220.0,105.0,228.0,105.0,236.0,106.0,240.0,110.0" stroke="black" stroke-width="1" fill="none" />
<polyline points="247.0,131.0,247.0,139.0,247.0,148.0,246.0,153.0,257.0,152.0,265.0,152.0,273.0,152.0" stroke="black" stroke-width="1" fill="none" />
<polyline points="282.0,159.0,282.0,162.0,282.0,170.0,284.0,178.0,284.0,185.0,289.0,181.0,296.0,173.0,303.0,179.0,312.0,178.0,320.0,171.0" stroke="black" stroke-width="1" fill="none" />
<polyline points="323.0,177.0,319.0,174.0,325.0,166.0,319.0,158.0,321.0,153.0" stroke="black" stroke-width="1" fill="none" />
<polyline points="321.0,143.0,329.0,144.0,338.0,152.0,331.0,161.0,334.0,164.0,332.0,172.0,320.0,179.0,322.0,183.0,319.0,194.0,318.0,198.0,324.0,191.0,328.0,194.0,336.0,194.0" stroke="black" stroke-width="1" fill="none" />
<polyline points="346.0,164.0,349.0,161.0,355.0,156.0,357.0,161.0,374.0,156.0,382.0,161.0,390.0,169.0,398.0,171.0,406.0,168.0" stroke="black" stroke-width="1" fill="none" />
<polyline points="343.0,139.0,339.0,133.0,331.0,130.0,323.0,127.0,315.0,127.0,307.0,127.0,299.0,128.0" stroke="black" stroke-width="1" fill="none" />
<polyline points="302.0,130.0,310.0,130.0" stroke="black" stroke-width="1" fill="none" />
<polyline points="310.0,135.0,302.0,133.0" stroke="black" stroke-width="1" fill="none" />
<polyline points="287.0,133.0,295.0,133.0,303.0,138.0,292.0,142.0,287.0,150.0,290.0,158.0,288.0,166.0,290.0,174.0,301.0,181.0,306.0,185.0,314.0,186.0,322.0,183.0,328.0,182.0,334.0,178.0,341.0,172.0,346.0,169.0,354.0,171.0,362.0,171.0,370.0,171.0,378.0,169.0,386.0,166.0" stroke="black" stroke-width="1" fill="none" />
<polyline points="333.0,157.0,325.0,157.0,328.0,146.0,320.0,148.0,311.0,152.0,305.0,159.0,297.0,163.0" stroke="black" stroke-width="1" fill="none" />
<polyline points="294.0,158.0,302.0,154.0,297.0,154.0,293.0,165.0,295.0,173.0,293.0,181.0,297.0,189.0,295.0,193.0,302.0,197.0,310.0,198.0" stroke="black" stroke-width="1" fill="none" />
<polyline points="294.0,188.0,286.0,191.0" stroke="black" stroke-width="1" fill="none" />
<polyline points="290.0,195.0,280.0,187.0,277.0,179.0,278.0,168.0,270.0,171.0" stroke="black" stroke-width="1" fill="none" />
<polyline points="278.0,151.0,280.0,143.0,285.0,143.0,280.0,140.0" stroke="black" stroke-width="1" fill="none" />
<polyline points="284.0,144.0,292.0,142.0,298.0,146.0,300.0,137.0,305.0,143.0,313.0,140.0,318.0,135.0,321.0,130.0,327.0,138.0,332.0,141.0,340.0,151.0,353.0,152.0,361.0,152.0,369.0,152.0,377.0,152.0,385.0,155.0,393.0,155.0" stroke="black" stroke-width="1" fill="none" />
<polyline points="404.0,122.0,396.0,125.0,389.0,120.0,380.0,116.0,372.0,115.0,364.0,114.0,356.0,114.0,349.0,114.0,347.0,109.0,339.0,107.0,328.0,100.0,317.0,101.0,309.0,101.0,301.0,101.0,293.0,101.0,285.0,101.0,277.0,101.0,269.0,101.0,261.0,98.0,250.0,98.0,245.0,103.0,242.0,99.0,242.0,91.0,242.0,83.0,242.0,75.0,245.0,73.0" stroke="black" stroke-width="1" fill="none" />
<polyline points="256.0,67.0,255.0,75.0,255.0,83.0,255.0,91.0,255.0,99.0,248.0,107.0,236.0,112.0,241.0,115.0,239.0,121.0,239.0,128.0,242.0,136.0,242.0,144.0,234.0,155.0,242.0,160.0,250.0,160.0,258.0,160.0,266.0,158.0,272.0,160.0" stroke="black" stroke-width="1" fill="none" />
<polyline points="255.0,167.0,247.0,171.0" stroke="black" stroke-width="1" fill="none" />
<polyline points="277.0,106.0,269.0,106.0,257.0,107.0,247.0,111.0,241.0,101.0,233.0,101.0,225.0,101.0,217.0,101.0,209.0,101.0,201.0,98.0,193.0,101.0,185.0,101.0,177.0,98.0" stroke="black" stroke-width="1" fill="none" />
<polyline points="177.0,83.0,185.0,68.0,193.0,69.0,201.0,69.0,206.0,61.0,209.0,69.0,217.0,69.0,225.0,69.0,233.0,69.0,241.0,64.0,250.0,63.0,257.0,67.0,259.0,63.0,261.0,67.0,269.0,67.0,277.0,69.0,287.0,69.0,294.0,69.0,302.0,70.0,310.0,73.0,314.0,68.0,319.0,75.0,327.0,79.0,333.0,88.0,340.0,91.0" stroke="black" stroke-width="1" fill="none" />
<polyline points="340.0,100.0,330.0,96.0,322.0,82.0" stroke="black" stroke-width="1" fill="none" />
<polyline points="312.0,76.0,312.0,86.0,312.0,94.0" stroke="black" stroke-width="1" fill="none" />
<polyline points="316.0,91.0,317.0,83.0,309.0,82.0" stroke="black" stroke-width="1" fill="none" />
<polyline points="319.0,69.0,328.0,77.0,325.0,78.0,326.0,86.0,323.0,92.0,323.0,98.0,318.0,95.0,323.0,92.0" stroke="black" stroke-width="1" fill="none" />
<polyline points="349.0,99.0,349.0,107.0,351.0,119.0" stroke="black" stroke-width="1" fill="none" />
<polyline points="328.0,137.0,338.0,145.0,342.0,146.0,343.0,154.0,345.0,163.0,344.0,172.0,343.0,177.0,339.0,185.0,338.0,193.0" stroke="black" stroke-width="1" fill="none" />
<polyline points="304.0,64.0,304.0,62.0,292.0,62.0,284.0,61.0,276.0,60.0,268.0,63.0" stroke="black" stroke-width="1" fill="none" />
<polyline points="216.0,59.0,208.0,59.0,200.0,59.0" stroke="black" stroke-width="1" fill="none" />
<polyline points="192.0,60.0,184.0,59.0" stroke="black" stroke-width="1" fill="none" />
<polyline points="168.0,72.0,165.0,76.0,162.0,84.0,159.0,92.0,168.0,98.0,170.0,106.0,165.0,116.0,165.0,124.0,162.0,132.0,159.0,140.0,159.0,148.0,170.0,152.0,181.0,152.0,189.0,149.0,197.0,152.0,205.0,152.0,213.0,152.0,221.0,152.0,229.0,152.0,237.0,152.0" stroke="black" stroke-width="1" fill="none" />
<polyline points="232.0,159.0,224.0,156.0,218.0,165.0,211.0,168.0,199.0,159.0,191.0,162.0,183.0,162.0,175.0,163.0,167.0,156.0,159.0,162.0,150.0,166.0,142.0,168.0,138.0,179.0,129.0,181.0,127.0,191.0,127.0,193.0,134.0,185.0,139.0,177.0,142.0,169.0,143.0,159.0,136.0,156.0,133.0,148.0,130.0,140.0,138.0,140.0,138.0,133.0,130.0,130.0,122.0,127.0,114.0,127.0,106.0,124.0,98.0,124.0,90.0,127.0,82.0,133.0" stroke="black" stroke-width="1" fill="none" />
<polyline points="57.0,109.0,45.0,117.0,41.0,120.0,49.0,115.0,61.0,112.0,69.0,114.0,67.0,109.0,75.0,106.0,81.0,107.0,88.0,106.0,96.0,105.0,103.0,106.0,112.0,103.0" stroke="black" stroke-width="1" fill="none" />
<polyline points="123.0,101.0,131.0,101.0,137.0,102.0,145.0,102.0,153.0,98.0,162.0,95.0,170.0,85.0,177.0,70.0" stroke="black" stroke-width="1" fill="none" />
<polyline points="172.0,67.0,171.0,62.0,163.0,68.0,155.0,66.0" stroke="black" stroke-width="1" fill="none" />
<polyline points="157.0,67.0,151.0,75.0,143.0,81.0,133.0,89.0,126.0,90.0,124.0,99.0,115.0,102.0,123.0,98.0,128.0,90.0,136.0,86.0,139.0,81.0,145.0,79.0,154.0,72.0" stroke="black" stroke-width="1" fill="none" />
<polyline points="160.0,88.0,152.0,95.0,144.0,95.0,136.0,95.0" stroke="black" stroke-width="1" fill="none" />
<polyline points="127.0,82.0,120.0,90.0" stroke="black" stroke-width="1" fill="none" />
<polyline points="162.0,136.0,162.0,144.0,162.0,152.0" stroke="black" stroke-width="1" fill="none" />
<polyline points="217.0,104.0,220.0,112.0,216.0,117.0,221.0,118.0,227.0,120.0,235.0,120.0,243.0,118.0" stroke="black" stroke-width="1" fill="none" />
<polyline points="0.0,1.0,8.0,1.0,16.0,1.0,24.0,1.0,32.0,1.0,40.0,1.0,48.0,1.0,56.0,1.0,64.0,1.0,72.0,1.0,80.0,1.0,88.0,1.0,96.0,1.0,104.0,1.0,112.0,1.0,120.0,1.0,128.0,1.0,136.0,1.0,144.0,1.0,152.0,1.0,160.0,1.0,168.0,1.0,176.0,1.0,184.0,1.0,192.0,1.0,200.0,1.0,208.0,1.0,216.0,1.0,224.0,1.0,232.0,1.0,240.0,1.0,248.0,1.0,256.0,1.0,264.0,1.0,272.0,1.0,280.0,1.0,288.0,1.0,296.0,1.0,304.0,1.0,312.0,1.0,320.0,1.0,328.0,1.0,336.0,1.0,344.0,1.0,352.0,1.0,360.0,1.0,368.0,1.0,376.0,1.0,384.0,1.0,392.0,1.0,400.0,1.0,408.0,1.0,416.0,1.0,424.0,1.0,432.0,1.0,440.0,1.0,448.0,1.0,456.0,1.0,464.0,1.0,472.0,1.0,480.0,1.0,488.0,1.0,496.0,1.0,504.0,1.0,511.0,3.0,511.0,11.0,511.0,19.0,511.0,27.0,511.0,35.0,511.0,43.0,511.0,51.0,511.0,59.0,511.0,67.0,511.0,75.0,511.0,83.0,511.0,91.0,511.0,99.0,511.0,107.0,511.0,115.0,511.0,123.0,511.0,131.0,511.0,139.0,511.0,147.0,511.0,155.0,511.0,163.0,511.0,171.0,511.0,179.0,511.0,187.0,511.0,195.0,511.0,203.0,511.0,211.0,511.0,219.0,511.0,227.0,511.0,235.0,511.0,243.0,511.0,251.0,511.0,259.0,511.0,267.0,511.0,275.0,511.0,283.0" stroke="black" stroke-width="1" fill="none" />
<polyline points="16.0,138.0,40.0,138.0" stroke="black" stroke-width="1" fill="none" />
<polyline points="40.0,136.0,24.0,152.0" stroke="black" stroke-width="1" fill="none" />
<polyline points="24.0,154.0,104.0,154.0" stroke="black" stroke-width="1" fill="none" />
<polyline points="112.0,152.0,128.0,136.0" stroke="black" stroke-width="1" fill="none" />
<polyline points="128.0,142.0,136.0,142.0" stroke="black" stroke-width="1" fill="none" />
<polyline points="136.0,144.0,128.0,152.0" stroke="black" stroke-width="1" fill="none" />
<polyline points="128.0,150.0,136.0,150.0" stroke="black" stroke-width="1" fill="none" />
<polyline points="136.0,152.0,120.0,168.0" stroke="black" stroke-width="1" fill="none" />
<polyline points="120.0,162.0,304.0,162.0" stroke="black" stroke-width="1" fill="none" />
<polyline points="304.0,168.0,288.0,184.0" stroke="black" stroke-width="1" fill="none" />
<polyline points="288.0,182.0,296.0,182.0" stroke="black" stroke-width="1" fill="none" />
<polyline points="304.0,176.0,288.0,192.0" stroke="black" stroke-width="1" fill="none" />
<polyline points="288.0,190.0,296.0,190.0" stroke="black" stroke-width="1" fill="none" />
<polyline points="296.0,194.0,336.0,194.0" stroke="black" stroke-width="1" fill="none" />
<polyline points="336.0,192.0,344.0,184.0" stroke="black" stroke-width="1" fill="none" />
<polyline points="336.0,184.0,328.0,192.0" stroke="black" stroke-width="1" fill="none" />
<polyline points="328.0,190.0,336.0,190.0" stroke="black" stroke-width="1" fill="none" />
<polyline points="336.0,176.0,352.0,160.0" stroke="black" stroke-width="1" fill="none" />
<polyline points="344.0,160.0,336.0,168.0" stroke="black" stroke-width="1" fill="none" />
<polyline points="328.0,168.0,344.0,152.0" stroke="black" stroke-width="1" fill="none" />
<polyline points="344.0,144.0,328.0,160.0" stroke="black" stroke-width="1" fill="none" />
<polyline points="328.0,162.0,416.0,162.0" stroke="black" stroke-width="1" fill="none" />
<polyline points="408.0,160.0,400.0,168.0" stroke="black" stroke-width="1" fill="none" />
<polyline points="400.0,166.0,408.0,166.0" stroke="black" stroke-width="1" fill="none" />
<polyline points="408.0,152.0,392.0,168.0" stroke="black" stroke-width="1" fill="none" />
<polyline points="392.0,160.0,384.0,168.0" stroke="black" stroke-width="1" fill="none" />
<polyline points="384.0,166.0,392.0,166.0" stroke="black" stroke-width="1" fill="none" />
<polyline points="384.0,160.0,376.0,168.0" stroke="black" stroke-width="1" fill="none" />
<polyline points="376.0,160.0,368.0,168.0" stroke="black" stroke-width="1" fill="none" />
<polyline points="368.0,160.0,360.0,168.0" stroke="black" stroke-width="1" fill="none" />
<polyline points="360.0,160.0,352.0,168.0" stroke="black" stroke-width="1" fill="none" />
<polyline points="344.0,166.0,376.0,166.0" stroke="black" stroke-width="1" fill="none" />
<polyline points="392.0,154.0,416.0,154.0" stroke="black" stroke-width="1" fill="none" />
<polyline points="408.0,144.0,400.0,152.0" stroke="black" stroke-width="1" fill="none" />
<polyline points="400.0,150.0,408.0,150.0" stroke="black" stroke-width="1" fill="none" />
<polyline points="400.0,146.0,416.0,146.0" stroke="black" stroke-width="1" fill="none" />
<polyline points="408.0,136.0,400.0,144.0" stroke="black" stroke-width="1" fill="none" />
<polyline points="400.0,138.0,408.0,138.0" stroke="black" stroke-width="1" fill="none" />
<polyline points="400.0,130.0,392.0,130.0" stroke="black" stroke-width="1" fill="none" />
<polyline points="392.0,128.0,400.0,120.0" stroke="black" stroke-width="1" fill="none" />
<polyline points="400.0,122.0,384.0,122.0" stroke="black" stroke-width="1" fill="none" />
<polyline points="376.0,120.0,384.0,112.0" stroke="black" stroke-width="1" fill="none" />
<polyline points="376.0,112.0,368.0,120.0" stroke="black" stroke-width="1" fill="none" />
<polyline points="368.0,114.0,392.0,114.0" stroke="black" stroke-width="1" fill="none" />
<polyline points="360.0,114.0,352.0,114.0" stroke="black" stroke-width="1" fill="none" />
<polyline points="344.0,112.0,352.0,104.0" stroke="black" stroke-width="1" fill="none" />
<polyline points="344.0,96.0,336.0,104.0" stroke="black" stroke-width="1" fill="none" />
<polyline points="336.0,102.0,344.0,102.0" stroke="black" stroke-width="1" fill="none" />
<polyline points="344.0,88.0,328.0,104.0" stroke="black" stroke-width="1" fill="none" />
<polyline points="320.0,104.0,336.0,88.0" stroke="black" stroke-width="1" fill="none" />
<polyline points="336.0,80.0,320.0,96.0" stroke="black" stroke-width="1" fill="none" />
<polyline points="320.0,98.0,352.0,98.0" stroke="black" stroke-width="1" fill="none" />
<polyline points="328.0,80.0,320.0,88.0" stroke="black" stroke-width="1" fill="none" />
<polyline points="312.0,88.0,328.0,72.0" stroke="black" stroke-width="1" fill="none" />
<polyline points="320.0,72.0,312.0,80.0" stroke="black" stroke-width="1" fill="none" />
<polyline points="312.0,82.0,336.0,82.0" stroke="black" stroke-width="1" fill="none" />
<polyline points="320.0,64.0,304.0,80.0" stroke="black" stroke-width="1" fill="none" />
<polyline points="304.0,74.0,328.0,74.0" stroke="black" stroke-width="1" fill="none" />
<polyline points="312.0,64.0,304.0,72.0" stroke="black" stroke-width="1" fill="none" />
<polyline points="304.0,70.0,312.0,70.0" stroke="black" stroke-width="1" fill="none" />
<polyline points="304.0,64.0,296.0,72.0" stroke="black" stroke-width="1" fill="none" />
<polyline points="312.0,90.0,344.0,90.0" stroke="black" stroke-width="1" fill="none" />
<polyline points="328.0,128.0,280.0,176.0" stroke="black" stroke-width="1" fill="none" />
<polyline points="280.0,178.0,344.0,178.0" stroke="black" stroke-width="1" fill="none" />
<polyline points="328.0,176.0,304.0,200.0" stroke="black" stroke-width="1" fill="none" />
<polyline points="312.0,200.0,320.0,192.0" stroke="black" stroke-width="1" fill="none" />
<polyline points="320.0,182.0,328.0,182.0" stroke="black" stroke-width="1" fill="none" />
<polyline points="320.0,170.0,408.0,170.0" stroke="black" stroke-width="1" fill="none" />
<polyline points="344.0,150.0,336.0,150.0" stroke="black" stroke-width="1" fill="none" />
<polyline points="336.0,144.0,320.0,160.0" stroke="black" stroke-width="1" fill="none" />
<polyline points="320.0,154.0,384.0,154.0" stroke="black" stroke-width="1" fill="none" />
<polyline points="336.0,136.0,320.0,152.0" stroke="black" stroke-width="1" fill="none" />
<polyline points="312.0,152.0,328.0,136.0" stroke="black" stroke-width="1" fill="none" />
<polyline points="328.0,142.0,320.0,142.0" stroke="black" stroke-width="1" fill="none" />
<polyline points="320.0,128.0,272.0,176.0" stroke="black" stroke-width="1" fill="none" />
<polyline points="272.0,168.0,288.0,152.0" stroke="black" stroke-width="1" fill="none" />
<polyline points="280.0,152.0,296.0,136.0" stroke="black" stroke-width="1" fill="none" />
<polyline points="296.0,130.0,328.0,130.0" stroke="black" stroke-width="1" fill="none" />
<polyline points="312.0,128.0,296.0,144.0" stroke="black" stroke-width="1" fill="none" />
<polyline points="288.0,138.0,344.0,138.0" stroke="black" stroke-width="1" fill="none" />
<polyline points="312.0,150.0,304.0,150.0" stroke="black" stroke-width="1" fill="none" />
<polyline points="296.0,168.0,280.0,184.0" stroke="black" stroke-width="1" fill="none" />
<polyline points="280.0,186.0,344.0,186.0" stroke="black" stroke-width="1" fill="none" />
<polyline points="344.0,146.0,280.0,146.0" stroke="black" stroke-width="1" fill="none" />
<polyline points="272.0,160.0,264.0,168.0" stroke="black" stroke-width="1" fill="none" />
<polyline points="264.0,160.0,256.0,168.0" stroke="black" stroke-width="1" fill="none" />
<polyline points="256.0,160.0,248.0,168.0" stroke="black" stroke-width="1" fill="none" />
<polyline points="240.0,168.0,256.0,152.0" stroke="black" stroke-width="1" fill="none" />
<polyline points="248.0,152.0,232.0,168.0" stroke="black" stroke-width="1" fill="none" />
<polyline points="224.0,160.0,216.0,168.0" stroke="black" stroke-width="1" fill="none" />
<polyline points="216.0,160.0,208.0,168.0" stroke="black" stroke-width="1" fill="none" />
<polyline points="200.0,168.0,216.0,152.0" stroke="black" stroke-width="1" fill="none" />
<polyline points="200.0,152.0,184.0,168.0" stroke="black" stroke-width="1" fill="none" />
<polyline points="192.0,168.0,200.0,160.0" stroke="black" stroke-width="1" fill="none" />
<polyline points="192.0,152.0,176.0,168.0" stroke="black" stroke-width="1" fill="none" />
<polyline points="176.0,166.0,184.0,166.0" stroke="black" stroke-width="1" fill="none" />
<polyline points="184.0,152.0,168.0,168.0" stroke="black" stroke-width="1" fill="none" />
<polyline points="160.0,168.0,176.0,152.0" stroke="black" stroke-width="1" fill="none" />
<polyline points="168.0,152.0,152.0,168.0" stroke="black" stroke-width="1" fill="none" />
<polyline points="152.0,160.0,120.0,192.0" stroke="black" stroke-width="1" fill="none" />
<polyline points="128.0,192.0,136.0,184.0" stroke="black" stroke-width="1" fill="none" />
<polyline points="144.0,166.0,160.0,166.0" stroke="black" stroke-width="1" fill="none" />
<polyline points="168.0,158.0,176.0,158.0" stroke="black" stroke-width="1" fill="none" />
<polyline points="168.0,144.0,160.0,152.0" stroke="black" stroke-width="1" fill="none" />
<polyline points="160.0,146.0,176.0,146.0" stroke="black" stroke-width="1" fill="none" />
<polyline points="168.0,136.0,160.0,144.0" stroke="black" stroke-width="1" fill="none" />
<polyline points="160.0,138.0,176.0,138.0" stroke="black" stroke-width="1" fill="none" />
<polyline points="176.0,122.0,168.0,122.0" stroke="black" stroke-width="1" fill="none" />
<polyline points="168.0,114.0,176.0,114.0" stroke="black" stroke-width="1" fill="none" />
<polyline points="168.0,112.0,176.0,104.0" stroke="black" stroke-width="1" fill="none" />
<polyline points="176.0,96.0,168.0,104.0" stroke="black" stroke-width="1" fill="none" />
<polyline points="160.0,104.0,176.0,88.0" stroke="black" stroke-width="1" fill="none" />
<polyline points="168.0,88.0,200.0,56.0" stroke="black" stroke-width="1" fill="none" />
<polyline points="192.0,56.0,168.0,80.0" stroke="black" stroke-width="1" fill="none" />
<polyline points="168.0,82.0,184.0,82.0" stroke="black" stroke-width="1" fill="none" />
<polyline points="192.0,72.0,208.0,56.0" stroke="black" stroke-width="1" fill="none" />
<polyline points="208.0,62.0,216.0,62.0" stroke="black" stroke-width="1" fill="none" />
<polyline points="216.0,56.0,208.0,64.0" stroke="black" stroke-width="1" fill="none" />
<polyline points="216.0,72.0,232.0,56.0" stroke="black" stroke-width="1" fill="none" />
<polyline points="224.0,56.0,208.0,72.0" stroke="black" stroke-width="1" fill="none" />
<polyline points="224.0,72.0,240.0,56.0" stroke="black" stroke-width="1" fill="none" />
<polyline points="248.0,56.0,240.0,64.0" stroke="black" stroke-width="1" fill="none" />
<polyline points="240.0,72.0,256.0,56.0" stroke="black" stroke-width="1" fill="none" />
<polyline points="264.0,56.0,248.0,72.0" stroke="black" stroke-width="1" fill="none" />
<polyline points="248.0,78.0,256.0,78.0" stroke="black" stroke-width="1" fill="none" />
<polyline points="256.0,80.0,248.0,88.0" stroke="black" stroke-width="1" fill="none" />
<polyline points="248.0,86.0,256.0,86.0" stroke="black" stroke-width="1" fill="none" />
<polyline points="256.0,88.0,248.0,96.0" stroke="black" stroke-width="1" fill="none" />
<polyline points="248.0,94.0,256.0,94.0" stroke="black" stroke-width="1" fill="none" />
<polyline points="256.0,96.0,232.0,120.0" stroke="black" stroke-width="1" fill="none" />
<polyline points="240.0,120.0,248.0,112.0" stroke="black" stroke-width="1" fill="none" />
<polyline points="240.0,104.0,224.0,120.0" stroke="black" stroke-width="1" fill="none" />
<polyline points="224.0,118.0,240.0,118.0" stroke="black" stroke-width="1" fill="none" />
<polyline points="240.0,122.0,248.0,122.0" stroke="black" stroke-width="1" fill="none" />
<polyline points="248.0,130.0,240.0,130.0" stroke="black" stroke-width="1" fill="none" />
<polyline points="240.0,138.0,248.0,138.0" stroke="black" stroke-width="1" fill="none" />
<polyline points="248.0,146.0,240.0,146.0" stroke="black" stroke-width="1" fill="none" />
<polyline points="224.0,112.0,232.0,104.0" stroke="black" stroke-width="1" fill="none" />
<polyline points="224.0,104.0,216.0,112.0" stroke="black" stroke-width="1" fill="none" />
<polyline points="216.0,114.0,248.0,114.0" stroke="black" stroke-width="1" fill="none" />
<polyline points="240.0,98.0,264.0,98.0" stroke="black" stroke-width="1" fill="none" />
<polyline points="248.0,80.0,272.0,56.0" stroke="black" stroke-width="1" fill="none" />
<polyline points="272.0,64.0,264.0,72.0" stroke="black" stroke-width="1" fill="none" />
<polyline points="256.0,90.0,240.0,90.0" stroke="black" stroke-width="1" fill="none" />
<polyline points="240.0,82.0,256.0,82.0" stroke="black" stroke-width="1" fill="none" />
<polyline points="264.0,74.0,240.0,74.0" stroke="black" stroke-width="1" fill="none" />
<polyline points="200.0,62.0,192.0,62.0" stroke="black" stroke-width="1" fill="none" />
<polyline points="176.0,64.0,168.0,72.0" stroke="black" stroke-width="1" fill="none" />
<polyline points="168.0,74.0,184.0,74.0" stroke="black" stroke-width="1" fill="none" />
<polyline points="168.0,64.0,160.0,72.0" stroke="black" stroke-width="1" fill="none" />
<polyline points="152.0,72.0,120.0,104.0" stroke="black" stroke-width="1" fill="none" />
<polyline points="128.0,104.0,136.0,96.0" stroke="black" stroke-width="1" fill="none" />
<polyline points="144.0,96.0,136.0,104.0" stroke="black" stroke-width="1" fill="none" />
<polyline points="136.0,106.0,360.0,106.0" stroke="black" stroke-width="1" fill="none" />
<polyline points="280.0,166.0,272.0,166.0" stroke="black" stroke-width="1" fill="none" />
<polyline points="176.0,130.0,160.0,130.0" stroke="black" stroke-width="1" fill="none" />
<polyline points="152.0,152.0,144.0,160.0" stroke="black" stroke-width="1" fill="none" />
<polyline points="144.0,152.0,112.0,184.0" stroke="black" stroke-width="1" fill="none" />
<polyline points="112.0,186.0,136.0,186.0" stroke="black" stroke-width="1" fill="none" />
<polyline points="112.0,176.0,96.0,192.0" stroke="black" stroke-width="1" fill="none" />
<polyline points="96.0,190.0,104.0,190.0" stroke="black" stroke-width="1" fill="none" />
<polyline points="96.0,194.0,128.0,194.0" stroke="black" stroke-width="1" fill="none" />
<polyline points="112.0,170.0,304.0,170.0" stroke="black" stroke-width="1" fill="none" />
<polyline points="160.0,96.0,152.0,104.0" stroke="black" stroke-width="1" fill="none" />
<polyline points="152.0,96.0,144.0,104.0" stroke="black" stroke-width="1" fill="none" />
<polyline points="160.0,90.0,176.0,90.0" stroke="black" stroke-width="1" fill="none" />
<polyline points="152.0,66.0,320.0,66.0" stroke="black" stroke-width="1" fill="none" />
<polyline points="312.0,58.0,160.0,58.0" stroke="black" stroke-width="1" fill="none" />
<polyline points="160.0,74.0,136.0,74.0" stroke="black" stroke-width="1" fill="none" />
<polyline points="128.0,82.0,152.0,82.0" stroke="black" stroke-width="1" fill="none" />
<polyline points="128.0,88.0,112.0,104.0" stroke="black" stroke-width="1" fill="none" />
<polyline points="104.0,98.0,184.0,98.0" stroke="black" stroke-width="1" fill="none" />
<polyline points="136.0,136.0,120.0,152.0" stroke="black" stroke-width="1" fill="none" />
<polyline points="120.0,154.0,304.0,154.0" stroke="black" stroke-width="1" fill="none" />
<polyline points="128.0,128.0,120.0,136.0" stroke="black" stroke-width="1" fill="none" />
<polyline points="120.0,138.0,144.0,138.0" stroke="black" stroke-width="1" fill="none" />
<polyline points="112.0,144.0,104.0,152.0" stroke="black" stroke-width="1" fill="none" />
<polyline points="104.0,144.0,80.0,168.0" stroke="black" stroke-width="1" fill="none" />
<polyline points="72.0,168.0,104.0,136.0" stroke="black" stroke-width="1" fill="none" />
<polyline points="104.0,128.0,64.0,168.0" stroke="black" stroke-width="1" fill="none" />
<polyline points="64.0,166.0,80.0,166.0" stroke="black" stroke-width="1" fill="none" />
<polyline points="72.0,170.0,104.0,170.0" stroke="black" stroke-width="1" fill="none" />
<polyline points="104.0,168.0,88.0,184.0" stroke="black" stroke-width="1" fill="none" />
<polyline points="88.0,186.0,104.0,186.0" stroke="black" stroke-width="1" fill="none" />
<polyline points="104.0,176.0,88.0,192.0" stroke="black" stroke-width="1" fill="none" />
<polyline points="80.0,184.0,96.0,168.0" stroke="black" stroke-width="1" fill="none" />
<polyline points="96.0,160.0,80.0,176.0" stroke="black" stroke-width="1" fill="none" />
<polyline points="80.0,178.0,144.0,178.0" stroke="black" stroke-width="1" fill="none" />
<polyline points="96.0,142.0,88.0,142.0" stroke="black" stroke-width="1" fill="none" />
<polyline points="88.0,136.0,96.0,128.0" stroke="black" stroke-width="1" fill="none" />
<polyline points="88.0,130.0,128.0,130.0" stroke="black" stroke-width="1" fill="none" />
<polyline points="120.0,90.0,136.0,90.0" stroke="black" stroke-width="1" fill="none" />
<polyline points="80.0,104.0,72.0,112.0" stroke="black" stroke-width="1" fill="none" />
<polyline points="72.0,104.0,64.0,112.0" stroke="black" stroke-width="1" fill="none" />
<polyline points="64.0,110.0,72.0,110.0" stroke="black" stroke-width="1" fill="none" />
<polyline points="48.0,106.0,120.0,106.0" stroke="black" stroke-width="1" fill="none" />
<polyline points="144.0,146.0,80.0,146.0" stroke="black" stroke-width="1" fill="none" />
<polyline points="80.0,138.0,112.0,138.0" stroke="black" stroke-width="1" fill="none" />
<polyline points="64.0,152.0,48.0,168.0" stroke="black" stroke-width="1" fill="none" />
<polyline points="56.0,168.0,64.0,160.0" stroke="black" stroke-width="1" fill="none" />
<polyline points="56.0,152.0,40.0,168.0" stroke="black" stroke-width="1" fill="none" />
<polyline points="32.0,168.0,48.0,152.0" stroke="black" stroke-width="1" fill="none" />
<polyline points="40.0,152.0,32.0,160.0" stroke="black" stroke-width="1" fill="none" />
<polyline points="32.0,158.0,40.0,158.0" stroke="black" stroke-width="1" fill="none" />
<polyline points="32.0,162.0,104.0,162.0" stroke="black" stroke-width="1" fill="none" />
<polyline points="40.0,144.0,32.0,152.0" stroke="black" stroke-width="1" fill="none" />
<polyline points="24.0,146.0,40.0,146.0" stroke="black" stroke-width="1" fill="none" />
<polyline points="24.0,144.0,40.0,128.0" stroke="black" stroke-width="1" fill="none" />
<polyline points="40.0,120.0,24.0,136.0" stroke="black" stroke-width="1" fill="none" />
<polyline points="24.0,130.0,40.0,130.0" stroke="black" stroke-width="1" fill="none" />
<polyline points="32.0,122.0,48.0,122.0" stroke="black" stroke-width="1" fill="none" />
<polyline points="40.0,114.0,56.0,114.0" stroke="black" stroke-width="1" fill="none" />
</svg>