<svg xmlns="http://www.w3.org/2000/svg" height="287px" width="512px" version="1.1"><polyline points="0.5,0.0,0.5,4.0,0.5,8.0,0.5,12.0,0.5,16.0,0.5,20.0,0.5,24.0,0.5,28.0,0.5,32.0,0.5,36.0,0.5,40.0,0.5,44.0,0.5,48.0,0.5,52.0,0.5,56.0,0.5,60.0,0.5,64.0,0.5,68.0,0.5,72.0,0.5,76.0,0.5,80.0,0.5,84.0,0.5,88.0,0.5,92.0,0.5,96.0,0.5,100.0,0.5,104.0,0.5,108.0,0.5,112.0,0.5,116.0,0.5,120.0,0.5,124.0,0.5,128.0,0.5,132.0,0.5,136.0,0.5,140.0,0.5,144.0,0.5,148.0,0.5,152.0,0.5,156.0,0.5,160.0,0.5,164.0,0.5,168.0,0.5,172.0,0.5,176.0,0.5,180.0,0.5,184.0,0.5,188.0,0.5,192.0,0.5,196.0,0.5,200.0,0.5,204.0,0.5,208.0,0.5,212.0,0.5,216.0,0.5,220.0,0.5,224.0,0.5,228.0,0.5,232.0,0.5,236.0,0.5,240.0,0.5,244.0,0.5,248.0,0.5,252.0,0.5,256.0,0.5,260.0,0.5,264.0,0.5,268.0,0.5,272.0,0.5,276.0,0.5,280.0,0.5,284.0,2.0,287.0,6.0,287.0,10.0,287.0,14.0,287.0,18.0,287.0,22.0,287.0,26.0,287.0,30.0,287.0,34.0,287.0,38.0,287.0,42.0,287.0,46.0,287.0,50.0,287.0,54.0,287.0,58.0,287.0,62.0,287.0,66.0,287.0,70.0,287.0,74.0,287.0,78.0,287.0,82.0,287.0,86.0,287.0,90.0,287.0,94.0,287.0,98.0,287.0,102.0,287.0,106.0,287.0,110.0,287.0,114.0,287.0,118.0,287.0,122.0,287.0,126.0,287.0,130.0,287.0,134.0,287.0,138.0,287.0,142.0,287.0,146.0,287.0,150.0,287.0,154.0,287.0,158.0,287.0,162.0,287.0,166.0,287.0,170.0,287.0,174.0,287.0,178.0,287.0,182.0,287.0,186.0,287.0,190.0,287.0,194.0,287.0,198.0,287.0,202.0,287.0,206.0,287.0,210.0,287.0,214.0,287.0,218.0,287.0,222.0,287.0,226.0,287.0,230.0,287.0,234.0,287.0,238.0,287.0,242.0,287.0,246.0,287.0,250.0,287.0,254.0,287.0,258.0,287.0,262.0,287.0,266.0,287.0,270.0,287.0,274.0,287.0,278.0,287.0,282.0,287.0,286.0,287.0,290.0,287.0,294.0,287.0,298.0,287.0,302.0,287.0,306.0,287.0,310.0,287.0,314.0,287.0,318.0,287.0,322.0,287.0,326.0,287.0,330.0,287.0,334.0,287.0,338.0,287.0,342.0,287.0,346.0,287.0,350.0,287.0,354.0,287.0,358.0,287.0,362.0,287.0,366.0,287.0,370.0,287.0,374.0,287.0,378.0,287.0,382.0,287.0,386.0,287.0,390.0,287.0,394.0,287.0,398.0,287.0,402.0,287.0,406.0,287.0,410.0,287.0,414.0,287.0,418.0,287.0,422.0,287.0,426.0,287.0,430.0,287.0,434.0,287.0,438.0,287.0,442.0,287.0,446.0,287.0,450.0,287.0,454.0,287.0,458.0,287.0,462.0,287.0,466.0,287.0,470.0,287.0,474.0,287.0,478.0,287.0,482.0,287.0,486.0,287.0,490.0,287.0,494.0,287.0,498.0,287.0,502.0,287.0,506.0,287.0,510.0,287.0" stroke="black" stroke-width="1" fill="none" />
<polyline points="329.0,259.0,325.0,249.5,321.0,240.5,317.0,232.0,313.0,223.5,309.0,215.5,305.0,205.5,301.0,196.0" stroke="black" stroke-width="1" fill="none" />
<polyline points="299.0,190.0,295.0,184.0,291.0,177.0" stroke="black" stroke-width="1" fill="none" />
<polyline points="288.0,165.0,284.0,155.5,280.0,147.0,276.0,141.0,272.0,134.0,268.0,125.0" stroke="black" stroke-width="1" fill="none" />
<polyline points="267.5,129.0,265.0,117.0,261.0,110.0,257.0,103.5,253.0,97.5,249.0,94.0,245.0,92.5,241.0,91.5,237.0,91.0,233.0,91.5,229.0,92.0,225.0,93.0,221.0,94.5,217.0,88.5" stroke="black" stroke-width="1" fill="none" />
<polyline points="213.0,74.0,217.0,68.5,221.0,67.0,225.0,67.0,229.0,68.0,233.0,69.0" stroke="black" stroke-width="1" fill="none" />
<polyline points="231.5,61.0,235.5,59.5,239.5,58.5,243.5,59.0,247.5,59.0,251.5,59.0" stroke="black" stroke-width="1" fill="none" />
<polyline points="256.0,57.0,252.0,55.0,248.0,53.0,244.0,51.5,240.0,51.0,236.0,51.0" stroke="black" stroke-width="1" fill="none" />
<polyline points="234.0,59.5,232.5,63.5,235.0,67.5" stroke="black" stroke-width="1" fill="none" />
<polyline points="220.0,67.0,214.5,71.0,213.0,75.0,212.5,79.0" stroke="black" stroke-width="1" fill="none" />
<polyline points="207.5,59.0,211.5,51.5" stroke="black" stroke-width="1" fill="none" />
<polyline points="199.5,50.0,195.0,50.5,193.5,54.5,195.0,58.5,197.5,62.5,200.5,66.5,203.0,70.5,206.0,74.5,208.5,78.5" stroke="black" stroke-width="1" fill="none" />
<polyline points="205.5,68.5,201.5,62.5,197.5,56.0" stroke="black" stroke-width="1" fill="none" />
<polyline points="193.5,53.0,197.5,49.0,201.5,48.5,205.5,49.0,209.5,48.5,213.0,50.0,210.0,54.0,208.0,58.0,207.0,62.0,206.0,66.0,208.5,73.0,207.5,74.5" stroke="black" stroke-width="1" fill="none" />
<polyline points="207.0,79.0,203.0,75.0,199.0,71.0,195.0,66.5,191.0,61.0,187.0,54.0,183.0,45.0" stroke="black" stroke-width="1" fill="none" />
<polyline points="178.0,29.5,182.0,22.5,186.0,18.0,190.0,15.0,194.0,13.0,193.5,18.0,194.0,22.0,194.5,26.0,198.5,26.5,202.5,25.5,206.5,24.0,210.5,22.5,214.5,21.5,215.0,21.0,204.0,25.0" stroke="black" stroke-width="1" fill="none" />
<polyline points="209.5,24.5,212.0,28.5,208.0,34.0,204.0,37.5,200.0,41.0" stroke="black" stroke-width="1" fill="none" />
<polyline points="220.0,43.5,229.0,39.5" stroke="black" stroke-width="1" fill="none" />
<polyline points="235.5,42.0,235.5,46.0,232.5,50.0,233.0,54.0,235.5,46.0" stroke="black" stroke-width="1" fill="none" />
<polyline points="239.0,40.0,235.0,39.0,231.0,39.0,227.0,40.5,223.0,42.0,219.0,44.0,215.0,44.5,211.0,43.5,207.0,43.0,202.5,44.5,200.5,40.5,205.0,36.5,209.0,32.5,212.0,28.5,214.5,24.5" stroke="black" stroke-width="1" fill="none" />
<polyline points="192.5,13.0,187.5,17.0,183.5,21.0,180.0,25.0,178.5,29.0,178.0,33.0,178.0,37.0,178.5,41.0,180.0,45.0,181.0,49.0,183.0,53.0,185.0,57.0,187.5,61.0,190.0,65.0,193.0,69.0,196.5,73.0,201.0,77.0,204.0,78.0,207.5,82.0,215.0,85.0,215.5,88.0,216.5,92.0" stroke="black" stroke-width="1" fill="none" />
<polyline points="210.0,103.0,206.0,107.5,202.0,115.5" stroke="black" stroke-width="1" fill="none" />
<polyline points="211.5,123.0,214.5,120.0" stroke="black" stroke-width="1" fill="none" />
<polyline points="219.5,114.5,215.5,117.0,211.5,120.5,207.5,125.5,206.0,131.0,207.5,125.5,210.5,121.5,215.0,117.5,220.5,113.5" stroke="black" stroke-width="1" fill="none" />
<polyline points="217.5,95.0,213.5,90.5,209.5,86.0,205.0,81.5,201.5,76.0,198.0,75.5,194.0,72.5,190.0,70.5,186.0,69.0,182.0,67.0,178.0,65.5,174.0,64.0,170.0,63.5,166.0,63.0,162.0,63.5,158.0,64.5,154.0,68.5" stroke="black" stroke-width="1" fill="none" />
<polyline points="160.5,63.5,155.0,67.5,155.5,71.5,161.0,70.0,165.0,70.5" stroke="black" stroke-width="1" fill="none" />
<polyline points="172.5,66.5,182.5,70.5,191.5,74.5,198.0,78.5,203.5,82.5,208.5,86.5,212.0,90.5,214.0,94.5" stroke="black" stroke-width="1" fill="none" />
<polyline points="193.0,86.5,202.0,90.5,207.5,94.5,212.5,98.5,210.5,102.5,207.0,106.5,204.0,110.5,202.5,114.5,201.5,118.5,201.5,122.5,202.5,126.5,203.5,130.5,205.0,134.5,206.5,138.5,209.0,142.5,213.0,146.5,217.0,150.5,221.5,154.5,225.0,158.5,229.0,162.5,232.5,166.5,236.5,170.5,240.0,174.5,245.0,178.5,249.0,182.5,251.5,186.5,254.0,190.5,257.0,194.5,261.0,198.5,265.0,202.5,268.5,206.5,272.0,210.5,276.5,214.5,280.0,218.5,283.5,222.5,286.5,226.5,289.0,230.5,291.5,234.5,294.0,238.5,296.5,242.5,301.5,246.5,305.0,250.5,309.0,254.5,313.5,258.5,319.0,262.5,324.5,266.5,329.5,270.5" stroke="black" stroke-width="1" fill="none" />
<polyline points="328.5,267.5,325.0,263.0,321.0,260.0,317.0,257.0,317.0,251.5,321.0,248.0,319.0,244.0,317.0,240.0,316.5,235.5,312.5,227.0,308.0,218.0,303.5,207.0,298.0,204.5,294.0,208.5,290.0,211.5,286.0,213.5,282.0,215.0,278.0,212.0,274.0,208.0,270.0,203.5,266.0,199.0,262.0,195.5,258.0,191.0,254.0,185.0,250.0,179.0,246.0,176.0,242.0,172.5,238.0,168.0,237.0,168.5,239.0,165.0,243.5,161.0,244.5,160.5,240.5,163.5,240.5,166.0" stroke="black" stroke-width="1" fill="none" />
<polyline points="236.5,161.0,240.5,157.0,245.5,153.0,252.0,149.0,252.0,149.0,248.0,151.5,244.0,154.0,240.0,157.5,236.0,161.5,232.0,161.5,228.0,157.5,224.0,153.0,220.0,149.5,216.0,145.5,212.0,142.0,208.0,134.5" stroke="black" stroke-width="1" fill="none" />
<polyline points="233.0,121.5,241.0,117.0" stroke="black" stroke-width="1" fill="none" />
<polyline points="241.0,115.5,237.0,117.5,233.0,119.5,229.0,122.5,225.0,125.5,221.0,129.5,219.5,131.5,223.0,127.5,227.5,123.5,233.0,119.5,240.5,115.5" stroke="black" stroke-width="1" fill="none" />
<polyline points="257.5,120.5,248.5,124.5,242.5,128.5,244.0,127.5,248.0,125.0,252.0,122.5,256.0,121.0,260.0,120.0" stroke="black" stroke-width="1" fill="none" />
<polyline points="245.0,95.5,250.5,99.5,253.5,103.5,255.5,107.5,258.0,111.5,260.5,115.5,263.0,119.5,264.5,124.5,266.0,128.5,267.5,132.5,269.5,136.5,272.0,140.5,274.5,144.5,277.0,148.5,279.0,152.5,281.0,156.5,283.0,160.5,284.5,164.5,286.0,168.5,286.5,172.5,287.5,176.5,289.0,180.5,291.5,184.5,287.5,188.5,282.0,192.5,280.0,196.5,283.0,192.0,287.0,189.0,291.0,187.0" stroke="black" stroke-width="1" fill="none" />
<polyline points="295.0,190.0,297.0,194.0,298.5,198.0,299.5,202.0,301.5,206.0,303.5,210.0,305.0,214.0,306.5,218.0,308.5,222.0,310.5,226.0,312.5,230.0,314.5,234.0,313.0,238.0,307.0,242.0,307.5,242.0,311.5,239.5" stroke="black" stroke-width="1" fill="none" />
<polyline points="305.0,237.5,301.5,242.0,304.5,245.0,308.5,249.5,312.5,253.0,316.5,252.0,320.5,249.5" stroke="black" stroke-width="1" fill="none" />
<polyline points="322.0,250.5,323.5,254.5,325.5,258.5,327.0,262.5,327.5,266.0" stroke="black" stroke-width="1" fill="none" />
<polyline points="312.0,255.5,308.0,251.5" stroke="black" stroke-width="1" fill="none" />
<polyline points="308.5,251.0,312.5,255.0" stroke="black" stroke-width="1" fill="none" />
<polyline points="304.5,238.0,300.5,240.5,296.5,236.5,292.5,230.5,288.5,224.0,284.5,219.0,282.5,218.5,288.0,212.5,293.5,208.5,298.0,204.5" stroke="black" stroke-width="1" fill="none" />
<polyline points="282.5,165.0,278.5,166.0,274.5,167.5,270.5,170.0,266.5,172.5,262.5,176.5,260.5,178.5,264.5,174.5,269.5,170.5,276.5,166.5" stroke="black" stroke-width="1" fill="none" />
<polyline points="284.5,161.0,280.0,151.0" stroke="black" stroke-width="1" fill="none" />
<polyline points="252.0,98.0,244.0,93.5" stroke="black" stroke-width="1" fill="none" />
<polyline points="213.0,95.0,209.0,92.0,205.0,89.0,201.0,86.5,197.0,85.0,193.0,83.5,189.0,82.5,185.0,82.5,181.0,83.0,177.0,85.5,173.0,90.0,169.0,92.5,172.5,90.5,176.0,86.5,182.5,82.5" stroke="black" stroke-width="1" fill="none" />
<polyline points="166.5,89.5,166.5,85.5,164.0,83.0,160.0,84.0,156.5,83.5,157.5,79.5,160.0,75.5,161.0,74.0,157.0,81.0" stroke="black" stroke-width="1" fill="none" />
<polyline points="164.5,86.0,165.0,90.0,166.5,94.0" stroke="black" stroke-width="1" fill="none" />
<polyline points="174.5,65.5,184.5,69.5" stroke="black" stroke-width="1" fill="none" />
<polyline points="0.0,0.5,4.0,0.5,8.0,0.5,12.0,0.5,16.0,0.5,20.0,0.5,24.0,0.5,28.0,0.5,32.0,0.5,36.0,0.5,40.0,0.5,44.0,0.5,48.0,0.5,52.0,0.5,56.0,0.5,60.0,0.5,64.0,0.5,68.0,0.5,72.0,0.5,76.0,0.5,80.0,0.5,84.0,0.5,88.0,0.5,92.0,0.5,96.0,0.5,100.0,0.5,104.0,0.5,108.0,0.5,112.0,0.5,116.0,0.5,120.0,0.5,124.0,0.5,128.0,0.5,132.0,0.5,136.0,0.5,140.0,0.5,144.0,0.5,148.0,0.5,152.0,0.5,156.0,0.5,160.0,0.5,164.0,0.5,168.0,0.5,172.0,0.5,176.0,0.5,180.0,0.5,184.0,0.5,188.0,0.5,192.0,0.5,196.0,0.5,200.0,0.5,204.0,0.5,208.0,0.5,212.0,0.5,216.0,0.5,220.0,0.5,224.0,0.5,228.0,0.5,232.0,0.5,236.0,0.5,240.0,0.5,244.0,0.5,248.0,0.5,252.0,0.5,256.0,0.5,260.0,0.5,264.0,0.5,268.0,0.5,272.0,0.5,276.0,0.5,280.0,0.5,284.0,0.5,288.0,0.5,292.0,0.5,296.0,0.5,300.0,0.5,304.0,0.5,308.0,0.5,312.0,0.5,316.0,0.5,320.0,0.5,324.0,0.5,328.0,0.5,332.0,0.5,336.0,0.5,340.0,0.5,344.0,0.5,348.0,0.5,352.0,0.5,356.0,0.5,360.0,0.5,364.0,0.5,368.0,0.5,372.0,0.5,376.0,0.5,380.0,0.5,384.0,0.5,388.0,0.5,392.0,0.5,396.0,0.5,400.0,0.5,404.0,0.5,408.0,0.5,412.0,0.5,416.0,0.5,420.0,0.5,424.0,0.5,428.0,0.5,432.0,0.5,436.0,0.5,440.0,0.5,444.0,0.5,448.0,0.5,452.0,0.5,456.0,0.5,460.0,0.5,464.0,0.5,468.0,0.5,472.0,0.5,476.0,0.5,480.0,0.5,484.0,0.5,488.0,0.5,492.0,0.5,496.0,0.5,500.0,0.5,504.0,0.5,508.0,0.5,511.5,1.5,511.5,5.5,511.5,9.5,511.5,13.5,511.5,17.5,511.5,21.5,511.5,25.5,511.5,29.5,511.5,33.5,511.5,37.5,511.5,41.5,511.5,45.5,511.5,49.5,511.5,53.5,511.5,57.5,511.5,61.5,511.5,65.5,511.5,69.5,511.5,73.5,511.5,77.5,511.5,81.5,511.5,85.5,511.5,89.5,511.5,93.5,511.5,97.5,511.5,101.5,511.5,105.5,511.5,109.5,511.5,113.5,511.5,117.5,511.5,121.5,511.5,125.5,511.5,129.5,511.5,133.5,511.5,137.5,511.5,141.5,511.5,145.5,511.5,149.5,511.5,153.5,511.5,157.5,511.5,161.5,511.5,165.5,511.5,169.5,511.5,173.5,511.5,177.5,511.5,181.5,511.5,185.5,511.5,189.5,511.5,193.5,511.5,197.5,511.5,201.5,511.5,205.5,511.5,209.5,511.5,213.5,511.5,217.5,511.5,221.5,511.5,225.5,511.5,229.5,511.5,233.5,511.5,237.5,511.5,241.5,511.5,245.5,511.5,249.5,511.5,253.5,511.5,257.5,511.5,261.5,511.5,265.5,511.5,269.5,511.5,273.5,511.5,277.5,511.5,281.5,511.5,285.5" stroke="black" stroke-width="1" fill="none" />
<polyline points="200.0,77.0,208.0,77.0" stroke="black" stroke-width="1" fill="none" />
<polyline points="204.0,81.0,216.0,81.0" stroke="black" stroke-width="1" fill="none" />
<polyline points="216.0,84.0,212.0,88.0" stroke="black" stroke-width="1" fill="none" />
<polyline points="212.0,89.0,216.0,89.0" stroke="black" stroke-width="1" fill="none" />
<polyline points="216.0,93.0,220.0,93.0" stroke="black" stroke-width="1" fill="none" />
<polyline points="216.0,97.0,212.0,97.0" stroke="black" stroke-width="1" fill="none" />
<polyline points="212.0,85.0,216.0,85.0" stroke="black" stroke-width="1" fill="none" />
<polyline points="208.0,69.0,204.0,69.0" stroke="black" stroke-width="1" fill="none" />
<polyline points="212.0,49.0,216.0,49.0" stroke="black" stroke-width="1" fill="none" />
<polyline points="216.0,45.0,212.0,45.0" stroke="black" stroke-width="1" fill="none" />
<polyline points="232.0,61.0,236.0,61.0" stroke="black" stroke-width="1" fill="none" />
<polyline points="252.0,57.0,256.0,57.0" stroke="black" stroke-width="1" fill="none" />
<polyline points="208.0,125.0,204.0,125.0" stroke="black" stroke-width="1" fill="none" />
<polyline points="204.0,129.0,208.0,129.0" stroke="black" stroke-width="1" fill="none" />
<polyline points="292.0,181.0,296.0,181.0" stroke="black" stroke-width="1" fill="none" />
<polyline points="296.0,185.0,292.0,185.0" stroke="black" stroke-width="1" fill="none" />
<polyline points="316.0,233.0,320.0,233.0" stroke="black" stroke-width="1" fill="none" />
<polyline points="316.0,253.0,312.0,253.0" stroke="black" stroke-width="1" fill="none" />
<polyline points="324.0,261.0,332.0,261.0" stroke="black" stroke-width="1" fill="none" />
<polyline points="332.0,265.0,328.0,265.0" stroke="black" stroke-width="1" fill="none" />
<polyline points="304.0,241.0,300.0,241.0" stroke="black" stroke-width="1" fill="none" />
</svg>