<svg xmlns="http://www.w3.org/2000/svg" height="252px" width="511px" version="1.1"><polyline points="1.0,0.0,1.0,8.0,1.0,16.0,1.0,24.0,1.0,32.0,1.0,40.0,1.0,48.0,1.0,56.0,1.0,64.0,1.0,72.0,1.0,80.0,1.0,88.0,1.0,96.0,1.0,104.0,1.0,112.0,1.0,120.0,1.0,128.0,1.0,136.0,1.0,144.0,1.0,152.0,1.0,160.0,1.0,168.0,1.0,176.0,1.0,184.0,1.0,192.0,1.0,200.0,1.0,208.0,1.0,216.0,1.0,224.0,1.0,232.0,1.0,240.0,1.0,248.0,6.0,252.0,14.0,252.0,22.0,252.0,30.0,252.0,38.0,252.0,46.0,252.0,54.0,252.0,62.0,252.0,70.0,252.0,78.0,252.0,86.0,252.0,94.0,252.0,102.0,252.0,110.0,252.0,118.0,252.0,126.0,252.0,134.0,252.0,142.0,252.0,150.0,252.0,158.0,252.0,166.0,252.0,174.0,252.0,182.0,252.0,190.0,252.0,198.0,252.0,206.0,252.0,214.0,252.0,222.0,252.0,230.0,252.0,238.0,252.0,246.0,252.0,254.0,252.0,262.0,252.0,270.0,252.0,278.0,252.0,286.0,252.0,294.0,252.0,302.0,252.0,310.0,252.0,318.0,252.0,326.0,252.0,334.0,252.0,342.0,252.0,350.0,252.0,358.0,252.0,366.0,252.0,374.0,252.0,382.0,252.0,390.0,252.0,398.0,252.0,406.0,252.0,414.0,252.0,422.0,252.0,430.0,252.0,438.0,252.0,446.0,252.0,454.0,252.0,462.0,252.0,470.0,252.0,478.0,252.0,486.0,252.0,494.0,252.0,502.0,252.0,510.0,252.0" stroke="black" stroke-width="1" fill="none" />
<polyline points="469.0,202.0,461.0,221.0,464.0,215.0,463.0,206.0,466.0,198.0,468.0,190.0,469.0,182.0,471.0,174.0,471.0,166.0,471.0,158.0,471.0,150.0,471.0,142.0,471.0,134.0,472.0,126.0,482.0,118.0,484.0,110.0,477.0,102.0,473.0,94.0,465.0,91.0" stroke="black" stroke-width="1" fill="none" />
<polyline points="475.0,98.0,483.0,104.0" stroke="black" stroke-width="1" fill="none" />
<polyline points="489.0,103.0,481.0,95.0" stroke="black" stroke-width="1" fill="none" />
<polyline points="484.0,122.0,479.0,122.0,471.0,127.0" stroke="black" stroke-width="1" fill="none" />
<polyline points="491.0,116.0,493.0,107.0,481.0,98.0,467.0,98.0,459.0,102.0,451.0,111.0" stroke="black" stroke-width="1" fill="none" />
<polyline points="449.0,119.0,451.0,111.0,457.0,103.0,469.0,90.0,461.0,89.0,453.0,94.0,445.0,103.0" stroke="black" stroke-width="1" fill="none" />
<polyline points="452.0,94.0,446.0,102.0,443.0,110.0,441.0,118.0,438.0,126.0,439.0,142.0,439.0,150.0,437.0,158.0,439.0,174.0" stroke="black" stroke-width="1" fill="none" />
<polyline points="431.0,168.0,429.0,166.0,429.0,164.0,422.0,163.0,414.0,163.0,406.0,163.0,397.0,162.0,389.0,162.0" stroke="black" stroke-width="1" fill="none" />
<polyline points="378.0,136.0,386.0,136.0,400.0,136.0" stroke="black" stroke-width="1" fill="none" />
<polyline points="431.0,124.0,423.0,119.0,416.0,115.0,416.0,107.0,417.0,99.0,419.0,91.0,424.0,83.0,419.0,82.0,419.0,91.0" stroke="black" stroke-width="1" fill="none" />
<polyline points="412.0,88.0,420.0,75.0,428.0,70.0" stroke="black" stroke-width="1" fill="none" />
<polyline points="420.0,68.0,413.0,76.0,408.0,84.0,406.0,92.0,404.0,100.0,405.0,108.0" stroke="black" stroke-width="1" fill="none" />
<polyline points="408.0,82.0,416.0,72.0,424.0,66.0,432.0,61.0" stroke="black" stroke-width="1" fill="none" />
<polyline points="450.0,74.0,463.0,79.0,479.0,93.0,489.0,101.0,488.0,109.0,487.0,117.0,480.0,126.0,475.0,135.0,476.0,143.0,476.0,154.0,475.0,167.0,474.0,180.0" stroke="black" stroke-width="1" fill="none" />
<polyline points="437.0,189.0,436.0,197.0,434.0,205.0,434.0,219.0,436.0,227.0,443.0,223.0,451.0,223.0" stroke="black" stroke-width="1" fill="none" />
<polyline points="411.0,216.0,403.0,216.0" stroke="black" stroke-width="1" fill="none" />
<polyline points="417.0,168.0,425.0,168.0" stroke="black" stroke-width="1" fill="none" />
<polyline points="433.0,184.0,432.0,180.0,424.0,180.0,416.0,180.0,408.0,180.0,400.0,180.0,392.0,180.0,384.0,180.0,376.0,180.0,368.0,180.0,360.0,180.0,352.0,180.0,344.0,180.0,336.0,178.0,328.0,178.0,320.0,178.0" stroke="black" stroke-width="1" fill="none" />
<polyline points="316.0,162.0,308.0,161.0" stroke="black" stroke-width="1" fill="none" />
<polyline points="287.0,161.0,283.0,166.0,275.0,166.0,267.0,160.0,259.0,161.0,251.0,161.0,244.0,159.0,236.0,160.0" stroke="black" stroke-width="1" fill="none" />
<polyline points="230.0,132.0,222.0,132.0" stroke="black" stroke-width="1" fill="none" />
<polyline points="200.0,167.0,208.0,167.0,216.0,167.0,224.0,160.0,232.0,160.0,237.0,167.0,245.0,167.0,259.0,167.0" stroke="black" stroke-width="1" fill="none" />
<polyline points="196.0,180.0,188.0,180.0" stroke="black" stroke-width="1" fill="none" />
<polyline points="188.0,176.0,196.0,175.0,204.0,177.0,212.0,177.0,220.0,177.0,228.0,178.0,236.0,178.0,244.0,178.0,252.0,178.0,260.0,178.0,268.0,178.0,276.0,178.0,284.0,178.0,292.0,178.0,300.0,178.0,308.0,178.0,316.0,184.0,316.0,192.0,316.0,200.0,314.0,208.0" stroke="black" stroke-width="1" fill="none" />
<polyline points="317.0,137.0,316.0,145.0,316.0,153.0,318.0,165.0,327.0,161.0,336.0,161.0,344.0,162.0,352.0,162.0,360.0,161.0,370.0,162.0,374.0,165.0,380.0,162.0" stroke="black" stroke-width="1" fill="none" />
<polyline points="355.0,112.0,347.0,112.0" stroke="black" stroke-width="1" fill="none" />
<polyline points="313.0,130.0,305.0,130.0,297.0,130.0,289.0,128.0,281.0,128.0,273.0,128.0,265.0,128.0,257.0,128.0,249.0,128.0,241.0,128.0,233.0,129.0,225.0,129.0,217.0,128.0,209.0,128.0,201.0,128.0,193.0,128.0,183.0,126.0,175.0,128.0,167.0,128.0,159.0,128.0,151.0,126.0,143.0,126.0,135.0,126.0,127.0,127.0,119.0,126.0,111.0,126.0,103.0,126.0,95.0,126.0,87.0,126.0,79.0,126.0,72.0,130.0,64.0,130.0,57.0,122.0,56.0,114.0,53.0,107.0,48.0,99.0,40.0,91.0" stroke="black" stroke-width="1" fill="none" />
<polyline points="36.0,94.0,44.0,102.0,48.0,110.0,53.0,118.0,53.0,126.0,55.0,134.0,55.0,142.0,55.0,150.0,55.0,158.0,57.0,166.0,57.0,174.0,57.0,182.0,58.0,190.0,59.0,198.0,59.0,206.0,65.0,207.0,64.0,214.0" stroke="black" stroke-width="1" fill="none" />
<polyline points="68.0,208.0,76.0,208.0,84.0,208.0,92.0,208.0,100.0,209.0,108.0,209.0,116.0,208.0,124.0,208.0,132.0,209.0,140.0,208.0,148.0,208.0,156.0,208.0,164.0,209.0,172.0,210.0,180.0,210.0" stroke="black" stroke-width="1" fill="none" />
<polyline points="144.0,212.0,136.0,212.0" stroke="black" stroke-width="1" fill="none" />
<polyline points="134.0,166.0,142.0,166.0,151.0,166.0,161.0,162.0,169.0,165.0,172.0,162.0" stroke="black" stroke-width="1" fill="none" />
<polyline points="184.0,160.0,176.0,159.0,168.0,159.0,160.0,159.0,152.0,158.0,144.0,158.0" stroke="black" stroke-width="1" fill="none" />
<polyline points="131.0,158.0,123.0,158.0,112.0,158.0,104.0,158.0" stroke="black" stroke-width="1" fill="none" />
<polyline points="83.0,161.0,75.0,161.0" stroke="black" stroke-width="1" fill="none" />
<polyline points="64.0,174.0,72.0,174.0,80.0,175.0,88.0,176.0,96.0,176.0,104.0,176.0,112.0,176.0,120.0,176.0,128.0,176.0,136.0,176.0,144.0,176.0,152.0,177.0,160.0,176.0,168.0,176.0,176.0,176.0,182.0,184.0,182.0,192.0,183.0,200.0,183.0,208.0,194.0,210.0,202.0,210.0,210.0,210.0,218.0,210.0,226.0,210.0,234.0,210.0,242.0,210.0,250.0,210.0,258.0,210.0,266.0,210.0,274.0,211.0,282.0,210.0,290.0,210.0,298.0,210.0,306.0,211.0,320.0,212.0,328.0,210.0,336.0,212.0,344.0,212.0,352.0,212.0,360.0,212.0,368.0,212.0,376.0,212.0,384.0,212.0,392.0,212.0,400.0,212.0,408.0,212.0,416.0,212.0,424.0,212.0,432.0,212.0" stroke="black" stroke-width="1" fill="none" />
<polyline points="461.0,210.0,453.0,212.0,445.0,212.0,439.0,208.0,440.0,200.0,441.0,192.0,443.0,184.0,443.0,176.0,445.0,168.0,445.0,160.0,446.0,151.0,447.0,143.0" stroke="black" stroke-width="1" fill="none" />
<polyline points="496.0,98.0,488.0,90.0,480.0,85.0,472.0,81.0,464.0,77.0,456.0,74.0,448.0,70.0,440.0,68.0,435.0,67.0,433.0,59.0,434.0,51.0,434.0,43.0,431.0,35.0,430.0,29.0" stroke="black" stroke-width="1" fill="none" />
<polyline points="431.0,28.0,437.0,36.0,438.0,44.0,438.0,54.0,438.0,62.0,425.0,70.0,416.0,78.0,414.0,86.0,411.0,94.0,409.0,102.0,409.0,111.0,412.0,112.0,422.0,126.0" stroke="black" stroke-width="1" fill="none" />
<polyline points="416.0,29.0,407.0,28.0,393.0,28.0,385.0,27.0" stroke="black" stroke-width="1" fill="none" />
<polyline points="368.0,26.0,359.0,26.0,351.0,26.0,343.0,26.0,334.0,26.0,326.0,26.0" stroke="black" stroke-width="1" fill="none" />
<polyline points="305.0,32.0,309.0,40.0,308.0,48.0,309.0,56.0" stroke="black" stroke-width="1" fill="none" />
<polyline points="306.0,48.0,306.0,40.0,308.0,32.0,300.0,25.0" stroke="black" stroke-width="1" fill="none" />
<polyline points="293.0,25.0,301.0,29.0,301.0,37.0,301.0,45.0,303.0,53.0,303.0,61.0,303.0,69.0,303.0,77.0,303.0,85.0,303.0,93.0,303.0,101.0,308.0,112.0,309.0,119.0,316.0,127.0,315.0,134.0,322.0,128.0,330.0,130.0,338.0,130.0,346.0,131.0,354.0,131.0,362.0,131.0,370.0,130.0,378.0,132.0,386.0,132.0,394.0,133.0,402.0,133.0,410.0,133.0,418.0,133.0,426.0,133.0" stroke="black" stroke-width="1" fill="none" />
<polyline points="439.0,33.0,431.0,25.0,423.0,25.0,415.0,25.0,407.0,23.0,399.0,23.0,391.0,23.0,383.0,22.0,375.0,22.0,367.0,20.0,359.0,20.0,351.0,21.0,343.0,21.0,335.0,20.0,327.0,21.0,319.0,20.0,311.0,20.0,303.0,20.0,295.0,20.0,287.0,20.0,279.0,18.0,271.0,19.0,263.0,19.0,255.0,18.0,247.0,19.0,239.0,19.0,231.0,19.0,223.0,18.0,215.0,18.0,207.0,18.0,199.0,18.0,191.0,18.0,183.0,19.0,175.0,18.0,167.0,18.0,159.0,18.0,151.0,18.0,143.0,18.0,135.0,18.0,127.0,17.0,119.0,17.0,111.0,17.0,103.0,18.0,95.0,18.0,87.0,19.0,79.0,19.0,71.0,19.0,63.0,25.0" stroke="black" stroke-width="1" fill="none" />
<polyline points="66.0,28.0,74.0,24.0,68.0,19.0,63.0,27.0,61.0,35.0,61.0,43.0,62.0,51.0,61.0,59.0,46.0,67.0" stroke="black" stroke-width="1" fill="none" />
<polyline points="57.0,67.0,69.0,69.0,77.0,77.0,81.0,85.0,84.0,94.0,84.0,102.0" stroke="black" stroke-width="1" fill="none" />
<polyline points="98.0,105.0,106.0,105.0,114.0,104.0,122.0,102.0,130.0,102.0,138.0,104.0,146.0,102.0,154.0,104.0,162.0,105.0,170.0,104.0,178.0,107.0,186.0,109.0" stroke="black" stroke-width="1" fill="none" />
<polyline points="155.0,131.0,146.0,131.0,138.0,131.0,129.0,131.0,121.0,131.0,108.0,131.0,100.0,131.0,92.0,131.0" stroke="black" stroke-width="1" fill="none" />
<polyline points="80.0,113.0,72.0,117.0,64.0,124.0" stroke="black" stroke-width="1" fill="none" />
<polyline points="56.0,92.0,48.0,83.0,40.0,78.0" stroke="black" stroke-width="1" fill="none" />
<polyline points="34.0,70.0,19.0,78.0,10.0,86.0,5.0,94.0,5.0,108.0,8.0,116.0,16.0,124.0,25.0,132.0,25.0,140.0,25.0,148.0,25.0,156.0,25.0,164.0,27.0,172.0,27.0,180.0,29.0,188.0,29.0,196.0,32.0,204.0,35.0,212.0,39.0,220.0" stroke="black" stroke-width="1" fill="none" />
<polyline points="42.0,213.0,50.0,216.0,58.0,217.0" stroke="black" stroke-width="1" fill="none" />
<polyline points="52.0,206.0,44.0,206.0,33.0,198.0" stroke="black" stroke-width="1" fill="none" />
<polyline points="63.0,192.0,62.0,180.0,61.0,172.0" stroke="black" stroke-width="1" fill="none" />
<polyline points="27.0,116.0,19.0,107.0" stroke="black" stroke-width="1" fill="none" />
<polyline points="15.0,111.0,23.0,119.0" stroke="black" stroke-width="1" fill="none" />
<polyline points="16.0,101.0,24.0,91.0,32.0,90.0,40.0,93.0,48.0,101.0" stroke="black" stroke-width="1" fill="none" />
<polyline points="46.0,92.0,38.0,87.0,30.0,85.0,22.0,87.0,14.0,92.0" stroke="black" stroke-width="1" fill="none" />
<polyline points="5.0,93.0,13.0,82.0,21.0,77.0,29.0,73.0,37.0,70.0,45.0,68.0,53.0,63.0,61.0,58.0,69.0,63.0,74.0,70.0,82.0,81.0" stroke="black" stroke-width="1" fill="none" />
<polyline points="83.0,69.0,75.0,64.0" stroke="black" stroke-width="1" fill="none" />
<polyline points="73.0,66.0,83.0,74.0,87.0,82.0,89.0,90.0,90.0,98.0,89.0,106.0,85.0,110.0" stroke="black" stroke-width="1" fill="none" />
<polyline points="84.0,64.0,76.0,59.0,68.0,53.0" stroke="black" stroke-width="1" fill="none" />
<polyline points="63.0,69.0,71.0,73.0" stroke="black" stroke-width="1" fill="none" />
<polyline points="61.0,70.0,71.0,78.0,76.0,86.0,79.0,94.0,80.0,102.0,81.0,110.0,70.0,118.0,61.0,127.0,61.0,139.0,59.0,147.0,62.0,157.0,59.0,163.0,66.0,152.0,74.0,154.0,82.0,154.0,90.0,154.0,98.0,154.0,106.0,154.0,114.0,154.0,122.0,154.0,130.0,154.0,138.0,155.0,146.0,154.0,154.0,154.0,162.0,155.0,170.0,154.0,178.0,154.0,192.0,154.0,200.0,154.0,208.0,155.0,216.0,155.0,224.0,156.0,232.0,156.0,240.0,156.0,248.0,156.0,256.0,156.0,264.0,156.0,272.0,156.0,280.0,156.0,288.0,156.0,296.0,156.0,304.0,157.0,312.0,156.0,326.0,157.0,334.0,156.0,342.0,157.0,350.0,156.0,358.0,156.0,366.0,158.0,374.0,158.0,382.0,158.0,390.0,158.0,398.0,158.0,406.0,158.0,414.0,158.0,422.0,159.0,430.0,159.0,438.0,158.0" stroke="black" stroke-width="1" fill="none" />
<polyline points="511.0,251.0,511.0,243.0,511.0,235.0,511.0,227.0,511.0,219.0,511.0,211.0,511.0,203.0,511.0,195.0,511.0,187.0,511.0,179.0,511.0,171.0,511.0,163.0,511.0,155.0,511.0,147.0,511.0,139.0,511.0,131.0,511.0,123.0,511.0,115.0,511.0,107.0,511.0,99.0,511.0,91.0,511.0,83.0,511.0,75.0,511.0,67.0,511.0,59.0,511.0,51.0,511.0,43.0,511.0,35.0,511.0,27.0,511.0,19.0,511.0,11.0,511.0,3.0,504.0,1.0,496.0,1.0,488.0,1.0,480.0,1.0,472.0,1.0,464.0,1.0,456.0,1.0,448.0,1.0,440.0,1.0,432.0,1.0,424.0,1.0,416.0,1.0,408.0,1.0,400.0,1.0,392.0,1.0,384.0,1.0,376.0,1.0,368.0,1.0,360.0,1.0,352.0,1.0,344.0,1.0,336.0,1.0,328.0,1.0,320.0,1.0,312.0,1.0,304.0,1.0,296.0,1.0,288.0,1.0,280.0,1.0,272.0,1.0,264.0,1.0,256.0,1.0,248.0,1.0,240.0,1.0,232.0,1.0,224.0,1.0,216.0,1.0,208.0,1.0,200.0,1.0,192.0,1.0,184.0,1.0,176.0,1.0,168.0,1.0,160.0,1.0,152.0,1.0,144.0,1.0,136.0,1.0,128.0,1.0,120.0,1.0,112.0,1.0,104.0,1.0,96.0,1.0,88.0,1.0,80.0,1.0,72.0,1.0,64.0,1.0,56.0,1.0,48.0,1.0,40.0,1.0,32.0,1.0,24.0,1.0,16.0,1.0,8.0,1.0,0.0,1.0" stroke="black" stroke-width="1" fill="none" />
<polyline points="67.0,35.0,66.0,43.0,66.0,51.0,68.0,59.0,83.0,67.0,89.0,74.0,92.0,82.0" stroke="black" stroke-width="1" fill="none" />
<polyline points="98.0,23.0,106.0,23.0,114.0,22.0,122.0,22.0" stroke="black" stroke-width="1" fill="none" />
<polyline points="134.0,23.0,142.0,23.0,150.0,22.0,158.0,22.0,166.0,22.0,174.0,23.0,183.0,23.0,195.0,26.0,204.0,24.0,213.0,23.0,223.0,23.0,231.0,23.0,239.0,23.0,247.0,22.0,255.0,23.0,263.0,23.0,271.0,22.0" stroke="black" stroke-width="1" fill="none" />
<polyline points="309.0,74.0,307.0,76.0,307.0,84.0,307.0,92.0,309.0,103.0,308.0,111.0,317.0,113.0,325.0,111.0,333.0,109.0,341.0,109.0,349.0,109.0,357.0,109.0,365.0,109.0,373.0,109.0,381.0,109.0,389.0,111.0,397.0,111.0" stroke="black" stroke-width="1" fill="none" />
<polyline points="309.0,93.0,309.0,85.0" stroke="black" stroke-width="1" fill="none" />
<polyline points="209.0,160.0,201.0,160.0,193.0,159.0,186.0,162.0,183.0,149.0,183.0,141.0,182.0,127.0,188.0,119.0,193.0,107.0,193.0,99.0,193.0,91.0,193.0,83.0,191.0,75.0,193.0,67.0,193.0,59.0,193.0,51.0,193.0,43.0,193.0,35.0,193.0,27.0" stroke="black" stroke-width="1" fill="none" />
<polyline points="198.0,23.0,199.0,31.0,199.0,39.0,199.0,49.0,198.0,58.0,197.0,66.0,196.0,74.0,196.0,80.0,198.0,82.0,198.0,86.0,198.0,96.0,198.0,100.0,196.0,106.0,197.0,114.0,209.0,109.0,217.0,107.0,225.0,106.0,233.0,104.0,241.0,105.0,249.0,105.0,257.0,105.0,265.0,104.0,273.0,106.0,281.0,107.0,289.0,107.0,297.0,109.0" stroke="black" stroke-width="1" fill="none" />
<polyline points="26.0,90.0,18.0,98.0,16.0,106.0,19.0,114.0" stroke="black" stroke-width="1" fill="none" />
<polyline points="8.0,98.0,16.0,98.0" stroke="black" stroke-width="1" fill="none" />
<polyline points="16.0,90.0,24.0,90.0" stroke="black" stroke-width="1" fill="none" />
<polyline points="24.0,74.0,40.0,74.0" stroke="black" stroke-width="1" fill="none" />
<polyline points="40.0,90.0,48.0,90.0" stroke="black" stroke-width="1" fill="none" />
<polyline points="48.0,98.0,56.0,98.0" stroke="black" stroke-width="1" fill="none" />
<polyline points="56.0,106.0,48.0,106.0" stroke="black" stroke-width="1" fill="none" />
<polyline points="56.0,114.0,64.0,114.0" stroke="black" stroke-width="1" fill="none" />
<polyline points="56.0,122.0,72.0,122.0" stroke="black" stroke-width="1" fill="none" />
<polyline points="64.0,130.0,56.0,130.0" stroke="black" stroke-width="1" fill="none" />
<polyline points="56.0,138.0,64.0,138.0" stroke="black" stroke-width="1" fill="none" />
<polyline points="64.0,146.0,56.0,146.0" stroke="black" stroke-width="1" fill="none" />
<polyline points="56.0,154.0,232.0,154.0" stroke="black" stroke-width="1" fill="none" />
<polyline points="200.0,162.0,448.0,162.0" stroke="black" stroke-width="1" fill="none" />
<polyline points="440.0,160.0,432.0,168.0" stroke="black" stroke-width="1" fill="none" />
<polyline points="440.0,170.0,448.0,170.0" stroke="black" stroke-width="1" fill="none" />
<polyline points="448.0,154.0,440.0,154.0" stroke="black" stroke-width="1" fill="none" />
<polyline points="440.0,146.0,448.0,146.0" stroke="black" stroke-width="1" fill="none" />
<polyline points="448.0,138.0,440.0,138.0" stroke="black" stroke-width="1" fill="none" />
<polyline points="440.0,122.0,448.0,122.0" stroke="black" stroke-width="1" fill="none" />
<polyline points="448.0,114.0,440.0,114.0" stroke="black" stroke-width="1" fill="none" />
<polyline points="448.0,106.0,456.0,106.0" stroke="black" stroke-width="1" fill="none" />
<polyline points="448.0,98.0,464.0,98.0" stroke="black" stroke-width="1" fill="none" />
<polyline points="456.0,90.0,480.0,90.0" stroke="black" stroke-width="1" fill="none" />
<polyline points="480.0,98.0,488.0,98.0" stroke="black" stroke-width="1" fill="none" />
<polyline points="480.0,114.0,496.0,114.0" stroke="black" stroke-width="1" fill="none" />
<polyline points="480.0,130.0,472.0,130.0" stroke="black" stroke-width="1" fill="none" />
<polyline points="472.0,122.0,488.0,122.0" stroke="black" stroke-width="1" fill="none" />
<polyline points="480.0,146.0,472.0,146.0" stroke="black" stroke-width="1" fill="none" />
<polyline points="472.0,194.0,464.0,194.0" stroke="black" stroke-width="1" fill="none" />
<polyline points="464.0,202.0,472.0,202.0" stroke="black" stroke-width="1" fill="none" />
<polyline points="464.0,210.0,456.0,210.0" stroke="black" stroke-width="1" fill="none" />
<polyline points="440.0,210.0,432.0,210.0" stroke="black" stroke-width="1" fill="none" />
<polyline points="432.0,178.0,440.0,178.0" stroke="black" stroke-width="1" fill="none" />
<polyline points="448.0,130.0,424.0,130.0" stroke="black" stroke-width="1" fill="none" />
<polyline points="416.0,114.0,408.0,114.0" stroke="black" stroke-width="1" fill="none" />
<polyline points="408.0,106.0,416.0,106.0" stroke="black" stroke-width="1" fill="none" />
<polyline points="416.0,98.0,408.0,98.0" stroke="black" stroke-width="1" fill="none" />
<polyline points="408.0,90.0,416.0,90.0" stroke="black" stroke-width="1" fill="none" />
<polyline points="408.0,82.0,424.0,82.0" stroke="black" stroke-width="1" fill="none" />
<polyline points="416.0,74.0,432.0,74.0" stroke="black" stroke-width="1" fill="none" />
<polyline points="424.0,66.0,440.0,66.0" stroke="black" stroke-width="1" fill="none" />
<polyline points="440.0,58.0,432.0,58.0" stroke="black" stroke-width="1" fill="none" />
<polyline points="432.0,34.0,440.0,34.0" stroke="black" stroke-width="1" fill="none" />
<polyline points="432.0,26.0,400.0,26.0" stroke="black" stroke-width="1" fill="none" />
<polyline points="472.0,82.0,480.0,82.0" stroke="black" stroke-width="1" fill="none" />
<polyline points="368.0,130.0,360.0,130.0" stroke="black" stroke-width="1" fill="none" />
<polyline points="360.0,154.0,312.0,154.0" stroke="black" stroke-width="1" fill="none" />
<polyline points="312.0,130.0,328.0,130.0" stroke="black" stroke-width="1" fill="none" />
<polyline points="320.0,114.0,312.0,114.0" stroke="black" stroke-width="1" fill="none" />
<polyline points="312.0,106.0,304.0,106.0" stroke="black" stroke-width="1" fill="none" />
<polyline points="304.0,98.0,312.0,98.0" stroke="black" stroke-width="1" fill="none" />
<polyline points="312.0,90.0,304.0,90.0" stroke="black" stroke-width="1" fill="none" />
<polyline points="304.0,82.0,312.0,82.0" stroke="black" stroke-width="1" fill="none" />
<polyline points="312.0,74.0,304.0,74.0" stroke="black" stroke-width="1" fill="none" />
<polyline points="304.0,66.0,312.0,66.0" stroke="black" stroke-width="1" fill="none" />
<polyline points="312.0,58.0,304.0,58.0" stroke="black" stroke-width="1" fill="none" />
<polyline points="304.0,50.0,312.0,50.0" stroke="black" stroke-width="1" fill="none" />
<polyline points="312.0,42.0,304.0,42.0" stroke="black" stroke-width="1" fill="none" />
<polyline points="304.0,34.0,312.0,34.0" stroke="black" stroke-width="1" fill="none" />
<polyline points="312.0,26.0,304.0,26.0" stroke="black" stroke-width="1" fill="none" />
<polyline points="224.0,18.0,216.0,18.0" stroke="black" stroke-width="1" fill="none" />
<polyline points="208.0,18.0,200.0,18.0" stroke="black" stroke-width="1" fill="none" />
<polyline points="200.0,26.0,192.0,26.0" stroke="black" stroke-width="1" fill="none" />
<polyline points="192.0,34.0,200.0,34.0" stroke="black" stroke-width="1" fill="none" />
<polyline points="200.0,42.0,192.0,42.0" stroke="black" stroke-width="1" fill="none" />
<polyline points="192.0,50.0,200.0,50.0" stroke="black" stroke-width="1" fill="none" />
<polyline points="200.0,58.0,192.0,58.0" stroke="black" stroke-width="1" fill="none" />
<polyline points="192.0,66.0,200.0,66.0" stroke="black" stroke-width="1" fill="none" />
<polyline points="200.0,74.0,192.0,74.0" stroke="black" stroke-width="1" fill="none" />
<polyline points="192.0,82.0,200.0,82.0" stroke="black" stroke-width="1" fill="none" />
<polyline points="200.0,90.0,192.0,90.0" stroke="black" stroke-width="1" fill="none" />
<polyline points="192.0,98.0,200.0,98.0" stroke="black" stroke-width="1" fill="none" />
<polyline points="200.0,106.0,192.0,106.0" stroke="black" stroke-width="1" fill="none" />
<polyline points="192.0,122.0,184.0,122.0" stroke="black" stroke-width="1" fill="none" />
<polyline points="184.0,130.0,192.0,130.0" stroke="black" stroke-width="1" fill="none" />
<polyline points="192.0,162.0,168.0,162.0" stroke="black" stroke-width="1" fill="none" />
<polyline points="96.0,98.0,88.0,98.0" stroke="black" stroke-width="1" fill="none" />
<polyline points="80.0,106.0,96.0,106.0" stroke="black" stroke-width="1" fill="none" />
<polyline points="96.0,82.0,88.0,82.0" stroke="black" stroke-width="1" fill="none" />
<polyline points="88.0,66.0,80.0,66.0" stroke="black" stroke-width="1" fill="none" />
<polyline points="80.0,74.0,72.0,74.0" stroke="black" stroke-width="1" fill="none" />
<polyline points="72.0,66.0,64.0,66.0" stroke="black" stroke-width="1" fill="none" />
<polyline points="64.0,58.0,72.0,58.0" stroke="black" stroke-width="1" fill="none" />
<polyline points="72.0,26.0,64.0,26.0" stroke="black" stroke-width="1" fill="none" />
<polyline points="80.0,18.0,88.0,18.0" stroke="black" stroke-width="1" fill="none" />
<polyline points="112.0,18.0,136.0,18.0" stroke="black" stroke-width="1" fill="none" />
<polyline points="64.0,152.0,56.0,160.0" stroke="black" stroke-width="1" fill="none" />
<polyline points="56.0,162.0,64.0,162.0" stroke="black" stroke-width="1" fill="none" />
<polyline points="64.0,178.0,56.0,178.0" stroke="black" stroke-width="1" fill="none" />
<polyline points="32.0,122.0,24.0,122.0" stroke="black" stroke-width="1" fill="none" />
<polyline points="24.0,114.0,16.0,114.0" stroke="black" stroke-width="1" fill="none" />
<polyline points="16.0,106.0,8.0,106.0" stroke="black" stroke-width="1" fill="none" />
</svg>