<svg xmlns="http://www.w3.org/2000/svg" height="511px" width="512px" version="1.1"><polyline points="1.0,0.0,1.0,8.0,1.0,16.0,1.0,24.0,1.0,32.0,1.0,40.0,1.0,48.0,1.0,56.0,1.0,64.0,1.0,72.0,1.0,80.0,1.0,88.0,1.0,96.0,1.0,104.0,1.0,112.0,1.0,120.0,1.0,128.0,1.0,136.0,1.0,144.0,1.0,152.0,1.0,160.0,1.0,168.0,1.0,176.0,1.0,184.0,1.0,192.0,1.0,200.0,1.0,208.0,1.0,216.0,1.0,224.0,1.0,232.0,1.0,240.0,1.0,248.0,1.0,256.0,1.0,264.0,1.0,272.0,1.0,280.0,1.0,288.0,1.0,296.0,1.0,304.0,1.0,312.0,1.0,320.0,1.0,328.0,1.0,336.0,1.0,344.0,1.0,352.0,1.0,360.0,1.0,368.0,1.0,376.0,1.0,384.0,1.0,392.0,1.0,400.0,1.0,408.0,1.0,416.0,1.0,424.0,1.0,432.0,1.0,440.0,1.0,448.0,1.0,456.0,1.0,464.0,1.0,472.0,1.0,480.0,1.0,488.0,1.0,496.0,1.0,509.0,6.0,504.0,14.0,504.0,22.0,504.0,29.0,504.0,37.0,504.0" stroke="black" stroke-width="1" fill="none" />
<polyline points="2.0,511.0,10.0,511.0,18.0,511.0,26.0,511.0,34.0,511.0,42.0,511.0,50.0,511.0,58.0,511.0,66.0,511.0,74.0,511.0,82.0,511.0,90.0,511.0,98.0,511.0,106.0,511.0,114.0,511.0,122.0,511.0,130.0,511.0,138.0,511.0,146.0,511.0,154.0,511.0,162.0,511.0,170.0,511.0,178.0,511.0,186.0,511.0,194.0,511.0,202.0,511.0,210.0,511.0,218.0,511.0,226.0,511.0,234.0,511.0,242.0,511.0,250.0,511.0,258.0,511.0,266.0,511.0,274.0,511.0,282.0,511.0,290.0,511.0,298.0,511.0,306.0,511.0,314.0,511.0,322.0,511.0,330.0,511.0,338.0,511.0,346.0,511.0,354.0,511.0,362.0,511.0,370.0,511.0,378.0,511.0,386.0,511.0,394.0,511.0,402.0,511.0,410.0,511.0,418.0,511.0,426.0,511.0,434.0,511.0,442.0,511.0,450.0,511.0,458.0,511.0,466.0,511.0,474.0,511.0,482.0,511.0,490.0,511.0,498.0,511.0,506.0,511.0" stroke="black" stroke-width="1" fill="none" />
<polyline points="511.0,509.0,511.0,501.0,511.0,493.0,511.0,485.0,510.0,479.0" stroke="black" stroke-width="1" fill="none" />
<polyline points="510.0,449.0,502.0,449.0,511.0,443.0,511.0,435.0,511.0,427.0,511.0,419.0,511.0,411.0,511.0,403.0,511.0,395.0,511.0,387.0,511.0,379.0,511.0,371.0,511.0,363.0,511.0,355.0,511.0,347.0,511.0,339.0,511.0,331.0,511.0,323.0,511.0,315.0,511.0,307.0,511.0,299.0,511.0,291.0,511.0,283.0,509.0,273.0,500.0,269.0,487.0,260.0,496.0,258.0,498.0,250.0,498.0,250.0" stroke="black" stroke-width="1" fill="none" />
<polyline points="509.0,246.0,501.0,246.0,511.0,239.0,511.0,231.0,511.0,223.0,511.0,215.0,511.0,207.0,511.0,199.0,511.0,191.0,511.0,183.0,511.0,175.0,511.0,167.0,511.0,159.0,511.0,151.0,511.0,143.0,511.0,135.0,511.0,127.0,511.0,119.0,511.0,111.0,511.0,103.0,511.0,95.0,511.0,87.0,511.0,79.0,507.0,71.0" stroke="black" stroke-width="1" fill="none" />
<polyline points="506.0,66.0,494.0,62.0,487.0,65.0,481.0,63.0,475.0,66.0,475.0,55.0,475.0,47.0,476.0,44.0" stroke="black" stroke-width="1" fill="none" />
<polyline points="473.0,46.0,473.0,54.0,483.0,48.0" stroke="black" stroke-width="1" fill="none" />
<polyline points="470.0,38.0,478.0,38.0,486.0,37.0,492.0,38.0,500.0,39.0" stroke="black" stroke-width="1" fill="none" />
<polyline points="508.0,43.0,508.0,43.0,511.0,35.0,511.0,27.0,511.0,19.0,511.0,11.0,511.0,3.0,504.0,1.0,496.0,1.0,488.0,1.0,480.0,1.0,472.0,1.0,464.0,1.0,456.0,1.0,448.0,1.0,440.0,1.0,432.0,1.0,424.0,1.0,416.0,1.0,408.0,1.0,400.0,1.0,392.0,1.0,384.0,1.0,376.0,1.0,368.0,1.0,360.0,1.0,352.0,1.0,344.0,1.0,336.0,1.0,328.0,1.0,320.0,1.0,312.0,1.0,304.0,1.0,296.0,1.0,288.0,1.0,280.0,1.0,272.0,1.0,264.0,1.0,256.0,1.0,248.0,1.0,240.0,1.0,232.0,1.0,224.0,1.0,216.0,1.0,208.0,1.0,200.0,1.0,192.0,1.0,184.0,1.0,176.0,1.0,168.0,1.0,160.0,1.0,152.0,1.0,144.0,1.0,136.0,1.0,128.0,1.0,120.0,1.0,112.0,1.0,104.0,1.0,96.0,1.0,88.0,1.0,80.0,1.0,72.0,1.0,64.0,1.0,56.0,1.0,48.0,1.0,40.0,1.0,32.0,1.0,24.0,1.0,16.0,1.0,8.0,1.0,0.0,1.0" stroke="black" stroke-width="1" fill="none" />
<polyline points="2.0,43.0,10.0,45.0,18.0,43.0,26.0,36.0" stroke="black" stroke-width="1" fill="none" />
<polyline points="31.0,44.0,39.0,43.0" stroke="black" stroke-width="1" fill="none" />
<polyline points="42.0,55.0,37.0,60.0,29.0,63.0,27.0,60.0,19.0,63.0,14.0,63.0,6.0,62.0" stroke="black" stroke-width="1" fill="none" />
<polyline points="44.0,137.0,45.0,145.0,45.0,153.0,43.0,161.0,39.0,169.0,42.0,175.0,35.0,177.0,35.0,185.0,31.0,193.0,33.0,201.0,31.0,209.0,35.0,217.0,35.0,225.0,40.0,227.0,39.0,236.0,36.0,244.0,30.0,245.0,28.0,256.0,33.0,263.0,34.0,266.0,36.0,255.0,36.0,261.0" stroke="black" stroke-width="1" fill="none" />
<polyline points="46.0,247.0,45.0,235.0" stroke="black" stroke-width="1" fill="none" />
<polyline points="46.0,244.0,43.0,252.0,47.0,260.0,51.0,268.0,55.0,276.0,59.0,284.0,63.0,292.0,67.0,300.0,75.0,308.0,80.0,316.0,87.0,324.0,95.0,332.0" stroke="black" stroke-width="1" fill="none" />
<polyline points="107.0,337.0,109.0,345.0,111.0,347.0,113.0,351.0,121.0,365.0,117.0,370.0" stroke="black" stroke-width="1" fill="none" />
<polyline points="113.0,367.0,105.0,367.0,99.0,367.0,91.0,366.0" stroke="black" stroke-width="1" fill="none" />
<polyline points="71.0,364.0,72.0,356.0,70.0,355.0,72.0,347.0,60.0,340.0,52.0,342.0,44.0,341.0" stroke="black" stroke-width="1" fill="none" />
<polyline points="45.0,340.0,45.0,348.0,45.0,356.0,46.0,364.0,44.0,372.0" stroke="black" stroke-width="1" fill="none" />
<polyline points="62.0,369.0,63.0,367.0,58.0,357.0,47.0,359.0,47.0,351.0,51.0,350.0" stroke="black" stroke-width="1" fill="none" />
<polyline points="51.0,346.0,49.0,354.0,51.0,367.0,59.0,364.0,70.0,362.0" stroke="black" stroke-width="1" fill="none" />
<polyline points="66.0,347.0,74.0,343.0,81.0,347.0,89.0,347.0,97.0,348.0,105.0,346.0" stroke="black" stroke-width="1" fill="none" />
<polyline points="100.0,346.0,98.0,356.0" stroke="black" stroke-width="1" fill="none" />
<polyline points="125.0,343.0,133.0,347.0,141.0,351.0,149.0,355.0,157.0,355.0" stroke="black" stroke-width="1" fill="none" />
<polyline points="171.0,354.0,162.0,351.0,163.0,348.0,161.0,337.0,151.0,337.0" stroke="black" stroke-width="1" fill="none" />
<polyline points="152.0,328.0,144.0,323.0,142.0,329.0,144.0,328.0,131.0,325.0" stroke="black" stroke-width="1" fill="none" />
<polyline points="151.0,294.0,151.0,286.0,147.0,278.0,153.0,273.0,152.0,267.0,151.0,261.0,150.0,251.0,149.0,244.0,143.0,239.0,139.0,231.0,139.0,223.0,135.0,215.0,136.0,208.0,130.0,199.0,131.0,186.0,127.0,178.0,138.0,174.0,131.0,167.0,135.0,159.0,135.0,151.0,129.0,151.0" stroke="black" stroke-width="1" fill="none" />
<polyline points="148.0,135.0,156.0,136.0" stroke="black" stroke-width="1" fill="none" />
<polyline points="149.0,115.0,157.0,115.0,165.0,119.0,173.0,119.0,181.0,123.0,189.0,123.0,197.0,123.0,205.0,123.0,213.0,123.0,221.0,127.0,229.0,127.0,237.0,127.0,245.0,127.0,253.0,127.0,261.0,127.0,269.0,127.0,277.0,127.0,285.0,127.0,293.0,127.0,301.0,127.0,309.0,127.0,317.0,123.0,325.0,123.0,333.0,123.0,341.0,123.0,349.0,123.0,357.0,123.0,365.0,123.0,373.0,123.0,381.0,119.0,389.0,119.0,397.0,119.0,405.0,119.0,413.0,119.0,421.0,115.0,429.0,115.0,441.0,111.0" stroke="black" stroke-width="1" fill="none" />
<polyline points="439.0,118.0,435.0,126.0" stroke="black" stroke-width="1" fill="none" />
<polyline points="441.0,132.0,433.0,133.0,425.0,134.0" stroke="black" stroke-width="1" fill="none" />
<polyline points="432.0,127.0,424.0,127.0,419.0,131.0,411.0,131.0,403.0,131.0,395.0,131.0,387.0,135.0,379.0,135.0,371.0,135.0,363.0,135.0,355.0,139.0,347.0,139.0,339.0,139.0,331.0,139.0,323.0,139.0,315.0,139.0,311.0,143.0,303.0,143.0,295.0,143.0,287.0,143.0,279.0,138.0,271.0,143.0,263.0,143.0,255.0,143.0,247.0,143.0,239.0,140.0,231.0,137.0,223.0,137.0,215.0,138.0,207.0,139.0,199.0,139.0,191.0,139.0,183.0,135.0,175.0,135.0,167.0,131.0,159.0,131.0,151.0,131.0,143.0,127.0,135.0,123.0,129.0,131.0,129.0,123.0,127.0,121.0" stroke="black" stroke-width="1" fill="none" />
<polyline points="115.0,107.0,115.0,111.0,115.0,119.0,115.0,127.0,112.0,135.0,109.0,137.0,115.0,137.0,119.0,141.0" stroke="black" stroke-width="1" fill="none" />
<polyline points="95.0,149.0,87.0,149.0" stroke="black" stroke-width="1" fill="none" />
<polyline points="64.0,153.0,62.0,153.0,52.0,160.0,63.0,162.0,71.0,163.0,85.0,163.0,98.0,164.0,103.0,168.0,103.0,170.0" stroke="black" stroke-width="1" fill="none" />
<polyline points="117.0,184.0,119.0,191.0,123.0,199.0,127.0,207.0" stroke="black" stroke-width="1" fill="none" />
<polyline points="141.0,203.0,147.0,211.0,152.0,221.0,151.0,233.0,159.0,242.0,167.0,246.0,175.0,245.0,183.0,246.0,191.0,246.0,199.0,240.0,207.0,246.0" stroke="black" stroke-width="1" fill="none" />
<polyline points="198.0,243.0,198.0,251.0,198.0,256.0,198.0,262.0,191.0,273.0,199.0,266.0,205.0,271.0" stroke="black" stroke-width="1" fill="none" />
<polyline points="190.0,266.0,183.0,256.0" stroke="black" stroke-width="1" fill="none" />
<polyline points="157.0,290.0,155.0,298.0,155.0,306.0,155.0,314.0,159.0,322.0,159.0,330.0,167.0,333.0,169.0,341.0,167.0,349.0,167.0,357.0,174.0,365.0,175.0,372.0,177.0,380.0,179.0,388.0,181.0,396.0,184.0,404.0,186.0,412.0,189.0,420.0,192.0,428.0,195.0,436.0,201.0,444.0,210.0,452.0,214.0,455.0,232.0,463.0" stroke="black" stroke-width="1" fill="none" />
<polyline points="253.0,467.0,261.0,467.0" stroke="black" stroke-width="1" fill="none" />
<polyline points="263.0,457.0,263.0,449.0,263.0,447.0" stroke="black" stroke-width="1" fill="none" />
<polyline points="281.0,463.0,289.0,463.0,297.0,463.0" stroke="black" stroke-width="1" fill="none" />
<polyline points="289.0,471.0,281.0,471.0" stroke="black" stroke-width="1" fill="none" />
<polyline points="300.0,459.0,299.0,451.0,300.0,443.0" stroke="black" stroke-width="1" fill="none" />
<polyline points="300.0,443.0,308.0,444.0,316.0,443.0,324.0,445.0,332.0,447.0,340.0,449.0,348.0,447.0,356.0,443.0" stroke="black" stroke-width="1" fill="none" />
<polyline points="363.0,439.0,368.0,435.0,367.0,427.0,367.0,427.0" stroke="black" stroke-width="1" fill="none" />
<polyline points="382.0,439.0,374.0,447.0,366.0,453.0,358.0,458.0,350.0,463.0,342.0,466.0,335.0,476.0,331.0,470.0,323.0,473.0,315.0,473.0,307.0,475.0,299.0,475.0,291.0,475.0,283.0,475.0,275.0,475.0,267.0,474.0,259.0,473.0,251.0,471.0,243.0,469.0,235.0,466.0,227.0,463.0,219.0,460.0,215.0,457.0,207.0,454.0,199.0,445.0,189.0,448.0,181.0,450.0,173.0,449.0,165.0,450.0,159.0,445.0,151.0,444.0,143.0,443.0,135.0,443.0,127.0,446.0" stroke="black" stroke-width="1" fill="none" />
<polyline points="130.0,443.0,130.0,451.0,130.0,459.0,130.0,467.0,130.0,475.0,137.0,472.0,143.0,469.0,150.0,467.0,160.0,474.0,166.0,469.0,175.0,471.0,183.0,469.0,186.0,464.0" stroke="black" stroke-width="1" fill="none" />
<polyline points="186.0,460.0,181.0,454.0" stroke="black" stroke-width="1" fill="none" />
<polyline points="182.0,462.0,185.0,472.0" stroke="black" stroke-width="1" fill="none" />
<polyline points="207.0,466.0,199.0,469.0,192.0,469.0,192.0,467.0,196.0,457.0,198.0,450.0,191.0,442.0,187.0,434.0,183.0,426.0,183.0,418.0,179.0,410.0,175.0,402.0,175.0,394.0,171.0,386.0,171.0,378.0,168.0,372.0" stroke="black" stroke-width="1" fill="none" />
<polyline points="180.0,400.0,188.0,424.0,195.0,440.0,202.0,435.0" stroke="black" stroke-width="1" fill="none" />
<polyline points="202.0,438.0,201.0,439.0,209.0,439.0,217.0,443.0,225.0,447.0,233.0,451.0,241.0,455.0,245.0,460.0,250.0,459.0,258.0,459.0" stroke="black" stroke-width="1" fill="none" />
<polyline points="335.0,473.0,341.0,466.0,358.0,458.0,370.0,450.0,379.0,442.0,385.0,434.0,387.0,426.0,389.0,418.0,391.0,410.0,392.0,402.0,394.0,394.0,395.0,386.0,397.0,378.0,399.0,370.0,401.0,362.0,402.0,357.0" stroke="black" stroke-width="1" fill="none" />
<polyline points="405.0,365.0,413.0,367.0" stroke="black" stroke-width="1" fill="none" />
<polyline points="417.0,372.0,411.0,363.0,411.0,359.0,413.0,358.0,411.0,354.0,413.0,346.0" stroke="black" stroke-width="1" fill="none" />
<polyline points="413.0,343.0,421.0,347.0,429.0,346.0,437.0,348.0,445.0,346.0" stroke="black" stroke-width="1" fill="none" />
<polyline points="441.0,346.0,439.0,355.0,447.0,356.0,464.0,357.0" stroke="black" stroke-width="1" fill="none" />
<polyline points="466.0,347.0,458.0,347.0" stroke="black" stroke-width="1" fill="none" />
<polyline points="450.0,340.0,450.0,340.0,447.0,348.0,454.0,344.0,452.0,352.0,454.0,359.0,452.0,370.0,459.0,372.0" stroke="black" stroke-width="1" fill="none" />
<polyline points="455.0,367.0,447.0,367.0,441.0,367.0,433.0,367.0,433.0,358.0" stroke="black" stroke-width="1" fill="none" />
<polyline points="399.0,335.0,399.0,327.0,403.0,319.0,403.0,311.0,407.0,303.0,407.0,295.0,407.0,291.0" stroke="black" stroke-width="1" fill="none" />
<polyline points="367.0,272.0,359.0,271.0" stroke="black" stroke-width="1" fill="none" />
<polyline points="357.0,266.0,365.0,266.0" stroke="black" stroke-width="1" fill="none" />
<polyline points="372.0,247.0,380.0,246.0" stroke="black" stroke-width="1" fill="none" />
<polyline points="371.0,243.0,369.0,245.0,369.0,253.0,369.0,260.0,368.0,271.0,375.0,266.0" stroke="black" stroke-width="1" fill="none" />
<polyline points="371.0,239.0,363.0,247.0,355.0,246.0,347.0,247.0,339.0,245.0,331.0,246.0,323.0,242.0,315.0,239.0,307.0,240.0,299.0,242.0" stroke="black" stroke-width="1" fill="none" />
<polyline points="303.0,245.0,299.0,244.0,300.0,252.0,300.0,260.0,300.0,268.0,299.0,276.0" stroke="black" stroke-width="1" fill="none" />
<polyline points="305.0,265.0,313.0,266.0" stroke="black" stroke-width="1" fill="none" />
<polyline points="326.0,249.0,328.0,248.0,322.0,256.0,332.0,255.0,345.0,257.0,340.0,261.0" stroke="black" stroke-width="1" fill="none" />
<polyline points="363.0,248.0,364.0,240.0" stroke="black" stroke-width="1" fill="none" />
<polyline points="423.0,234.0,431.0,233.0,432.0,225.0,434.0,217.0,435.0,209.0,437.0,201.0,438.0,193.0,431.0,185.0,435.0,177.0,431.0,180.0" stroke="black" stroke-width="1" fill="none" />
<polyline points="444.0,160.0,444.0,168.0,441.0,176.0,440.0,183.0,438.0,192.0,431.0,197.0,431.0,205.0,423.0,213.0,423.0,221.0,423.0,229.0,419.0,237.0,424.0,245.0,423.0,253.0,419.0,261.0,419.0,269.0,415.0,277.0,411.0,285.0,416.0,292.0" stroke="black" stroke-width="1" fill="none" />
<polyline points="429.0,241.0,428.0,249.0,426.0,257.0,425.0,265.0,423.0,273.0,422.0,281.0,420.0,289.0,419.0,297.0,417.0,305.0,415.0,313.0,413.0,321.0,411.0,329.0,405.0,336.0,406.0,344.0,404.0,352.0,395.0,360.0" stroke="black" stroke-width="1" fill="none" />
<polyline points="390.0,358.0,388.0,358.0,388.0,350.0" stroke="black" stroke-width="1" fill="none" />
<polyline points="393.0,342.0,385.0,341.0" stroke="black" stroke-width="1" fill="none" />
<polyline points="386.0,340.0,384.0,348.0,386.0,355.0,386.0,363.0,386.0,371.0,391.0,379.0,383.0,387.0,383.0,395.0,387.0,403.0" stroke="black" stroke-width="1" fill="none" />
<polyline points="379.0,407.0,379.0,415.0,375.0,423.0,375.0,437.0,374.0,438.0" stroke="black" stroke-width="1" fill="none" />
<polyline points="379.0,463.0,373.0,468.0,369.0,472.0,364.0,467.0,356.0,464.0" stroke="black" stroke-width="1" fill="none" />
<polyline points="468.0,445.0,476.0,443.0,484.0,443.0,492.0,444.0,500.0,445.0" stroke="black" stroke-width="1" fill="none" />
<polyline points="503.0,457.0,498.0,455.0,488.0,457.0,480.0,458.0,475.0,455.0,477.0,455.0,476.0,451.0" stroke="black" stroke-width="1" fill="none" />
<polyline points="473.0,451.0,473.0,459.0,475.0,473.0,482.0,469.0,488.0,463.0,496.0,469.0,508.0,469.0" stroke="black" stroke-width="1" fill="none" />
<polyline points="471.0,475.0,471.0,467.0,471.0,459.0,470.0,451.0,471.0,443.0" stroke="black" stroke-width="1" fill="none" />
<polyline points="298.0,371.0,289.0,362.0,285.0,367.0,277.0,367.0,269.0,367.0,261.0,365.0" stroke="black" stroke-width="1" fill="none" />
<polyline points="292.0,347.0,285.0,340.0,277.0,347.0,269.0,347.0,261.0,347.0,253.0,347.0,245.0,343.0,237.0,342.0,231.0,340.0,223.0,342.0,215.0,341.0" stroke="black" stroke-width="1" fill="none" />
<polyline points="216.0,340.0,215.0,348.0,215.0,356.0,215.0,364.0,215.0,372.0,219.0,372.0,226.0,367.0" stroke="black" stroke-width="1" fill="none" />
<polyline points="163.0,316.0,161.0,308.0,159.0,300.0" stroke="black" stroke-width="1" fill="none" />
<polyline points="140.0,255.0,134.0,254.0,140.0,246.0,137.0,241.0,129.0,242.0" stroke="black" stroke-width="1" fill="none" />
<polyline points="130.0,240.0,128.0,248.0,130.0,256.0,131.0,264.0,130.0,272.0" stroke="black" stroke-width="1" fill="none" />
<polyline points="132.0,249.0,132.0,257.0,133.0,271.0,142.0,263.0,148.0,271.0,161.0,273.0,169.0,266.0,180.0,265.0,188.0,261.0" stroke="black" stroke-width="1" fill="none" />
<polyline points="141.0,216.0,133.0,207.0,125.0,193.0,125.0,187.0" stroke="black" stroke-width="1" fill="none" />
<polyline points="101.0,172.0,92.0,169.0,86.0,168.0,78.0,169.0,70.0,171.0,62.0,183.0" stroke="black" stroke-width="1" fill="none" />
<polyline points="64.0,167.0,54.0,168.0,47.0,167.0,39.0,181.0" stroke="black" stroke-width="1" fill="none" />
<polyline points="58.0,180.0,72.0,170.0" stroke="black" stroke-width="1" fill="none" />
<polyline points="60.0,148.0,57.0,141.0,49.0,149.0,47.0,149.0,52.0,160.0,50.0,166.0,55.0,178.0,51.0,186.0,51.0,194.0,62.0,200.0,59.0,208.0,59.0,216.0,63.0,223.0,63.0,231.0,66.0,232.0,67.0,242.0,71.0,250.0,71.0,258.0,75.0,266.0,83.0,273.0,88.0,275.0,87.0,285.0,91.0,292.0,99.0,300.0,103.0,308.0,111.0,315.0" stroke="black" stroke-width="1" fill="none" />
<polyline points="83.0,255.0,75.0,249.0,72.0,241.0,73.0,235.0" stroke="black" stroke-width="1" fill="none" />
<polyline points="70.0,240.0,78.0,260.0,86.0,274.0,97.0,283.0" stroke="black" stroke-width="1" fill="none" />
<polyline points="70.0,283.0,61.0,278.0,61.0,271.0" stroke="black" stroke-width="1" fill="none" />
<polyline points="27.0,260.0,19.0,266.0,15.0,266.0,7.0,265.0" stroke="black" stroke-width="1" fill="none" />
<polyline points="2.0,246.0,10.0,247.0,18.0,246.0,26.0,239.0,33.0,246.0" stroke="black" stroke-width="1" fill="none" />
<polyline points="43.0,138.0,51.0,136.0,57.0,137.0,64.0,138.0,72.0,140.0,80.0,143.0,88.0,143.0,96.0,143.0,104.0,143.0,104.0,147.0,115.0,151.0" stroke="black" stroke-width="1" fill="none" />
<polyline points="154.0,121.0,147.0,123.0,137.0,112.0,131.0,109.0,123.0,99.0" stroke="black" stroke-width="1" fill="none" />
<polyline points="135.0,91.0,143.0,91.0,151.0,94.0,158.0,98.0,165.0,94.0,180.0,95.0,188.0,95.0,196.0,97.0,200.0,88.0" stroke="black" stroke-width="1" fill="none" />
<polyline points="207.0,96.0,215.0,95.0" stroke="black" stroke-width="1" fill="none" />
<polyline points="209.0,95.0,211.0,103.0" stroke="black" stroke-width="1" fill="none" />
<polyline points="222.0,87.0,230.0,87.0,238.0,87.0,246.0,87.0,254.0,87.0,268.0,87.0,276.0,87.0,284.0,87.0,292.0,87.0,300.0,87.0,308.0,87.0,316.0,87.0,324.0,87.0,332.0,88.0,340.0,88.0,348.0,88.0,356.0,89.0,364.0,89.0,372.0,90.0,380.0,90.0,388.0,91.0,395.0,92.0,403.0,93.0,415.0,95.0,423.0,96.0,428.0,102.0" stroke="black" stroke-width="1" fill="none" />
<polyline points="441.0,99.0,446.0,103.0,451.0,99.0,455.0,103.0" stroke="black" stroke-width="1" fill="none" />
<polyline points="444.0,95.0,436.0,95.0,431.0,91.0,423.0,91.0,415.0,91.0,407.0,87.0,399.0,87.0,391.0,87.0,383.0,87.0,375.0,83.0,367.0,83.0,359.0,83.0,351.0,83.0,343.0,83.0,335.0,83.0,327.0,83.0,319.0,83.0,311.0,83.0,303.0,83.0,295.0,83.0,287.0,83.0,279.0,83.0,271.0,83.0,263.0,83.0,255.0,83.0,247.0,83.0,239.0,83.0,231.0,83.0,223.0,83.0,215.0,83.0,207.0,83.0,199.0,83.0,191.0,83.0,183.0,83.0,175.0,83.0,167.0,87.0,159.0,87.0,151.0,87.0" stroke="black" stroke-width="1" fill="none" />
<polyline points="132.0,54.0,132.0,46.0" stroke="black" stroke-width="1" fill="none" />
<polyline points="140.0,43.0,134.0,47.0,134.0,55.0,149.0,52.0,158.0,47.0" stroke="black" stroke-width="1" fill="none" />
<polyline points="157.0,43.0,157.0,51.0,151.0,59.0,165.0,67.0" stroke="black" stroke-width="1" fill="none" />
<polyline points="193.0,52.0,198.0,54.0,196.0,49.0,198.0,41.0" stroke="black" stroke-width="1" fill="none" />
<polyline points="208.0,43.0,200.0,36.0,192.0,43.0,184.0,43.0,176.0,43.0,168.0,43.0,160.0,41.0,152.0,39.0,145.0,36.0,137.0,36.0,129.0,38.0" stroke="black" stroke-width="1" fill="none" />
<polyline points="133.0,36.0,130.0,44.0,130.0,52.0,127.0,60.0,130.0,66.0,134.0,67.0,142.0,63.0,152.0,58.0,162.0,66.0,168.0,63.0,179.0,63.0,187.0,60.0,190.0,63.0,197.0,63.0,201.0,66.0" stroke="black" stroke-width="1" fill="none" />
<polyline points="212.0,142.0,215.0,152.0,215.0,160.0,215.0,168.0,225.0,168.0,227.0,164.0" stroke="black" stroke-width="1" fill="none" />
<polyline points="238.0,162.0,239.0,159.0,234.0,151.0,223.0,152.0" stroke="black" stroke-width="1" fill="none" />
<polyline points="250.0,162.0,253.0,170.0" stroke="black" stroke-width="1" fill="none" />
<polyline points="262.0,162.0,270.0,164.0,276.0,153.0" stroke="black" stroke-width="1" fill="none" />
<polyline points="287.0,154.0,295.0,153.0" stroke="black" stroke-width="1" fill="none" />
<polyline points="289.0,163.0,281.0,164.0,273.0,164.0" stroke="black" stroke-width="1" fill="none" />
<polyline points="275.0,92.0,283.0,91.0" stroke="black" stroke-width="1" fill="none" />
<polyline points="319.0,61.0,327.0,63.0,333.0,67.0,341.0,58.0" stroke="black" stroke-width="1" fill="none" />
<polyline points="349.0,63.0,357.0,60.0,362.0,63.0,367.0,67.0" stroke="black" stroke-width="1" fill="none" />
<polyline points="379.0,43.0,371.0,37.0,363.0,44.0,355.0,43.0,347.0,44.0,339.0,43.0,331.0,43.0,323.0,39.0,315.0,36.0,307.0,38.0,299.0,41.0" stroke="black" stroke-width="1" fill="none" />
<polyline points="301.0,37.0,300.0,45.0,300.0,53.0,300.0,61.0,300.0,69.0,306.0,63.0,314.0,60.0" stroke="black" stroke-width="1" fill="none" />
<polyline points="371.0,40.0,369.0,48.0,369.0,52.0,377.0,61.0,370.0,63.0,374.0,68.0" stroke="black" stroke-width="1" fill="none" />
<polyline points="375.0,95.0,367.0,95.0,365.0,99.0" stroke="black" stroke-width="1" fill="none" />
<polyline points="381.0,139.0,386.0,145.0,386.0,153.0,386.0,161.0,383.0,169.0,386.0,172.0,405.0,162.0" stroke="black" stroke-width="1" fill="none" />
<polyline points="390.0,155.0,390.0,147.0" stroke="black" stroke-width="1" fill="none" />
<polyline points="388.0,147.0,388.0,155.0,396.0,164.0" stroke="black" stroke-width="1" fill="none" />
<polyline points="393.0,138.0,401.0,137.0,410.0,144.0,423.0,144.0,431.0,143.0,439.0,144.0" stroke="black" stroke-width="1" fill="none" />
<polyline points="437.0,145.0,443.0,137.0" stroke="black" stroke-width="1" fill="none" />
<polyline points="458.0,144.0,466.0,144.0" stroke="black" stroke-width="1" fill="none" />
<polyline points="428.0,154.0,425.0,157.0,413.0,154.0,411.0,151.0,413.0,143.0" stroke="black" stroke-width="1" fill="none" />
<polyline points="472.0,239.0,471.0,247.0,471.0,255.0,471.0,263.0,471.0,271.0,475.0,272.0,485.0,263.0,486.0,265.0,493.0,264.0" stroke="black" stroke-width="1" fill="none" />
<polyline points="494.0,242.0,486.0,240.0,478.0,241.0,470.0,241.0" stroke="black" stroke-width="1" fill="none" />
<polyline points="473.0,249.0,473.0,257.0,478.0,266.0" stroke="black" stroke-width="1" fill="none" />
<polyline points="471.0,68.0,471.0,60.0,471.0,52.0,471.0,44.0,471.0,36.0" stroke="black" stroke-width="1" fill="none" />
<polyline points="159.0,457.0,157.0,457.0,152.0,453.0" stroke="black" stroke-width="1" fill="none" />
<polyline points="142.0,447.0,137.0,448.0,137.0,449.0,134.0,457.0,136.0,469.0,144.0,466.0" stroke="black" stroke-width="1" fill="none" />
<polyline points="132.0,460.0,132.0,452.0" stroke="black" stroke-width="1" fill="none" />
<polyline points="37.0,462.0,30.0,468.0,22.0,469.0,14.0,469.0,6.0,467.0" stroke="black" stroke-width="1" fill="none" />
<polyline points="2.0,448.0,10.0,451.0,18.0,449.0,26.0,443.0,34.0,449.0" stroke="black" stroke-width="1" fill="none" />
<polyline points="30.0,446.0,28.0,448.0,28.0,456.0,32.0,465.0,26.0,475.0,26.0,473.0,32.0,472.0" stroke="black" stroke-width="1" fill="none" />
<polyline points="42.0,496.0,34.0,496.0,26.0,496.0,18.0,496.0,10.0,496.0,2.0,496.0" stroke="black" stroke-width="1" fill="none" />
<polyline points="0.0,66.0,40.0,66.0" stroke="black" stroke-width="1" fill="none" />
<polyline points="56.0,146.0,128.0,146.0" stroke="black" stroke-width="1" fill="none" />
<polyline points="128.0,152.0,120.0,160.0" stroke="black" stroke-width="1" fill="none" />
<polyline points="128.0,160.0,120.0,168.0" stroke="black" stroke-width="1" fill="none" />
<polyline points="112.0,168.0,104.0,176.0" stroke="black" stroke-width="1" fill="none" />
<polyline points="112.0,178.0,120.0,178.0" stroke="black" stroke-width="1" fill="none" />
<polyline points="120.0,186.0,128.0,186.0" stroke="black" stroke-width="1" fill="none" />
<polyline points="128.0,178.0,144.0,178.0" stroke="black" stroke-width="1" fill="none" />
<polyline points="144.0,186.0,136.0,186.0" stroke="black" stroke-width="1" fill="none" />
<polyline points="144.0,194.0,120.0,194.0" stroke="black" stroke-width="1" fill="none" />
<polyline points="128.0,202.0,144.0,202.0" stroke="black" stroke-width="1" fill="none" />
<polyline points="144.0,210.0,136.0,210.0" stroke="black" stroke-width="1" fill="none" />
<polyline points="144.0,218.0,152.0,218.0" stroke="black" stroke-width="1" fill="none" />
<polyline points="152.0,226.0,144.0,226.0" stroke="black" stroke-width="1" fill="none" />
<polyline points="144.0,234.0,152.0,234.0" stroke="black" stroke-width="1" fill="none" />
<polyline points="144.0,242.0,160.0,242.0" stroke="black" stroke-width="1" fill="none" />
<polyline points="160.0,258.0,144.0,258.0" stroke="black" stroke-width="1" fill="none" />
<polyline points="144.0,250.0,160.0,250.0" stroke="black" stroke-width="1" fill="none" />
<polyline points="160.0,264.0,152.0,272.0" stroke="black" stroke-width="1" fill="none" />
<polyline points="152.0,274.0,160.0,274.0" stroke="black" stroke-width="1" fill="none" />
<polyline points="160.0,282.0,152.0,282.0" stroke="black" stroke-width="1" fill="none" />
<polyline points="152.0,290.0,160.0,290.0" stroke="black" stroke-width="1" fill="none" />
<polyline points="160.0,298.0,168.0,298.0" stroke="black" stroke-width="1" fill="none" />
<polyline points="168.0,304.0,160.0,312.0" stroke="black" stroke-width="1" fill="none" />
<polyline points="160.0,314.0,168.0,314.0" stroke="black" stroke-width="1" fill="none" />
<polyline points="168.0,312.0,160.0,320.0" stroke="black" stroke-width="1" fill="none" />
<polyline points="160.0,322.0,168.0,322.0" stroke="black" stroke-width="1" fill="none" />
<polyline points="168.0,330.0,160.0,330.0" stroke="black" stroke-width="1" fill="none" />
<polyline points="160.0,338.0,168.0,338.0" stroke="black" stroke-width="1" fill="none" />
<polyline points="168.0,346.0,176.0,346.0" stroke="black" stroke-width="1" fill="none" />
<polyline points="176.0,354.0,168.0,354.0" stroke="black" stroke-width="1" fill="none" />
<polyline points="160.0,360.0,152.0,368.0" stroke="black" stroke-width="1" fill="none" />
<polyline points="152.0,362.0,176.0,362.0" stroke="black" stroke-width="1" fill="none" />
<polyline points="176.0,360.0,168.0,368.0" stroke="black" stroke-width="1" fill="none" />
<polyline points="176.0,368.0,168.0,376.0" stroke="black" stroke-width="1" fill="none" />
<polyline points="176.0,378.0,184.0,378.0" stroke="black" stroke-width="1" fill="none" />
<polyline points="184.0,384.0,176.0,392.0" stroke="black" stroke-width="1" fill="none" />
<polyline points="176.0,394.0,184.0,394.0" stroke="black" stroke-width="1" fill="none" />
<polyline points="184.0,392.0,176.0,400.0" stroke="black" stroke-width="1" fill="none" />
<polyline points="176.0,402.0,192.0,402.0" stroke="black" stroke-width="1" fill="none" />
<polyline points="192.0,408.0,184.0,416.0" stroke="black" stroke-width="1" fill="none" />
<polyline points="184.0,418.0,200.0,418.0" stroke="black" stroke-width="1" fill="none" />
<polyline points="192.0,416.0,184.0,424.0" stroke="black" stroke-width="1" fill="none" />
<polyline points="184.0,426.0,200.0,426.0" stroke="black" stroke-width="1" fill="none" />
<polyline points="200.0,434.0,192.0,434.0" stroke="black" stroke-width="1" fill="none" />
<polyline points="192.0,442.0,208.0,442.0" stroke="black" stroke-width="1" fill="none" />
<polyline points="208.0,440.0,200.0,448.0" stroke="black" stroke-width="1" fill="none" />
<polyline points="200.0,450.0,224.0,450.0" stroke="black" stroke-width="1" fill="none" />
<polyline points="216.0,448.0,208.0,456.0" stroke="black" stroke-width="1" fill="none" />
<polyline points="216.0,458.0,248.0,458.0" stroke="black" stroke-width="1" fill="none" />
<polyline points="264.0,458.0,280.0,458.0" stroke="black" stroke-width="1" fill="none" />
<polyline points="272.0,474.0,336.0,474.0" stroke="black" stroke-width="1" fill="none" />
<polyline points="336.0,472.0,344.0,464.0" stroke="black" stroke-width="1" fill="none" />
<polyline points="336.0,464.0,328.0,472.0" stroke="black" stroke-width="1" fill="none" />
<polyline points="312.0,458.0,368.0,458.0" stroke="black" stroke-width="1" fill="none" />
<polyline points="352.0,464.0,384.0,432.0" stroke="black" stroke-width="1" fill="none" />
<polyline points="384.0,424.0,392.0,416.0" stroke="black" stroke-width="1" fill="none" />
<polyline points="392.0,418.0,384.0,418.0" stroke="black" stroke-width="1" fill="none" />
<polyline points="384.0,410.0,392.0,410.0" stroke="black" stroke-width="1" fill="none" />
<polyline points="392.0,402.0,384.0,402.0" stroke="black" stroke-width="1" fill="none" />
<polyline points="384.0,394.0,392.0,394.0" stroke="black" stroke-width="1" fill="none" />
<polyline points="392.0,386.0,400.0,386.0" stroke="black" stroke-width="1" fill="none" />
<polyline points="400.0,378.0,392.0,378.0" stroke="black" stroke-width="1" fill="none" />
<polyline points="392.0,376.0,400.0,368.0" stroke="black" stroke-width="1" fill="none" />
<polyline points="400.0,360.0,392.0,368.0" stroke="black" stroke-width="1" fill="none" />
<polyline points="392.0,362.0,408.0,362.0" stroke="black" stroke-width="1" fill="none" />
<polyline points="400.0,352.0,408.0,344.0" stroke="black" stroke-width="1" fill="none" />
<polyline points="408.0,338.0,400.0,338.0" stroke="black" stroke-width="1" fill="none" />
<polyline points="400.0,330.0,416.0,330.0" stroke="black" stroke-width="1" fill="none" />
<polyline points="416.0,322.0,408.0,322.0" stroke="black" stroke-width="1" fill="none" />
<polyline points="408.0,320.0,416.0,312.0" stroke="black" stroke-width="1" fill="none" />
<polyline points="416.0,314.0,408.0,314.0" stroke="black" stroke-width="1" fill="none" />
<polyline points="408.0,306.0,416.0,306.0" stroke="black" stroke-width="1" fill="none" />
<polyline points="408.0,298.0,424.0,298.0" stroke="black" stroke-width="1" fill="none" />
<polyline points="424.0,282.0,416.0,282.0" stroke="black" stroke-width="1" fill="none" />
<polyline points="416.0,274.0,424.0,274.0" stroke="black" stroke-width="1" fill="none" />
<polyline points="424.0,258.0,432.0,258.0" stroke="black" stroke-width="1" fill="none" />
<polyline points="432.0,250.0,424.0,250.0" stroke="black" stroke-width="1" fill="none" />
<polyline points="424.0,242.0,432.0,242.0" stroke="black" stroke-width="1" fill="none" />
<polyline points="432.0,234.0,424.0,234.0" stroke="black" stroke-width="1" fill="none" />
<polyline points="424.0,226.0,432.0,226.0" stroke="black" stroke-width="1" fill="none" />
<polyline points="432.0,218.0,424.0,218.0" stroke="black" stroke-width="1" fill="none" />
<polyline points="432.0,210.0,440.0,210.0" stroke="black" stroke-width="1" fill="none" />
<polyline points="440.0,202.0,432.0,202.0" stroke="black" stroke-width="1" fill="none" />
<polyline points="432.0,194.0,440.0,194.0" stroke="black" stroke-width="1" fill="none" />
<polyline points="440.0,186.0,432.0,186.0" stroke="black" stroke-width="1" fill="none" />
<polyline points="432.0,178.0,440.0,178.0" stroke="black" stroke-width="1" fill="none" />
<polyline points="440.0,168.0,448.0,160.0" stroke="black" stroke-width="1" fill="none" />
<polyline points="448.0,152.0,440.0,160.0" stroke="black" stroke-width="1" fill="none" />
<polyline points="440.0,154.0,448.0,154.0" stroke="black" stroke-width="1" fill="none" />
<polyline points="448.0,146.0,440.0,146.0" stroke="black" stroke-width="1" fill="none" />
<polyline points="448.0,138.0,456.0,138.0" stroke="black" stroke-width="1" fill="none" />
<polyline points="440.0,128.0,448.0,120.0" stroke="black" stroke-width="1" fill="none" />
<polyline points="440.0,122.0,456.0,122.0" stroke="black" stroke-width="1" fill="none" />
<polyline points="456.0,106.0,440.0,106.0" stroke="black" stroke-width="1" fill="none" />
<polyline points="432.0,114.0,456.0,114.0" stroke="black" stroke-width="1" fill="none" />
<polyline points="456.0,130.0,424.0,130.0" stroke="black" stroke-width="1" fill="none" />
<polyline points="416.0,98.0,448.0,98.0" stroke="black" stroke-width="1" fill="none" />
<polyline points="472.0,66.0,512.0,66.0" stroke="black" stroke-width="1" fill="none" />
<polyline points="456.0,170.0,432.0,170.0" stroke="black" stroke-width="1" fill="none" />
<polyline points="432.0,162.0,464.0,162.0" stroke="black" stroke-width="1" fill="none" />
<polyline points="424.0,162.0,400.0,162.0" stroke="black" stroke-width="1" fill="none" />
<polyline points="384.0,138.0,416.0,138.0" stroke="black" stroke-width="1" fill="none" />
<polyline points="400.0,122.0,384.0,122.0" stroke="black" stroke-width="1" fill="none" />
<polyline points="376.0,138.0,360.0,138.0" stroke="black" stroke-width="1" fill="none" />
<polyline points="344.0,146.0,336.0,146.0" stroke="black" stroke-width="1" fill="none" />
<polyline points="328.0,90.0,416.0,90.0" stroke="black" stroke-width="1" fill="none" />
<polyline points="376.0,66.0,304.0,66.0" stroke="black" stroke-width="1" fill="none" />
<polyline points="280.0,146.0,272.0,146.0" stroke="black" stroke-width="1" fill="none" />
<polyline points="280.0,162.0,296.0,162.0" stroke="black" stroke-width="1" fill="none" />
<polyline points="288.0,170.0,280.0,170.0" stroke="black" stroke-width="1" fill="none" />
<polyline points="256.0,162.0,232.0,162.0" stroke="black" stroke-width="1" fill="none" />
<polyline points="216.0,146.0,256.0,146.0" stroke="black" stroke-width="1" fill="none" />
<polyline points="192.0,90.0,184.0,90.0" stroke="black" stroke-width="1" fill="none" />
<polyline points="176.0,66.0,208.0,66.0" stroke="black" stroke-width="1" fill="none" />
<polyline points="168.0,90.0,152.0,90.0" stroke="black" stroke-width="1" fill="none" />
<polyline points="152.0,98.0,144.0,98.0" stroke="black" stroke-width="1" fill="none" />
<polyline points="144.0,106.0,136.0,106.0" stroke="black" stroke-width="1" fill="none" />
<polyline points="136.0,114.0,152.0,114.0" stroke="black" stroke-width="1" fill="none" />
<polyline points="168.0,122.0,176.0,122.0" stroke="black" stroke-width="1" fill="none" />
<polyline points="168.0,138.0,192.0,138.0" stroke="black" stroke-width="1" fill="none" />
<polyline points="128.0,120.0,120.0,128.0" stroke="black" stroke-width="1" fill="none" />
<polyline points="120.0,130.0,152.0,130.0" stroke="black" stroke-width="1" fill="none" />
<polyline points="128.0,138.0,120.0,138.0" stroke="black" stroke-width="1" fill="none" />
<polyline points="120.0,122.0,136.0,122.0" stroke="black" stroke-width="1" fill="none" />
<polyline points="128.0,114.0,120.0,114.0" stroke="black" stroke-width="1" fill="none" />
<polyline points="120.0,106.0,128.0,106.0" stroke="black" stroke-width="1" fill="none" />
<polyline points="128.0,98.0,136.0,98.0" stroke="black" stroke-width="1" fill="none" />
<polyline points="136.0,66.0,168.0,66.0" stroke="black" stroke-width="1" fill="none" />
<polyline points="144.0,170.0,128.0,170.0" stroke="black" stroke-width="1" fill="none" />
<polyline points="128.0,154.0,88.0,154.0" stroke="black" stroke-width="1" fill="none" />
<polyline points="72.0,162.0,136.0,162.0" stroke="black" stroke-width="1" fill="none" />
<polyline points="72.0,168.0,64.0,176.0" stroke="black" stroke-width="1" fill="none" />
<polyline points="64.0,178.0,56.0,178.0" stroke="black" stroke-width="1" fill="none" />
<polyline points="56.0,186.0,64.0,186.0" stroke="black" stroke-width="1" fill="none" />
<polyline points="64.0,194.0,56.0,194.0" stroke="black" stroke-width="1" fill="none" />
<polyline points="48.0,178.0,40.0,178.0" stroke="black" stroke-width="1" fill="none" />
<polyline points="40.0,170.0,112.0,170.0" stroke="black" stroke-width="1" fill="none" />
<polyline points="56.0,160.0,48.0,168.0" stroke="black" stroke-width="1" fill="none" />
<polyline points="48.0,162.0,56.0,162.0" stroke="black" stroke-width="1" fill="none" />
<polyline points="48.0,154.0,72.0,154.0" stroke="black" stroke-width="1" fill="none" />
<polyline points="40.0,186.0,32.0,186.0" stroke="black" stroke-width="1" fill="none" />
<polyline points="32.0,194.0,40.0,194.0" stroke="black" stroke-width="1" fill="none" />
<polyline points="40.0,202.0,32.0,202.0" stroke="black" stroke-width="1" fill="none" />
<polyline points="32.0,210.0,40.0,210.0" stroke="black" stroke-width="1" fill="none" />
<polyline points="40.0,234.0,48.0,234.0" stroke="black" stroke-width="1" fill="none" />
<polyline points="48.0,242.0,40.0,242.0" stroke="black" stroke-width="1" fill="none" />
<polyline points="48.0,258.0,56.0,258.0" stroke="black" stroke-width="1" fill="none" />
<polyline points="56.0,274.0,64.0,274.0" stroke="black" stroke-width="1" fill="none" />
<polyline points="64.0,282.0,72.0,282.0" stroke="black" stroke-width="1" fill="none" />
<polyline points="72.0,290.0,64.0,290.0" stroke="black" stroke-width="1" fill="none" />
<polyline points="72.0,298.0,80.0,298.0" stroke="black" stroke-width="1" fill="none" />
<polyline points="80.0,306.0,88.0,306.0" stroke="black" stroke-width="1" fill="none" />
<polyline points="80.0,314.0,96.0,314.0" stroke="black" stroke-width="1" fill="none" />
<polyline points="88.0,322.0,104.0,322.0" stroke="black" stroke-width="1" fill="none" />
<polyline points="96.0,330.0,112.0,330.0" stroke="black" stroke-width="1" fill="none" />
<polyline points="112.0,338.0,120.0,338.0" stroke="black" stroke-width="1" fill="none" />
<polyline points="120.0,346.0,128.0,346.0" stroke="black" stroke-width="1" fill="none" />
<polyline points="136.0,354.0,144.0,354.0" stroke="black" stroke-width="1" fill="none" />
<polyline points="160.0,370.0,184.0,370.0" stroke="black" stroke-width="1" fill="none" />
<polyline points="184.0,386.0,176.0,386.0" stroke="black" stroke-width="1" fill="none" />
<polyline points="184.0,410.0,192.0,410.0" stroke="black" stroke-width="1" fill="none" />
<polyline points="216.0,370.0,296.0,370.0" stroke="black" stroke-width="1" fill="none" />
<polyline points="328.0,450.0,336.0,450.0" stroke="black" stroke-width="1" fill="none" />
<polyline points="352.0,450.0,376.0,450.0" stroke="black" stroke-width="1" fill="none" />
<polyline points="384.0,442.0,360.0,442.0" stroke="black" stroke-width="1" fill="none" />
<polyline points="368.0,434.0,384.0,434.0" stroke="black" stroke-width="1" fill="none" />
<polyline points="376.0,426.0,392.0,426.0" stroke="black" stroke-width="1" fill="none" />
<polyline points="384.0,370.0,464.0,370.0" stroke="black" stroke-width="1" fill="none" />
<polyline points="408.0,354.0,392.0,354.0" stroke="black" stroke-width="1" fill="none" />
<polyline points="392.0,346.0,408.0,346.0" stroke="black" stroke-width="1" fill="none" />
<polyline points="408.0,290.0,424.0,290.0" stroke="black" stroke-width="1" fill="none" />
<polyline points="472.0,266.0,512.0,266.0" stroke="black" stroke-width="1" fill="none" />
<polyline points="376.0,266.0,304.0,266.0" stroke="black" stroke-width="1" fill="none" />
<polyline points="168.0,306.0,160.0,306.0" stroke="black" stroke-width="1" fill="none" />
<polyline points="152.0,330.0,144.0,330.0" stroke="black" stroke-width="1" fill="none" />
<polyline points="144.0,322.0,128.0,322.0" stroke="black" stroke-width="1" fill="none" />
<polyline points="128.0,314.0,120.0,314.0" stroke="black" stroke-width="1" fill="none" />
<polyline points="120.0,306.0,104.0,306.0" stroke="black" stroke-width="1" fill="none" />
<polyline points="104.0,298.0,112.0,298.0" stroke="black" stroke-width="1" fill="none" />
<polyline points="104.0,290.0,96.0,290.0" stroke="black" stroke-width="1" fill="none" />
<polyline points="96.0,282.0,88.0,282.0" stroke="black" stroke-width="1" fill="none" />
<polyline points="88.0,266.0,80.0,266.0" stroke="black" stroke-width="1" fill="none" />
<polyline points="80.0,258.0,72.0,258.0" stroke="black" stroke-width="1" fill="none" />
<polyline points="72.0,250.0,80.0,250.0" stroke="black" stroke-width="1" fill="none" />
<polyline points="72.0,234.0,64.0,234.0" stroke="black" stroke-width="1" fill="none" />
<polyline points="64.0,226.0,72.0,226.0" stroke="black" stroke-width="1" fill="none" />
<polyline points="72.0,218.0,64.0,218.0" stroke="black" stroke-width="1" fill="none" />
<polyline points="40.0,266.0,0.0,266.0" stroke="black" stroke-width="1" fill="none" />
<polyline points="48.0,370.0,120.0,370.0" stroke="black" stroke-width="1" fill="none" />
<polyline points="160.0,466.0,168.0,466.0" stroke="black" stroke-width="1" fill="none" />
<polyline points="176.0,474.0,200.0,474.0" stroke="black" stroke-width="1" fill="none" />
<polyline points="232.0,466.0,280.0,466.0" stroke="black" stroke-width="1" fill="none" />
<polyline points="296.0,466.0,352.0,466.0" stroke="black" stroke-width="1" fill="none" />
<polyline points="352.0,474.0,376.0,474.0" stroke="black" stroke-width="1" fill="none" />
<polyline points="488.0,474.0,512.0,474.0" stroke="black" stroke-width="1" fill="none" />
<polyline points="168.0,474.0,152.0,474.0" stroke="black" stroke-width="1" fill="none" />
<polyline points="40.0,496.0,32.0,504.0" stroke="black" stroke-width="1" fill="none" />
<polyline points="32.0,496.0,24.0,504.0" stroke="black" stroke-width="1" fill="none" />
<polyline points="24.0,496.0,16.0,504.0" stroke="black" stroke-width="1" fill="none" />
<polyline points="16.0,496.0,8.0,504.0" stroke="black" stroke-width="1" fill="none" />
<polyline points="8.0,496.0,0.0,504.0" stroke="black" stroke-width="1" fill="none" />
<polyline points="0.0,498.0,40.0,498.0" stroke="black" stroke-width="1" fill="none" />
<polyline points="32.0,474.0,8.0,474.0" stroke="black" stroke-width="1" fill="none" />
<polyline points="136.0,266.0,208.0,266.0" stroke="black" stroke-width="1" fill="none" />
</svg>