<svg xmlns="http://www.w3.org/2000/svg" height="480px" width="511px" version="1.1"><polyline points="1.0,0.0,1.0,8.0,1.0,16.0,1.0,24.0,1.0,32.0,1.0,40.0,1.0,48.0,1.0,56.0,1.0,64.0,1.0,72.0,1.0,80.0,1.0,88.0,1.0,96.0,1.0,104.0,1.0,112.0,1.0,120.0,1.0,128.0,1.0,136.0,1.0,144.0,1.0,152.0,1.0,160.0,1.0,168.0,1.0,176.0,1.0,184.0,1.0,192.0,1.0,200.0,1.0,208.0,1.0,216.0,1.0,224.0,1.0,232.0,1.0,240.0,1.0,248.0,1.0,256.0,1.0,264.0,1.0,272.0,1.0,280.0,1.0,288.0,1.0,296.0,1.0,304.0,1.0,312.0,1.0,320.0,1.0,328.0,1.0,336.0,1.0,344.0,1.0,352.0,1.0,360.0,1.0,368.0,1.0,376.0,1.0,384.0,1.0,392.0,1.0,400.0,1.0,408.0,1.0,416.0,1.0,424.0,1.0,432.0,1.0,440.0,1.0,448.0,1.0,456.0,1.0,464.0,1.0,472.0,2.0,480.0,10.0,480.0,18.0,480.0,26.0,480.0,34.0,480.0,42.0,480.0" stroke="black" stroke-width="1" fill="none" />
<polyline points="38.0,473.0,49.0,471.0" stroke="black" stroke-width="1" fill="none" />
<polyline points="77.0,480.0,85.0,479.0" stroke="black" stroke-width="1" fill="none" />
<polyline points="86.0,468.0,94.0,468.0,102.0,467.0,110.0,468.0,118.0,468.0,126.0,468.0,134.0,468.0,142.0,468.0,150.0,468.0,158.0,467.0,166.0,468.0,174.0,467.0,177.0,469.0,185.0,468.0,193.0,468.0,201.0,468.0,209.0,469.0,217.0,468.0,225.0,467.0,228.0,468.0,236.0,468.0,244.0,469.0,252.0,468.0,260.0,469.0,268.0,468.0,276.0,468.0" stroke="black" stroke-width="1" fill="none" />
<polyline points="285.0,461.0,281.0,459.0,278.0,467.0,285.0,459.0,293.0,459.0,301.0,459.0,309.0,460.0,317.0,450.0,325.0,450.0" stroke="black" stroke-width="1" fill="none" />
<polyline points="332.0,441.0,332.0,434.0,333.0,427.0,329.0,425.0,333.0,417.0,329.0,407.0,322.0,401.0,320.0,394.0,316.0,386.0,313.0,384.0,314.0,376.0,315.0,368.0,318.0,362.0,316.0,356.0,316.0,348.0,321.0,340.0,324.0,332.0,331.0,324.0,334.0,316.0,330.0,312.0,332.0,305.0,334.0,298.0,334.0,293.0,331.0,292.0,333.0,284.0,333.0,279.0,332.0,274.0,334.0,266.0,332.0,260.0,334.0,254.0,331.0,253.0,333.0,245.0,335.0,237.0,334.0,231.0,331.0,223.0,326.0,218.0,321.0,210.0,324.0,207.0,322.0,200.0,321.0,192.0,324.0,184.0,325.0,178.0,324.0,170.0,322.0,165.0,324.0,157.0,320.0,151.0" stroke="black" stroke-width="1" fill="none" />
<polyline points="331.0,137.0,329.0,145.0,331.0,137.0" stroke="black" stroke-width="1" fill="none" />
<polyline points="329.0,129.0,337.0,130.0" stroke="black" stroke-width="1" fill="none" />
<polyline points="339.0,151.0,347.0,143.0,355.0,141.0,363.0,136.0,371.0,132.0,379.0,130.0,387.0,129.0,395.0,127.0,403.0,127.0,411.0,125.0,419.0,126.0,427.0,126.0,435.0,127.0,443.0,129.0,451.0,132.0,459.0,134.0,467.0,139.0,475.0,147.0,483.0,155.0,491.0,169.0" stroke="black" stroke-width="1" fill="none" />
<polyline points="500.0,168.0,508.0,173.0" stroke="black" stroke-width="1" fill="none" />
<polyline points="485.0,206.0,490.0,208.0,490.0,216.0" stroke="black" stroke-width="1" fill="none" />
<polyline points="477.0,233.0,469.0,230.0" stroke="black" stroke-width="1" fill="none" />
<polyline points="488.0,241.0,483.0,241.0,476.0,251.0,468.0,256.0" stroke="black" stroke-width="1" fill="none" />
<polyline points="469.0,263.0,470.0,255.0,476.0,247.0,485.0,239.0,487.0,231.0,492.0,224.0,489.0,223.0,486.0,220.0,486.0,212.0,488.0,204.0,486.0,196.0,489.0,188.0,489.0,181.0,484.0,176.0,481.0,174.0,480.0,167.0,471.0,156.0,463.0,156.0" stroke="black" stroke-width="1" fill="none" />
<polyline points="445.0,148.0,445.0,144.0,437.0,146.0,429.0,147.0,424.0,139.0,416.0,139.0,408.0,139.0,400.0,138.0,393.0,144.0,388.0,144.0,380.0,145.0" stroke="black" stroke-width="1" fill="none" />
<polyline points="375.0,146.0,377.0,144.0,375.0,150.0,368.0,158.0,367.0,165.0,360.0,173.0" stroke="black" stroke-width="1" fill="none" />
<polyline points="363.0,173.0,355.0,174.0" stroke="black" stroke-width="1" fill="none" />
<polyline points="356.0,173.0,356.0,181.0,359.0,187.0" stroke="black" stroke-width="1" fill="none" />
<polyline points="351.0,190.0,343.0,190.0,335.0,189.0" stroke="black" stroke-width="1" fill="none" />
<polyline points="332.0,209.0,340.0,218.0,353.0,211.0,361.0,204.0,369.0,189.0,376.0,174.0,384.0,164.0,392.0,157.0,400.0,154.0,408.0,152.0,416.0,154.0,424.0,155.0,432.0,157.0,440.0,160.0,448.0,165.0,456.0,172.0,464.0,185.0" stroke="black" stroke-width="1" fill="none" />
<polyline points="442.0,179.0,451.0,181.0,452.0,189.0,455.0,197.0,461.0,198.0,460.0,205.0,459.0,213.0,452.0,221.0,451.0,229.0,443.0,240.0,444.0,248.0,434.0,255.0,436.0,260.0" stroke="black" stroke-width="1" fill="none" />
<polyline points="425.0,261.0,417.0,268.0,417.0,275.0,408.0,282.0,402.0,291.0,405.0,286.0,411.0,276.0,417.0,268.0,425.0,263.0,431.0,260.0,437.0,250.0,445.0,250.0" stroke="black" stroke-width="1" fill="none" />
<polyline points="442.0,233.0,450.0,233.0" stroke="black" stroke-width="1" fill="none" />
<polyline points="457.0,267.0,462.0,269.0,452.0,270.0,451.0,279.0,455.0,281.0" stroke="black" stroke-width="1" fill="none" />
<polyline points="443.0,286.0,444.0,294.0,433.0,304.0,438.0,294.0,443.0,283.0,449.0,286.0,452.0,276.0,459.0,271.0,467.0,268.0" stroke="black" stroke-width="1" fill="none" />
<polyline points="496.0,241.0,488.0,258.0,480.0,269.0,472.0,279.0,464.0,287.0,456.0,296.0,448.0,303.0,440.0,310.0,432.0,318.0,424.0,324.0,416.0,331.0,408.0,338.0,400.0,345.0,392.0,351.0,384.0,356.0,376.0,364.0,368.0,370.0,360.0,377.0,352.0,385.0,344.0,393.0" stroke="black" stroke-width="1" fill="none" />
<polyline points="336.0,379.0,337.0,376.0,345.0,372.0,354.0,364.0,359.0,356.0,367.0,355.0,375.0,355.0" stroke="black" stroke-width="1" fill="none" />
<polyline points="372.0,347.0,380.0,347.0" stroke="black" stroke-width="1" fill="none" />
<polyline points="381.0,339.0,389.0,338.0,393.0,329.0,400.0,322.0,408.0,318.0,413.0,325.0" stroke="black" stroke-width="1" fill="none" />
<polyline points="414.0,311.0,422.0,311.0" stroke="black" stroke-width="1" fill="none" />
<polyline points="429.0,304.0,424.0,307.0,428.0,307.0,433.0,299.0,433.0,291.0" stroke="black" stroke-width="1" fill="none" />
<polyline points="400.0,319.0,399.0,323.0,400.0,326.0,391.0,334.0,394.0,338.0" stroke="black" stroke-width="1" fill="none" />
<polyline points="384.0,337.0,381.0,345.0,372.0,352.0" stroke="black" stroke-width="1" fill="none" />
<polyline points="393.0,363.0,401.0,362.0,411.0,351.0" stroke="black" stroke-width="1" fill="none" />
<polyline points="370.0,311.0,362.0,312.0,357.0,315.0,354.0,320.0,359.0,312.0" stroke="black" stroke-width="1" fill="none" />
<polyline points="373.0,303.0,370.0,311.0,374.0,303.0,382.0,299.0,388.0,294.0,396.0,294.0" stroke="black" stroke-width="1" fill="none" />
<polyline points="340.0,248.0,332.0,260.0" stroke="black" stroke-width="1" fill="none" />
<polyline points="333.0,342.0,341.0,333.0,349.0,331.0,357.0,329.0,365.0,326.0,373.0,323.0,381.0,318.0,389.0,314.0,397.0,309.0,405.0,302.0,413.0,297.0,421.0,291.0,429.0,283.0,437.0,274.0,445.0,265.0,453.0,253.0,461.0,238.0,469.0,220.0" stroke="black" stroke-width="1" fill="none" />
<polyline points="510.0,240.0,508.0,233.0,511.0,227.0,511.0,219.0,511.0,211.0,509.0,204.0,511.0,197.0,511.0,188.0,511.0,180.0,511.0,171.0,511.0,163.0,511.0,155.0,511.0,147.0,511.0,139.0,511.0,131.0,511.0,123.0,511.0,115.0,511.0,107.0,511.0,99.0,511.0,91.0,511.0,83.0,511.0,75.0,511.0,67.0,511.0,59.0,511.0,51.0,511.0,43.0,511.0,35.0,511.0,27.0,511.0,19.0,511.0,11.0,511.0,3.0,504.0,1.0,496.0,1.0,488.0,1.0,480.0,1.0,472.0,1.0,464.0,1.0,456.0,1.0,448.0,1.0,440.0,1.0,432.0,1.0,424.0,1.0,416.0,1.0,408.0,1.0,400.0,1.0,392.0,1.0,384.0,1.0,376.0,1.0,368.0,1.0,360.0,1.0,352.0,1.0,344.0,1.0,336.0,1.0,328.0,1.0,320.0,1.0,312.0,1.0,304.0,1.0,296.0,1.0,288.0,1.0,280.0,1.0,272.0,1.0,264.0,1.0,256.0,1.0,248.0,1.0,240.0,1.0,232.0,1.0,224.0,1.0,216.0,1.0,208.0,1.0,200.0,1.0,192.0,1.0,184.0,1.0,176.0,1.0,168.0,1.0,160.0,1.0,152.0,1.0,144.0,1.0,136.0,1.0,128.0,1.0,120.0,1.0,112.0,1.0,104.0,1.0,96.0,1.0,88.0,1.0,80.0,1.0,72.0,1.0,64.0,1.0,56.0,1.0,48.0,1.0,40.0,1.0,32.0,1.0,24.0,1.0,16.0,1.0,8.0,1.0,0.0,1.0" stroke="black" stroke-width="1" fill="none" />
<polyline points="12.0,51.0,8.0,59.0,5.0,60.0,9.0,53.0,17.0,51.0,25.0,52.0,33.0,53.0" stroke="black" stroke-width="1" fill="none" />
<polyline points="25.0,54.0,18.0,67.0,25.0,63.0,32.0,69.0,35.0,63.0,43.0,60.0,51.0,59.0,59.0,59.0,67.0,57.0,75.0,56.0,83.0,56.0,91.0,55.0,99.0,55.0,107.0,54.0,115.0,54.0,123.0,54.0,131.0,53.0,139.0,53.0,147.0,53.0,155.0,53.0,163.0,53.0,171.0,52.0,179.0,52.0,187.0,52.0,195.0,52.0,203.0,53.0,211.0,53.0,219.0,53.0,227.0,53.0,235.0,53.0,243.0,54.0,251.0,54.0,259.0,54.0,267.0,55.0,275.0,55.0,283.0,57.0,291.0,57.0,299.0,58.0,307.0,58.0,315.0,61.0,323.0,62.0,327.0,70.0,334.0,62.0,342.0,65.0" stroke="black" stroke-width="1" fill="none" />
<polyline points="333.0,62.0,327.0,70.0" stroke="black" stroke-width="1" fill="none" />
<polyline points="327.0,53.0,335.0,51.0,343.0,51.0,351.0,51.0" stroke="black" stroke-width="1" fill="none" />
<polyline points="337.0,56.0,348.0,64.0,350.0,72.0,350.0,80.0,350.0,88.0,350.0,96.0,350.0,104.0,350.0,112.0,350.0,120.0,350.0,128.0,350.0,136.0" stroke="black" stroke-width="1" fill="none" />
<polyline points="342.0,125.0,342.0,117.0,341.0,109.0,342.0,101.0,342.0,93.0,337.0,88.0,340.0,80.0,337.0,76.0,329.0,78.0,321.0,80.0,313.0,81.0,305.0,82.0,297.0,83.0,289.0,84.0,281.0,84.0,273.0,85.0,265.0,86.0,257.0,86.0,249.0,88.0,241.0,88.0,233.0,88.0,225.0,89.0,217.0,89.0,209.0,89.0,201.0,89.0,193.0,89.0,185.0,89.0,177.0,89.0,169.0,89.0,161.0,89.0,153.0,89.0,145.0,89.0,137.0,89.0,129.0,88.0,121.0,88.0,113.0,88.0,105.0,86.0,97.0,86.0,89.0,85.0,81.0,85.0,73.0,84.0,65.0,84.0,57.0,82.0,49.0,81.0,41.0,80.0,33.0,78.0,25.0,76.0,17.0,75.0" stroke="black" stroke-width="1" fill="none" />
<polyline points="17.0,75.0,17.0,83.0,17.0,91.0,17.0,99.0,17.0,107.0,17.0,115.0,17.0,123.0,17.0,131.0,17.0,139.0,17.0,147.0,17.0,155.0,17.0,163.0,17.0,171.0,17.0,179.0,17.0,187.0,17.0,195.0,18.0,203.0,18.0,211.0,17.0,219.0,17.0,227.0,17.0,235.0,17.0,243.0,17.0,251.0,17.0,259.0,17.0,267.0,17.0,275.0,17.0,283.0,17.0,291.0,17.0,299.0,17.0,307.0,17.0,315.0,17.0,323.0,17.0,331.0,17.0,339.0,17.0,347.0,17.0,355.0,17.0,363.0,17.0,371.0,17.0,379.0,17.0,387.0,17.0,395.0,17.0,403.0,17.0,411.0,17.0,419.0,17.0,427.0,17.0,435.0,17.0,443.0,23.0,451.0,33.0,451.0,38.0,461.0,46.0,459.0,54.0,460.0,62.0,459.0,70.0,459.0,78.0,460.0,86.0,459.0" stroke="black" stroke-width="1" fill="none" />
<polyline points="11.0,461.0,9.0,468.0,9.0,460.0,10.0,452.0" stroke="black" stroke-width="1" fill="none" />
<polyline points="33.0,448.0,29.0,442.0,20.0,441.0,20.0,433.0,20.0,425.0,20.0,417.0,20.0,409.0,20.0,401.0,20.0,393.0,20.0,385.0,20.0,377.0,20.0,369.0,20.0,361.0" stroke="black" stroke-width="1" fill="none" />
<polyline points="7.0,354.0,7.0,362.0,7.0,370.0,7.0,378.0,7.0,386.0,7.0,394.0,7.0,402.0,7.0,410.0,7.0,418.0,7.0,426.0,7.0,434.0,8.0,442.0,19.0,455.0,27.0,460.0,35.0,465.0,43.0,467.0,51.0,470.0,59.0,472.0,67.0,474.0,75.0,474.0,83.0,475.0,91.0,476.0,99.0,477.0,107.0,478.0,115.0,479.0" stroke="black" stroke-width="1" fill="none" />
<polyline points="248.0,480.0,256.0,479.0,264.0,478.0,272.0,476.0,280.0,475.0,288.0,473.0,296.0,472.0,304.0,470.0,312.0,467.0,320.0,465.0,328.0,462.0,336.0,457.0,346.0,447.0" stroke="black" stroke-width="1" fill="none" />
<polyline points="305.0,480.0,313.0,480.0,321.0,480.0,329.0,480.0,337.0,480.0,345.0,480.0,353.0,480.0,361.0,480.0,369.0,480.0,377.0,480.0,385.0,480.0,393.0,480.0,401.0,480.0,409.0,480.0,417.0,480.0,425.0,480.0,433.0,480.0,441.0,480.0,449.0,480.0,457.0,480.0,465.0,480.0,473.0,480.0,481.0,480.0,489.0,480.0,497.0,480.0,505.0,480.0" stroke="black" stroke-width="1" fill="none" />
<polyline points="292.0,480.0,287.0,477.0,279.0,480.0" stroke="black" stroke-width="1" fill="none" />
<polyline points="511.0,475.0,511.0,467.0,511.0,459.0,511.0,451.0,511.0,443.0,511.0,435.0,511.0,427.0,511.0,419.0,511.0,411.0,511.0,403.0,511.0,395.0,511.0,387.0,511.0,379.0,511.0,371.0,511.0,363.0,511.0,355.0,511.0,347.0,511.0,339.0,511.0,331.0,511.0,323.0,511.0,315.0,511.0,307.0,511.0,299.0,511.0,291.0,511.0,283.0,511.0,275.0,511.0,267.0,511.0,259.0,511.0,251.0,511.0,243.0" stroke="black" stroke-width="1" fill="none" />
<polyline points="443.0,155.0,454.0,163.0,462.0,171.0,467.0,179.0,471.0,187.0,472.0,195.0,472.0,203.0,471.0,211.0,470.0,219.0,466.0,227.0,463.0,235.0,459.0,243.0,454.0,251.0,449.0,259.0,444.0,267.0,436.0,275.0,428.0,283.0,419.0,291.0,410.0,299.0,399.0,307.0,386.0,315.0,371.0,323.0,358.0,331.0,371.0,334.0" stroke="black" stroke-width="1" fill="none" />
<polyline points="330.0,398.0,332.0,389.0,331.0,381.0,329.0,373.0,329.0,365.0,330.0,357.0,332.0,349.0,334.0,341.0,341.0,333.0,347.0,320.0,346.0,312.0,346.0,304.0,346.0,296.0,347.0,288.0,347.0,280.0,347.0,272.0,347.0,264.0,347.0,256.0,347.0,248.0,348.0,240.0,348.0,232.0,348.0,224.0,348.0,216.0,356.0,208.0,362.0,200.0,368.0,192.0,372.0,184.0,375.0,176.0,380.0,168.0,387.0,160.0,391.0,160.0" stroke="black" stroke-width="1" fill="none" />
<polyline points="374.0,131.0,358.0,139.0,342.0,147.0,337.0,155.0,335.0,163.0,334.0,171.0,333.0,179.0,333.0,187.0,334.0,195.0,336.0,203.0,338.0,211.0" stroke="black" stroke-width="1" fill="none" />
<polyline points="358.0,121.0,355.0,129.0,362.0,122.0,370.0,121.0,378.0,121.0" stroke="black" stroke-width="1" fill="none" />
<polyline points="387.0,112.0,385.0,120.0,390.0,112.0,398.0,112.0,406.0,113.0,414.0,113.0,422.0,112.0,430.0,112.0,438.0,113.0,446.0,113.0,453.0,120.0,461.0,120.0,469.0,122.0,476.0,129.0,484.0,130.0,488.0,138.0,491.0,143.0,500.0,146.0" stroke="black" stroke-width="1" fill="none" />
<polyline points="457.0,127.0,469.0,135.0,480.0,143.0,487.0,151.0,492.0,159.0,496.0,167.0,498.0,175.0,501.0,183.0,502.0,191.0,503.0,199.0,503.0,207.0,503.0,215.0,501.0,223.0,500.0,231.0,497.0,239.0,495.0,247.0,489.0,255.0,484.0,263.0,478.0,271.0,472.0,279.0,464.0,287.0,457.0,295.0,448.0,303.0,440.0,311.0,431.0,319.0,422.0,327.0,411.0,335.0,402.0,343.0,392.0,351.0,383.0,359.0,372.0,367.0,363.0,375.0,354.0,383.0,346.0,391.0,343.0,399.0,343.0,407.0,342.0,415.0,341.0,423.0,341.0,431.0,341.0,439.0,341.0,447.0,340.0,455.0" stroke="black" stroke-width="1" fill="none" />
<polyline points="235.0,100.0,235.0,98.0" stroke="black" stroke-width="1" fill="none" />
<polyline points="256.0,90.0,264.0,90.0" stroke="black" stroke-width="1" fill="none" />
<polyline points="267.0,78.0,275.0,78.0,293.0,76.0,305.0,75.0,319.0,73.0" stroke="black" stroke-width="1" fill="none" />
<polyline points="306.0,66.0,298.0,70.0,290.0,70.0,284.0,66.0,276.0,69.0,271.0,68.0,263.0,68.0,255.0,69.0,252.0,69.0,244.0,69.0" stroke="black" stroke-width="1" fill="none" />
<polyline points="257.0,79.0,249.0,79.0,236.0,80.0,228.0,80.0,220.0,80.0" stroke="black" stroke-width="1" fill="none" />
<polyline points="180.0,96.0,179.0,93.0,174.0,100.0,166.0,100.0" stroke="black" stroke-width="1" fill="none" />
<polyline points="151.0,81.0,159.0,81.0,167.0,81.0,175.0,81.0,183.0,81.0,191.0,81.0,199.0,81.0,208.0,74.0" stroke="black" stroke-width="1" fill="none" />
<polyline points="141.0,80.0,133.0,80.0,125.0,80.0" stroke="black" stroke-width="1" fill="none" />
<polyline points="89.0,65.0,90.0,59.0" stroke="black" stroke-width="1" fill="none" />
<polyline points="86.0,78.0,94.0,78.0,106.0,79.0" stroke="black" stroke-width="1" fill="none" />
<polyline points="61.0,70.0,69.0,68.0,77.0,69.0,85.0,70.0,93.0,70.0,101.0,69.0,107.0,65.0,110.0,69.0,118.0,66.0,119.0,68.0,127.0,69.0,133.0,69.0,141.0,69.0,149.0,66.0,155.0,69.0,163.0,70.0,171.0,69.0,179.0,72.0,187.0,69.0,195.0,69.0,203.0,70.0,211.0,69.0,219.0,70.0,227.0,70.0,235.0,69.0,243.0,69.0" stroke="black" stroke-width="1" fill="none" />
<polyline points="328.0,47.0,323.0,44.0,317.0,43.0,309.0,43.0,301.0,43.0,293.0,43.0,285.0,43.0,277.0,43.0,269.0,42.0,261.0,43.0,253.0,44.0,245.0,44.0,237.0,43.0,229.0,43.0,221.0,43.0,213.0,36.0,205.0,34.0,197.0,36.0,191.0,34.0,183.0,35.0,175.0,35.0,167.0,35.0,159.0,35.0,151.0,36.0,147.0,43.0,139.0,43.0,131.0,43.0,123.0,43.0,115.0,42.0,108.0,44.0,100.0,44.0,94.0,42.0,86.0,43.0,78.0,43.0,70.0,43.0,62.0,43.0,54.0,44.0,46.0,44.0,38.0,43.0" stroke="black" stroke-width="1" fill="none" />
<polyline points="22.0,81.0,28.0,83.0,25.0,91.0,25.0,99.0,25.0,107.0,25.0,115.0,25.0,123.0,25.0,131.0,25.0,139.0,25.0,147.0,25.0,155.0,25.0,163.0,25.0,171.0,25.0,179.0,25.0,187.0,25.0,195.0" stroke="black" stroke-width="1" fill="none" />
<polyline points="22.0,199.0,21.0,191.0,21.0,183.0,21.0,175.0,21.0,167.0,21.0,159.0,21.0,151.0,21.0,143.0,21.0,135.0,21.0,127.0,21.0,119.0,21.0,111.0,21.0,103.0,21.0,95.0,21.0,87.0" stroke="black" stroke-width="1" fill="none" />
<polyline points="10.0,76.0,10.0,84.0,9.0,92.0,9.0,100.0,9.0,108.0,9.0,116.0,9.0,124.0,9.0,132.0,9.0,140.0,9.0,148.0,9.0,156.0,9.0,164.0,9.0,172.0,9.0,180.0,9.0,188.0,9.0,196.0,6.0,205.0" stroke="black" stroke-width="1" fill="none" />
<polyline points="5.0,197.0,5.0,189.0,5.0,181.0,5.0,173.0,5.0,165.0,5.0,157.0,5.0,149.0,5.0,141.0,5.0,133.0,5.0,125.0,5.0,117.0,5.0,109.0,5.0,101.0,5.0,93.0,5.0,85.0,5.0,77.0" stroke="black" stroke-width="1" fill="none" />
<polyline points="5.0,75.0,3.0,83.0,3.0,91.0,3.0,99.0,3.0,107.0,3.0,115.0,3.0,123.0,3.0,131.0,3.0,139.0,3.0,147.0,3.0,155.0,3.0,163.0,3.0,171.0,3.0,179.0,3.0,187.0,3.0,195.0,3.0,204.0,5.0,211.0,5.0,219.0,5.0,227.0,5.0,235.0,5.0,243.0,5.0,251.0,5.0,259.0,5.0,267.0,5.0,275.0,5.0,283.0,5.0,291.0,5.0,299.0,5.0,307.0,5.0,315.0,5.0,323.0,5.0,331.0,5.0,339.0,4.0,347.0,4.0,355.0,4.0,363.0,3.0,371.0,3.0,379.0,3.0,387.0,3.0,395.0,3.0,403.0,3.0,411.0,3.0,419.0,3.0,427.0,3.0,435.0" stroke="black" stroke-width="1" fill="none" />
<polyline points="8.0,58.0,72.0,58.0" stroke="black" stroke-width="1" fill="none" />
<polyline points="80.0,56.0,88.0,48.0" stroke="black" stroke-width="1" fill="none" />
<polyline points="80.0,48.0,72.0,56.0" stroke="black" stroke-width="1" fill="none" />
<polyline points="72.0,48.0,64.0,56.0" stroke="black" stroke-width="1" fill="none" />
<polyline points="64.0,54.0,128.0,54.0" stroke="black" stroke-width="1" fill="none" />
<polyline points="128.0,56.0,136.0,48.0" stroke="black" stroke-width="1" fill="none" />
<polyline points="128.0,48.0,120.0,56.0" stroke="black" stroke-width="1" fill="none" />
<polyline points="120.0,48.0,112.0,56.0" stroke="black" stroke-width="1" fill="none" />
<polyline points="112.0,48.0,104.0,56.0" stroke="black" stroke-width="1" fill="none" />
<polyline points="104.0,48.0,96.0,56.0" stroke="black" stroke-width="1" fill="none" />
<polyline points="96.0,48.0,88.0,56.0" stroke="black" stroke-width="1" fill="none" />
<polyline points="88.0,72.0,72.0,88.0" stroke="black" stroke-width="1" fill="none" />
<polyline points="80.0,88.0,96.0,72.0" stroke="black" stroke-width="1" fill="none" />
<polyline points="104.0,72.0,88.0,88.0" stroke="black" stroke-width="1" fill="none" />
<polyline points="104.0,88.0,112.0,80.0" stroke="black" stroke-width="1" fill="none" />
<polyline points="112.0,86.0,160.0,86.0" stroke="black" stroke-width="1" fill="none" />
<polyline points="160.0,88.0,168.0,80.0" stroke="black" stroke-width="1" fill="none" />
<polyline points="168.0,86.0,192.0,86.0" stroke="black" stroke-width="1" fill="none" />
<polyline points="192.0,88.0,200.0,80.0" stroke="black" stroke-width="1" fill="none" />
<polyline points="200.0,86.0,232.0,86.0" stroke="black" stroke-width="1" fill="none" />
<polyline points="232.0,88.0,248.0,72.0" stroke="black" stroke-width="1" fill="none" />
<polyline points="248.0,80.0,240.0,88.0" stroke="black" stroke-width="1" fill="none" />
<polyline points="240.0,86.0,256.0,86.0" stroke="black" stroke-width="1" fill="none" />
<polyline points="264.0,88.0,280.0,72.0" stroke="black" stroke-width="1" fill="none" />
<polyline points="272.0,72.0,256.0,88.0" stroke="black" stroke-width="1" fill="none" />
<polyline points="272.0,88.0,288.0,72.0" stroke="black" stroke-width="1" fill="none" />
<polyline points="288.0,78.0,328.0,78.0" stroke="black" stroke-width="1" fill="none" />
<polyline points="344.0,80.0,352.0,72.0" stroke="black" stroke-width="1" fill="none" />
<polyline points="352.0,64.0,336.0,80.0" stroke="black" stroke-width="1" fill="none" />
<polyline points="328.0,80.0,344.0,64.0" stroke="black" stroke-width="1" fill="none" />
<polyline points="344.0,56.0,320.0,80.0" stroke="black" stroke-width="1" fill="none" />
<polyline points="312.0,80.0,336.0,56.0" stroke="black" stroke-width="1" fill="none" />
<polyline points="328.0,56.0,320.0,64.0" stroke="black" stroke-width="1" fill="none" />
<polyline points="320.0,62.0,336.0,62.0" stroke="black" stroke-width="1" fill="none" />
<polyline points="320.0,56.0,312.0,64.0" stroke="black" stroke-width="1" fill="none" />
<polyline points="312.0,66.0,352.0,66.0" stroke="black" stroke-width="1" fill="none" />
<polyline points="352.0,80.0,344.0,88.0" stroke="black" stroke-width="1" fill="none" />
<polyline points="344.0,90.0,352.0,90.0" stroke="black" stroke-width="1" fill="none" />
<polyline points="352.0,88.0,344.0,96.0" stroke="black" stroke-width="1" fill="none" />
<polyline points="344.0,98.0,352.0,98.0" stroke="black" stroke-width="1" fill="none" />
<polyline points="352.0,96.0,344.0,104.0" stroke="black" stroke-width="1" fill="none" />
<polyline points="344.0,106.0,352.0,106.0" stroke="black" stroke-width="1" fill="none" />
<polyline points="352.0,104.0,344.0,112.0" stroke="black" stroke-width="1" fill="none" />
<polyline points="344.0,114.0,352.0,114.0" stroke="black" stroke-width="1" fill="none" />
<polyline points="352.0,112.0,344.0,120.0" stroke="black" stroke-width="1" fill="none" />
<polyline points="344.0,122.0,352.0,122.0" stroke="black" stroke-width="1" fill="none" />
<polyline points="352.0,120.0,344.0,128.0" stroke="black" stroke-width="1" fill="none" />
<polyline points="344.0,130.0,384.0,130.0" stroke="black" stroke-width="1" fill="none" />
<polyline points="384.0,128.0,392.0,120.0" stroke="black" stroke-width="1" fill="none" />
<polyline points="392.0,114.0,416.0,114.0" stroke="black" stroke-width="1" fill="none" />
<polyline points="416.0,120.0,408.0,128.0" stroke="black" stroke-width="1" fill="none" />
<polyline points="408.0,120.0,400.0,128.0" stroke="black" stroke-width="1" fill="none" />
<polyline points="400.0,120.0,392.0,128.0" stroke="black" stroke-width="1" fill="none" />
<polyline points="376.0,128.0,368.0,136.0" stroke="black" stroke-width="1" fill="none" />
<polyline points="368.0,128.0,352.0,144.0" stroke="black" stroke-width="1" fill="none" />
<polyline points="352.0,136.0,328.0,160.0" stroke="black" stroke-width="1" fill="none" />
<polyline points="328.0,162.0,344.0,162.0" stroke="black" stroke-width="1" fill="none" />
<polyline points="336.0,160.0,328.0,168.0" stroke="black" stroke-width="1" fill="none" />
<polyline points="328.0,170.0,336.0,170.0" stroke="black" stroke-width="1" fill="none" />
<polyline points="336.0,168.0,328.0,176.0" stroke="black" stroke-width="1" fill="none" />
<polyline points="328.0,178.0,336.0,178.0" stroke="black" stroke-width="1" fill="none" />
<polyline points="336.0,176.0,328.0,184.0" stroke="black" stroke-width="1" fill="none" />
<polyline points="328.0,186.0,336.0,186.0" stroke="black" stroke-width="1" fill="none" />
<polyline points="336.0,184.0,328.0,192.0" stroke="black" stroke-width="1" fill="none" />
<polyline points="328.0,194.0,344.0,194.0" stroke="black" stroke-width="1" fill="none" />
<polyline points="352.0,194.0,368.0,194.0" stroke="black" stroke-width="1" fill="none" />
<polyline points="368.0,192.0,336.0,224.0" stroke="black" stroke-width="1" fill="none" />
<polyline points="336.0,226.0,352.0,226.0" stroke="black" stroke-width="1" fill="none" />
<polyline points="352.0,224.0,344.0,232.0" stroke="black" stroke-width="1" fill="none" />
<polyline points="352.0,232.0,344.0,240.0" stroke="black" stroke-width="1" fill="none" />
<polyline points="336.0,242.0,352.0,242.0" stroke="black" stroke-width="1" fill="none" />
<polyline points="352.0,258.0,336.0,258.0" stroke="black" stroke-width="1" fill="none" />
<polyline points="336.0,250.0,352.0,250.0" stroke="black" stroke-width="1" fill="none" />
<polyline points="352.0,266.0,336.0,266.0" stroke="black" stroke-width="1" fill="none" />
<polyline points="336.0,274.0,352.0,274.0" stroke="black" stroke-width="1" fill="none" />
<polyline points="352.0,290.0,336.0,290.0" stroke="black" stroke-width="1" fill="none" />
<polyline points="336.0,282.0,352.0,282.0" stroke="black" stroke-width="1" fill="none" />
<polyline points="352.0,298.0,336.0,298.0" stroke="black" stroke-width="1" fill="none" />
<polyline points="336.0,306.0,352.0,306.0" stroke="black" stroke-width="1" fill="none" />
<polyline points="360.0,314.0,392.0,314.0" stroke="black" stroke-width="1" fill="none" />
<polyline points="392.0,304.0,368.0,328.0" stroke="black" stroke-width="1" fill="none" />
<polyline points="360.0,328.0,376.0,312.0" stroke="black" stroke-width="1" fill="none" />
<polyline points="376.0,306.0,408.0,306.0" stroke="black" stroke-width="1" fill="none" />
<polyline points="408.0,304.0,448.0,264.0" stroke="black" stroke-width="1" fill="none" />
<polyline points="448.0,262.0,440.0,262.0" stroke="black" stroke-width="1" fill="none" />
<polyline points="440.0,258.0,456.0,258.0" stroke="black" stroke-width="1" fill="none" />
<polyline points="448.0,248.0,464.0,232.0" stroke="black" stroke-width="1" fill="none" />
<polyline points="464.0,240.0,384.0,320.0" stroke="black" stroke-width="1" fill="none" />
<polyline points="400.0,330.0,424.0,330.0" stroke="black" stroke-width="1" fill="none" />
<polyline points="424.0,326.0,416.0,326.0" stroke="black" stroke-width="1" fill="none" />
<polyline points="416.0,334.0,408.0,334.0" stroke="black" stroke-width="1" fill="none" />
<polyline points="400.0,336.0,336.0,400.0" stroke="black" stroke-width="1" fill="none" />
<polyline points="336.0,398.0,344.0,398.0" stroke="black" stroke-width="1" fill="none" />
<polyline points="344.0,400.0,336.0,408.0" stroke="black" stroke-width="1" fill="none" />
<polyline points="336.0,410.0,344.0,410.0" stroke="black" stroke-width="1" fill="none" />
<polyline points="344.0,408.0,336.0,416.0" stroke="black" stroke-width="1" fill="none" />
<polyline points="336.0,418.0,344.0,418.0" stroke="black" stroke-width="1" fill="none" />
<polyline points="344.0,416.0,336.0,424.0" stroke="black" stroke-width="1" fill="none" />
<polyline points="336.0,426.0,344.0,426.0" stroke="black" stroke-width="1" fill="none" />
<polyline points="344.0,424.0,336.0,432.0" stroke="black" stroke-width="1" fill="none" />
<polyline points="336.0,434.0,344.0,434.0" stroke="black" stroke-width="1" fill="none" />
<polyline points="344.0,432.0,336.0,440.0" stroke="black" stroke-width="1" fill="none" />
<polyline points="336.0,442.0,344.0,442.0" stroke="black" stroke-width="1" fill="none" />
<polyline points="344.0,440.0,336.0,448.0" stroke="black" stroke-width="1" fill="none" />
<polyline points="344.0,448.0,328.0,464.0" stroke="black" stroke-width="1" fill="none" />
<polyline points="328.0,456.0,320.0,464.0" stroke="black" stroke-width="1" fill="none" />
<polyline points="320.0,462.0,328.0,462.0" stroke="black" stroke-width="1" fill="none" />
<polyline points="328.0,450.0,344.0,450.0" stroke="black" stroke-width="1" fill="none" />
<polyline points="312.0,464.0,304.0,472.0" stroke="black" stroke-width="1" fill="none" />
<polyline points="304.0,464.0,296.0,472.0" stroke="black" stroke-width="1" fill="none" />
<polyline points="296.0,464.0,288.0,472.0" stroke="black" stroke-width="1" fill="none" />
<polyline points="272.0,472.0,264.0,480.0" stroke="black" stroke-width="1" fill="none" />
<polyline points="264.0,472.0,256.0,480.0" stroke="black" stroke-width="1" fill="none" />
<polyline points="256.0,472.0,248.0,480.0" stroke="black" stroke-width="1" fill="none" />
<polyline points="248.0,472.0,240.0,480.0" stroke="black" stroke-width="1" fill="none" />
<polyline points="240.0,478.0,248.0,478.0" stroke="black" stroke-width="1" fill="none" />
<polyline points="240.0,472.0,232.0,480.0" stroke="black" stroke-width="1" fill="none" />
<polyline points="232.0,472.0,224.0,480.0" stroke="black" stroke-width="1" fill="none" />
<polyline points="224.0,472.0,216.0,480.0" stroke="black" stroke-width="1" fill="none" />
<polyline points="216.0,472.0,208.0,480.0" stroke="black" stroke-width="1" fill="none" />
<polyline points="208.0,472.0,200.0,480.0" stroke="black" stroke-width="1" fill="none" />
<polyline points="176.0,472.0,168.0,480.0" stroke="black" stroke-width="1" fill="none" />
<polyline points="168.0,472.0,160.0,480.0" stroke="black" stroke-width="1" fill="none" />
<polyline points="160.0,472.0,152.0,480.0" stroke="black" stroke-width="1" fill="none" />
<polyline points="152.0,472.0,144.0,480.0" stroke="black" stroke-width="1" fill="none" />
<polyline points="144.0,472.0,136.0,480.0" stroke="black" stroke-width="1" fill="none" />
<polyline points="136.0,472.0,128.0,480.0" stroke="black" stroke-width="1" fill="none" />
<polyline points="128.0,472.0,120.0,480.0" stroke="black" stroke-width="1" fill="none" />
<polyline points="120.0,472.0,112.0,480.0" stroke="black" stroke-width="1" fill="none" />
<polyline points="112.0,478.0,128.0,478.0" stroke="black" stroke-width="1" fill="none" />
<polyline points="112.0,472.0,104.0,480.0" stroke="black" stroke-width="1" fill="none" />
<polyline points="104.0,472.0,96.0,480.0" stroke="black" stroke-width="1" fill="none" />
<polyline points="80.0,464.0,72.0,472.0" stroke="black" stroke-width="1" fill="none" />
<polyline points="72.0,464.0,64.0,472.0" stroke="black" stroke-width="1" fill="none" />
<polyline points="64.0,464.0,56.0,472.0" stroke="black" stroke-width="1" fill="none" />
<polyline points="56.0,474.0,288.0,474.0" stroke="black" stroke-width="1" fill="none" />
<polyline points="272.0,466.0,320.0,466.0" stroke="black" stroke-width="1" fill="none" />
<polyline points="304.0,458.0,336.0,458.0" stroke="black" stroke-width="1" fill="none" />
<polyline points="328.0,402.0,344.0,402.0" stroke="black" stroke-width="1" fill="none" />
<polyline points="328.0,400.0,360.0,368.0" stroke="black" stroke-width="1" fill="none" />
<polyline points="360.0,362.0,384.0,362.0" stroke="black" stroke-width="1" fill="none" />
<polyline points="392.0,352.0,496.0,248.0" stroke="black" stroke-width="1" fill="none" />
<polyline points="488.0,242.0,504.0,242.0" stroke="black" stroke-width="1" fill="none" />
<polyline points="504.0,232.0,480.0,256.0" stroke="black" stroke-width="1" fill="none" />
<polyline points="480.0,250.0,496.0,250.0" stroke="black" stroke-width="1" fill="none" />
<polyline points="488.0,234.0,504.0,234.0" stroke="black" stroke-width="1" fill="none" />
<polyline points="496.0,232.0,504.0,224.0" stroke="black" stroke-width="1" fill="none" />
<polyline points="504.0,216.0,496.0,224.0" stroke="black" stroke-width="1" fill="none" />
<polyline points="496.0,218.0,504.0,218.0" stroke="black" stroke-width="1" fill="none" />
<polyline points="496.0,216.0,504.0,208.0" stroke="black" stroke-width="1" fill="none" />
<polyline points="504.0,200.0,496.0,208.0" stroke="black" stroke-width="1" fill="none" />
<polyline points="496.0,210.0,504.0,210.0" stroke="black" stroke-width="1" fill="none" />
<polyline points="504.0,202.0,496.0,202.0" stroke="black" stroke-width="1" fill="none" />
<polyline points="496.0,200.0,504.0,192.0" stroke="black" stroke-width="1" fill="none" />
<polyline points="504.0,184.0,496.0,192.0" stroke="black" stroke-width="1" fill="none" />
<polyline points="496.0,194.0,504.0,194.0" stroke="black" stroke-width="1" fill="none" />
<polyline points="496.0,184.0,504.0,176.0" stroke="black" stroke-width="1" fill="none" />
<polyline points="496.0,168.0,488.0,176.0" stroke="black" stroke-width="1" fill="none" />
<polyline points="488.0,178.0,504.0,178.0" stroke="black" stroke-width="1" fill="none" />
<polyline points="504.0,186.0,488.0,186.0" stroke="black" stroke-width="1" fill="none" />
<polyline points="488.0,170.0,504.0,170.0" stroke="black" stroke-width="1" fill="none" />
<polyline points="496.0,160.0,488.0,168.0" stroke="black" stroke-width="1" fill="none" />
<polyline points="488.0,160.0,496.0,152.0" stroke="black" stroke-width="1" fill="none" />
<polyline points="488.0,152.0,480.0,160.0" stroke="black" stroke-width="1" fill="none" />
<polyline points="480.0,162.0,496.0,162.0" stroke="black" stroke-width="1" fill="none" />
<polyline points="496.0,154.0,480.0,154.0" stroke="black" stroke-width="1" fill="none" />
<polyline points="480.0,152.0,488.0,144.0" stroke="black" stroke-width="1" fill="none" />
<polyline points="480.0,144.0,472.0,152.0" stroke="black" stroke-width="1" fill="none" />
<polyline points="472.0,146.0,496.0,146.0" stroke="black" stroke-width="1" fill="none" />
<polyline points="480.0,136.0,472.0,144.0" stroke="black" stroke-width="1" fill="none" />
<polyline points="472.0,136.0,464.0,144.0" stroke="black" stroke-width="1" fill="none" />
<polyline points="464.0,138.0,480.0,138.0" stroke="black" stroke-width="1" fill="none" />
<polyline points="464.0,128.0,456.0,136.0" stroke="black" stroke-width="1" fill="none" />
<polyline points="456.0,134.0,464.0,134.0" stroke="black" stroke-width="1" fill="none" />
<polyline points="456.0,128.0,448.0,136.0" stroke="black" stroke-width="1" fill="none" />
<polyline points="448.0,130.0,480.0,130.0" stroke="black" stroke-width="1" fill="none" />
<polyline points="448.0,120.0,440.0,128.0" stroke="black" stroke-width="1" fill="none" />
<polyline points="440.0,120.0,432.0,128.0" stroke="black" stroke-width="1" fill="none" />
<polyline points="432.0,120.0,424.0,128.0" stroke="black" stroke-width="1" fill="none" />
<polyline points="424.0,120.0,416.0,128.0" stroke="black" stroke-width="1" fill="none" />
<polyline points="416.0,144.0,408.0,152.0" stroke="black" stroke-width="1" fill="none" />
<polyline points="408.0,144.0,400.0,152.0" stroke="black" stroke-width="1" fill="none" />
<polyline points="392.0,152.0,368.0,176.0" stroke="black" stroke-width="1" fill="none" />
<polyline points="368.0,170.0,384.0,170.0" stroke="black" stroke-width="1" fill="none" />
<polyline points="384.0,166.0,376.0,166.0" stroke="black" stroke-width="1" fill="none" />
<polyline points="368.0,162.0,392.0,162.0" stroke="black" stroke-width="1" fill="none" />
<polyline points="392.0,158.0,384.0,158.0" stroke="black" stroke-width="1" fill="none" />
<polyline points="376.0,154.0,448.0,154.0" stroke="black" stroke-width="1" fill="none" />
<polyline points="448.0,152.0,440.0,160.0" stroke="black" stroke-width="1" fill="none" />
<polyline points="440.0,162.0,464.0,162.0" stroke="black" stroke-width="1" fill="none" />
<polyline points="464.0,168.0,456.0,176.0" stroke="black" stroke-width="1" fill="none" />
<polyline points="456.0,174.0,464.0,174.0" stroke="black" stroke-width="1" fill="none" />
<polyline points="464.0,176.0,456.0,184.0" stroke="black" stroke-width="1" fill="none" />
<polyline points="456.0,186.0,472.0,186.0" stroke="black" stroke-width="1" fill="none" />
<polyline points="472.0,184.0,464.0,192.0" stroke="black" stroke-width="1" fill="none" />
<polyline points="464.0,194.0,472.0,194.0" stroke="black" stroke-width="1" fill="none" />
<polyline points="472.0,192.0,464.0,200.0" stroke="black" stroke-width="1" fill="none" />
<polyline points="464.0,202.0,472.0,202.0" stroke="black" stroke-width="1" fill="none" />
<polyline points="472.0,200.0,464.0,208.0" stroke="black" stroke-width="1" fill="none" />
<polyline points="464.0,210.0,472.0,210.0" stroke="black" stroke-width="1" fill="none" />
<polyline points="472.0,208.0,464.0,216.0" stroke="black" stroke-width="1" fill="none" />
<polyline points="472.0,216.0,456.0,232.0" stroke="black" stroke-width="1" fill="none" />
<polyline points="456.0,226.0,472.0,226.0" stroke="black" stroke-width="1" fill="none" />
<polyline points="488.0,226.0,504.0,226.0" stroke="black" stroke-width="1" fill="none" />
<polyline points="488.0,262.0,480.0,262.0" stroke="black" stroke-width="1" fill="none" />
<polyline points="472.0,258.0,496.0,258.0" stroke="black" stroke-width="1" fill="none" />
<polyline points="480.0,272.0,432.0,320.0" stroke="black" stroke-width="1" fill="none" />
<polyline points="432.0,306.0,456.0,306.0" stroke="black" stroke-width="1" fill="none" />
<polyline points="464.0,298.0,440.0,298.0" stroke="black" stroke-width="1" fill="none" />
<polyline points="448.0,290.0,464.0,290.0" stroke="black" stroke-width="1" fill="none" />
<polyline points="456.0,282.0,472.0,282.0" stroke="black" stroke-width="1" fill="none" />
<polyline points="464.0,274.0,480.0,274.0" stroke="black" stroke-width="1" fill="none" />
<polyline points="472.0,266.0,488.0,266.0" stroke="black" stroke-width="1" fill="none" />
<polyline points="464.0,242.0,448.0,242.0" stroke="black" stroke-width="1" fill="none" />
<polyline points="448.0,234.0,464.0,234.0" stroke="black" stroke-width="1" fill="none" />
<polyline points="456.0,218.0,472.0,218.0" stroke="black" stroke-width="1" fill="none" />
<polyline points="464.0,184.0,472.0,176.0" stroke="black" stroke-width="1" fill="none" />
<polyline points="472.0,178.0,456.0,178.0" stroke="black" stroke-width="1" fill="none" />
<polyline points="448.0,170.0,472.0,170.0" stroke="black" stroke-width="1" fill="none" />
<polyline points="456.0,160.0,448.0,168.0" stroke="black" stroke-width="1" fill="none" />
<polyline points="448.0,166.0,456.0,166.0" stroke="black" stroke-width="1" fill="none" />
<polyline points="440.0,152.0,432.0,160.0" stroke="black" stroke-width="1" fill="none" />
<polyline points="432.0,158.0,440.0,158.0" stroke="black" stroke-width="1" fill="none" />
<polyline points="432.0,146.0,392.0,146.0" stroke="black" stroke-width="1" fill="none" />
<polyline points="368.0,122.0,464.0,122.0" stroke="black" stroke-width="1" fill="none" />
<polyline points="376.0,176.0,360.0,192.0" stroke="black" stroke-width="1" fill="none" />
<polyline points="360.0,186.0,376.0,186.0" stroke="black" stroke-width="1" fill="none" />
<polyline points="376.0,182.0,368.0,182.0" stroke="black" stroke-width="1" fill="none" />
<polyline points="360.0,178.0,376.0,178.0" stroke="black" stroke-width="1" fill="none" />
<polyline points="360.0,206.0,352.0,206.0" stroke="black" stroke-width="1" fill="none" />
<polyline points="344.0,208.0,336.0,216.0" stroke="black" stroke-width="1" fill="none" />
<polyline points="336.0,218.0,352.0,218.0" stroke="black" stroke-width="1" fill="none" />
<polyline points="352.0,216.0,344.0,224.0" stroke="black" stroke-width="1" fill="none" />
<polyline points="344.0,214.0,352.0,214.0" stroke="black" stroke-width="1" fill="none" />
<polyline points="336.0,200.0,328.0,208.0" stroke="black" stroke-width="1" fill="none" />
<polyline points="328.0,210.0,360.0,210.0" stroke="black" stroke-width="1" fill="none" />
<polyline points="336.0,192.0,328.0,200.0" stroke="black" stroke-width="1" fill="none" />
<polyline points="328.0,202.0,368.0,202.0" stroke="black" stroke-width="1" fill="none" />
<polyline points="352.0,234.0,336.0,234.0" stroke="black" stroke-width="1" fill="none" />
<polyline points="336.0,314.0,352.0,314.0" stroke="black" stroke-width="1" fill="none" />
<polyline points="352.0,320.0,328.0,344.0" stroke="black" stroke-width="1" fill="none" />
<polyline points="328.0,342.0,336.0,342.0" stroke="black" stroke-width="1" fill="none" />
<polyline points="336.0,344.0,320.0,360.0" stroke="black" stroke-width="1" fill="none" />
<polyline points="320.0,362.0,336.0,362.0" stroke="black" stroke-width="1" fill="none" />
<polyline points="328.0,360.0,320.0,368.0" stroke="black" stroke-width="1" fill="none" />
<polyline points="320.0,370.0,336.0,370.0" stroke="black" stroke-width="1" fill="none" />
<polyline points="328.0,368.0,320.0,376.0" stroke="black" stroke-width="1" fill="none" />
<polyline points="320.0,378.0,336.0,378.0" stroke="black" stroke-width="1" fill="none" />
<polyline points="336.0,384.0,328.0,392.0" stroke="black" stroke-width="1" fill="none" />
<polyline points="328.0,394.0,352.0,394.0" stroke="black" stroke-width="1" fill="none" />
<polyline points="344.0,378.0,368.0,378.0" stroke="black" stroke-width="1" fill="none" />
<polyline points="368.0,374.0,360.0,374.0" stroke="black" stroke-width="1" fill="none" />
<polyline points="352.0,370.0,376.0,370.0" stroke="black" stroke-width="1" fill="none" />
<polyline points="376.0,366.0,368.0,366.0" stroke="black" stroke-width="1" fill="none" />
<polyline points="368.0,354.0,392.0,354.0" stroke="black" stroke-width="1" fill="none" />
<polyline points="384.0,346.0,408.0,346.0" stroke="black" stroke-width="1" fill="none" />
<polyline points="408.0,342.0,400.0,342.0" stroke="black" stroke-width="1" fill="none" />
<polyline points="392.0,338.0,416.0,338.0" stroke="black" stroke-width="1" fill="none" />
<polyline points="408.0,322.0,432.0,322.0" stroke="black" stroke-width="1" fill="none" />
<polyline points="440.0,314.0,416.0,314.0" stroke="black" stroke-width="1" fill="none" />
<polyline points="424.0,290.0,400.0,290.0" stroke="black" stroke-width="1" fill="none" />
<polyline points="392.0,298.0,416.0,298.0" stroke="black" stroke-width="1" fill="none" />
<polyline points="416.0,282.0,432.0,282.0" stroke="black" stroke-width="1" fill="none" />
<polyline points="424.0,274.0,440.0,274.0" stroke="black" stroke-width="1" fill="none" />
<polyline points="440.0,270.0,432.0,270.0" stroke="black" stroke-width="1" fill="none" />
<polyline points="432.0,266.0,448.0,266.0" stroke="black" stroke-width="1" fill="none" />
<polyline points="440.0,250.0,456.0,250.0" stroke="black" stroke-width="1" fill="none" />
<polyline points="360.0,320.0,344.0,336.0" stroke="black" stroke-width="1" fill="none" />
<polyline points="336.0,328.0,344.0,320.0" stroke="black" stroke-width="1" fill="none" />
<polyline points="336.0,322.0,376.0,322.0" stroke="black" stroke-width="1" fill="none" />
<polyline points="368.0,326.0,360.0,326.0" stroke="black" stroke-width="1" fill="none" />
<polyline points="344.0,338.0,328.0,338.0" stroke="black" stroke-width="1" fill="none" />
<polyline points="328.0,330.0,360.0,330.0" stroke="black" stroke-width="1" fill="none" />
<polyline points="336.0,354.0,320.0,354.0" stroke="black" stroke-width="1" fill="none" />
<polyline points="320.0,346.0,336.0,346.0" stroke="black" stroke-width="1" fill="none" />
<polyline points="328.0,376.0,320.0,384.0" stroke="black" stroke-width="1" fill="none" />
<polyline points="320.0,386.0,360.0,386.0" stroke="black" stroke-width="1" fill="none" />
<polyline points="344.0,154.0,328.0,154.0" stroke="black" stroke-width="1" fill="none" />
<polyline points="328.0,146.0,344.0,146.0" stroke="black" stroke-width="1" fill="none" />
<polyline points="344.0,142.0,352.0,142.0" stroke="black" stroke-width="1" fill="none" />
<polyline points="352.0,128.0,336.0,144.0" stroke="black" stroke-width="1" fill="none" />
<polyline points="336.0,138.0,360.0,138.0" stroke="black" stroke-width="1" fill="none" />
<polyline points="352.0,82.0,344.0,82.0" stroke="black" stroke-width="1" fill="none" />
<polyline points="312.0,72.0,304.0,80.0" stroke="black" stroke-width="1" fill="none" />
<polyline points="304.0,72.0,296.0,80.0" stroke="black" stroke-width="1" fill="none" />
<polyline points="296.0,72.0,280.0,88.0" stroke="black" stroke-width="1" fill="none" />
<polyline points="264.0,72.0,248.0,88.0" stroke="black" stroke-width="1" fill="none" />
<polyline points="240.0,90.0,232.0,90.0" stroke="black" stroke-width="1" fill="none" />
<polyline points="224.0,88.0,232.0,80.0" stroke="black" stroke-width="1" fill="none" />
<polyline points="224.0,80.0,216.0,88.0" stroke="black" stroke-width="1" fill="none" />
<polyline points="216.0,80.0,208.0,88.0" stroke="black" stroke-width="1" fill="none" />
<polyline points="208.0,80.0,200.0,88.0" stroke="black" stroke-width="1" fill="none" />
<polyline points="192.0,80.0,184.0,88.0" stroke="black" stroke-width="1" fill="none" />
<polyline points="184.0,80.0,176.0,88.0" stroke="black" stroke-width="1" fill="none" />
<polyline points="176.0,80.0,168.0,88.0" stroke="black" stroke-width="1" fill="none" />
<polyline points="160.0,80.0,152.0,88.0" stroke="black" stroke-width="1" fill="none" />
<polyline points="152.0,80.0,144.0,88.0" stroke="black" stroke-width="1" fill="none" />
<polyline points="144.0,80.0,136.0,88.0" stroke="black" stroke-width="1" fill="none" />
<polyline points="136.0,80.0,128.0,88.0" stroke="black" stroke-width="1" fill="none" />
<polyline points="128.0,90.0,224.0,90.0" stroke="black" stroke-width="1" fill="none" />
<polyline points="240.0,56.0,248.0,48.0" stroke="black" stroke-width="1" fill="none" />
<polyline points="240.0,48.0,232.0,56.0" stroke="black" stroke-width="1" fill="none" />
<polyline points="232.0,48.0,224.0,56.0" stroke="black" stroke-width="1" fill="none" />
<polyline points="224.0,48.0,216.0,56.0" stroke="black" stroke-width="1" fill="none" />
<polyline points="216.0,48.0,208.0,56.0" stroke="black" stroke-width="1" fill="none" />
<polyline points="208.0,48.0,200.0,56.0" stroke="black" stroke-width="1" fill="none" />
<polyline points="200.0,48.0,208.0,40.0" stroke="black" stroke-width="1" fill="none" />
<polyline points="200.0,40.0,192.0,48.0" stroke="black" stroke-width="1" fill="none" />
<polyline points="192.0,40.0,184.0,48.0" stroke="black" stroke-width="1" fill="none" />
<polyline points="184.0,40.0,176.0,48.0" stroke="black" stroke-width="1" fill="none" />
<polyline points="176.0,40.0,160.0,56.0" stroke="black" stroke-width="1" fill="none" />
<polyline points="160.0,48.0,152.0,56.0" stroke="black" stroke-width="1" fill="none" />
<polyline points="152.0,48.0,144.0,56.0" stroke="black" stroke-width="1" fill="none" />
<polyline points="144.0,48.0,136.0,56.0" stroke="black" stroke-width="1" fill="none" />
<polyline points="120.0,42.0,240.0,42.0" stroke="black" stroke-width="1" fill="none" />
<polyline points="240.0,54.0,304.0,54.0" stroke="black" stroke-width="1" fill="none" />
<polyline points="304.0,56.0,312.0,48.0" stroke="black" stroke-width="1" fill="none" />
<polyline points="304.0,48.0,296.0,56.0" stroke="black" stroke-width="1" fill="none" />
<polyline points="296.0,58.0,352.0,58.0" stroke="black" stroke-width="1" fill="none" />
<polyline points="320.0,48.0,312.0,56.0" stroke="black" stroke-width="1" fill="none" />
<polyline points="296.0,48.0,288.0,56.0" stroke="black" stroke-width="1" fill="none" />
<polyline points="288.0,48.0,280.0,56.0" stroke="black" stroke-width="1" fill="none" />
<polyline points="280.0,48.0,272.0,56.0" stroke="black" stroke-width="1" fill="none" />
<polyline points="272.0,48.0,264.0,56.0" stroke="black" stroke-width="1" fill="none" />
<polyline points="264.0,48.0,256.0,56.0" stroke="black" stroke-width="1" fill="none" />
<polyline points="256.0,48.0,248.0,56.0" stroke="black" stroke-width="1" fill="none" />
<polyline points="128.0,80.0,120.0,88.0" stroke="black" stroke-width="1" fill="none" />
<polyline points="120.0,80.0,112.0,88.0" stroke="black" stroke-width="1" fill="none" />
<polyline points="112.0,90.0,120.0,90.0" stroke="black" stroke-width="1" fill="none" />
<polyline points="104.0,80.0,96.0,88.0" stroke="black" stroke-width="1" fill="none" />
<polyline points="80.0,72.0,72.0,80.0" stroke="black" stroke-width="1" fill="none" />
<polyline points="72.0,72.0,64.0,80.0" stroke="black" stroke-width="1" fill="none" />
<polyline points="64.0,72.0,56.0,80.0" stroke="black" stroke-width="1" fill="none" />
<polyline points="56.0,72.0,48.0,80.0" stroke="black" stroke-width="1" fill="none" />
<polyline points="48.0,72.0,40.0,80.0" stroke="black" stroke-width="1" fill="none" />
<polyline points="40.0,72.0,32.0,80.0" stroke="black" stroke-width="1" fill="none" />
<polyline points="32.0,78.0,64.0,78.0" stroke="black" stroke-width="1" fill="none" />
<polyline points="56.0,56.0,64.0,48.0" stroke="black" stroke-width="1" fill="none" />
<polyline points="56.0,48.0,24.0,80.0" stroke="black" stroke-width="1" fill="none" />
<polyline points="16.0,80.0,40.0,56.0" stroke="black" stroke-width="1" fill="none" />
<polyline points="40.0,50.0,328.0,50.0" stroke="black" stroke-width="1" fill="none" />
<polyline points="32.0,56.0,16.0,72.0" stroke="black" stroke-width="1" fill="none" />
<polyline points="16.0,70.0,24.0,70.0" stroke="black" stroke-width="1" fill="none" />
<polyline points="24.0,62.0,40.0,62.0" stroke="black" stroke-width="1" fill="none" />
<polyline points="24.0,56.0,8.0,72.0" stroke="black" stroke-width="1" fill="none" />
<polyline points="8.0,74.0,352.0,74.0" stroke="black" stroke-width="1" fill="none" />
<polyline points="328.0,82.0,32.0,82.0" stroke="black" stroke-width="1" fill="none" />
<polyline points="24.0,98.0,8.0,98.0" stroke="black" stroke-width="1" fill="none" />
<polyline points="8.0,90.0,24.0,90.0" stroke="black" stroke-width="1" fill="none" />
<polyline points="24.0,106.0,8.0,106.0" stroke="black" stroke-width="1" fill="none" />
<polyline points="8.0,114.0,24.0,114.0" stroke="black" stroke-width="1" fill="none" />
<polyline points="24.0,130.0,8.0,130.0" stroke="black" stroke-width="1" fill="none" />
<polyline points="8.0,122.0,24.0,122.0" stroke="black" stroke-width="1" fill="none" />
<polyline points="24.0,138.0,8.0,138.0" stroke="black" stroke-width="1" fill="none" />
<polyline points="8.0,146.0,24.0,146.0" stroke="black" stroke-width="1" fill="none" />
<polyline points="24.0,162.0,8.0,162.0" stroke="black" stroke-width="1" fill="none" />
<polyline points="8.0,154.0,24.0,154.0" stroke="black" stroke-width="1" fill="none" />
<polyline points="24.0,170.0,8.0,170.0" stroke="black" stroke-width="1" fill="none" />
<polyline points="8.0,178.0,24.0,178.0" stroke="black" stroke-width="1" fill="none" />
<polyline points="24.0,194.0,8.0,194.0" stroke="black" stroke-width="1" fill="none" />
<polyline points="8.0,186.0,24.0,186.0" stroke="black" stroke-width="1" fill="none" />
<polyline points="16.0,200.0,8.0,208.0" stroke="black" stroke-width="1" fill="none" />
<polyline points="8.0,210.0,24.0,210.0" stroke="black" stroke-width="1" fill="none" />
<polyline points="16.0,218.0,8.0,218.0" stroke="black" stroke-width="1" fill="none" />
<polyline points="8.0,226.0,16.0,226.0" stroke="black" stroke-width="1" fill="none" />
<polyline points="16.0,234.0,8.0,234.0" stroke="black" stroke-width="1" fill="none" />
<polyline points="8.0,242.0,16.0,242.0" stroke="black" stroke-width="1" fill="none" />
<polyline points="16.0,250.0,8.0,250.0" stroke="black" stroke-width="1" fill="none" />
<polyline points="8.0,258.0,16.0,258.0" stroke="black" stroke-width="1" fill="none" />
<polyline points="16.0,266.0,8.0,266.0" stroke="black" stroke-width="1" fill="none" />
<polyline points="8.0,274.0,16.0,274.0" stroke="black" stroke-width="1" fill="none" />
<polyline points="16.0,282.0,8.0,282.0" stroke="black" stroke-width="1" fill="none" />
<polyline points="8.0,290.0,16.0,290.0" stroke="black" stroke-width="1" fill="none" />
<polyline points="16.0,298.0,8.0,298.0" stroke="black" stroke-width="1" fill="none" />
<polyline points="8.0,306.0,16.0,306.0" stroke="black" stroke-width="1" fill="none" />
<polyline points="16.0,314.0,8.0,314.0" stroke="black" stroke-width="1" fill="none" />
<polyline points="8.0,322.0,16.0,322.0" stroke="black" stroke-width="1" fill="none" />
<polyline points="16.0,330.0,8.0,330.0" stroke="black" stroke-width="1" fill="none" />
<polyline points="8.0,338.0,16.0,338.0" stroke="black" stroke-width="1" fill="none" />
<polyline points="8.0,346.0,24.0,346.0" stroke="black" stroke-width="1" fill="none" />
<polyline points="16.0,352.0,8.0,360.0" stroke="black" stroke-width="1" fill="none" />
<polyline points="8.0,362.0,16.0,362.0" stroke="black" stroke-width="1" fill="none" />
<polyline points="16.0,370.0,8.0,370.0" stroke="black" stroke-width="1" fill="none" />
<polyline points="8.0,378.0,16.0,378.0" stroke="black" stroke-width="1" fill="none" />
<polyline points="16.0,386.0,8.0,386.0" stroke="black" stroke-width="1" fill="none" />
<polyline points="8.0,394.0,16.0,394.0" stroke="black" stroke-width="1" fill="none" />
<polyline points="16.0,402.0,8.0,402.0" stroke="black" stroke-width="1" fill="none" />
<polyline points="8.0,410.0,16.0,410.0" stroke="black" stroke-width="1" fill="none" />
<polyline points="16.0,418.0,8.0,418.0" stroke="black" stroke-width="1" fill="none" />
<polyline points="8.0,426.0,16.0,426.0" stroke="black" stroke-width="1" fill="none" />
<polyline points="16.0,434.0,8.0,434.0" stroke="black" stroke-width="1" fill="none" />
<polyline points="8.0,442.0,24.0,442.0" stroke="black" stroke-width="1" fill="none" />
<polyline points="24.0,448.0,16.0,456.0" stroke="black" stroke-width="1" fill="none" />
<polyline points="16.0,454.0,24.0,454.0" stroke="black" stroke-width="1" fill="none" />
<polyline points="32.0,456.0,24.0,464.0" stroke="black" stroke-width="1" fill="none" />
<polyline points="32.0,464.0,40.0,456.0" stroke="black" stroke-width="1" fill="none" />
<polyline points="40.0,466.0,88.0,466.0" stroke="black" stroke-width="1" fill="none" />
<polyline points="56.0,464.0,48.0,472.0" stroke="black" stroke-width="1" fill="none" />
<polyline points="48.0,464.0,40.0,472.0" stroke="black" stroke-width="1" fill="none" />
<polyline points="48.0,458.0,16.0,458.0" stroke="black" stroke-width="1" fill="none" />
<polyline points="8.0,450.0,32.0,450.0" stroke="black" stroke-width="1" fill="none" />
<polyline points="16.0,440.0,8.0,448.0" stroke="black" stroke-width="1" fill="none" />
<polyline points="8.0,354.0,16.0,354.0" stroke="black" stroke-width="1" fill="none" />
<polyline points="8.0,202.0,24.0,202.0" stroke="black" stroke-width="1" fill="none" />
<polyline points="24.0,82.0,8.0,82.0" stroke="black" stroke-width="1" fill="none" />
<polyline points="8.0,66.0,56.0,66.0" stroke="black" stroke-width="1" fill="none" />
</svg>