<svg xmlns="http://www.w3.org/2000/svg" height="511px" width="511px" version="1.1"><polyline points="1.0,0.0,1.0,8.0,1.0,16.0,1.0,24.0,1.0,32.0,1.0,40.0,1.0,48.0,1.0,56.0,1.0,64.0,1.0,72.0,1.0,80.0,1.0,88.0,1.0,96.0,1.0,104.0,1.0,112.0,1.0,120.0,1.0,128.0,1.0,136.0,1.0,144.0,1.0,152.0,1.0,160.0,1.0,168.0,1.0,176.0,1.0,184.0,1.0,192.0,1.0,200.0,1.0,208.0,1.0,216.0,1.0,224.0,1.0,232.0,1.0,240.0,1.0,248.0,1.0,256.0,1.0,264.0,1.0,272.0,1.0,280.0,1.0,288.0,1.0,296.0,1.0,304.0,1.0,312.0,1.0,320.0,1.0,328.0,1.0,336.0,1.0,344.0,1.0,352.0,1.0,360.0,1.0,368.0,1.0,376.0,1.0,384.0,1.0,392.0,1.0,400.0,1.0,408.0,1.0,416.0,1.0,424.0,1.0,432.0,1.0,440.0,1.0,448.0,1.0,456.0,1.0,464.0,1.0,472.0,1.0,480.0,1.0,488.0,1.0,496.0,1.0,504.0,3.0,511.0,11.0,511.0,19.0,511.0,27.0,511.0,35.0,511.0,43.0,511.0,51.0,511.0,59.0,511.0,67.0,511.0,75.0,511.0,83.0,511.0,91.0,511.0,99.0,511.0,107.0,511.0,115.0,511.0,123.0,511.0,131.0,511.0,139.0,511.0,147.0,511.0,155.0,511.0,163.0,511.0,171.0,511.0,179.0,511.0,187.0,511.0,195.0,511.0,203.0,511.0,211.0,511.0,219.0,511.0,227.0,511.0,235.0,511.0,243.0,511.0,251.0,511.0,259.0,511.0,267.0,511.0,275.0,511.0,283.0,511.0,291.0,511.0,299.0,511.0,307.0,511.0,315.0,511.0,323.0,511.0,331.0,511.0,339.0,511.0,347.0,511.0,355.0,511.0,363.0,511.0,371.0,511.0,379.0,511.0,387.0,511.0,395.0,511.0,403.0,511.0,411.0,511.0,419.0,511.0,427.0,511.0,435.0,511.0,443.0,511.0,451.0,511.0,459.0,511.0,467.0,511.0,475.0,511.0,483.0,511.0,491.0,511.0,499.0,511.0,507.0,511.0" stroke="black" stroke-width="1" fill="none" />
<polyline points="447.0,474.0,439.0,480.0,438.0,481.0,430.0,486.0,422.0,488.0,414.0,493.0,406.0,496.0,398.0,498.0,390.0,500.0,382.0,502.0,374.0,503.0,366.0,504.0,358.0,505.0,350.0,506.0,342.0,507.0,334.0,507.0,326.0,507.0,318.0,507.0,310.0,507.0,302.0,506.0,294.0,506.0,286.0,505.0,278.0,504.0,270.0,503.0,262.0,501.0,254.0,499.0,246.0,497.0,238.0,495.0,230.0,492.0,222.0,489.0,215.0,486.0,207.0,481.0,199.0,475.0,191.0,465.0" stroke="black" stroke-width="1" fill="none" />
<polyline points="219.0,491.0,205.0,483.0,196.0,475.0,189.0,467.0,187.0,459.0,186.0,451.0,185.0,443.0,185.0,435.0,186.0,427.0,186.0,419.0" stroke="black" stroke-width="1" fill="none" />
<polyline points="191.0,407.0,193.0,399.0,195.0,391.0,195.0,383.0,196.0,375.0,196.0,367.0,196.0,359.0,196.0,351.0,196.0,343.0,196.0,335.0,196.0,327.0,196.0,319.0,196.0,311.0,196.0,303.0,195.0,295.0,195.0,287.0,195.0,279.0,195.0,271.0,194.0,263.0,194.0,255.0,194.0,247.0,193.0,239.0,193.0,231.0,192.0,223.0,192.0,215.0,192.0,214.0" stroke="black" stroke-width="1" fill="none" />
<polyline points="195.0,213.0,196.0,221.0,202.0,229.0" stroke="black" stroke-width="1" fill="none" />
<polyline points="205.0,230.0,197.0,219.0" stroke="black" stroke-width="1" fill="none" />
<polyline points="181.0,189.0,181.0,190.0,179.0,198.0,176.0,206.0,173.0,208.0,176.0,206.0,183.0,203.0,184.0,211.0,184.0,219.0,185.0,227.0,185.0,235.0,186.0,243.0,186.0,251.0,187.0,259.0,187.0,267.0,187.0,275.0,187.0,283.0,188.0,291.0,188.0,299.0,188.0,307.0,188.0,315.0,188.0,323.0,188.0,331.0,188.0,339.0,188.0,347.0,188.0,355.0,187.0,363.0,186.0,371.0,181.0,378.0" stroke="black" stroke-width="1" fill="none" />
<polyline points="181.0,365.0,173.0,372.0,165.0,380.0,157.0,383.0,149.0,383.0,141.0,383.0,133.0,382.0,125.0,379.0,117.0,375.0,109.0,369.0,101.0,360.0,93.0,347.0,85.0,329.0" stroke="black" stroke-width="1" fill="none" />
<polyline points="84.0,345.0,92.0,358.0,97.0,374.0,105.0,378.0,113.0,383.0,121.0,387.0,129.0,389.0,137.0,389.0,149.0,394.0,154.0,396.0" stroke="black" stroke-width="1" fill="none" />
<polyline points="119.0,395.0,113.0,392.0" stroke="black" stroke-width="1" fill="none" />
<polyline points="106.0,382.0,114.0,389.0,122.0,392.0,130.0,394.0,138.0,395.0" stroke="black" stroke-width="1" fill="none" />
<polyline points="112.0,385.0,100.0,377.0" stroke="black" stroke-width="1" fill="none" />
<polyline points="95.0,391.0,87.0,383.0,79.0,371.0,71.0,354.0" stroke="black" stroke-width="1" fill="none" />
<polyline points="64.0,330.0,66.0,338.0,68.0,346.0,70.0,354.0,73.0,362.0,78.0,370.0,83.0,378.0,89.0,386.0,98.0,394.0,107.0,400.0" stroke="black" stroke-width="1" fill="none" />
<polyline points="163.0,381.0,172.0,373.0,180.0,365.0" stroke="black" stroke-width="1" fill="none" />
<polyline points="189.0,410.0,181.0,412.0,173.0,412.0,165.0,413.0,157.0,414.0,149.0,415.0,141.0,415.0,133.0,415.0,125.0,414.0,117.0,412.0,109.0,408.0,101.0,404.0,93.0,398.0,85.0,390.0,77.0,382.0,69.0,369.0,62.0,353.0,54.0,335.0" stroke="black" stroke-width="1" fill="none" />
<polyline points="71.0,299.0,69.0,291.0,69.0,283.0,69.0,275.0" stroke="black" stroke-width="1" fill="none" />
<polyline points="75.0,251.0,74.0,259.0,74.0,267.0,73.0,275.0,74.0,283.0,74.0,291.0,75.0,299.0,76.0,305.0,78.0,313.0,79.0,321.0,82.0,329.0,85.0,336.0,88.0,343.0,92.0,351.0,96.0,359.0,103.0,367.0,111.0,375.0,126.0,383.0,140.0,391.0,148.0,391.0,156.0,391.0" stroke="black" stroke-width="1" fill="none" />
<polyline points="71.0,233.0,79.0,214.0,87.0,202.0,94.0,196.0,100.0,193.0,108.0,189.0,116.0,189.0,124.0,189.0,132.0,189.0,140.0,191.0,148.0,195.0,156.0,200.0,164.0,206.0,172.0,211.0" stroke="black" stroke-width="1" fill="none" />
<polyline points="180.0,228.0,171.0,219.0,163.0,211.0,156.0,203.0,142.0,195.0" stroke="black" stroke-width="1" fill="none" />
<polyline points="173.0,172.0,178.0,171.0,176.0,159.0,176.0,151.0,176.0,143.0,179.0,135.0,176.0,141.0" stroke="black" stroke-width="1" fill="none" />
<polyline points="183.0,141.0,191.0,149.0,195.0,151.0,203.0,152.0" stroke="black" stroke-width="1" fill="none" />
<polyline points="200.0,154.0,208.0,157.0,216.0,157.0,224.0,158.0,232.0,160.0,240.0,161.0,248.0,162.0,256.0,163.0,264.0,164.0,272.0,165.0,280.0,165.0,288.0,166.0,296.0,166.0,304.0,167.0,312.0,167.0,320.0,167.0,328.0,167.0,336.0,166.0,344.0,166.0,352.0,166.0,360.0,165.0,368.0,165.0,376.0,164.0,384.0,163.0,392.0,162.0,400.0,161.0,408.0,160.0,416.0,159.0,424.0,157.0,432.0,155.0,440.0,153.0,448.0,150.0,446.0,150.0" stroke="black" stroke-width="1" fill="none" />
<polyline points="455.0,165.0,464.0,156.0,459.0,156.0,456.0,164.0,454.0,172.0,453.0,180.0,452.0,188.0,449.0,196.0,447.0,204.0,444.0,212.0" stroke="black" stroke-width="1" fill="none" />
<polyline points="463.0,245.0,463.0,253.0,463.0,261.0,463.0,269.0,461.0,278.0,461.0,286.0,461.0,294.0,461.0,302.0,461.0,310.0" stroke="black" stroke-width="1" fill="none" />
<polyline points="461.0,319.0,460.0,327.0" stroke="black" stroke-width="1" fill="none" />
<polyline points="460.0,344.0,460.0,352.0,460.0,360.0,459.0,368.0" stroke="black" stroke-width="1" fill="none" />
<polyline points="458.0,426.0,458.0,434.0,458.0,442.0,456.0,450.0,456.0,458.0,453.0,466.0,447.0,474.0,436.0,478.0,431.0,485.0,415.0,492.0" stroke="black" stroke-width="1" fill="none" />
<polyline points="356.0,168.0,364.0,168.0,372.0,167.0,382.0,166.0,390.0,165.0,398.0,164.0,407.0,163.0,415.0,162.0,424.0,160.0,432.0,158.0,440.0,156.0,448.0,153.0,456.0,149.0,464.0,143.0" stroke="black" stroke-width="1" fill="none" />
<polyline points="468.0,140.0,457.0,148.0" stroke="black" stroke-width="1" fill="none" />
<polyline points="466.0,159.0,466.0,167.0,466.0,175.0,466.0,183.0,464.0,191.0,464.0,198.0,464.0,206.0,464.0,214.0,464.0,222.0,464.0,230.0" stroke="black" stroke-width="1" fill="none" />
<polyline points="427.0,123.0,417.0,120.0,409.0,119.0,401.0,118.0,393.0,117.0,385.0,116.0,377.0,115.0,369.0,114.0,361.0,114.0,353.0,113.0,345.0,113.0,337.0,113.0,329.0,112.0,321.0,113.0,313.0,113.0,305.0,113.0,297.0,113.0,289.0,114.0,277.0,115.0,269.0,116.0,261.0,116.0,253.0,118.0,245.0,119.0" stroke="black" stroke-width="1" fill="none" />
<polyline points="184.0,150.0,198.0,158.0,218.0,158.0,219.0,160.0,227.0,162.0,235.0,163.0,243.0,164.0,251.0,166.0,259.0,167.0,268.0,168.0,276.0,168.0,284.0,169.0,292.0,169.0,300.0,169.0,308.0,169.0,316.0,169.0,324.0,169.0,332.0,169.0,340.0,169.0" stroke="black" stroke-width="1" fill="none" />
<polyline points="166.0,167.0,158.0,168.0,152.0,167.0,144.0,166.0,136.0,166.0,128.0,165.0,120.0,166.0,112.0,167.0,104.0,172.0,100.0,177.0,92.0,178.0,83.0,181.0,85.0,179.0,96.0,172.0,110.0,170.0" stroke="black" stroke-width="1" fill="none" />
<polyline points="109.0,170.0,96.0,175.0,98.0,174.0,105.0,174.0,113.0,172.0,121.0,171.0,121.0,173.0,129.0,173.0,137.0,172.0,145.0,174.0,153.0,174.0,155.0,176.0,163.0,177.0,171.0,174.0" stroke="black" stroke-width="1" fill="none" />
<polyline points="170.0,163.0,162.0,163.0,154.0,161.0,146.0,160.0,138.0,159.0,130.0,159.0,122.0,160.0,114.0,161.0,106.0,163.0,98.0,166.0,90.0,171.0,82.0,177.0,74.0,184.0,66.0,194.0,58.0,207.0,50.0,226.0" stroke="black" stroke-width="1" fill="none" />
<polyline points="70.0,259.0,72.0,251.0,77.0,243.0,79.0,235.0,79.0,227.0,84.0,219.0,89.0,211.0" stroke="black" stroke-width="1" fill="none" />
<polyline points="102.0,190.0,91.0,198.0,84.0,206.0,79.0,214.0,75.0,222.0,73.0,230.0,70.0,238.0,68.0,246.0,66.0,254.0,66.0,262.0,65.0,270.0,65.0,278.0,65.0,286.0,65.0,294.0,66.0,302.0,68.0,310.0,70.0,318.0,72.0,326.0,76.0,334.0,79.0,342.0,84.0,350.0,88.0,358.0,93.0,366.0,96.0,374.0,102.0,382.0,112.0,390.0,120.0,398.0,126.0,406.0" stroke="black" stroke-width="1" fill="none" />
<polyline points="107.0,411.0,94.0,403.0,85.0,395.0,77.0,387.0,71.0,379.0,66.0,371.0,62.0,363.0,58.0,355.0,55.0,347.0,52.0,339.0,49.0,331.0,47.0,323.0,45.0,315.0,44.0,307.0,43.0,299.0,43.0,291.0,42.0,283.0,43.0,275.0,43.0,267.0,44.0,259.0,45.0,251.0,46.0,243.0,48.0,235.0,50.0,227.0,53.0,219.0,56.0,211.0,61.0,203.0,66.0,195.0,72.0,187.0,79.0,179.0,90.0,171.0,105.0,163.0" stroke="black" stroke-width="1" fill="none" />
<polyline points="0.0,1.0,8.0,1.0,16.0,1.0,24.0,1.0,32.0,1.0,40.0,1.0,48.0,1.0,56.0,1.0,64.0,1.0,72.0,1.0,80.0,1.0,88.0,1.0,96.0,1.0,104.0,1.0,112.0,1.0,120.0,1.0,128.0,1.0,136.0,1.0,144.0,1.0,152.0,1.0,160.0,1.0,168.0,1.0,176.0,1.0,184.0,1.0,192.0,1.0,200.0,1.0,208.0,1.0,216.0,1.0,224.0,1.0,232.0,1.0,240.0,1.0,248.0,1.0,256.0,1.0,264.0,1.0,272.0,1.0,280.0,1.0,288.0,1.0,296.0,1.0,304.0,1.0,312.0,1.0,320.0,1.0,328.0,1.0,336.0,1.0,344.0,1.0,352.0,1.0,360.0,1.0,368.0,1.0,376.0,1.0,384.0,1.0,392.0,1.0,400.0,1.0,408.0,1.0,416.0,1.0,424.0,1.0,432.0,1.0,440.0,1.0,448.0,1.0,456.0,1.0,464.0,1.0,472.0,1.0,480.0,1.0,488.0,1.0,496.0,1.0,504.0,1.0,511.0,3.0,511.0,11.0,511.0,19.0,511.0,27.0,511.0,35.0,511.0,43.0,511.0,51.0,511.0,59.0,511.0,67.0,511.0,75.0,511.0,83.0,511.0,91.0,511.0,99.0,511.0,107.0,511.0,115.0,511.0,123.0,511.0,131.0,511.0,139.0,511.0,147.0,511.0,155.0,511.0,163.0,511.0,171.0,511.0,179.0,511.0,187.0,511.0,195.0,511.0,203.0,511.0,211.0,511.0,219.0,511.0,227.0,511.0,235.0,511.0,243.0,511.0,251.0,511.0,259.0,511.0,267.0,511.0,275.0,511.0,283.0,511.0,291.0,511.0,299.0,511.0,307.0,511.0,315.0,511.0,323.0,511.0,331.0,511.0,339.0,511.0,347.0,511.0,355.0,511.0,363.0,511.0,371.0,511.0,379.0,511.0,387.0,511.0,395.0,511.0,403.0,511.0,411.0,511.0,419.0,511.0,427.0,511.0,435.0,511.0,443.0,511.0,451.0,511.0,459.0,511.0,467.0,511.0,475.0,511.0,483.0,511.0,491.0,511.0,499.0,511.0,507.0" stroke="black" stroke-width="1" fill="none" />
<polyline points="48.0,226.0,80.0,226.0" stroke="black" stroke-width="1" fill="none" />
<polyline points="72.0,232.0,48.0,256.0" stroke="black" stroke-width="1" fill="none" />
<polyline points="48.0,254.0,64.0,254.0" stroke="black" stroke-width="1" fill="none" />
<polyline points="64.0,264.0,48.0,280.0" stroke="black" stroke-width="1" fill="none" />
<polyline points="48.0,282.0,72.0,282.0" stroke="black" stroke-width="1" fill="none" />
<polyline points="64.0,280.0,48.0,296.0" stroke="black" stroke-width="1" fill="none" />
<polyline points="48.0,298.0,72.0,298.0" stroke="black" stroke-width="1" fill="none" />
<polyline points="72.0,296.0,48.0,320.0" stroke="black" stroke-width="1" fill="none" />
<polyline points="48.0,322.0,80.0,322.0" stroke="black" stroke-width="1" fill="none" />
<polyline points="80.0,328.0,64.0,344.0" stroke="black" stroke-width="1" fill="none" />
<polyline points="64.0,342.0,80.0,342.0" stroke="black" stroke-width="1" fill="none" />
<polyline points="80.0,344.0,64.0,360.0" stroke="black" stroke-width="1" fill="none" />
<polyline points="64.0,362.0,104.0,362.0" stroke="black" stroke-width="1" fill="none" />
<polyline points="104.0,368.0,88.0,384.0" stroke="black" stroke-width="1" fill="none" />
<polyline points="88.0,390.0,104.0,390.0" stroke="black" stroke-width="1" fill="none" />
<polyline points="104.0,384.0,96.0,392.0" stroke="black" stroke-width="1" fill="none" />
<polyline points="96.0,398.0,112.0,398.0" stroke="black" stroke-width="1" fill="none" />
<polyline points="112.0,392.0,104.0,400.0" stroke="black" stroke-width="1" fill="none" />
<polyline points="104.0,408.0,120.0,392.0" stroke="black" stroke-width="1" fill="none" />
<polyline points="120.0,400.0,112.0,408.0" stroke="black" stroke-width="1" fill="none" />
<polyline points="112.0,406.0,176.0,406.0" stroke="black" stroke-width="1" fill="none" />
<polyline points="176.0,408.0,200.0,384.0" stroke="black" stroke-width="1" fill="none" />
<polyline points="200.0,376.0,160.0,416.0" stroke="black" stroke-width="1" fill="none" />
<polyline points="152.0,416.0,200.0,368.0" stroke="black" stroke-width="1" fill="none" />
<polyline points="200.0,360.0,192.0,368.0" stroke="black" stroke-width="1" fill="none" />
<polyline points="192.0,360.0,200.0,352.0" stroke="black" stroke-width="1" fill="none" />
<polyline points="200.0,344.0,192.0,352.0" stroke="black" stroke-width="1" fill="none" />
<polyline points="192.0,344.0,200.0,336.0" stroke="black" stroke-width="1" fill="none" />
<polyline points="200.0,328.0,192.0,336.0" stroke="black" stroke-width="1" fill="none" />
<polyline points="192.0,338.0,456.0,338.0" stroke="black" stroke-width="1" fill="none" />
<polyline points="440.0,336.0,272.0,504.0" stroke="black" stroke-width="1" fill="none" />
<polyline points="272.0,502.0,376.0,502.0" stroke="black" stroke-width="1" fill="none" />
<polyline points="424.0,488.0,440.0,472.0" stroke="black" stroke-width="1" fill="none" />
<polyline points="440.0,464.0,408.0,496.0" stroke="black" stroke-width="1" fill="none" />
<polyline points="400.0,496.0,440.0,456.0" stroke="black" stroke-width="1" fill="none" />
<polyline points="440.0,448.0,384.0,504.0" stroke="black" stroke-width="1" fill="none" />
<polyline points="376.0,504.0,440.0,440.0" stroke="black" stroke-width="1" fill="none" />
<polyline points="440.0,432.0,368.0,504.0" stroke="black" stroke-width="1" fill="none" />
<polyline points="360.0,504.0,440.0,424.0" stroke="black" stroke-width="1" fill="none" />
<polyline points="440.0,416.0,352.0,504.0" stroke="black" stroke-width="1" fill="none" />
<polyline points="344.0,504.0,440.0,408.0" stroke="black" stroke-width="1" fill="none" />
<polyline points="440.0,400.0,336.0,504.0" stroke="black" stroke-width="1" fill="none" />
<polyline points="328.0,504.0,440.0,392.0" stroke="black" stroke-width="1" fill="none" />
<polyline points="440.0,384.0,320.0,504.0" stroke="black" stroke-width="1" fill="none" />
<polyline points="312.0,504.0,440.0,376.0" stroke="black" stroke-width="1" fill="none" />
<polyline points="440.0,368.0,304.0,504.0" stroke="black" stroke-width="1" fill="none" />
<polyline points="296.0,504.0,440.0,360.0" stroke="black" stroke-width="1" fill="none" />
<polyline points="440.0,352.0,288.0,504.0" stroke="black" stroke-width="1" fill="none" />
<polyline points="280.0,504.0,440.0,344.0" stroke="black" stroke-width="1" fill="none" />
<polyline points="440.0,328.0,264.0,504.0" stroke="black" stroke-width="1" fill="none" />
<polyline points="256.0,504.0,440.0,320.0" stroke="black" stroke-width="1" fill="none" />
<polyline points="440.0,312.0,256.0,496.0" stroke="black" stroke-width="1" fill="none" />
<polyline points="248.0,496.0,440.0,304.0" stroke="black" stroke-width="1" fill="none" />
<polyline points="448.0,288.0,240.0,496.0" stroke="black" stroke-width="1" fill="none" />
<polyline points="240.0,494.0,408.0,494.0" stroke="black" stroke-width="1" fill="none" />
<polyline points="424.0,414.0,296.0,414.0" stroke="black" stroke-width="1" fill="none" />
<polyline points="296.0,406.0,416.0,406.0" stroke="black" stroke-width="1" fill="none" />
<polyline points="432.0,294.0,320.0,294.0" stroke="black" stroke-width="1" fill="none" />
<polyline points="320.0,286.0,432.0,286.0" stroke="black" stroke-width="1" fill="none" />
<polyline points="448.0,280.0,232.0,496.0" stroke="black" stroke-width="1" fill="none" />
<polyline points="232.0,488.0,448.0,272.0" stroke="black" stroke-width="1" fill="none" />
<polyline points="448.0,264.0,224.0,488.0" stroke="black" stroke-width="1" fill="none" />
<polyline points="224.0,486.0,424.0,486.0" stroke="black" stroke-width="1" fill="none" />
<polyline points="424.0,366.0,304.0,366.0" stroke="black" stroke-width="1" fill="none" />
<polyline points="296.0,358.0,424.0,358.0" stroke="black" stroke-width="1" fill="none" />
<polyline points="448.0,256.0,216.0,488.0" stroke="black" stroke-width="1" fill="none" />
<polyline points="216.0,480.0,448.0,248.0" stroke="black" stroke-width="1" fill="none" />
<polyline points="448.0,240.0,208.0,480.0" stroke="black" stroke-width="1" fill="none" />
<polyline points="208.0,482.0,440.0,482.0" stroke="black" stroke-width="1" fill="none" />
<polyline points="424.0,342.0,304.0,342.0" stroke="black" stroke-width="1" fill="none" />
<polyline points="304.0,334.0,424.0,334.0" stroke="black" stroke-width="1" fill="none" />
<polyline points="448.0,232.0,208.0,472.0" stroke="black" stroke-width="1" fill="none" />
<polyline points="200.0,472.0,448.0,224.0" stroke="black" stroke-width="1" fill="none" />
<polyline points="448.0,216.0,200.0,464.0" stroke="black" stroke-width="1" fill="none" />
<polyline points="200.0,456.0,448.0,208.0" stroke="black" stroke-width="1" fill="none" />
<polyline points="456.0,192.0,192.0,456.0" stroke="black" stroke-width="1" fill="none" />
<polyline points="192.0,458.0,448.0,458.0" stroke="black" stroke-width="1" fill="none" />
<polyline points="424.0,310.0,312.0,310.0" stroke="black" stroke-width="1" fill="none" />
<polyline points="312.0,302.0,424.0,302.0" stroke="black" stroke-width="1" fill="none" />
<polyline points="440.0,214.0,352.0,214.0" stroke="black" stroke-width="1" fill="none" />
<polyline points="352.0,206.0,448.0,206.0" stroke="black" stroke-width="1" fill="none" />
<polyline points="456.0,184.0,192.0,448.0" stroke="black" stroke-width="1" fill="none" />
<polyline points="192.0,440.0,456.0,176.0" stroke="black" stroke-width="1" fill="none" />
<polyline points="456.0,168.0,208.0,416.0" stroke="black" stroke-width="1" fill="none" />
<polyline points="192.0,418.0,448.0,418.0" stroke="black" stroke-width="1" fill="none" />
<polyline points="432.0,270.0,328.0,270.0" stroke="black" stroke-width="1" fill="none" />
<polyline points="328.0,262.0,432.0,262.0" stroke="black" stroke-width="1" fill="none" />
<polyline points="456.0,174.0,392.0,174.0" stroke="black" stroke-width="1" fill="none" />
<polyline points="392.0,168.0,216.0,344.0" stroke="black" stroke-width="1" fill="none" />
<polyline points="216.0,368.0,416.0,168.0" stroke="black" stroke-width="1" fill="none" />
<polyline points="408.0,168.0,216.0,360.0" stroke="black" stroke-width="1" fill="none" />
<polyline points="216.0,392.0,448.0,160.0" stroke="black" stroke-width="1" fill="none" />
<polyline points="448.0,154.0,464.0,154.0" stroke="black" stroke-width="1" fill="none" />
<polyline points="464.0,152.0,216.0,400.0" stroke="black" stroke-width="1" fill="none" />
<polyline points="216.0,384.0,440.0,160.0" stroke="black" stroke-width="1" fill="none" />
<polyline points="440.0,166.0,456.0,166.0" stroke="black" stroke-width="1" fill="none" />
<polyline points="432.0,160.0,216.0,376.0" stroke="black" stroke-width="1" fill="none" />
<polyline points="216.0,352.0,400.0,168.0" stroke="black" stroke-width="1" fill="none" />
<polyline points="408.0,162.0,464.0,162.0" stroke="black" stroke-width="1" fill="none" />
<polyline points="384.0,168.0,216.0,336.0" stroke="black" stroke-width="1" fill="none" />
<polyline points="216.0,328.0,376.0,168.0" stroke="black" stroke-width="1" fill="none" />
<polyline points="368.0,168.0,216.0,320.0" stroke="black" stroke-width="1" fill="none" />
<polyline points="216.0,312.0,352.0,176.0" stroke="black" stroke-width="1" fill="none" />
<polyline points="344.0,176.0,216.0,304.0" stroke="black" stroke-width="1" fill="none" />
<polyline points="208.0,304.0,336.0,176.0" stroke="black" stroke-width="1" fill="none" />
<polyline points="328.0,176.0,208.0,296.0" stroke="black" stroke-width="1" fill="none" />
<polyline points="200.0,296.0,192.0,304.0" stroke="black" stroke-width="1" fill="none" />
<polyline points="200.0,304.0,192.0,312.0" stroke="black" stroke-width="1" fill="none" />
<polyline points="200.0,312.0,192.0,320.0" stroke="black" stroke-width="1" fill="none" />
<polyline points="200.0,320.0,192.0,328.0" stroke="black" stroke-width="1" fill="none" />
<polyline points="184.0,330.0,456.0,330.0" stroke="black" stroke-width="1" fill="none" />
<polyline points="448.0,198.0,360.0,198.0" stroke="black" stroke-width="1" fill="none" />
<polyline points="360.0,190.0,448.0,190.0" stroke="black" stroke-width="1" fill="none" />
<polyline points="432.0,230.0,344.0,230.0" stroke="black" stroke-width="1" fill="none" />
<polyline points="344.0,222.0,440.0,222.0" stroke="black" stroke-width="1" fill="none" />
<polyline points="432.0,246.0,336.0,246.0" stroke="black" stroke-width="1" fill="none" />
<polyline points="336.0,238.0,432.0,238.0" stroke="black" stroke-width="1" fill="none" />
<polyline points="432.0,254.0,328.0,254.0" stroke="black" stroke-width="1" fill="none" />
<polyline points="320.0,278.0,432.0,278.0" stroke="black" stroke-width="1" fill="none" />
<polyline points="424.0,326.0,304.0,326.0" stroke="black" stroke-width="1" fill="none" />
<polyline points="304.0,318.0,424.0,318.0" stroke="black" stroke-width="1" fill="none" />
<polyline points="424.0,398.0,296.0,398.0" stroke="black" stroke-width="1" fill="none" />
<polyline points="296.0,390.0,424.0,390.0" stroke="black" stroke-width="1" fill="none" />
<polyline points="424.0,382.0,296.0,382.0" stroke="black" stroke-width="1" fill="none" />
<polyline points="296.0,374.0,424.0,374.0" stroke="black" stroke-width="1" fill="none" />
<polyline points="424.0,350.0,296.0,350.0" stroke="black" stroke-width="1" fill="none" />
<polyline points="288.0,422.0,424.0,422.0" stroke="black" stroke-width="1" fill="none" />
<polyline points="416.0,430.0,288.0,430.0" stroke="black" stroke-width="1" fill="none" />
<polyline points="280.0,438.0,416.0,438.0" stroke="black" stroke-width="1" fill="none" />
<polyline points="368.0,506.0,280.0,506.0" stroke="black" stroke-width="1" fill="none" />
<polyline points="248.0,498.0,400.0,498.0" stroke="black" stroke-width="1" fill="none" />
<polyline points="416.0,446.0,272.0,446.0" stroke="black" stroke-width="1" fill="none" />
<polyline points="264.0,454.0,424.0,454.0" stroke="black" stroke-width="1" fill="none" />
<polyline points="424.0,470.0,256.0,470.0" stroke="black" stroke-width="1" fill="none" />
<polyline points="256.0,462.0,424.0,462.0" stroke="black" stroke-width="1" fill="none" />
<polyline points="424.0,478.0,248.0,478.0" stroke="black" stroke-width="1" fill="none" />
<polyline points="224.0,490.0,424.0,490.0" stroke="black" stroke-width="1" fill="none" />
<polyline points="448.0,474.0,200.0,474.0" stroke="black" stroke-width="1" fill="none" />
<polyline points="192.0,466.0,448.0,466.0" stroke="black" stroke-width="1" fill="none" />
<polyline points="448.0,434.0,192.0,434.0" stroke="black" stroke-width="1" fill="none" />
<polyline points="192.0,426.0,448.0,426.0" stroke="black" stroke-width="1" fill="none" />
<polyline points="192.0,400.0,184.0,408.0" stroke="black" stroke-width="1" fill="none" />
<polyline points="184.0,406.0,192.0,406.0" stroke="black" stroke-width="1" fill="none" />
<polyline points="192.0,398.0,184.0,398.0" stroke="black" stroke-width="1" fill="none" />
<polyline points="184.0,382.0,176.0,382.0" stroke="black" stroke-width="1" fill="none" />
<polyline points="176.0,376.0,136.0,416.0" stroke="black" stroke-width="1" fill="none" />
<polyline points="144.0,416.0,184.0,376.0" stroke="black" stroke-width="1" fill="none" />
<polyline points="176.0,370.0,456.0,370.0" stroke="black" stroke-width="1" fill="none" />
<polyline points="320.0,176.0,208.0,288.0" stroke="black" stroke-width="1" fill="none" />
<polyline points="200.0,288.0,192.0,296.0" stroke="black" stroke-width="1" fill="none" />
<polyline points="192.0,288.0,200.0,280.0" stroke="black" stroke-width="1" fill="none" />
<polyline points="200.0,272.0,192.0,280.0" stroke="black" stroke-width="1" fill="none" />
<polyline points="192.0,272.0,200.0,264.0" stroke="black" stroke-width="1" fill="none" />
<polyline points="200.0,256.0,192.0,264.0" stroke="black" stroke-width="1" fill="none" />
<polyline points="192.0,256.0,200.0,248.0" stroke="black" stroke-width="1" fill="none" />
<polyline points="200.0,240.0,192.0,248.0" stroke="black" stroke-width="1" fill="none" />
<polyline points="192.0,240.0,264.0,168.0" stroke="black" stroke-width="1" fill="none" />
<polyline points="256.0,168.0,192.0,232.0" stroke="black" stroke-width="1" fill="none" />
<polyline points="184.0,232.0,248.0,168.0" stroke="black" stroke-width="1" fill="none" />
<polyline points="240.0,168.0,184.0,224.0" stroke="black" stroke-width="1" fill="none" />
<polyline points="184.0,226.0,456.0,226.0" stroke="black" stroke-width="1" fill="none" />
<polyline points="312.0,176.0,208.0,280.0" stroke="black" stroke-width="1" fill="none" />
<polyline points="208.0,272.0,304.0,176.0" stroke="black" stroke-width="1" fill="none" />
<polyline points="296.0,176.0,208.0,264.0" stroke="black" stroke-width="1" fill="none" />
<polyline points="208.0,256.0,288.0,176.0" stroke="black" stroke-width="1" fill="none" />
<polyline points="280.0,176.0,208.0,248.0" stroke="black" stroke-width="1" fill="none" />
<polyline points="208.0,240.0,272.0,176.0" stroke="black" stroke-width="1" fill="none" />
<polyline points="272.0,168.0,208.0,232.0" stroke="black" stroke-width="1" fill="none" />
<polyline points="208.0,230.0,248.0,230.0" stroke="black" stroke-width="1" fill="none" />
<polyline points="240.0,246.0,224.0,246.0" stroke="black" stroke-width="1" fill="none" />
<polyline points="216.0,238.0,240.0,238.0" stroke="black" stroke-width="1" fill="none" />
<polyline points="256.0,222.0,200.0,222.0" stroke="black" stroke-width="1" fill="none" />
<polyline points="192.0,214.0,256.0,214.0" stroke="black" stroke-width="1" fill="none" />
<polyline points="232.0,168.0,184.0,216.0" stroke="black" stroke-width="1" fill="none" />
<polyline points="184.0,218.0,456.0,218.0" stroke="black" stroke-width="1" fill="none" />
<polyline points="224.0,168.0,184.0,208.0" stroke="black" stroke-width="1" fill="none" />
<polyline points="184.0,210.0,456.0,210.0" stroke="black" stroke-width="1" fill="none" />
<polyline points="216.0,168.0,184.0,200.0" stroke="black" stroke-width="1" fill="none" />
<polyline points="192.0,198.0,256.0,198.0" stroke="black" stroke-width="1" fill="none" />
<polyline points="216.0,160.0,168.0,208.0" stroke="black" stroke-width="1" fill="none" />
<polyline points="168.0,210.0,176.0,210.0" stroke="black" stroke-width="1" fill="none" />
<polyline points="176.0,208.0,168.0,216.0" stroke="black" stroke-width="1" fill="none" />
<polyline points="160.0,208.0,208.0,160.0" stroke="black" stroke-width="1" fill="none" />
<polyline points="200.0,160.0,160.0,200.0" stroke="black" stroke-width="1" fill="none" />
<polyline points="160.0,202.0,456.0,202.0" stroke="black" stroke-width="1" fill="none" />
<polyline points="256.0,206.0,192.0,206.0" stroke="black" stroke-width="1" fill="none" />
<polyline points="176.0,198.0,168.0,198.0" stroke="black" stroke-width="1" fill="none" />
<polyline points="152.0,200.0,192.0,160.0" stroke="black" stroke-width="1" fill="none" />
<polyline points="192.0,152.0,176.0,168.0" stroke="black" stroke-width="1" fill="none" />
<polyline points="176.0,162.0,232.0,162.0" stroke="black" stroke-width="1" fill="none" />
<polyline points="248.0,174.0,184.0,174.0" stroke="black" stroke-width="1" fill="none" />
<polyline points="184.0,166.0,208.0,166.0" stroke="black" stroke-width="1" fill="none" />
<polyline points="192.0,158.0,184.0,158.0" stroke="black" stroke-width="1" fill="none" />
<polyline points="176.0,154.0,200.0,154.0" stroke="black" stroke-width="1" fill="none" />
<polyline points="184.0,146.0,176.0,146.0" stroke="black" stroke-width="1" fill="none" />
<polyline points="168.0,170.0,464.0,170.0" stroke="black" stroke-width="1" fill="none" />
<polyline points="448.0,450.0,184.0,450.0" stroke="black" stroke-width="1" fill="none" />
<polyline points="184.0,442.0,448.0,442.0" stroke="black" stroke-width="1" fill="none" />
<polyline points="456.0,362.0,184.0,362.0" stroke="black" stroke-width="1" fill="none" />
<polyline points="184.0,354.0,456.0,354.0" stroke="black" stroke-width="1" fill="none" />
<polyline points="456.0,346.0,184.0,346.0" stroke="black" stroke-width="1" fill="none" />
<polyline points="184.0,322.0,456.0,322.0" stroke="black" stroke-width="1" fill="none" />
<polyline points="456.0,314.0,184.0,314.0" stroke="black" stroke-width="1" fill="none" />
<polyline points="184.0,306.0,456.0,306.0" stroke="black" stroke-width="1" fill="none" />
<polyline points="456.0,298.0,184.0,298.0" stroke="black" stroke-width="1" fill="none" />
<polyline points="184.0,290.0,456.0,290.0" stroke="black" stroke-width="1" fill="none" />
<polyline points="456.0,282.0,184.0,282.0" stroke="black" stroke-width="1" fill="none" />
<polyline points="184.0,274.0,456.0,274.0" stroke="black" stroke-width="1" fill="none" />
<polyline points="456.0,266.0,184.0,266.0" stroke="black" stroke-width="1" fill="none" />
<polyline points="184.0,258.0,456.0,258.0" stroke="black" stroke-width="1" fill="none" />
<polyline points="456.0,250.0,184.0,250.0" stroke="black" stroke-width="1" fill="none" />
<polyline points="184.0,242.0,456.0,242.0" stroke="black" stroke-width="1" fill="none" />
<polyline points="456.0,234.0,184.0,234.0" stroke="black" stroke-width="1" fill="none" />
<polyline points="176.0,182.0,456.0,182.0" stroke="black" stroke-width="1" fill="none" />
<polyline points="168.0,176.0,152.0,192.0" stroke="black" stroke-width="1" fill="none" />
<polyline points="144.0,192.0,160.0,176.0" stroke="black" stroke-width="1" fill="none" />
<polyline points="152.0,176.0,136.0,192.0" stroke="black" stroke-width="1" fill="none" />
<polyline points="136.0,184.0,144.0,176.0" stroke="black" stroke-width="1" fill="none" />
<polyline points="136.0,176.0,128.0,184.0" stroke="black" stroke-width="1" fill="none" />
<polyline points="128.0,176.0,112.0,192.0" stroke="black" stroke-width="1" fill="none" />
<polyline points="104.0,192.0,120.0,176.0" stroke="black" stroke-width="1" fill="none" />
<polyline points="112.0,176.0,48.0,240.0" stroke="black" stroke-width="1" fill="none" />
<polyline points="48.0,242.0,72.0,242.0" stroke="black" stroke-width="1" fill="none" />
<polyline points="72.0,240.0,48.0,264.0" stroke="black" stroke-width="1" fill="none" />
<polyline points="48.0,262.0,64.0,262.0" stroke="black" stroke-width="1" fill="none" />
<polyline points="64.0,272.0,48.0,288.0" stroke="black" stroke-width="1" fill="none" />
<polyline points="48.0,290.0,72.0,290.0" stroke="black" stroke-width="1" fill="none" />
<polyline points="64.0,288.0,48.0,304.0" stroke="black" stroke-width="1" fill="none" />
<polyline points="48.0,306.0,72.0,306.0" stroke="black" stroke-width="1" fill="none" />
<polyline points="72.0,304.0,56.0,320.0" stroke="black" stroke-width="1" fill="none" />
<polyline points="56.0,318.0,64.0,318.0" stroke="black" stroke-width="1" fill="none" />
<polyline points="64.0,326.0,72.0,326.0" stroke="black" stroke-width="1" fill="none" />
<polyline points="72.0,328.0,56.0,344.0" stroke="black" stroke-width="1" fill="none" />
<polyline points="56.0,346.0,88.0,346.0" stroke="black" stroke-width="1" fill="none" />
<polyline points="88.0,344.0,72.0,360.0" stroke="black" stroke-width="1" fill="none" />
<polyline points="72.0,358.0,88.0,358.0" stroke="black" stroke-width="1" fill="none" />
<polyline points="88.0,360.0,72.0,376.0" stroke="black" stroke-width="1" fill="none" />
<polyline points="72.0,378.0,120.0,378.0" stroke="black" stroke-width="1" fill="none" />
<polyline points="112.0,384.0,96.0,400.0" stroke="black" stroke-width="1" fill="none" />
<polyline points="96.0,402.0,448.0,402.0" stroke="black" stroke-width="1" fill="none" />
<polyline points="192.0,390.0,168.0,390.0" stroke="black" stroke-width="1" fill="none" />
<polyline points="160.0,398.0,176.0,398.0" stroke="black" stroke-width="1" fill="none" />
<polyline points="168.0,378.0,448.0,378.0" stroke="black" stroke-width="1" fill="none" />
<polyline points="448.0,386.0,152.0,386.0" stroke="black" stroke-width="1" fill="none" />
<polyline points="144.0,400.0,128.0,416.0" stroke="black" stroke-width="1" fill="none" />
<polyline points="120.0,416.0,136.0,400.0" stroke="black" stroke-width="1" fill="none" />
<polyline points="128.0,400.0,120.0,408.0" stroke="black" stroke-width="1" fill="none" />
<polyline points="112.0,410.0,448.0,410.0" stroke="black" stroke-width="1" fill="none" />
<polyline points="104.0,376.0,88.0,392.0" stroke="black" stroke-width="1" fill="none" />
<polyline points="88.0,394.0,448.0,394.0" stroke="black" stroke-width="1" fill="none" />
<polyline points="96.0,368.0,80.0,384.0" stroke="black" stroke-width="1" fill="none" />
<polyline points="80.0,382.0,96.0,382.0" stroke="black" stroke-width="1" fill="none" />
<polyline points="80.0,386.0,144.0,386.0" stroke="black" stroke-width="1" fill="none" />
<polyline points="96.0,360.0,80.0,376.0" stroke="black" stroke-width="1" fill="none" />
<polyline points="80.0,374.0,96.0,374.0" stroke="black" stroke-width="1" fill="none" />
<polyline points="88.0,352.0,72.0,368.0" stroke="black" stroke-width="1" fill="none" />
<polyline points="72.0,366.0,88.0,366.0" stroke="black" stroke-width="1" fill="none" />
<polyline points="72.0,370.0,112.0,370.0" stroke="black" stroke-width="1" fill="none" />
<polyline points="80.0,350.0,72.0,350.0" stroke="black" stroke-width="1" fill="none" />
<polyline points="64.0,352.0,80.0,336.0" stroke="black" stroke-width="1" fill="none" />
<polyline points="72.0,334.0,64.0,334.0" stroke="black" stroke-width="1" fill="none" />
<polyline points="56.0,336.0,72.0,320.0" stroke="black" stroke-width="1" fill="none" />
<polyline points="72.0,312.0,56.0,328.0" stroke="black" stroke-width="1" fill="none" />
<polyline points="48.0,330.0,80.0,330.0" stroke="black" stroke-width="1" fill="none" />
<polyline points="88.0,338.0,56.0,338.0" stroke="black" stroke-width="1" fill="none" />
<polyline points="64.0,354.0,96.0,354.0" stroke="black" stroke-width="1" fill="none" />
<polyline points="64.0,310.0,56.0,310.0" stroke="black" stroke-width="1" fill="none" />
<polyline points="56.0,302.0,64.0,302.0" stroke="black" stroke-width="1" fill="none" />
<polyline points="64.0,296.0,48.0,312.0" stroke="black" stroke-width="1" fill="none" />
<polyline points="48.0,314.0,72.0,314.0" stroke="black" stroke-width="1" fill="none" />
<polyline points="64.0,294.0,56.0,294.0" stroke="black" stroke-width="1" fill="none" />
<polyline points="56.0,286.0,64.0,286.0" stroke="black" stroke-width="1" fill="none" />
<polyline points="64.0,278.0,56.0,278.0" stroke="black" stroke-width="1" fill="none" />
<polyline points="48.0,274.0,72.0,274.0" stroke="black" stroke-width="1" fill="none" />
<polyline points="48.0,272.0,72.0,248.0" stroke="black" stroke-width="1" fill="none" />
<polyline points="64.0,246.0,56.0,246.0" stroke="black" stroke-width="1" fill="none" />
<polyline points="56.0,238.0,72.0,238.0" stroke="black" stroke-width="1" fill="none" />
<polyline points="72.0,230.0,56.0,230.0" stroke="black" stroke-width="1" fill="none" />
<polyline points="56.0,224.0,104.0,176.0" stroke="black" stroke-width="1" fill="none" />
<polyline points="104.0,182.0,144.0,182.0" stroke="black" stroke-width="1" fill="none" />
<polyline points="144.0,190.0,256.0,190.0" stroke="black" stroke-width="1" fill="none" />
<polyline points="144.0,194.0,456.0,194.0" stroke="black" stroke-width="1" fill="none" />
<polyline points="96.0,176.0,64.0,208.0" stroke="black" stroke-width="1" fill="none" />
<polyline points="64.0,206.0,72.0,206.0" stroke="black" stroke-width="1" fill="none" />
<polyline points="72.0,198.0,80.0,198.0" stroke="black" stroke-width="1" fill="none" />
<polyline points="80.0,190.0,104.0,190.0" stroke="black" stroke-width="1" fill="none" />
<polyline points="96.0,170.0,144.0,170.0" stroke="black" stroke-width="1" fill="none" />
<polyline points="80.0,178.0,464.0,178.0" stroke="black" stroke-width="1" fill="none" />
<polyline points="80.0,216.0,48.0,248.0" stroke="black" stroke-width="1" fill="none" />
<polyline points="48.0,250.0,72.0,250.0" stroke="black" stroke-width="1" fill="none" />
<polyline points="64.0,270.0,48.0,270.0" stroke="black" stroke-width="1" fill="none" />
<polyline points="48.0,266.0,72.0,266.0" stroke="black" stroke-width="1" fill="none" />
<polyline points="72.0,258.0,48.0,258.0" stroke="black" stroke-width="1" fill="none" />
<polyline points="48.0,234.0,72.0,234.0" stroke="black" stroke-width="1" fill="none" />
<polyline points="72.0,222.0,56.0,222.0" stroke="black" stroke-width="1" fill="none" />
<polyline points="56.0,218.0,80.0,218.0" stroke="black" stroke-width="1" fill="none" />
<polyline points="80.0,214.0,64.0,214.0" stroke="black" stroke-width="1" fill="none" />
<polyline points="56.0,210.0,88.0,210.0" stroke="black" stroke-width="1" fill="none" />
<polyline points="88.0,202.0,64.0,202.0" stroke="black" stroke-width="1" fill="none" />
<polyline points="64.0,194.0,104.0,194.0" stroke="black" stroke-width="1" fill="none" />
<polyline points="72.0,186.0,464.0,186.0" stroke="black" stroke-width="1" fill="none" />
</svg>