<svg xmlns="http://www.w3.org/2000/svg" height="511px" width="511px" version="1.1"><polyline points="1.0,0.0,1.0,8.0,1.0,16.0,1.0,24.0,1.0,32.0,1.0,40.0,1.0,48.0,1.0,56.0,1.0,64.0,1.0,72.0,1.0,80.0,1.0,88.0,1.0,96.0,1.0,104.0,1.0,112.0,1.0,120.0,1.0,128.0,1.0,136.0,1.0,144.0,1.0,152.0,1.0,160.0,1.0,168.0,1.0,176.0,1.0,184.0,1.0,192.0,1.0,200.0,1.0,208.0,1.0,216.0,1.0,224.0,1.0,232.0,1.0,240.0,1.0,248.0,1.0,256.0,1.0,264.0,1.0,272.0,1.0,280.0,1.0,288.0,1.0,296.0,1.0,304.0,1.0,312.0,1.0,320.0,1.0,328.0,1.0,336.0,1.0,344.0,1.0,352.0,1.0,360.0,1.0,368.0,1.0,376.0,1.0,384.0,1.0,392.0,1.0,400.0,1.0,408.0,1.0,416.0,1.0,424.0,1.0,432.0,1.0,440.0,1.0,448.0,1.0,456.0,1.0,464.0,1.0,472.0,1.0,480.0,1.0,488.0,1.0,496.0,1.0,504.0,3.0,511.0,11.0,511.0,19.0,511.0,27.0,511.0,35.0,511.0,43.0,511.0,51.0,511.0,59.0,511.0,67.0,511.0,75.0,511.0,83.0,511.0,91.0,511.0,99.0,511.0,107.0,511.0,115.0,511.0,123.0,511.0,131.0,511.0,139.0,511.0,147.0,511.0,155.0,511.0,163.0,511.0,171.0,511.0,179.0,511.0,187.0,511.0,195.0,511.0,203.0,511.0,211.0,511.0,219.0,511.0,227.0,511.0,235.0,511.0,243.0,511.0,251.0,511.0,259.0,511.0,267.0,511.0,275.0,511.0,283.0,511.0,291.0,511.0,299.0,511.0,307.0,511.0,315.0,511.0,323.0,511.0,331.0,511.0,339.0,511.0,347.0,511.0,355.0,511.0,363.0,511.0,371.0,511.0,379.0,511.0,387.0,511.0,395.0,511.0,403.0,511.0,411.0,511.0,419.0,511.0,427.0,511.0,435.0,511.0,443.0,511.0,451.0,511.0,459.0,511.0,467.0,511.0,475.0,511.0,483.0,511.0,491.0,511.0,499.0,511.0,507.0,511.0" stroke="black" stroke-width="1" fill="none" />
<polyline points="324.0,343.0,316.0,353.0,308.0,362.0,300.0,368.0,292.0,373.0,284.0,377.0,276.0,380.0,268.0,382.0,260.0,383.0,252.0,383.0,244.0,382.0,236.0,381.0,228.0,379.0,220.0,377.0,212.0,374.0,204.0,370.0,196.0,365.0,188.0,361.0,180.0,356.0,172.0,350.0,164.0,344.0,156.0,339.0,148.0,332.0,140.0,326.0" stroke="black" stroke-width="1" fill="none" />
<polyline points="135.0,313.0,143.0,297.0,151.0,278.0,159.0,260.0,167.0,245.0,175.0,234.0,183.0,220.0,191.0,210.0,199.0,200.0,207.0,190.0,215.0,181.0,223.0,174.0,231.0,170.0,239.0,175.0,247.0,181.0,255.0,187.0,263.0,192.0,271.0,198.0,279.0,205.0,287.0,210.0,295.0,217.0,303.0,225.0,311.0,234.0,319.0,242.0" stroke="black" stroke-width="1" fill="none" />
<polyline points="337.0,257.0,329.0,242.0,321.0,233.0,313.0,223.0,305.0,215.0,297.0,208.0,289.0,201.0,281.0,194.0,273.0,189.0,265.0,183.0,257.0,177.0,249.0,172.0,241.0,166.0,233.0,160.0,225.0,153.0,217.0,155.0,209.0,148.0,201.0,144.0,193.0,140.0,185.0,137.0,177.0,136.0,169.0,135.0,161.0,135.0,153.0,135.0,145.0,135.0,137.0,137.0,129.0,139.0,121.0,142.0,113.0,146.0,105.0,153.0,97.0,155.0,89.0,148.0,81.0,142.0,73.0,131.0,65.0,114.0" stroke="black" stroke-width="1" fill="none" />
<polyline points="59.0,109.0,67.0,130.0,75.0,142.0" stroke="black" stroke-width="1" fill="none" />
<polyline points="79.0,144.0,72.0,136.0" stroke="black" stroke-width="1" fill="none" />
<polyline points="86.0,168.0,78.0,179.0,70.0,195.0,62.0,211.0" stroke="black" stroke-width="1" fill="none" />
<polyline points="71.0,216.0,79.0,199.0,87.0,184.0,95.0,174.0,103.0,169.0,111.0,179.0,119.0,185.0,127.0,199.0,135.0,205.0,143.0,211.0,151.0,219.0,159.0,224.0,167.0,231.0" stroke="black" stroke-width="1" fill="none" />
<polyline points="167.0,201.0,159.0,192.0,151.0,187.0,143.0,183.0,135.0,178.0,127.0,180.0,119.0,174.0,111.0,165.0" stroke="black" stroke-width="1" fill="none" />
<polyline points="107.0,163.0,115.0,155.0,123.0,151.0,131.0,148.0,139.0,144.0,147.0,143.0,155.0,144.0,163.0,144.0,171.0,144.0,179.0,144.0,187.0,147.0,195.0,151.0,203.0,155.0,211.0,160.0,219.0,168.0" stroke="black" stroke-width="1" fill="none" />
<polyline points="228.0,170.0,219.0,178.0,211.0,186.0,204.0,194.0,197.0,202.0,191.0,210.0,185.0,218.0,179.0,226.0,175.0,234.0,169.0,242.0,165.0,250.0,160.0,258.0,156.0,266.0,153.0,274.0,149.0,282.0,146.0,290.0,142.0,298.0,139.0,306.0,135.0,314.0,135.0,322.0,140.0,330.0,149.0,338.0,159.0,346.0,172.0,354.0,183.0,362.0,197.0,370.0,211.0,378.0" stroke="black" stroke-width="1" fill="none" />
<polyline points="127.0,315.0,119.0,306.0,111.0,299.0,103.0,289.0,95.0,280.0,87.0,268.0,79.0,253.0" stroke="black" stroke-width="1" fill="none" />
<polyline points="72.0,258.0,80.0,273.0,88.0,285.0,96.0,294.0,104.0,304.0,112.0,311.0,120.0,319.0,128.0,328.0,136.0,333.0,144.0,340.0,152.0,347.0,160.0,351.0,168.0,357.0,176.0,363.0,184.0,369.0,192.0,373.0,200.0,378.0,208.0,383.0,216.0,385.0,224.0,387.0,232.0,389.0,240.0,390.0,248.0,392.0,256.0,392.0,264.0,390.0,272.0,390.0,280.0,389.0,288.0,385.0,296.0,381.0,304.0,375.0,312.0,369.0,320.0,361.0,328.0,352.0,332.0,347.0,326.0,355.0,318.0,363.0,310.0,371.0,298.0,379.0,284.0,387.0" stroke="black" stroke-width="1" fill="none" />
<polyline points="296.0,392.0,310.0,384.0,317.0,376.0,323.0,368.0,328.0,360.0,323.0,367.0,315.0,378.0,307.0,385.0,299.0,391.0,291.0,395.0,283.0,398.0,275.0,401.0,267.0,402.0,259.0,403.0,251.0,403.0,243.0,404.0,235.0,403.0,227.0,402.0,219.0,401.0,211.0,398.0,203.0,395.0,195.0,392.0,187.0,388.0,179.0,383.0,171.0,377.0,163.0,371.0,155.0,365.0,147.0,358.0,139.0,351.0,131.0,345.0,123.0,339.0,115.0,334.0,107.0,326.0,99.0,319.0,91.0,310.0,83.0,299.0,75.0,284.0" stroke="black" stroke-width="1" fill="none" />
<polyline points="68.0,290.0,76.0,304.0,84.0,315.0,92.0,324.0,100.0,332.0,108.0,340.0,116.0,344.0,124.0,351.0,132.0,356.0,140.0,362.0,148.0,370.0,156.0,377.0,164.0,383.0,172.0,388.0,180.0,394.0,188.0,399.0,196.0,401.0,204.0,405.0,212.0,408.0,220.0,410.0,228.0,410.0,236.0,412.0,244.0,412.0,252.0,412.0,260.0,412.0,268.0,410.0,276.0,410.0,284.0,406.0,292.0,403.0,300.0,400.0,308.0,396.0,316.0,390.0,324.0,382.0,332.0,369.0" stroke="black" stroke-width="1" fill="none" />
<polyline points="196.0,397.0,182.0,389.0,171.0,381.0,160.0,373.0,150.0,365.0,141.0,357.0,130.0,349.0,120.0,341.0,108.0,333.0,99.0,325.0,93.0,317.0,85.0,309.0,80.0,301.0,76.0,293.0,71.0,285.0,69.0,277.0,67.0,269.0,67.0,261.0,65.0,253.0,65.0,253.0" stroke="black" stroke-width="1" fill="none" />
<polyline points="72.0,265.0,76.0,273.0,80.0,281.0,87.0,289.0,94.0,297.0,101.0,305.0,109.0,313.0,117.0,321.0,124.0,329.0,135.0,337.0,145.0,345.0,154.0,353.0,168.0,361.0,178.0,369.0,192.0,377.0,206.0,385.0" stroke="black" stroke-width="1" fill="none" />
<polyline points="199.0,407.0,180.0,399.0,170.0,391.0,159.0,383.0,149.0,375.0,140.0,367.0,130.0,359.0,120.0,351.0,107.0,343.0,98.0,335.0,90.0,327.0,83.0,319.0,76.0,311.0,71.0,303.0,67.0,295.0,63.0,287.0,60.0,279.0,59.0,271.0,58.0,263.0,57.0,255.0,57.0,247.0,57.0,239.0,58.0,231.0,59.0,223.0,61.0,215.0,64.0,207.0,69.0,199.0,72.0,191.0,76.0,183.0,81.0,175.0,87.0,167.0,91.0,159.0,79.0,151.0,72.0,143.0,67.0,135.0,62.0,127.0,59.0,119.0,56.0,111.0,55.0,103.0,53.0,95.0,53.0,87.0,53.0,79.0,55.0,71.0,58.0,63.0,62.0,55.0,67.0,47.0,73.0,39.0,81.0,31.0,89.0,23.0,102.0,15.0,117.0,7.0,128.0,5.0,118.0,7.0,110.0,11.0,102.0,15.0,94.0,19.0,86.0,26.0,78.0,33.0,70.0,42.0,62.0,55.0,58.0,75.0" stroke="black" stroke-width="1" fill="none" />
<polyline points="58.0,81.0,58.0,89.0" stroke="black" stroke-width="1" fill="none" />
<polyline points="88.0,29.0,100.0,21.0,116.0,13.0,125.0,8.0" stroke="black" stroke-width="1" fill="none" />
<polyline points="0.0,1.0,8.0,1.0,16.0,1.0,24.0,1.0,32.0,1.0,40.0,1.0,48.0,1.0,56.0,1.0,64.0,1.0,72.0,1.0,80.0,1.0,88.0,1.0,96.0,1.0,104.0,1.0,112.0,1.0,120.0,1.0,128.0,1.0,136.0,1.0,144.0,1.0,152.0,1.0,160.0,1.0,168.0,1.0,176.0,1.0,184.0,1.0,192.0,1.0,200.0,1.0,208.0,1.0,216.0,1.0,224.0,1.0,232.0,1.0,240.0,1.0,248.0,1.0,256.0,1.0,264.0,1.0,272.0,1.0,280.0,1.0,288.0,1.0,296.0,1.0,304.0,1.0,312.0,1.0,320.0,1.0,328.0,1.0,336.0,1.0,344.0,1.0,352.0,1.0,360.0,1.0,368.0,1.0,376.0,1.0,384.0,1.0,392.0,1.0,400.0,1.0,408.0,1.0,416.0,1.0,424.0,1.0,432.0,1.0,440.0,1.0,448.0,1.0,456.0,1.0,464.0,1.0,472.0,1.0,480.0,1.0,488.0,1.0,496.0,1.0,504.0,1.0,511.0,3.0,511.0,11.0,511.0,19.0,511.0,27.0,511.0,35.0,511.0,43.0,511.0,51.0,511.0,59.0,511.0,67.0,511.0,75.0,511.0,83.0,511.0,91.0,511.0,99.0,511.0,107.0,511.0,115.0,511.0,123.0,511.0,131.0,511.0,139.0,511.0,147.0,511.0,155.0,511.0,163.0,511.0,171.0,511.0,179.0,511.0,187.0,511.0,195.0,511.0,203.0,511.0,211.0,511.0,219.0,511.0,227.0,511.0,235.0,511.0,243.0,511.0,251.0,511.0,259.0,511.0,267.0,511.0,275.0,511.0,283.0,511.0,291.0,511.0,299.0,511.0,307.0,511.0,315.0,511.0,323.0,511.0,331.0,511.0,339.0,511.0,347.0,511.0,355.0,511.0,363.0,511.0,371.0,511.0,379.0,511.0,387.0,511.0,395.0,511.0,403.0,511.0,411.0,511.0,419.0,511.0,427.0,511.0,435.0,511.0,443.0,511.0,451.0,511.0,459.0,511.0,467.0,511.0,475.0,511.0,483.0,511.0,491.0,511.0,499.0,511.0,507.0" stroke="black" stroke-width="1" fill="none" />
<polyline points="289.0,375.0,301.0,367.0,311.0,359.0,318.0,351.0,324.0,343.0,329.0,335.0,332.0,327.0,334.0,319.0,334.0,311.0,335.0,303.0,334.0,295.0,333.0,287.0,331.0,279.0,329.0,271.0,326.0,263.0,323.0,255.0,318.0,247.0,311.0,239.0,303.0,231.0,296.0,223.0,288.0,215.0,275.0,207.0,266.0,199.0,255.0,191.0,243.0,183.0,232.0,175.0" stroke="black" stroke-width="1" fill="none" />
<polyline points="209.0,176.0,201.0,184.0,193.0,194.0,185.0,202.0,177.0,215.0,169.0,222.0,174.0,218.0,180.0,210.0,185.0,202.0,193.0,194.0,199.0,186.0,207.0,178.0,215.0,170.0,207.0,162.0,195.0,154.0" stroke="black" stroke-width="1" fill="none" />
<polyline points="201.0,147.0,213.0,155.0,226.0,160.0,238.0,168.0,249.0,176.0,260.0,184.0,271.0,192.0,281.0,200.0,292.0,208.0,301.0,216.0,309.0,224.0,316.0,232.0,324.0,240.0,329.0,248.0,333.0,256.0,335.0,264.0,342.0,272.0,344.0,280.0,347.0,288.0,347.0,296.0,348.0,304.0,346.0,312.0,346.0,320.0,346.0,328.0,345.0,336.0,342.0,344.0,340.0,352.0,337.0,360.0,333.0,368.0,328.0,376.0,321.0,384.0,313.0,392.0,300.0,400.0,279.0,408.0" stroke="black" stroke-width="1" fill="none" />
<polyline points="162.0,221.0,165.0,213.0,164.0,205.0,160.0,197.0,147.0,189.0,136.0,181.0" stroke="black" stroke-width="1" fill="none" />
<polyline points="124.0,183.0,115.0,175.0,108.0,167.0,110.0,159.0,119.0,151.0" stroke="black" stroke-width="1" fill="none" />
<polyline points="110.0,148.0,124.0,140.0" stroke="black" stroke-width="1" fill="none" />
<polyline points="99.0,169.0,92.0,177.0,87.0,185.0,83.0,193.0,78.0,201.0,74.0,209.0,71.0,217.0,71.0,225.0,71.0,233.0,73.0,241.0,74.0,249.0,78.0,257.0,81.0,265.0,85.0,273.0,92.0,281.0,99.0,289.0,106.0,297.0,113.0,305.0,121.0,313.0" stroke="black" stroke-width="1" fill="none" />
<polyline points="162.0,237.0,154.0,251.0,146.0,267.0,138.0,287.0,130.0,304.0,128.0,309.0,131.0,301.0,135.0,293.0,139.0,285.0,142.0,277.0,146.0,269.0,149.0,261.0,153.0,253.0,158.0,245.0,162.0,237.0,159.0,229.0,148.0,221.0,140.0,213.0,128.0,205.0,122.0,197.0,118.0,189.0,108.0,181.0,102.0,173.0" stroke="black" stroke-width="1" fill="none" />
<polyline points="56.0,66.0,64.0,66.0" stroke="black" stroke-width="1" fill="none" />
<polyline points="64.0,74.0,56.0,74.0" stroke="black" stroke-width="1" fill="none" />
<polyline points="64.0,50.0,72.0,50.0" stroke="black" stroke-width="1" fill="none" />
<polyline points="72.0,42.0,80.0,42.0" stroke="black" stroke-width="1" fill="none" />
<polyline points="80.0,34.0,88.0,34.0" stroke="black" stroke-width="1" fill="none" />
<polyline points="88.0,26.0,96.0,26.0" stroke="black" stroke-width="1" fill="none" />
<polyline points="96.0,18.0,104.0,18.0" stroke="black" stroke-width="1" fill="none" />
<polyline points="112.0,10.0,120.0,10.0" stroke="black" stroke-width="1" fill="none" />
<polyline points="128.0,2.0,136.0,2.0" stroke="black" stroke-width="1" fill="none" />
<polyline points="64.0,106.0,56.0,106.0" stroke="black" stroke-width="1" fill="none" />
<polyline points="56.0,114.0,64.0,114.0" stroke="black" stroke-width="1" fill="none" />
<polyline points="64.0,130.0,72.0,130.0" stroke="black" stroke-width="1" fill="none" />
<polyline points="72.0,138.0,80.0,138.0" stroke="black" stroke-width="1" fill="none" />
<polyline points="80.0,146.0,88.0,146.0" stroke="black" stroke-width="1" fill="none" />
<polyline points="88.0,154.0,96.0,154.0" stroke="black" stroke-width="1" fill="none" />
<polyline points="96.0,162.0,112.0,162.0" stroke="black" stroke-width="1" fill="none" />
<polyline points="112.0,160.0,104.0,168.0" stroke="black" stroke-width="1" fill="none" />
<polyline points="112.0,168.0,104.0,176.0" stroke="black" stroke-width="1" fill="none" />
<polyline points="112.0,178.0,128.0,178.0" stroke="black" stroke-width="1" fill="none" />
<polyline points="128.0,184.0,120.0,192.0" stroke="black" stroke-width="1" fill="none" />
<polyline points="120.0,194.0,160.0,194.0" stroke="black" stroke-width="1" fill="none" />
<polyline points="160.0,192.0,144.0,208.0" stroke="black" stroke-width="1" fill="none" />
<polyline points="144.0,210.0,168.0,210.0" stroke="black" stroke-width="1" fill="none" />
<polyline points="168.0,208.0,152.0,224.0" stroke="black" stroke-width="1" fill="none" />
<polyline points="152.0,218.0,168.0,218.0" stroke="black" stroke-width="1" fill="none" />
<polyline points="168.0,224.0,160.0,232.0" stroke="black" stroke-width="1" fill="none" />
<polyline points="160.0,226.0,184.0,226.0" stroke="black" stroke-width="1" fill="none" />
<polyline points="176.0,232.0,160.0,248.0" stroke="black" stroke-width="1" fill="none" />
<polyline points="160.0,242.0,168.0,242.0" stroke="black" stroke-width="1" fill="none" />
<polyline points="168.0,238.0,176.0,238.0" stroke="black" stroke-width="1" fill="none" />
<polyline points="176.0,234.0,168.0,234.0" stroke="black" stroke-width="1" fill="none" />
<polyline points="168.0,232.0,200.0,200.0" stroke="black" stroke-width="1" fill="none" />
<polyline points="192.0,200.0,232.0,160.0" stroke="black" stroke-width="1" fill="none" />
<polyline points="224.0,160.0,216.0,168.0" stroke="black" stroke-width="1" fill="none" />
<polyline points="216.0,166.0,232.0,166.0" stroke="black" stroke-width="1" fill="none" />
<polyline points="240.0,168.0,232.0,176.0" stroke="black" stroke-width="1" fill="none" />
<polyline points="240.0,178.0,256.0,178.0" stroke="black" stroke-width="1" fill="none" />
<polyline points="256.0,176.0,248.0,184.0" stroke="black" stroke-width="1" fill="none" />
<polyline points="256.0,186.0,272.0,186.0" stroke="black" stroke-width="1" fill="none" />
<polyline points="272.0,192.0,264.0,200.0" stroke="black" stroke-width="1" fill="none" />
<polyline points="264.0,194.0,280.0,194.0" stroke="black" stroke-width="1" fill="none" />
<polyline points="280.0,192.0,272.0,200.0" stroke="black" stroke-width="1" fill="none" />
<polyline points="272.0,202.0,288.0,202.0" stroke="black" stroke-width="1" fill="none" />
<polyline points="288.0,200.0,280.0,208.0" stroke="black" stroke-width="1" fill="none" />
<polyline points="288.0,210.0,304.0,210.0" stroke="black" stroke-width="1" fill="none" />
<polyline points="304.0,216.0,296.0,224.0" stroke="black" stroke-width="1" fill="none" />
<polyline points="296.0,218.0,312.0,218.0" stroke="black" stroke-width="1" fill="none" />
<polyline points="312.0,224.0,304.0,232.0" stroke="black" stroke-width="1" fill="none" />
<polyline points="304.0,230.0,312.0,230.0" stroke="black" stroke-width="1" fill="none" />
<polyline points="312.0,234.0,320.0,234.0" stroke="black" stroke-width="1" fill="none" />
<polyline points="320.0,232.0,312.0,240.0" stroke="black" stroke-width="1" fill="none" />
<polyline points="312.0,238.0,320.0,238.0" stroke="black" stroke-width="1" fill="none" />
<polyline points="320.0,242.0,328.0,242.0" stroke="black" stroke-width="1" fill="none" />
<polyline points="328.0,240.0,320.0,248.0" stroke="black" stroke-width="1" fill="none" />
<polyline points="320.0,250.0,336.0,250.0" stroke="black" stroke-width="1" fill="none" />
<polyline points="336.0,256.0,328.0,264.0" stroke="black" stroke-width="1" fill="none" />
<polyline points="328.0,266.0,344.0,266.0" stroke="black" stroke-width="1" fill="none" />
<polyline points="344.0,272.0,336.0,280.0" stroke="black" stroke-width="1" fill="none" />
<polyline points="336.0,278.0,344.0,278.0" stroke="black" stroke-width="1" fill="none" />
<polyline points="344.0,280.0,336.0,288.0" stroke="black" stroke-width="1" fill="none" />
<polyline points="336.0,286.0,344.0,286.0" stroke="black" stroke-width="1" fill="none" />
<polyline points="344.0,288.0,336.0,296.0" stroke="black" stroke-width="1" fill="none" />
<polyline points="336.0,294.0,344.0,294.0" stroke="black" stroke-width="1" fill="none" />
<polyline points="344.0,296.0,336.0,304.0" stroke="black" stroke-width="1" fill="none" />
<polyline points="336.0,306.0,352.0,306.0" stroke="black" stroke-width="1" fill="none" />
<polyline points="344.0,304.0,336.0,312.0" stroke="black" stroke-width="1" fill="none" />
<polyline points="336.0,314.0,352.0,314.0" stroke="black" stroke-width="1" fill="none" />
<polyline points="344.0,312.0,336.0,320.0" stroke="black" stroke-width="1" fill="none" />
<polyline points="336.0,318.0,344.0,318.0" stroke="black" stroke-width="1" fill="none" />
<polyline points="344.0,320.0,336.0,328.0" stroke="black" stroke-width="1" fill="none" />
<polyline points="336.0,326.0,344.0,326.0" stroke="black" stroke-width="1" fill="none" />
<polyline points="344.0,328.0,328.0,344.0" stroke="black" stroke-width="1" fill="none" />
<polyline points="328.0,338.0,344.0,338.0" stroke="black" stroke-width="1" fill="none" />
<polyline points="344.0,336.0,304.0,376.0" stroke="black" stroke-width="1" fill="none" />
<polyline points="296.0,376.0,288.0,384.0" stroke="black" stroke-width="1" fill="none" />
<polyline points="280.0,384.0,272.0,392.0" stroke="black" stroke-width="1" fill="none" />
<polyline points="272.0,384.0,264.0,392.0" stroke="black" stroke-width="1" fill="none" />
<polyline points="264.0,384.0,256.0,392.0" stroke="black" stroke-width="1" fill="none" />
<polyline points="256.0,384.0,248.0,392.0" stroke="black" stroke-width="1" fill="none" />
<polyline points="248.0,384.0,240.0,392.0" stroke="black" stroke-width="1" fill="none" />
<polyline points="240.0,384.0,232.0,392.0" stroke="black" stroke-width="1" fill="none" />
<polyline points="216.0,386.0,288.0,386.0" stroke="black" stroke-width="1" fill="none" />
<polyline points="280.0,378.0,304.0,378.0" stroke="black" stroke-width="1" fill="none" />
<polyline points="304.0,386.0,320.0,386.0" stroke="black" stroke-width="1" fill="none" />
<polyline points="312.0,378.0,328.0,378.0" stroke="black" stroke-width="1" fill="none" />
<polyline points="328.0,376.0,304.0,400.0" stroke="black" stroke-width="1" fill="none" />
<polyline points="304.0,392.0,288.0,408.0" stroke="black" stroke-width="1" fill="none" />
<polyline points="288.0,400.0,280.0,408.0" stroke="black" stroke-width="1" fill="none" />
<polyline points="264.0,408.0,256.0,416.0" stroke="black" stroke-width="1" fill="none" />
<polyline points="256.0,408.0,248.0,416.0" stroke="black" stroke-width="1" fill="none" />
<polyline points="248.0,408.0,240.0,416.0" stroke="black" stroke-width="1" fill="none" />
<polyline points="240.0,408.0,232.0,416.0" stroke="black" stroke-width="1" fill="none" />
<polyline points="216.0,410.0,280.0,410.0" stroke="black" stroke-width="1" fill="none" />
<polyline points="264.0,402.0,296.0,402.0" stroke="black" stroke-width="1" fill="none" />
<polyline points="296.0,394.0,312.0,394.0" stroke="black" stroke-width="1" fill="none" />
<polyline points="320.0,370.0,336.0,370.0" stroke="black" stroke-width="1" fill="none" />
<polyline points="328.0,368.0,336.0,360.0" stroke="black" stroke-width="1" fill="none" />
<polyline points="328.0,360.0,344.0,344.0" stroke="black" stroke-width="1" fill="none" />
<polyline points="344.0,342.0,336.0,342.0" stroke="black" stroke-width="1" fill="none" />
<polyline points="336.0,334.0,344.0,334.0" stroke="black" stroke-width="1" fill="none" />
<polyline points="336.0,330.0,352.0,330.0" stroke="black" stroke-width="1" fill="none" />
<polyline points="352.0,322.0,336.0,322.0" stroke="black" stroke-width="1" fill="none" />
<polyline points="336.0,298.0,352.0,298.0" stroke="black" stroke-width="1" fill="none" />
<polyline points="352.0,290.0,336.0,290.0" stroke="black" stroke-width="1" fill="none" />
<polyline points="336.0,282.0,344.0,282.0" stroke="black" stroke-width="1" fill="none" />
<polyline points="344.0,274.0,328.0,274.0" stroke="black" stroke-width="1" fill="none" />
<polyline points="328.0,272.0,336.0,264.0" stroke="black" stroke-width="1" fill="none" />
<polyline points="336.0,258.0,328.0,258.0" stroke="black" stroke-width="1" fill="none" />
<polyline points="312.0,226.0,304.0,226.0" stroke="black" stroke-width="1" fill="none" />
<polyline points="288.0,216.0,296.0,208.0" stroke="black" stroke-width="1" fill="none" />
<polyline points="264.0,184.0,256.0,192.0" stroke="black" stroke-width="1" fill="none" />
<polyline points="248.0,170.0,216.0,170.0" stroke="black" stroke-width="1" fill="none" />
<polyline points="208.0,162.0,240.0,162.0" stroke="black" stroke-width="1" fill="none" />
<polyline points="216.0,152.0,208.0,160.0" stroke="black" stroke-width="1" fill="none" />
<polyline points="200.0,154.0,224.0,154.0" stroke="black" stroke-width="1" fill="none" />
<polyline points="200.0,144.0,192.0,152.0" stroke="black" stroke-width="1" fill="none" />
<polyline points="176.0,146.0,208.0,146.0" stroke="black" stroke-width="1" fill="none" />
<polyline points="208.0,178.0,224.0,178.0" stroke="black" stroke-width="1" fill="none" />
<polyline points="216.0,186.0,200.0,186.0" stroke="black" stroke-width="1" fill="none" />
<polyline points="192.0,194.0,208.0,194.0" stroke="black" stroke-width="1" fill="none" />
<polyline points="192.0,210.0,184.0,210.0" stroke="black" stroke-width="1" fill="none" />
<polyline points="184.0,202.0,200.0,202.0" stroke="black" stroke-width="1" fill="none" />
<polyline points="184.0,218.0,176.0,218.0" stroke="black" stroke-width="1" fill="none" />
<polyline points="160.0,208.0,152.0,216.0" stroke="black" stroke-width="1" fill="none" />
<polyline points="144.0,216.0,160.0,200.0" stroke="black" stroke-width="1" fill="none" />
<polyline points="152.0,192.0,136.0,208.0" stroke="black" stroke-width="1" fill="none" />
<polyline points="136.0,206.0,160.0,206.0" stroke="black" stroke-width="1" fill="none" />
<polyline points="160.0,214.0,144.0,214.0" stroke="black" stroke-width="1" fill="none" />
<polyline points="136.0,200.0,144.0,192.0" stroke="black" stroke-width="1" fill="none" />
<polyline points="144.0,184.0,128.0,200.0" stroke="black" stroke-width="1" fill="none" />
<polyline points="128.0,198.0,152.0,198.0" stroke="black" stroke-width="1" fill="none" />
<polyline points="136.0,184.0,128.0,192.0" stroke="black" stroke-width="1" fill="none" />
<polyline points="128.0,190.0,144.0,190.0" stroke="black" stroke-width="1" fill="none" />
<polyline points="128.0,202.0,168.0,202.0" stroke="black" stroke-width="1" fill="none" />
<polyline points="168.0,248.0,152.0,264.0" stroke="black" stroke-width="1" fill="none" />
<polyline points="152.0,258.0,160.0,258.0" stroke="black" stroke-width="1" fill="none" />
<polyline points="160.0,264.0,144.0,280.0" stroke="black" stroke-width="1" fill="none" />
<polyline points="144.0,282.0,152.0,282.0" stroke="black" stroke-width="1" fill="none" />
<polyline points="152.0,280.0,144.0,288.0" stroke="black" stroke-width="1" fill="none" />
<polyline points="144.0,296.0,136.0,304.0" stroke="black" stroke-width="1" fill="none" />
<polyline points="136.0,298.0,144.0,298.0" stroke="black" stroke-width="1" fill="none" />
<polyline points="136.0,290.0,152.0,290.0" stroke="black" stroke-width="1" fill="none" />
<polyline points="152.0,274.0,144.0,274.0" stroke="black" stroke-width="1" fill="none" />
<polyline points="144.0,266.0,160.0,266.0" stroke="black" stroke-width="1" fill="none" />
<polyline points="152.0,250.0,168.0,250.0" stroke="black" stroke-width="1" fill="none" />
<polyline points="144.0,306.0,128.0,306.0" stroke="black" stroke-width="1" fill="none" />
<polyline points="128.0,312.0,120.0,320.0" stroke="black" stroke-width="1" fill="none" />
<polyline points="120.0,322.0,136.0,322.0" stroke="black" stroke-width="1" fill="none" />
<polyline points="136.0,320.0,128.0,328.0" stroke="black" stroke-width="1" fill="none" />
<polyline points="128.0,326.0,136.0,326.0" stroke="black" stroke-width="1" fill="none" />
<polyline points="144.0,328.0,136.0,336.0" stroke="black" stroke-width="1" fill="none" />
<polyline points="144.0,338.0,152.0,338.0" stroke="black" stroke-width="1" fill="none" />
<polyline points="152.0,336.0,144.0,344.0" stroke="black" stroke-width="1" fill="none" />
<polyline points="152.0,346.0,168.0,346.0" stroke="black" stroke-width="1" fill="none" />
<polyline points="168.0,344.0,160.0,352.0" stroke="black" stroke-width="1" fill="none" />
<polyline points="160.0,354.0,176.0,354.0" stroke="black" stroke-width="1" fill="none" />
<polyline points="176.0,352.0,168.0,360.0" stroke="black" stroke-width="1" fill="none" />
<polyline points="176.0,362.0,192.0,362.0" stroke="black" stroke-width="1" fill="none" />
<polyline points="184.0,360.0,176.0,368.0" stroke="black" stroke-width="1" fill="none" />
<polyline points="184.0,370.0,208.0,370.0" stroke="black" stroke-width="1" fill="none" />
<polyline points="200.0,368.0,192.0,376.0" stroke="black" stroke-width="1" fill="none" />
<polyline points="200.0,378.0,224.0,378.0" stroke="black" stroke-width="1" fill="none" />
<polyline points="216.0,376.0,208.0,384.0" stroke="black" stroke-width="1" fill="none" />
<polyline points="208.0,400.0,200.0,408.0" stroke="black" stroke-width="1" fill="none" />
<polyline points="208.0,408.0,216.0,400.0" stroke="black" stroke-width="1" fill="none" />
<polyline points="232.0,402.0,192.0,402.0" stroke="black" stroke-width="1" fill="none" />
<polyline points="184.0,400.0,192.0,392.0" stroke="black" stroke-width="1" fill="none" />
<polyline points="184.0,384.0,176.0,392.0" stroke="black" stroke-width="1" fill="none" />
<polyline points="176.0,394.0,200.0,394.0" stroke="black" stroke-width="1" fill="none" />
<polyline points="176.0,384.0,168.0,392.0" stroke="black" stroke-width="1" fill="none" />
<polyline points="168.0,386.0,184.0,386.0" stroke="black" stroke-width="1" fill="none" />
<polyline points="168.0,376.0,160.0,384.0" stroke="black" stroke-width="1" fill="none" />
<polyline points="160.0,378.0,176.0,378.0" stroke="black" stroke-width="1" fill="none" />
<polyline points="160.0,368.0,152.0,376.0" stroke="black" stroke-width="1" fill="none" />
<polyline points="144.0,370.0,160.0,370.0" stroke="black" stroke-width="1" fill="none" />
<polyline points="152.0,360.0,144.0,368.0" stroke="black" stroke-width="1" fill="none" />
<polyline points="136.0,362.0,152.0,362.0" stroke="black" stroke-width="1" fill="none" />
<polyline points="152.0,352.0,160.0,344.0" stroke="black" stroke-width="1" fill="none" />
<polyline points="136.0,352.0,128.0,360.0" stroke="black" stroke-width="1" fill="none" />
<polyline points="128.0,354.0,144.0,354.0" stroke="black" stroke-width="1" fill="none" />
<polyline points="128.0,344.0,120.0,352.0" stroke="black" stroke-width="1" fill="none" />
<polyline points="120.0,346.0,136.0,346.0" stroke="black" stroke-width="1" fill="none" />
<polyline points="128.0,330.0,144.0,330.0" stroke="black" stroke-width="1" fill="none" />
<polyline points="136.0,312.0,120.0,328.0" stroke="black" stroke-width="1" fill="none" />
<polyline points="120.0,336.0,112.0,344.0" stroke="black" stroke-width="1" fill="none" />
<polyline points="104.0,338.0,120.0,338.0" stroke="black" stroke-width="1" fill="none" />
<polyline points="104.0,328.0,96.0,336.0" stroke="black" stroke-width="1" fill="none" />
<polyline points="96.0,330.0,112.0,330.0" stroke="black" stroke-width="1" fill="none" />
<polyline points="112.0,314.0,136.0,314.0" stroke="black" stroke-width="1" fill="none" />
<polyline points="120.0,304.0,112.0,312.0" stroke="black" stroke-width="1" fill="none" />
<polyline points="104.0,306.0,120.0,306.0" stroke="black" stroke-width="1" fill="none" />
<polyline points="112.0,296.0,104.0,304.0" stroke="black" stroke-width="1" fill="none" />
<polyline points="96.0,298.0,112.0,298.0" stroke="black" stroke-width="1" fill="none" />
<polyline points="104.0,288.0,96.0,296.0" stroke="black" stroke-width="1" fill="none" />
<polyline points="88.0,290.0,104.0,290.0" stroke="black" stroke-width="1" fill="none" />
<polyline points="96.0,280.0,88.0,288.0" stroke="black" stroke-width="1" fill="none" />
<polyline points="88.0,282.0,96.0,282.0" stroke="black" stroke-width="1" fill="none" />
<polyline points="88.0,272.0,80.0,280.0" stroke="black" stroke-width="1" fill="none" />
<polyline points="80.0,274.0,88.0,274.0" stroke="black" stroke-width="1" fill="none" />
<polyline points="72.0,272.0,64.0,280.0" stroke="black" stroke-width="1" fill="none" />
<polyline points="64.0,282.0,72.0,282.0" stroke="black" stroke-width="1" fill="none" />
<polyline points="72.0,280.0,64.0,288.0" stroke="black" stroke-width="1" fill="none" />
<polyline points="64.0,290.0,80.0,290.0" stroke="black" stroke-width="1" fill="none" />
<polyline points="80.0,296.0,72.0,304.0" stroke="black" stroke-width="1" fill="none" />
<polyline points="72.0,306.0,88.0,306.0" stroke="black" stroke-width="1" fill="none" />
<polyline points="88.0,304.0,80.0,312.0" stroke="black" stroke-width="1" fill="none" />
<polyline points="80.0,314.0,96.0,314.0" stroke="black" stroke-width="1" fill="none" />
<polyline points="96.0,312.0,88.0,320.0" stroke="black" stroke-width="1" fill="none" />
<polyline points="88.0,322.0,104.0,322.0" stroke="black" stroke-width="1" fill="none" />
<polyline points="80.0,298.0,72.0,298.0" stroke="black" stroke-width="1" fill="none" />
<polyline points="72.0,274.0,64.0,274.0" stroke="black" stroke-width="1" fill="none" />
<polyline points="56.0,266.0,88.0,266.0" stroke="black" stroke-width="1" fill="none" />
<polyline points="80.0,256.0,72.0,264.0" stroke="black" stroke-width="1" fill="none" />
<polyline points="64.0,256.0,72.0,248.0" stroke="black" stroke-width="1" fill="none" />
<polyline points="72.0,240.0,64.0,248.0" stroke="black" stroke-width="1" fill="none" />
<polyline points="64.0,246.0,72.0,246.0" stroke="black" stroke-width="1" fill="none" />
<polyline points="64.0,240.0,72.0,232.0" stroke="black" stroke-width="1" fill="none" />
<polyline points="72.0,224.0,64.0,232.0" stroke="black" stroke-width="1" fill="none" />
<polyline points="64.0,230.0,72.0,230.0" stroke="black" stroke-width="1" fill="none" />
<polyline points="72.0,238.0,64.0,238.0" stroke="black" stroke-width="1" fill="none" />
<polyline points="56.0,234.0,72.0,234.0" stroke="black" stroke-width="1" fill="none" />
<polyline points="72.0,226.0,64.0,226.0" stroke="black" stroke-width="1" fill="none" />
<polyline points="64.0,224.0,72.0,216.0" stroke="black" stroke-width="1" fill="none" />
<polyline points="64.0,216.0,80.0,200.0" stroke="black" stroke-width="1" fill="none" />
<polyline points="72.0,200.0,88.0,184.0" stroke="black" stroke-width="1" fill="none" />
<polyline points="80.0,184.0,112.0,152.0" stroke="black" stroke-width="1" fill="none" />
<polyline points="112.0,146.0,136.0,146.0" stroke="black" stroke-width="1" fill="none" />
<polyline points="128.0,144.0,120.0,152.0" stroke="black" stroke-width="1" fill="none" />
<polyline points="120.0,154.0,104.0,154.0" stroke="black" stroke-width="1" fill="none" />
<polyline points="104.0,166.0,96.0,166.0" stroke="black" stroke-width="1" fill="none" />
<polyline points="96.0,174.0,88.0,174.0" stroke="black" stroke-width="1" fill="none" />
<polyline points="88.0,170.0,112.0,170.0" stroke="black" stroke-width="1" fill="none" />
<polyline points="120.0,176.0,112.0,184.0" stroke="black" stroke-width="1" fill="none" />
<polyline points="112.0,182.0,120.0,182.0" stroke="black" stroke-width="1" fill="none" />
<polyline points="120.0,186.0,152.0,186.0" stroke="black" stroke-width="1" fill="none" />
<polyline points="168.0,144.0,176.0,136.0" stroke="black" stroke-width="1" fill="none" />
<polyline points="168.0,136.0,160.0,144.0" stroke="black" stroke-width="1" fill="none" />
<polyline points="160.0,136.0,152.0,144.0" stroke="black" stroke-width="1" fill="none" />
<polyline points="152.0,136.0,144.0,144.0" stroke="black" stroke-width="1" fill="none" />
<polyline points="128.0,138.0,192.0,138.0" stroke="black" stroke-width="1" fill="none" />
<polyline points="96.0,178.0,80.0,178.0" stroke="black" stroke-width="1" fill="none" />
<polyline points="72.0,186.0,88.0,186.0" stroke="black" stroke-width="1" fill="none" />
<polyline points="80.0,198.0,72.0,198.0" stroke="black" stroke-width="1" fill="none" />
<polyline points="72.0,194.0,88.0,194.0" stroke="black" stroke-width="1" fill="none" />
<polyline points="80.0,210.0,64.0,210.0" stroke="black" stroke-width="1" fill="none" />
<polyline points="64.0,202.0,80.0,202.0" stroke="black" stroke-width="1" fill="none" />
<polyline points="72.0,222.0,64.0,222.0" stroke="black" stroke-width="1" fill="none" />
<polyline points="64.0,218.0,72.0,218.0" stroke="black" stroke-width="1" fill="none" />
<polyline points="72.0,242.0,56.0,242.0" stroke="black" stroke-width="1" fill="none" />
<polyline points="56.0,250.0,80.0,250.0" stroke="black" stroke-width="1" fill="none" />
<polyline points="72.0,254.0,64.0,254.0" stroke="black" stroke-width="1" fill="none" />
<polyline points="56.0,258.0,80.0,258.0" stroke="black" stroke-width="1" fill="none" />
<polyline points="296.0,370.0,312.0,370.0" stroke="black" stroke-width="1" fill="none" />
<polyline points="312.0,362.0,320.0,362.0" stroke="black" stroke-width="1" fill="none" />
<polyline points="328.0,362.0,336.0,362.0" stroke="black" stroke-width="1" fill="none" />
<polyline points="336.0,350.0,328.0,350.0" stroke="black" stroke-width="1" fill="none" />
<polyline points="320.0,346.0,344.0,346.0" stroke="black" stroke-width="1" fill="none" />
<polyline points="344.0,354.0,312.0,354.0" stroke="black" stroke-width="1" fill="none" />
</svg>