<svg xmlns="http://www.w3.org/2000/svg" height="511px" width="511px" version="1.1"><polyline points="1.0,0.0,1.0,8.0,1.0,16.0,1.0,24.0,1.0,32.0,1.0,40.0,1.0,48.0,1.0,56.0,1.0,64.0,1.0,72.0,1.0,80.0,1.0,88.0,1.0,96.0,1.0,104.0,1.0,112.0,1.0,120.0,1.0,128.0,1.0,136.0,1.0,144.0,1.0,152.0,1.0,160.0,1.0,168.0,1.0,176.0,1.0,184.0,1.0,192.0,1.0,200.0,1.0,208.0,1.0,216.0,1.0,224.0,1.0,232.0,1.0,240.0,1.0,248.0,1.0,256.0,1.0,264.0,1.0,272.0,1.0,280.0,1.0,288.0,1.0,296.0,1.0,304.0,1.0,312.0,1.0,320.0,1.0,328.0,1.0,336.0,1.0,344.0,1.0,352.0,1.0,360.0,1.0,368.0,1.0,376.0,1.0,384.0,1.0,392.0,1.0,400.0,1.0,408.0,1.0,416.0,1.0,424.0,1.0,432.0,1.0,440.0,1.0,448.0,1.0,456.0,1.0,464.0,1.0,472.0,1.0,480.0,1.0,488.0,1.0,496.0,1.0,504.0,3.0,511.0,11.0,511.0,19.0,511.0,27.0,511.0,35.0,511.0,43.0,511.0,51.0,511.0,59.0,511.0,67.0,511.0,75.0,511.0,83.0,511.0,91.0,511.0,99.0,511.0,107.0,511.0,115.0,511.0,123.0,511.0,131.0,511.0,139.0,511.0,147.0,511.0,155.0,511.0,163.0,511.0,171.0,511.0,179.0,511.0,187.0,511.0,195.0,511.0,203.0,511.0,211.0,511.0,219.0,511.0,227.0,511.0,235.0,511.0,243.0,511.0,251.0,511.0,259.0,511.0,267.0,511.0,275.0,511.0,283.0,511.0,291.0,511.0,299.0,511.0,307.0,511.0,315.0,511.0,323.0,511.0,331.0,511.0,339.0,511.0,347.0,511.0,355.0,511.0,363.0,511.0,371.0,511.0,379.0,511.0,387.0,511.0,395.0,511.0,403.0,511.0,411.0,511.0,419.0,511.0,427.0,511.0,435.0,511.0,443.0,511.0,451.0,511.0,459.0,511.0,467.0,511.0,475.0,511.0,483.0,511.0,491.0,511.0,499.0,511.0,507.0,511.0" stroke="black" stroke-width="1" fill="none" />
<polyline points="322.0,414.0,314.0,430.0" stroke="black" stroke-width="1" fill="none" />
<polyline points="302.0,454.0,312.0,460.0,313.0,463.0" stroke="black" stroke-width="1" fill="none" />
<polyline points="305.0,467.0,304.0,459.0" stroke="black" stroke-width="1" fill="none" />
<polyline points="294.0,462.0,280.0,461.0,272.0,462.0" stroke="black" stroke-width="1" fill="none" />
<polyline points="267.0,435.0,275.0,436.0,283.0,435.0" stroke="black" stroke-width="1" fill="none" />
<polyline points="283.0,407.0,272.0,408.0,264.0,407.0" stroke="black" stroke-width="1" fill="none" />
<polyline points="254.0,403.0,251.0,411.0" stroke="black" stroke-width="1" fill="none" />
<polyline points="235.0,415.0,236.0,423.0" stroke="black" stroke-width="1" fill="none" />
<polyline points="238.0,435.0,246.0,435.0" stroke="black" stroke-width="1" fill="none" />
<polyline points="232.0,403.0,224.0,403.0" stroke="black" stroke-width="1" fill="none" />
<polyline points="213.0,405.0,222.0,401.0,222.0,409.0,224.0,417.0,226.0,425.0,233.0,422.0,243.0,423.0,251.0,424.0,257.0,424.0,265.0,422.0,274.0,424.0,282.0,422.0" stroke="black" stroke-width="1" fill="none" />
<polyline points="303.0,404.0,295.0,402.0,284.0,403.0,287.0,403.0,288.0,395.0,286.0,390.0,289.0,382.0,290.0,374.0,291.0,366.0,291.0,358.0,291.0,350.0,291.0,342.0,291.0,334.0,291.0,326.0,291.0,318.0,291.0,310.0,291.0,302.0,292.0,294.0,292.0,286.0,292.0,278.0,293.0,270.0,293.0,262.0,294.0,254.0,294.0,246.0,294.0,238.0,295.0,230.0,295.0,222.0,295.0,214.0,294.0,206.0,294.0,198.0,293.0,190.0,293.0,182.0,292.0,174.0,292.0,166.0,291.0,158.0,290.0,150.0,289.0,142.0,288.0,134.0,287.0,126.0,286.0,118.0,286.0,110.0,285.0,102.0,285.0,94.0,285.0,86.0,284.0,78.0,284.0,70.0,282.0,63.0,278.0,55.0,279.0,46.0,271.0,46.0,263.0,46.0,255.0,46.0,247.0,46.0,239.0,46.0,231.0,47.0" stroke="black" stroke-width="1" fill="none" />
<polyline points="227.0,36.0,235.0,34.0" stroke="black" stroke-width="1" fill="none" />
<polyline points="229.0,35.0,235.0,43.0,233.0,53.0,230.0,61.0,223.0,69.0,225.0,75.0,225.0,83.0,224.0,91.0,224.0,99.0,223.0,107.0,222.0,115.0,222.0,123.0,221.0,131.0,220.0,139.0,219.0,147.0,218.0,155.0,217.0,163.0,216.0,171.0,216.0,179.0,216.0,187.0,215.0,195.0,215.0,203.0,214.0,211.0,214.0,219.0,214.0,227.0,215.0,235.0,215.0,243.0,215.0,251.0,215.0,259.0,216.0,267.0,216.0,275.0,216.0,283.0,216.0,291.0,217.0,299.0,217.0,307.0,217.0,315.0,217.0,323.0,217.0,331.0,217.0,339.0,218.0,347.0,218.0,355.0,218.0,363.0,219.0,371.0,219.0,379.0,220.0,387.0,221.0,395.0,215.0,403.0,214.0,411.0" stroke="black" stroke-width="1" fill="none" />
<polyline points="206.0,412.0,203.0,404.0,203.0,404.0" stroke="black" stroke-width="1" fill="none" />
<polyline points="187.0,404.0,195.0,426.0" stroke="black" stroke-width="1" fill="none" />
<polyline points="210.0,448.0,202.0,456.0,199.0,462.0,207.0,457.0,226.0,461.0,234.0,461.0" stroke="black" stroke-width="1" fill="none" />
<polyline points="210.0,453.0,203.0,461.0" stroke="black" stroke-width="1" fill="none" />
<polyline points="184.0,157.0,188.0,145.0" stroke="black" stroke-width="1" fill="none" />
<polyline points="205.0,88.0,213.0,76.0,216.0,83.0,213.0,91.0,211.0,99.0,214.0,89.0" stroke="black" stroke-width="1" fill="none" />
<polyline points="215.0,84.0,223.0,69.0,231.0,58.0" stroke="black" stroke-width="1" fill="none" />
<polyline points="243.0,50.0,242.0,58.0,242.0,66.0,241.0,74.0,239.0,82.0,239.0,90.0,239.0,98.0,238.0,106.0,236.0,114.0,235.0,122.0,233.0,130.0,233.0,138.0,231.0,146.0,230.0,154.0,229.0,162.0,228.0,170.0,227.0,178.0,227.0,186.0,227.0,194.0,226.0,202.0,226.0,210.0,226.0,218.0,226.0,226.0,226.0,234.0,226.0,242.0,226.0,250.0,227.0,258.0,227.0,266.0,227.0,274.0,227.0,282.0,228.0,290.0,228.0,298.0,229.0,306.0,229.0,314.0,229.0,322.0,229.0,330.0,229.0,338.0,229.0,346.0,229.0,354.0,230.0,362.0,231.0,370.0,231.0,378.0,232.0,386.0,233.0,394.0,233.0,402.0,241.0,402.0,244.0,406.0,257.0,403.0,262.0,405.0" stroke="black" stroke-width="1" fill="none" />
<polyline points="304.0,89.0,303.0,81.0" stroke="black" stroke-width="1" fill="none" />
<polyline points="289.0,76.0,293.0,84.0,293.0,92.0,294.0,100.0" stroke="black" stroke-width="1" fill="none" />
<polyline points="307.0,101.0,294.0,77.0,286.0,73.0" stroke="black" stroke-width="1" fill="none" />
<polyline points="266.0,48.0,266.0,56.0,267.0,64.0,268.0,72.0,268.0,80.0,269.0,88.0,270.0,96.0,271.0,104.0,272.0,112.0,274.0,120.0,274.0,128.0,275.0,136.0,277.0,144.0,279.0,152.0,280.0,160.0,280.0,168.0,281.0,176.0,281.0,184.0,282.0,192.0,283.0,200.0,283.0,208.0,283.0,216.0,283.0,224.0,283.0,232.0,283.0,240.0,283.0,248.0,282.0,256.0,282.0,264.0,281.0,272.0,281.0,280.0,280.0,288.0,280.0,296.0,280.0,304.0,280.0,312.0,280.0,320.0,280.0,328.0,280.0,336.0,280.0,344.0,279.0,352.0,279.0,360.0,278.0,368.0,278.0,376.0,277.0,384.0,276.0,392.0,275.0,400.0,280.0,403.0,284.0,414.0,282.0,422.0" stroke="black" stroke-width="1" fill="none" />
<polyline points="281.0,35.0,273.0,34.0,268.0,27.0,256.0,21.0,248.0,24.0,240.0,23.0" stroke="black" stroke-width="1" fill="none" />
<polyline points="220.0,25.0,215.0,33.0,212.0,33.0,213.0,37.0,212.0,45.0,219.0,48.0,218.0,56.0,217.0,64.0,212.0,69.0,214.0,75.0,211.0,83.0,205.0,89.0,205.0,97.0,204.0,105.0,201.0,113.0,197.0,118.0,195.0,126.0,190.0,134.0,190.0,142.0,187.0,146.0,188.0,152.0,186.0,160.0,183.0,168.0,183.0,176.0,181.0,184.0,179.0,192.0,180.0,200.0,180.0,208.0,180.0,216.0,180.0,224.0,181.0,232.0,181.0,240.0,181.0,248.0,181.0,256.0,181.0,264.0,181.0,272.0,181.0,280.0,181.0,288.0,181.0,296.0,181.0,304.0,181.0,312.0,179.0,320.0,181.0,328.0,181.0,336.0,181.0,344.0,181.0,352.0,181.0,360.0,181.0,368.0,181.0,376.0,181.0,384.0,179.0,392.0,183.0,395.0,185.0,403.0,185.0,411.0,184.0,419.0,187.0,419.0,191.0,427.0,191.0,433.0,190.0,441.0,186.0,449.0,186.0,455.0,184.0,463.0,189.0,463.0,197.0,460.0,205.0,453.0,213.0,448.0,221.0,448.0,229.0,449.0,237.0,449.0,245.0,450.0,253.0,450.0,261.0,450.0,269.0,450.0,277.0,449.0,285.0,448.0,293.0,448.0,301.0,448.0,309.0,454.0,317.0,461.0,325.0,464.0" stroke="black" stroke-width="1" fill="none" />
<polyline points="511.0,507.0,511.0,499.0,511.0,491.0,511.0,483.0,511.0,475.0,511.0,467.0,511.0,459.0,511.0,451.0,511.0,443.0,511.0,435.0,511.0,427.0,511.0,419.0,511.0,411.0,511.0,403.0,511.0,395.0,511.0,387.0,511.0,379.0,511.0,371.0,511.0,363.0,511.0,355.0,511.0,347.0,511.0,339.0,511.0,331.0,511.0,323.0,511.0,315.0,511.0,307.0,511.0,299.0,511.0,291.0,511.0,283.0,511.0,275.0,511.0,267.0,511.0,259.0,511.0,251.0,511.0,243.0,511.0,235.0,511.0,227.0,511.0,219.0,511.0,211.0,511.0,203.0,511.0,195.0,511.0,187.0,511.0,179.0,511.0,171.0,511.0,163.0,511.0,155.0,511.0,147.0,511.0,139.0,511.0,131.0,511.0,123.0,511.0,115.0,511.0,107.0,511.0,99.0,511.0,91.0,511.0,83.0,511.0,75.0,511.0,67.0,511.0,59.0,511.0,51.0,511.0,43.0,511.0,35.0,511.0,27.0,511.0,19.0,511.0,11.0,511.0,3.0,504.0,1.0,496.0,1.0,488.0,1.0,480.0,1.0,472.0,1.0,464.0,1.0,456.0,1.0,448.0,1.0,440.0,1.0,432.0,1.0,424.0,1.0,416.0,1.0,408.0,1.0,400.0,1.0,392.0,1.0,384.0,1.0,376.0,1.0,368.0,1.0,360.0,1.0,352.0,1.0,344.0,1.0,336.0,1.0,328.0,1.0,320.0,1.0,312.0,1.0,304.0,1.0,296.0,1.0,288.0,1.0,280.0,1.0,272.0,1.0,264.0,1.0,256.0,1.0,248.0,1.0,240.0,1.0,232.0,1.0,224.0,1.0,216.0,1.0,208.0,1.0,200.0,1.0,192.0,1.0,184.0,1.0,176.0,1.0,168.0,1.0,160.0,1.0,152.0,1.0,144.0,1.0,136.0,1.0,128.0,1.0,120.0,1.0,112.0,1.0,104.0,1.0,96.0,1.0,88.0,1.0,80.0,1.0,72.0,1.0,64.0,1.0,56.0,1.0,48.0,1.0,40.0,1.0,32.0,1.0,24.0,1.0,16.0,1.0,8.0,1.0,0.0,1.0" stroke="black" stroke-width="1" fill="none" />
<polyline points="211.0,29.0,219.0,26.0,227.0,25.0,235.0,25.0,239.0,27.0,247.0,27.0,255.0,27.0,260.0,24.0,268.0,24.0,276.0,24.0,279.0,25.0,287.0,25.0,295.0,27.0" stroke="black" stroke-width="1" fill="none" />
<polyline points="292.0,28.0,292.0,36.0,294.0,44.0,291.0,52.0,292.0,60.0,294.0,68.0,296.0,76.0,299.0,84.0,302.0,92.0,304.0,100.0,307.0,108.0,310.0,116.0,313.0,124.0,315.0,132.0,318.0,140.0,320.0,148.0,323.0,156.0,325.0,164.0,326.0,172.0,327.0,180.0,328.0,188.0,329.0,196.0,329.0,204.0,329.0,212.0,329.0,220.0,329.0,228.0,329.0,236.0,329.0,244.0,329.0,252.0,329.0,260.0,329.0,268.0,329.0,276.0,329.0,284.0,329.0,292.0,329.0,300.0,329.0,308.0,329.0,316.0,329.0,324.0,328.0,332.0,328.0,340.0,328.0,348.0,328.0,356.0,328.0,364.0,328.0,372.0,328.0,380.0,328.0,388.0,327.0,396.0,325.0,404.0,323.0,412.0,320.0,420.0,316.0,428.0,317.0,436.0,321.0,444.0,323.0,452.0,325.0,460.0" stroke="black" stroke-width="1" fill="none" />
<polyline points="184.0,154.0,224.0,154.0" stroke="black" stroke-width="1" fill="none" />
<polyline points="216.0,160.0,184.0,192.0" stroke="black" stroke-width="1" fill="none" />
<polyline points="184.0,190.0,216.0,190.0" stroke="black" stroke-width="1" fill="none" />
<polyline points="216.0,192.0,184.0,224.0" stroke="black" stroke-width="1" fill="none" />
<polyline points="184.0,222.0,208.0,222.0" stroke="black" stroke-width="1" fill="none" />
<polyline points="216.0,224.0,184.0,256.0" stroke="black" stroke-width="1" fill="none" />
<polyline points="184.0,254.0,216.0,254.0" stroke="black" stroke-width="1" fill="none" />
<polyline points="216.0,256.0,184.0,288.0" stroke="black" stroke-width="1" fill="none" />
<polyline points="184.0,286.0,216.0,286.0" stroke="black" stroke-width="1" fill="none" />
<polyline points="216.0,288.0,184.0,320.0" stroke="black" stroke-width="1" fill="none" />
<polyline points="184.0,318.0,216.0,318.0" stroke="black" stroke-width="1" fill="none" />
<polyline points="216.0,320.0,184.0,352.0" stroke="black" stroke-width="1" fill="none" />
<polyline points="184.0,350.0,216.0,350.0" stroke="black" stroke-width="1" fill="none" />
<polyline points="216.0,352.0,184.0,384.0" stroke="black" stroke-width="1" fill="none" />
<polyline points="184.0,382.0,216.0,382.0" stroke="black" stroke-width="1" fill="none" />
<polyline points="224.0,384.0,192.0,416.0" stroke="black" stroke-width="1" fill="none" />
<polyline points="192.0,414.0,208.0,414.0" stroke="black" stroke-width="1" fill="none" />
<polyline points="224.0,416.0,192.0,448.0" stroke="black" stroke-width="1" fill="none" />
<polyline points="192.0,446.0,320.0,446.0" stroke="black" stroke-width="1" fill="none" />
<polyline points="320.0,448.0,312.0,456.0" stroke="black" stroke-width="1" fill="none" />
<polyline points="312.0,454.0,320.0,454.0" stroke="black" stroke-width="1" fill="none" />
<polyline points="320.0,456.0,312.0,464.0" stroke="black" stroke-width="1" fill="none" />
<polyline points="320.0,464.0,328.0,456.0" stroke="black" stroke-width="1" fill="none" />
<polyline points="320.0,440.0,304.0,456.0" stroke="black" stroke-width="1" fill="none" />
<polyline points="304.0,458.0,328.0,458.0" stroke="black" stroke-width="1" fill="none" />
<polyline points="304.0,448.0,320.0,432.0" stroke="black" stroke-width="1" fill="none" />
<polyline points="312.0,432.0,296.0,448.0" stroke="black" stroke-width="1" fill="none" />
<polyline points="296.0,450.0,328.0,450.0" stroke="black" stroke-width="1" fill="none" />
<polyline points="320.0,416.0,288.0,448.0" stroke="black" stroke-width="1" fill="none" />
<polyline points="280.0,448.0,328.0,400.0" stroke="black" stroke-width="1" fill="none" />
<polyline points="328.0,392.0,272.0,448.0" stroke="black" stroke-width="1" fill="none" />
<polyline points="264.0,448.0,328.0,384.0" stroke="black" stroke-width="1" fill="none" />
<polyline points="328.0,376.0,288.0,416.0" stroke="black" stroke-width="1" fill="none" />
<polyline points="288.0,422.0,320.0,422.0" stroke="black" stroke-width="1" fill="none" />
<polyline points="320.0,414.0,304.0,414.0" stroke="black" stroke-width="1" fill="none" />
<polyline points="304.0,406.0,320.0,406.0" stroke="black" stroke-width="1" fill="none" />
<polyline points="328.0,398.0,296.0,398.0" stroke="black" stroke-width="1" fill="none" />
<polyline points="296.0,390.0,328.0,390.0" stroke="black" stroke-width="1" fill="none" />
<polyline points="328.0,368.0,288.0,408.0" stroke="black" stroke-width="1" fill="none" />
<polyline points="288.0,400.0,328.0,360.0" stroke="black" stroke-width="1" fill="none" />
<polyline points="328.0,352.0,288.0,392.0" stroke="black" stroke-width="1" fill="none" />
<polyline points="288.0,384.0,328.0,344.0" stroke="black" stroke-width="1" fill="none" />
<polyline points="328.0,336.0,288.0,376.0" stroke="black" stroke-width="1" fill="none" />
<polyline points="288.0,368.0,328.0,328.0" stroke="black" stroke-width="1" fill="none" />
<polyline points="328.0,320.0,288.0,360.0" stroke="black" stroke-width="1" fill="none" />
<polyline points="288.0,352.0,328.0,312.0" stroke="black" stroke-width="1" fill="none" />
<polyline points="328.0,304.0,288.0,344.0" stroke="black" stroke-width="1" fill="none" />
<polyline points="288.0,346.0,328.0,346.0" stroke="black" stroke-width="1" fill="none" />
<polyline points="328.0,374.0,296.0,374.0" stroke="black" stroke-width="1" fill="none" />
<polyline points="296.0,366.0,328.0,366.0" stroke="black" stroke-width="1" fill="none" />
<polyline points="328.0,382.0,296.0,382.0" stroke="black" stroke-width="1" fill="none" />
<polyline points="280.0,378.0,328.0,378.0" stroke="black" stroke-width="1" fill="none" />
<polyline points="328.0,358.0,296.0,358.0" stroke="black" stroke-width="1" fill="none" />
<polyline points="296.0,350.0,328.0,350.0" stroke="black" stroke-width="1" fill="none" />
<polyline points="328.0,342.0,296.0,342.0" stroke="black" stroke-width="1" fill="none" />
<polyline points="296.0,334.0,328.0,334.0" stroke="black" stroke-width="1" fill="none" />
<polyline points="296.0,328.0,328.0,296.0" stroke="black" stroke-width="1" fill="none" />
<polyline points="328.0,288.0,296.0,320.0" stroke="black" stroke-width="1" fill="none" />
<polyline points="296.0,318.0,328.0,318.0" stroke="black" stroke-width="1" fill="none" />
<polyline points="296.0,312.0,328.0,280.0" stroke="black" stroke-width="1" fill="none" />
<polyline points="328.0,272.0,296.0,304.0" stroke="black" stroke-width="1" fill="none" />
<polyline points="296.0,302.0,328.0,302.0" stroke="black" stroke-width="1" fill="none" />
<polyline points="296.0,296.0,328.0,264.0" stroke="black" stroke-width="1" fill="none" />
<polyline points="328.0,256.0,296.0,288.0" stroke="black" stroke-width="1" fill="none" />
<polyline points="296.0,286.0,328.0,286.0" stroke="black" stroke-width="1" fill="none" />
<polyline points="296.0,280.0,328.0,248.0" stroke="black" stroke-width="1" fill="none" />
<polyline points="328.0,240.0,296.0,272.0" stroke="black" stroke-width="1" fill="none" />
<polyline points="296.0,270.0,328.0,270.0" stroke="black" stroke-width="1" fill="none" />
<polyline points="296.0,264.0,328.0,232.0" stroke="black" stroke-width="1" fill="none" />
<polyline points="328.0,224.0,296.0,256.0" stroke="black" stroke-width="1" fill="none" />
<polyline points="296.0,254.0,328.0,254.0" stroke="black" stroke-width="1" fill="none" />
<polyline points="296.0,248.0,328.0,216.0" stroke="black" stroke-width="1" fill="none" />
<polyline points="328.0,208.0,296.0,240.0" stroke="black" stroke-width="1" fill="none" />
<polyline points="296.0,238.0,328.0,238.0" stroke="black" stroke-width="1" fill="none" />
<polyline points="296.0,232.0,328.0,200.0" stroke="black" stroke-width="1" fill="none" />
<polyline points="328.0,192.0,296.0,224.0" stroke="black" stroke-width="1" fill="none" />
<polyline points="296.0,222.0,328.0,222.0" stroke="black" stroke-width="1" fill="none" />
<polyline points="296.0,216.0,328.0,184.0" stroke="black" stroke-width="1" fill="none" />
<polyline points="328.0,176.0,296.0,208.0" stroke="black" stroke-width="1" fill="none" />
<polyline points="296.0,206.0,328.0,206.0" stroke="black" stroke-width="1" fill="none" />
<polyline points="296.0,200.0,328.0,168.0" stroke="black" stroke-width="1" fill="none" />
<polyline points="320.0,168.0,296.0,192.0" stroke="black" stroke-width="1" fill="none" />
<polyline points="296.0,190.0,328.0,190.0" stroke="black" stroke-width="1" fill="none" />
<polyline points="320.0,160.0,296.0,184.0" stroke="black" stroke-width="1" fill="none" />
<polyline points="296.0,182.0,328.0,182.0" stroke="black" stroke-width="1" fill="none" />
<polyline points="320.0,152.0,296.0,176.0" stroke="black" stroke-width="1" fill="none" />
<polyline points="296.0,174.0,320.0,174.0" stroke="black" stroke-width="1" fill="none" />
<polyline points="296.0,168.0,320.0,144.0" stroke="black" stroke-width="1" fill="none" />
<polyline points="320.0,136.0,296.0,160.0" stroke="black" stroke-width="1" fill="none" />
<polyline points="296.0,158.0,320.0,158.0" stroke="black" stroke-width="1" fill="none" />
<polyline points="312.0,136.0,288.0,160.0" stroke="black" stroke-width="1" fill="none" />
<polyline points="288.0,162.0,328.0,162.0" stroke="black" stroke-width="1" fill="none" />
<polyline points="320.0,166.0,296.0,166.0" stroke="black" stroke-width="1" fill="none" />
<polyline points="288.0,170.0,328.0,170.0" stroke="black" stroke-width="1" fill="none" />
<polyline points="328.0,198.0,296.0,198.0" stroke="black" stroke-width="1" fill="none" />
<polyline points="288.0,194.0,328.0,194.0" stroke="black" stroke-width="1" fill="none" />
<polyline points="328.0,230.0,296.0,230.0" stroke="black" stroke-width="1" fill="none" />
<polyline points="288.0,226.0,328.0,226.0" stroke="black" stroke-width="1" fill="none" />
<polyline points="328.0,246.0,296.0,246.0" stroke="black" stroke-width="1" fill="none" />
<polyline points="288.0,242.0,328.0,242.0" stroke="black" stroke-width="1" fill="none" />
<polyline points="328.0,278.0,296.0,278.0" stroke="black" stroke-width="1" fill="none" />
<polyline points="288.0,274.0,328.0,274.0" stroke="black" stroke-width="1" fill="none" />
<polyline points="328.0,294.0,296.0,294.0" stroke="black" stroke-width="1" fill="none" />
<polyline points="288.0,290.0,328.0,290.0" stroke="black" stroke-width="1" fill="none" />
<polyline points="328.0,326.0,296.0,326.0" stroke="black" stroke-width="1" fill="none" />
<polyline points="288.0,322.0,328.0,322.0" stroke="black" stroke-width="1" fill="none" />
<polyline points="328.0,310.0,296.0,310.0" stroke="black" stroke-width="1" fill="none" />
<polyline points="288.0,306.0,328.0,306.0" stroke="black" stroke-width="1" fill="none" />
<polyline points="328.0,338.0,288.0,338.0" stroke="black" stroke-width="1" fill="none" />
<polyline points="288.0,330.0,328.0,330.0" stroke="black" stroke-width="1" fill="none" />
<polyline points="328.0,314.0,288.0,314.0" stroke="black" stroke-width="1" fill="none" />
<polyline points="288.0,298.0,328.0,298.0" stroke="black" stroke-width="1" fill="none" />
<polyline points="328.0,262.0,296.0,262.0" stroke="black" stroke-width="1" fill="none" />
<polyline points="288.0,258.0,328.0,258.0" stroke="black" stroke-width="1" fill="none" />
<polyline points="328.0,282.0,288.0,282.0" stroke="black" stroke-width="1" fill="none" />
<polyline points="288.0,266.0,328.0,266.0" stroke="black" stroke-width="1" fill="none" />
<polyline points="328.0,250.0,288.0,250.0" stroke="black" stroke-width="1" fill="none" />
<polyline points="288.0,234.0,328.0,234.0" stroke="black" stroke-width="1" fill="none" />
<polyline points="328.0,214.0,296.0,214.0" stroke="black" stroke-width="1" fill="none" />
<polyline points="288.0,210.0,328.0,210.0" stroke="black" stroke-width="1" fill="none" />
<polyline points="328.0,218.0,288.0,218.0" stroke="black" stroke-width="1" fill="none" />
<polyline points="288.0,202.0,328.0,202.0" stroke="black" stroke-width="1" fill="none" />
<polyline points="328.0,186.0,288.0,186.0" stroke="black" stroke-width="1" fill="none" />
<polyline points="288.0,178.0,328.0,178.0" stroke="black" stroke-width="1" fill="none" />
<polyline points="320.0,150.0,296.0,150.0" stroke="black" stroke-width="1" fill="none" />
<polyline points="296.0,142.0,312.0,142.0" stroke="black" stroke-width="1" fill="none" />
<polyline points="312.0,128.0,288.0,152.0" stroke="black" stroke-width="1" fill="none" />
<polyline points="288.0,154.0,328.0,154.0" stroke="black" stroke-width="1" fill="none" />
<polyline points="312.0,120.0,288.0,144.0" stroke="black" stroke-width="1" fill="none" />
<polyline points="288.0,136.0,312.0,112.0" stroke="black" stroke-width="1" fill="none" />
<polyline points="304.0,112.0,288.0,128.0" stroke="black" stroke-width="1" fill="none" />
<polyline points="288.0,126.0,312.0,126.0" stroke="black" stroke-width="1" fill="none" />
<polyline points="312.0,134.0,296.0,134.0" stroke="black" stroke-width="1" fill="none" />
<polyline points="288.0,120.0,304.0,104.0" stroke="black" stroke-width="1" fill="none" />
<polyline points="304.0,96.0,288.0,112.0" stroke="black" stroke-width="1" fill="none" />
<polyline points="288.0,110.0,304.0,110.0" stroke="black" stroke-width="1" fill="none" />
<polyline points="296.0,96.0,288.0,104.0" stroke="black" stroke-width="1" fill="none" />
<polyline points="288.0,102.0,304.0,102.0" stroke="black" stroke-width="1" fill="none" />
<polyline points="296.0,88.0,288.0,96.0" stroke="black" stroke-width="1" fill="none" />
<polyline points="288.0,94.0,296.0,94.0" stroke="black" stroke-width="1" fill="none" />
<polyline points="288.0,88.0,296.0,80.0" stroke="black" stroke-width="1" fill="none" />
<polyline points="296.0,72.0,288.0,80.0" stroke="black" stroke-width="1" fill="none" />
<polyline points="288.0,78.0,296.0,78.0" stroke="black" stroke-width="1" fill="none" />
<polyline points="288.0,72.0,296.0,64.0" stroke="black" stroke-width="1" fill="none" />
<polyline points="288.0,56.0,280.0,64.0" stroke="black" stroke-width="1" fill="none" />
<polyline points="280.0,56.0,296.0,40.0" stroke="black" stroke-width="1" fill="none" />
<polyline points="296.0,32.0,280.0,48.0" stroke="black" stroke-width="1" fill="none" />
<polyline points="280.0,46.0,288.0,46.0" stroke="black" stroke-width="1" fill="none" />
<polyline points="288.0,54.0,280.0,54.0" stroke="black" stroke-width="1" fill="none" />
<polyline points="272.0,50.0,296.0,50.0" stroke="black" stroke-width="1" fill="none" />
<polyline points="288.0,32.0,272.0,48.0" stroke="black" stroke-width="1" fill="none" />
<polyline points="272.0,40.0,280.0,32.0" stroke="black" stroke-width="1" fill="none" />
<polyline points="280.0,38.0,288.0,38.0" stroke="black" stroke-width="1" fill="none" />
<polyline points="296.0,58.0,272.0,58.0" stroke="black" stroke-width="1" fill="none" />
<polyline points="272.0,66.0,296.0,66.0" stroke="black" stroke-width="1" fill="none" />
<polyline points="296.0,86.0,288.0,86.0" stroke="black" stroke-width="1" fill="none" />
<polyline points="272.0,82.0,304.0,82.0" stroke="black" stroke-width="1" fill="none" />
<polyline points="312.0,106.0,280.0,106.0" stroke="black" stroke-width="1" fill="none" />
<polyline points="280.0,114.0,312.0,114.0" stroke="black" stroke-width="1" fill="none" />
<polyline points="304.0,118.0,288.0,118.0" stroke="black" stroke-width="1" fill="none" />
<polyline points="280.0,122.0,312.0,122.0" stroke="black" stroke-width="1" fill="none" />
<polyline points="320.0,146.0,280.0,146.0" stroke="black" stroke-width="1" fill="none" />
<polyline points="280.0,138.0,320.0,138.0" stroke="black" stroke-width="1" fill="none" />
<polyline points="320.0,130.0,280.0,130.0" stroke="black" stroke-width="1" fill="none" />
<polyline points="272.0,98.0,304.0,98.0" stroke="black" stroke-width="1" fill="none" />
<polyline points="304.0,90.0,272.0,90.0" stroke="black" stroke-width="1" fill="none" />
<polyline points="272.0,74.0,296.0,74.0" stroke="black" stroke-width="1" fill="none" />
<polyline points="240.0,40.0,224.0,56.0" stroke="black" stroke-width="1" fill="none" />
<polyline points="224.0,54.0,232.0,54.0" stroke="black" stroke-width="1" fill="none" />
<polyline points="232.0,56.0,216.0,72.0" stroke="black" stroke-width="1" fill="none" />
<polyline points="216.0,74.0,240.0,74.0" stroke="black" stroke-width="1" fill="none" />
<polyline points="224.0,72.0,216.0,80.0" stroke="black" stroke-width="1" fill="none" />
<polyline points="216.0,78.0,224.0,78.0" stroke="black" stroke-width="1" fill="none" />
<polyline points="224.0,80.0,216.0,88.0" stroke="black" stroke-width="1" fill="none" />
<polyline points="216.0,86.0,224.0,86.0" stroke="black" stroke-width="1" fill="none" />
<polyline points="224.0,88.0,208.0,104.0" stroke="black" stroke-width="1" fill="none" />
<polyline points="208.0,98.0,240.0,98.0" stroke="black" stroke-width="1" fill="none" />
<polyline points="224.0,96.0,200.0,120.0" stroke="black" stroke-width="1" fill="none" />
<polyline points="200.0,122.0,232.0,122.0" stroke="black" stroke-width="1" fill="none" />
<polyline points="224.0,120.0,192.0,152.0" stroke="black" stroke-width="1" fill="none" />
<polyline points="192.0,150.0,216.0,150.0" stroke="black" stroke-width="1" fill="none" />
<polyline points="224.0,144.0,184.0,184.0" stroke="black" stroke-width="1" fill="none" />
<polyline points="184.0,186.0,224.0,186.0" stroke="black" stroke-width="1" fill="none" />
<polyline points="216.0,184.0,184.0,216.0" stroke="black" stroke-width="1" fill="none" />
<polyline points="184.0,214.0,216.0,214.0" stroke="black" stroke-width="1" fill="none" />
<polyline points="216.0,216.0,184.0,248.0" stroke="black" stroke-width="1" fill="none" />
<polyline points="184.0,246.0,216.0,246.0" stroke="black" stroke-width="1" fill="none" />
<polyline points="216.0,248.0,184.0,280.0" stroke="black" stroke-width="1" fill="none" />
<polyline points="184.0,278.0,216.0,278.0" stroke="black" stroke-width="1" fill="none" />
<polyline points="216.0,280.0,184.0,312.0" stroke="black" stroke-width="1" fill="none" />
<polyline points="184.0,310.0,216.0,310.0" stroke="black" stroke-width="1" fill="none" />
<polyline points="216.0,312.0,184.0,344.0" stroke="black" stroke-width="1" fill="none" />
<polyline points="184.0,342.0,216.0,342.0" stroke="black" stroke-width="1" fill="none" />
<polyline points="216.0,344.0,184.0,376.0" stroke="black" stroke-width="1" fill="none" />
<polyline points="184.0,374.0,216.0,374.0" stroke="black" stroke-width="1" fill="none" />
<polyline points="216.0,368.0,184.0,400.0" stroke="black" stroke-width="1" fill="none" />
<polyline points="184.0,402.0,232.0,402.0" stroke="black" stroke-width="1" fill="none" />
<polyline points="224.0,400.0,200.0,424.0" stroke="black" stroke-width="1" fill="none" />
<polyline points="200.0,430.0,232.0,430.0" stroke="black" stroke-width="1" fill="none" />
<polyline points="232.0,424.0,192.0,464.0" stroke="black" stroke-width="1" fill="none" />
<polyline points="192.0,456.0,224.0,424.0" stroke="black" stroke-width="1" fill="none" />
<polyline points="224.0,408.0,200.0,432.0" stroke="black" stroke-width="1" fill="none" />
<polyline points="200.0,438.0,312.0,438.0" stroke="black" stroke-width="1" fill="none" />
<polyline points="312.0,430.0,280.0,430.0" stroke="black" stroke-width="1" fill="none" />
<polyline points="280.0,424.0,256.0,448.0" stroke="black" stroke-width="1" fill="none" />
<polyline points="248.0,448.0,272.0,424.0" stroke="black" stroke-width="1" fill="none" />
<polyline points="264.0,424.0,240.0,448.0" stroke="black" stroke-width="1" fill="none" />
<polyline points="232.0,448.0,256.0,424.0" stroke="black" stroke-width="1" fill="none" />
<polyline points="248.0,424.0,224.0,448.0" stroke="black" stroke-width="1" fill="none" />
<polyline points="216.0,448.0,240.0,424.0" stroke="black" stroke-width="1" fill="none" />
<polyline points="256.0,410.0,264.0,410.0" stroke="black" stroke-width="1" fill="none" />
<polyline points="272.0,410.0,328.0,410.0" stroke="black" stroke-width="1" fill="none" />
<polyline points="320.0,418.0,280.0,418.0" stroke="black" stroke-width="1" fill="none" />
<polyline points="280.0,402.0,328.0,402.0" stroke="black" stroke-width="1" fill="none" />
<polyline points="328.0,394.0,280.0,394.0" stroke="black" stroke-width="1" fill="none" />
<polyline points="280.0,386.0,328.0,386.0" stroke="black" stroke-width="1" fill="none" />
<polyline points="328.0,370.0,280.0,370.0" stroke="black" stroke-width="1" fill="none" />
<polyline points="280.0,362.0,328.0,362.0" stroke="black" stroke-width="1" fill="none" />
<polyline points="328.0,354.0,280.0,354.0" stroke="black" stroke-width="1" fill="none" />
<polyline points="224.0,368.0,192.0,400.0" stroke="black" stroke-width="1" fill="none" />
<polyline points="192.0,398.0,216.0,398.0" stroke="black" stroke-width="1" fill="none" />
<polyline points="224.0,392.0,192.0,424.0" stroke="black" stroke-width="1" fill="none" />
<polyline points="192.0,422.0,224.0,422.0" stroke="black" stroke-width="1" fill="none" />
<polyline points="232.0,418.0,192.0,418.0" stroke="black" stroke-width="1" fill="none" />
<polyline points="192.0,426.0,320.0,426.0" stroke="black" stroke-width="1" fill="none" />
<polyline points="264.0,450.0,248.0,450.0" stroke="black" stroke-width="1" fill="none" />
<polyline points="208.0,454.0,192.0,454.0" stroke="black" stroke-width="1" fill="none" />
<polyline points="184.0,450.0,216.0,450.0" stroke="black" stroke-width="1" fill="none" />
<polyline points="192.0,442.0,320.0,442.0" stroke="black" stroke-width="1" fill="none" />
<polyline points="224.0,376.0,192.0,408.0" stroke="black" stroke-width="1" fill="none" />
<polyline points="192.0,406.0,216.0,406.0" stroke="black" stroke-width="1" fill="none" />
<polyline points="240.0,410.0,184.0,410.0" stroke="black" stroke-width="1" fill="none" />
<polyline points="184.0,394.0,232.0,394.0" stroke="black" stroke-width="1" fill="none" />
<polyline points="216.0,360.0,184.0,392.0" stroke="black" stroke-width="1" fill="none" />
<polyline points="184.0,390.0,216.0,390.0" stroke="black" stroke-width="1" fill="none" />
<polyline points="232.0,386.0,184.0,386.0" stroke="black" stroke-width="1" fill="none" />
<polyline points="184.0,378.0,232.0,378.0" stroke="black" stroke-width="1" fill="none" />
<polyline points="216.0,336.0,184.0,368.0" stroke="black" stroke-width="1" fill="none" />
<polyline points="184.0,366.0,216.0,366.0" stroke="black" stroke-width="1" fill="none" />
<polyline points="232.0,370.0,184.0,370.0" stroke="black" stroke-width="1" fill="none" />
<polyline points="184.0,362.0,224.0,362.0" stroke="black" stroke-width="1" fill="none" />
<polyline points="216.0,328.0,184.0,360.0" stroke="black" stroke-width="1" fill="none" />
<polyline points="184.0,358.0,216.0,358.0" stroke="black" stroke-width="1" fill="none" />
<polyline points="224.0,354.0,184.0,354.0" stroke="black" stroke-width="1" fill="none" />
<polyline points="184.0,346.0,224.0,346.0" stroke="black" stroke-width="1" fill="none" />
<polyline points="224.0,338.0,184.0,338.0" stroke="black" stroke-width="1" fill="none" />
<polyline points="184.0,336.0,216.0,304.0" stroke="black" stroke-width="1" fill="none" />
<polyline points="216.0,296.0,184.0,328.0" stroke="black" stroke-width="1" fill="none" />
<polyline points="184.0,326.0,216.0,326.0" stroke="black" stroke-width="1" fill="none" />
<polyline points="216.0,334.0,184.0,334.0" stroke="black" stroke-width="1" fill="none" />
<polyline points="184.0,330.0,224.0,330.0" stroke="black" stroke-width="1" fill="none" />
<polyline points="224.0,322.0,184.0,322.0" stroke="black" stroke-width="1" fill="none" />
<polyline points="184.0,314.0,224.0,314.0" stroke="black" stroke-width="1" fill="none" />
<polyline points="224.0,306.0,184.0,306.0" stroke="black" stroke-width="1" fill="none" />
<polyline points="184.0,304.0,216.0,272.0" stroke="black" stroke-width="1" fill="none" />
<polyline points="216.0,264.0,184.0,296.0" stroke="black" stroke-width="1" fill="none" />
<polyline points="184.0,294.0,216.0,294.0" stroke="black" stroke-width="1" fill="none" />
<polyline points="216.0,302.0,184.0,302.0" stroke="black" stroke-width="1" fill="none" />
<polyline points="184.0,298.0,224.0,298.0" stroke="black" stroke-width="1" fill="none" />
<polyline points="224.0,290.0,184.0,290.0" stroke="black" stroke-width="1" fill="none" />
<polyline points="184.0,282.0,224.0,282.0" stroke="black" stroke-width="1" fill="none" />
<polyline points="224.0,274.0,184.0,274.0" stroke="black" stroke-width="1" fill="none" />
<polyline points="184.0,272.0,216.0,240.0" stroke="black" stroke-width="1" fill="none" />
<polyline points="216.0,232.0,184.0,264.0" stroke="black" stroke-width="1" fill="none" />
<polyline points="184.0,262.0,216.0,262.0" stroke="black" stroke-width="1" fill="none" />
<polyline points="216.0,270.0,184.0,270.0" stroke="black" stroke-width="1" fill="none" />
<polyline points="184.0,266.0,224.0,266.0" stroke="black" stroke-width="1" fill="none" />
<polyline points="224.0,258.0,184.0,258.0" stroke="black" stroke-width="1" fill="none" />
<polyline points="184.0,250.0,224.0,250.0" stroke="black" stroke-width="1" fill="none" />
<polyline points="224.0,242.0,184.0,242.0" stroke="black" stroke-width="1" fill="none" />
<polyline points="184.0,240.0,216.0,208.0" stroke="black" stroke-width="1" fill="none" />
<polyline points="216.0,200.0,184.0,232.0" stroke="black" stroke-width="1" fill="none" />
<polyline points="184.0,230.0,208.0,230.0" stroke="black" stroke-width="1" fill="none" />
<polyline points="216.0,238.0,184.0,238.0" stroke="black" stroke-width="1" fill="none" />
<polyline points="184.0,234.0,224.0,234.0" stroke="black" stroke-width="1" fill="none" />
<polyline points="224.0,226.0,184.0,226.0" stroke="black" stroke-width="1" fill="none" />
<polyline points="184.0,218.0,224.0,218.0" stroke="black" stroke-width="1" fill="none" />
<polyline points="216.0,182.0,192.0,182.0" stroke="black" stroke-width="1" fill="none" />
<polyline points="192.0,174.0,216.0,174.0" stroke="black" stroke-width="1" fill="none" />
<polyline points="216.0,176.0,184.0,208.0" stroke="black" stroke-width="1" fill="none" />
<polyline points="184.0,206.0,216.0,206.0" stroke="black" stroke-width="1" fill="none" />
<polyline points="224.0,210.0,184.0,210.0" stroke="black" stroke-width="1" fill="none" />
<polyline points="184.0,202.0,224.0,202.0" stroke="black" stroke-width="1" fill="none" />
<polyline points="216.0,168.0,184.0,200.0" stroke="black" stroke-width="1" fill="none" />
<polyline points="184.0,198.0,216.0,198.0" stroke="black" stroke-width="1" fill="none" />
<polyline points="216.0,166.0,192.0,166.0" stroke="black" stroke-width="1" fill="none" />
<polyline points="192.0,160.0,224.0,128.0" stroke="black" stroke-width="1" fill="none" />
<polyline points="224.0,136.0,184.0,176.0" stroke="black" stroke-width="1" fill="none" />
<polyline points="184.0,178.0,224.0,178.0" stroke="black" stroke-width="1" fill="none" />
<polyline points="216.0,142.0,200.0,142.0" stroke="black" stroke-width="1" fill="none" />
<polyline points="200.0,134.0,216.0,134.0" stroke="black" stroke-width="1" fill="none" />
<polyline points="200.0,128.0,224.0,104.0" stroke="black" stroke-width="1" fill="none" />
<polyline points="224.0,112.0,192.0,144.0" stroke="black" stroke-width="1" fill="none" />
<polyline points="192.0,146.0,232.0,146.0" stroke="black" stroke-width="1" fill="none" />
<polyline points="224.0,118.0,208.0,118.0" stroke="black" stroke-width="1" fill="none" />
<polyline points="208.0,110.0,224.0,110.0" stroke="black" stroke-width="1" fill="none" />
<polyline points="224.0,102.0,216.0,102.0" stroke="black" stroke-width="1" fill="none" />
<polyline points="216.0,94.0,224.0,94.0" stroke="black" stroke-width="1" fill="none" />
<polyline points="216.0,82.0,240.0,82.0" stroke="black" stroke-width="1" fill="none" />
<polyline points="232.0,62.0,224.0,62.0" stroke="black" stroke-width="1" fill="none" />
<polyline points="216.0,58.0,240.0,58.0" stroke="black" stroke-width="1" fill="none" />
<polyline points="224.0,48.0,232.0,40.0" stroke="black" stroke-width="1" fill="none" />
<polyline points="232.0,32.0,224.0,40.0" stroke="black" stroke-width="1" fill="none" />
<polyline points="224.0,38.0,232.0,38.0" stroke="black" stroke-width="1" fill="none" />
<polyline points="224.0,32.0,216.0,40.0" stroke="black" stroke-width="1" fill="none" />
<polyline points="216.0,42.0,296.0,42.0" stroke="black" stroke-width="1" fill="none" />
<polyline points="232.0,46.0,224.0,46.0" stroke="black" stroke-width="1" fill="none" />
<polyline points="216.0,50.0,240.0,50.0" stroke="black" stroke-width="1" fill="none" />
<polyline points="240.0,66.0,216.0,66.0" stroke="black" stroke-width="1" fill="none" />
<polyline points="208.0,90.0,240.0,90.0" stroke="black" stroke-width="1" fill="none" />
<polyline points="232.0,114.0,200.0,114.0" stroke="black" stroke-width="1" fill="none" />
<polyline points="200.0,106.0,232.0,106.0" stroke="black" stroke-width="1" fill="none" />
<polyline points="216.0,126.0,200.0,126.0" stroke="black" stroke-width="1" fill="none" />
<polyline points="192.0,130.0,232.0,130.0" stroke="black" stroke-width="1" fill="none" />
<polyline points="216.0,158.0,192.0,158.0" stroke="black" stroke-width="1" fill="none" />
<polyline points="184.0,162.0,224.0,162.0" stroke="black" stroke-width="1" fill="none" />
<polyline points="232.0,138.0,192.0,138.0" stroke="black" stroke-width="1" fill="none" />
<polyline points="184.0,170.0,224.0,170.0" stroke="black" stroke-width="1" fill="none" />
<polyline points="224.0,194.0,184.0,194.0" stroke="black" stroke-width="1" fill="none" />
<polyline points="216.0,34.0,296.0,34.0" stroke="black" stroke-width="1" fill="none" />
<polyline points="296.0,26.0,216.0,26.0" stroke="black" stroke-width="1" fill="none" />
<polyline points="192.0,434.0,320.0,434.0" stroke="black" stroke-width="1" fill="none" />
<polyline points="208.0,458.0,184.0,458.0" stroke="black" stroke-width="1" fill="none" />
</svg>