<svg xmlns="http://www.w3.org/2000/svg" height="511px" width="511px" version="1.1"><polyline points="1.0,0.0,1.0,8.0,1.0,16.0,1.0,24.0,1.0,32.0,1.0,40.0,1.0,48.0,1.0,56.0,1.0,64.0,1.0,72.0,1.0,80.0,1.0,88.0,1.0,96.0,1.0,104.0,1.0,112.0,1.0,120.0,1.0,128.0,1.0,136.0,1.0,144.0,1.0,152.0,1.0,160.0,1.0,168.0,1.0,176.0,1.0,184.0,1.0,192.0,1.0,200.0,1.0,208.0,1.0,216.0,1.0,224.0,1.0,232.0,1.0,240.0,1.0,248.0,1.0,256.0,1.0,264.0,1.0,272.0,1.0,280.0,1.0,288.0,1.0,296.0,1.0,304.0,1.0,312.0,1.0,320.0,1.0,328.0,1.0,336.0,1.0,344.0,1.0,352.0,1.0,360.0,1.0,368.0,1.0,376.0,1.0,384.0,1.0,392.0,1.0,400.0,1.0,408.0,1.0,416.0,1.0,424.0,1.0,432.0,1.0,440.0,1.0,448.0,1.0,456.0,1.0,464.0,1.0,472.0,1.0,480.0,1.0,488.0,1.0,496.0,1.0,504.0,3.0,511.0,11.0,511.0,19.0,511.0,27.0,511.0,35.0,511.0,43.0,511.0,51.0,511.0,59.0,511.0,67.0,511.0,75.0,511.0,83.0,511.0,91.0,511.0,99.0,511.0,107.0,511.0,115.0,511.0,123.0,511.0,131.0,511.0,139.0,511.0,147.0,511.0,155.0,511.0,163.0,511.0,171.0,511.0,179.0,511.0,187.0,511.0,195.0,511.0,203.0,511.0,211.0,511.0,219.0,511.0,227.0,511.0,235.0,511.0,243.0,511.0,251.0,511.0,259.0,511.0,267.0,511.0,275.0,511.0,283.0,511.0,291.0,511.0,299.0,511.0,307.0,511.0,315.0,511.0,323.0,511.0,331.0,511.0,339.0,511.0,347.0,511.0,355.0,511.0,363.0,511.0,371.0,511.0,379.0,511.0,387.0,511.0,395.0,511.0,403.0,511.0,411.0,511.0,419.0,511.0,427.0,511.0,435.0,511.0,443.0,511.0,451.0,511.0,459.0,511.0,467.0,511.0,475.0,511.0,483.0,511.0,491.0,511.0,499.0,511.0,507.0,511.0" stroke="black" stroke-width="1" fill="none" />
<polyline points="359.0,281.0,351.0,275.0" stroke="black" stroke-width="1" fill="none" />
<polyline points="343.0,276.0,351.0,286.0" stroke="black" stroke-width="1" fill="none" />
<polyline points="346.0,261.0,354.0,251.0,362.0,251.0,370.0,260.0" stroke="black" stroke-width="1" fill="none" />
<polyline points="378.0,259.0,370.0,247.0,362.0,245.0,354.0,245.0,346.0,248.0,338.0,261.0" stroke="black" stroke-width="1" fill="none" />
<polyline points="323.0,252.0,315.0,251.0,307.0,259.0" stroke="black" stroke-width="1" fill="none" />
<polyline points="299.0,259.0,307.0,247.0,315.0,245.0,323.0,245.0,331.0,249.0" stroke="black" stroke-width="1" fill="none" />
<polyline points="317.0,250.0,308.0,258.0,306.0,266.0,307.0,274.0,310.0,282.0" stroke="black" stroke-width="1" fill="none" />
<polyline points="304.0,278.0,312.0,287.0,320.0,287.0,328.0,285.0" stroke="black" stroke-width="1" fill="none" />
<polyline points="328.0,285.0,330.0,277.0,333.0,267.0,325.0,266.0,317.0,267.0" stroke="black" stroke-width="1" fill="none" />
<polyline points="318.0,266.0,317.0,274.0,320.0,281.0" stroke="black" stroke-width="1" fill="none" />
<polyline points="319.0,282.0,311.0,273.0" stroke="black" stroke-width="1" fill="none" />
<polyline points="303.0,285.0,299.0,277.0,298.0,269.0,299.0,261.0,302.0,253.0,312.0,245.0" stroke="black" stroke-width="1" fill="none" />
<polyline points="278.0,243.0,270.0,247.0,262.0,257.0,254.0,267.0,248.0,271.0,257.0,263.0,263.0,255.0,270.0,247.0,282.0,239.0,285.0,231.0,286.0,223.0,278.0,223.0,270.0,223.0,262.0,223.0,254.0,223.0,246.0,223.0" stroke="black" stroke-width="1" fill="none" />
<polyline points="244.0,227.0,252.0,227.0,260.0,227.0,268.0,227.0,276.0,227.0,284.0,227.0,290.0,230.0,288.0,238.0,283.0,246.0,269.0,254.0,264.0,262.0,257.0,270.0,244.0,278.0,244.0,286.0,244.0,294.0,243.0,302.0,243.0,310.0,243.0,318.0,243.0,326.0,243.0,334.0" stroke="black" stroke-width="1" fill="none" />
<polyline points="211.0,301.0,203.0,310.0,195.0,315.0,187.0,318.0,179.0,319.0,171.0,318.0,163.0,316.0,155.0,312.0,147.0,305.0,139.0,292.0" stroke="black" stroke-width="1" fill="none" />
<polyline points="134.0,290.0,142.0,305.0,150.0,313.0,158.0,319.0,166.0,322.0,174.0,323.0" stroke="black" stroke-width="1" fill="none" />
<polyline points="161.0,344.0,161.0,352.0,161.0,360.0,161.0,368.0,161.0,376.0,161.0,384.0,161.0,392.0,161.0,400.0,161.0,408.0,161.0,416.0,162.0,424.0,162.0,432.0,162.0,440.0,162.0,448.0,162.0,456.0,162.0,464.0,162.0,472.0,162.0,480.0,162.0,488.0,163.0,496.0,163.0,504.0,172.0,502.0,180.0,502.0,188.0,502.0" stroke="black" stroke-width="1" fill="none" />
<polyline points="165.0,447.0,165.0,439.0,165.0,431.0" stroke="black" stroke-width="1" fill="none" />
<polyline points="193.0,407.0,193.0,399.0,193.0,391.0,193.0,383.0" stroke="black" stroke-width="1" fill="none" />
<polyline points="189.0,345.0,189.0,353.0,189.0,361.0,190.0,369.0,190.0,377.0,190.0,385.0,190.0,393.0,190.0,401.0,190.0,409.0,190.0,417.0,190.0,425.0,190.0,433.0,190.0,441.0,190.0,449.0,190.0,457.0,190.0,465.0,190.0,473.0,190.0,481.0,190.0,489.0,190.0,497.0" stroke="black" stroke-width="1" fill="none" />
<polyline points="233.0,337.0,225.0,337.0,217.0,337.0,209.0,337.0,201.0,337.0,193.0,337.0,185.0,337.0,177.0,337.0,169.0,337.0,161.0,337.0,153.0,337.0,145.0,337.0,137.0,337.0,129.0,337.0,121.0,337.0" stroke="black" stroke-width="1" fill="none" />
<polyline points="136.0,264.0,144.0,250.0,152.0,242.0,160.0,238.0,168.0,235.0,176.0,234.0,184.0,234.0,192.0,236.0,200.0,240.0,208.0,246.0,216.0,256.0" stroke="black" stroke-width="1" fill="none" />
<polyline points="223.0,251.0,215.0,241.0,207.0,234.0,199.0,230.0,191.0,227.0,183.0,226.0,175.0,225.0,167.0,226.0,159.0,228.0,151.0,232.0,143.0,238.0,135.0,246.0,127.0,261.0" stroke="black" stroke-width="1" fill="none" />
<polyline points="113.0,273.0,105.0,268.0,97.0,261.0,89.0,250.0,81.0,244.0,73.0,233.0" stroke="black" stroke-width="1" fill="none" />
<polyline points="70.0,229.0,78.0,228.0,86.0,228.0,94.0,228.0,102.0,228.0,110.0,228.0" stroke="black" stroke-width="1" fill="none" />
<polyline points="71.0,228.0,71.0,236.0,77.0,244.0,88.0,252.0,94.0,260.0,101.0,268.0" stroke="black" stroke-width="1" fill="none" />
<polyline points="110.0,276.0,102.0,271.0,94.0,264.0,86.0,253.0,78.0,247.0,70.0,239.0" stroke="black" stroke-width="1" fill="none" />
<polyline points="66.0,228.0,74.0,224.0,82.0,224.0,90.0,223.0,98.0,223.0,106.0,223.0,114.0,231.0,114.0,239.0,114.0,247.0,114.0,255.0,114.0,263.0,114.0,271.0" stroke="black" stroke-width="1" fill="none" />
<polyline points="163.0,236.0,150.0,244.0,142.0,252.0,138.0,260.0,135.0,268.0,134.0,276.0,135.0,284.0,137.0,292.0,140.0,300.0,147.0,308.0,157.0,316.0" stroke="black" stroke-width="1" fill="none" />
<polyline points="203.0,310.0,211.0,302.0,215.0,294.0,218.0,286.0,219.0,278.0,218.0,270.0,216.0,262.0,212.0,254.0,204.0,246.0,190.0,238.0" stroke="black" stroke-width="1" fill="none" />
<polyline points="193.0,230.0,208.0,238.0,216.0,246.0,222.0,254.0,226.0,262.0,227.0,270.0,224.0,278.0,223.0,286.0,220.0,294.0,216.0,302.0,209.0,310.0,198.0,318.0,187.0,322.0,195.0,320.0,203.0,315.0,211.0,308.0,219.0,296.0" stroke="black" stroke-width="1" fill="none" />
<polyline points="211.0,200.0,203.0,208.0,195.0,213.0,187.0,216.0,179.0,217.0,171.0,216.0,163.0,214.0,155.0,210.0,147.0,202.0,139.0,189.0" stroke="black" stroke-width="1" fill="none" />
<polyline points="134.0,187.0,142.0,203.0,150.0,211.0,158.0,217.0,166.0,219.0,174.0,221.0,182.0,221.0,190.0,220.0,198.0,217.0,206.0,211.0,214.0,203.0,222.0,187.0" stroke="black" stroke-width="1" fill="none" />
<polyline points="216.0,154.0,208.0,144.0,200.0,138.0,192.0,134.0,184.0,132.0,176.0,132.0,168.0,133.0,160.0,136.0,152.0,141.0,144.0,148.0,136.0,163.0" stroke="black" stroke-width="1" fill="none" />
<polyline points="128.0,157.0,136.0,143.0,144.0,135.0,152.0,130.0,160.0,126.0,168.0,124.0,176.0,124.0,184.0,124.0,192.0,125.0,200.0,128.0,208.0,133.0,216.0,140.0,224.0,150.0" stroke="black" stroke-width="1" fill="none" />
<polyline points="245.0,126.0,253.0,125.0,261.0,125.0" stroke="black" stroke-width="1" fill="none" />
<polyline points="248.0,121.0,256.0,121.0,264.0,122.0,272.0,122.0,280.0,122.0,288.0,122.0,289.0,129.0,287.0,137.0,281.0,145.0,269.0,153.0,263.0,161.0,256.0,169.0,247.0,175.0,255.0,170.0,263.0,161.0,271.0,151.0,279.0,147.0,287.0,137.0,283.0,134.0,278.0,142.0,265.0,150.0,260.0,158.0,252.0,166.0,251.0,167.0,259.0,159.0,267.0,148.0,275.0,144.0,283.0,134.0,285.0,126.0" stroke="black" stroke-width="1" fill="none" />
<polyline points="297.0,146.0,297.0,154.0,299.0,162.0,301.0,170.0,303.0,178.0,305.0,186.0,311.0,187.0" stroke="black" stroke-width="1" fill="none" />
<polyline points="333.0,185.0,335.0,177.0,336.0,169.0,338.0,161.0,340.0,153.0,341.0,146.0,333.0,148.0" stroke="black" stroke-width="1" fill="none" />
<polyline points="335.0,146.0,332.0,154.0" stroke="black" stroke-width="1" fill="none" />
<polyline points="317.0,146.0,314.0,154.0,319.0,161.0,317.0,169.0,315.0,177.0,313.0,185.0" stroke="black" stroke-width="1" fill="none" />
<polyline points="328.0,185.0,323.0,184.0,322.0,176.0,327.0,170.0,325.0,162.0,323.0,154.0,323.0,146.0,315.0,148.0" stroke="black" stroke-width="1" fill="none" />
<polyline points="296.0,147.0,304.0,146.0,305.0,153.0,307.0,161.0,308.0,169.0,310.0,177.0" stroke="black" stroke-width="1" fill="none" />
<polyline points="351.0,187.0,359.0,174.0,360.0,165.0,373.0,164.0" stroke="black" stroke-width="1" fill="none" />
<polyline points="363.0,156.0,361.0,164.0,359.0,172.0,355.0,181.0,350.0,181.0" stroke="black" stroke-width="1" fill="none" />
<polyline points="363.0,174.0,371.0,175.0,370.0,184.0" stroke="black" stroke-width="1" fill="none" />
<polyline points="394.0,182.0,394.0,174.0,394.0,166.0,394.0,158.0,394.0,150.0" stroke="black" stroke-width="1" fill="none" />
<polyline points="401.0,147.0,409.0,146.0,417.0,146.0,425.0,146.0,433.0,146.0" stroke="black" stroke-width="1" fill="none" />
<polyline points="425.0,151.0,415.0,151.0,407.0,151.0,401.0,149.0,394.0,146.0,386.0,148.0" stroke="black" stroke-width="1" fill="none" />
<polyline points="387.0,146.0,386.0,154.0,386.0,162.0,386.0,170.0,386.0,178.0,386.0,186.0" stroke="black" stroke-width="1" fill="none" />
<polyline points="413.0,188.0,413.0,180.0,413.0,172.0,413.0,164.0,413.0,156.0" stroke="black" stroke-width="1" fill="none" />
<polyline points="422.0,151.0,420.0,159.0,420.0,167.0,420.0,175.0,420.0,183.0" stroke="black" stroke-width="1" fill="none" />
<polyline points="377.0,187.0,377.0,182.0,375.0,174.0,372.0,166.0,369.0,158.0,367.0,150.0" stroke="black" stroke-width="1" fill="none" />
<polyline points="360.0,146.0,357.0,154.0,354.0,162.0,351.0,170.0,349.0,178.0,346.0,186.0,348.0,179.0,356.0,155.0,364.0,146.0,372.0,153.0,380.0,177.0" stroke="black" stroke-width="1" fill="none" />
<polyline points="352.0,245.0,342.0,253.0,338.0,261.0,338.0,269.0,339.0,277.0,343.0,285.0,357.0,287.0,365.0,286.0,373.0,277.0" stroke="black" stroke-width="1" fill="none" />
<polyline points="363.0,279.0,367.0,271.0,367.0,263.0,361.0,255.0" stroke="black" stroke-width="1" fill="none" />
<polyline points="366.0,250.0,373.0,258.0,375.0,266.0,374.0,274.0,370.0,282.0" stroke="black" stroke-width="1" fill="none" />
<polyline points="351.0,283.0,347.0,275.0,346.0,267.0,347.0,259.0,354.0,251.0" stroke="black" stroke-width="1" fill="none" />
<polyline points="391.0,81.0,383.0,75.0" stroke="black" stroke-width="1" fill="none" />
<polyline points="375.0,76.0,383.0,86.0" stroke="black" stroke-width="1" fill="none" />
<polyline points="378.0,61.0,386.0,51.0,394.0,51.0,402.0,60.0" stroke="black" stroke-width="1" fill="none" />
<polyline points="410.0,59.0,402.0,47.0,394.0,45.0,386.0,45.0,378.0,48.0,370.0,61.0" stroke="black" stroke-width="1" fill="none" />
<polyline points="359.0,51.0,351.0,52.0" stroke="black" stroke-width="1" fill="none" />
<polyline points="343.0,56.0,343.0,64.0,343.0,72.0,343.0,80.0,343.0,88.0" stroke="black" stroke-width="1" fill="none" />
<polyline points="351.0,79.0,351.0,71.0,351.0,63.0,351.0,55.0,344.0,51.0,336.0,51.0" stroke="black" stroke-width="1" fill="none" />
<polyline points="326.0,67.0,318.0,63.0,310.0,58.0" stroke="black" stroke-width="1" fill="none" />
<polyline points="305.0,56.0,313.0,50.0,321.0,53.0" stroke="black" stroke-width="1" fill="none" />
<polyline points="312.0,50.0,305.0,58.0,315.0,66.0,326.0,74.0,325.0,82.0" stroke="black" stroke-width="1" fill="none" />
<polyline points="311.0,84.0,303.0,84.0" stroke="black" stroke-width="1" fill="none" />
<polyline points="297.0,81.0,305.0,77.0,313.0,81.0" stroke="black" stroke-width="1" fill="none" />
<polyline points="319.0,72.0,311.0,68.0,303.0,62.0" stroke="black" stroke-width="1" fill="none" />
<polyline points="298.0,53.0,306.0,46.0,314.0,45.0,322.0,46.0,332.0,47.0,333.0,55.0,338.0,46.0,346.0,46.0,354.0,46.0,362.0,46.0" stroke="black" stroke-width="1" fill="none" />
<polyline points="384.0,45.0,374.0,53.0,370.0,61.0,370.0,69.0,371.0,77.0,375.0,85.0,389.0,87.0,397.0,86.0,405.0,77.0" stroke="black" stroke-width="1" fill="none" />
<polyline points="424.0,72.0,432.0,64.0,435.0,61.0" stroke="black" stroke-width="1" fill="none" />
<polyline points="440.0,67.0,432.0,71.0,440.0,67.0,443.0,59.0,438.0,51.0,432.0,52.0,424.0,53.0" stroke="black" stroke-width="1" fill="none" />
<polyline points="426.0,51.0,424.0,59.0,424.0,67.0,424.0,76.0,424.0,84.0" stroke="black" stroke-width="1" fill="none" />
<polyline points="417.0,47.0,425.0,46.0,433.0,46.0,441.0,48.0" stroke="black" stroke-width="1" fill="none" />
<polyline points="418.0,46.0,417.0,54.0,417.0,62.0,417.0,70.0,417.0,78.0,417.0,86.0" stroke="black" stroke-width="1" fill="none" />
<polyline points="395.0,79.0,399.0,71.0,399.0,63.0,393.0,55.0" stroke="black" stroke-width="1" fill="none" />
<polyline points="398.0,50.0,405.0,58.0,407.0,66.0,406.0,74.0,402.0,82.0" stroke="black" stroke-width="1" fill="none" />
<polyline points="383.0,83.0,379.0,75.0,378.0,67.0,379.0,59.0,386.0,51.0" stroke="black" stroke-width="1" fill="none" />
<polyline points="322.0,85.0,314.0,87.0,318.0,77.0,304.0,69.0,298.0,61.0,298.0,53.0,307.0,45.0" stroke="black" stroke-width="1" fill="none" />
<polyline points="288.0,20.0,280.0,19.0,272.0,19.0,264.0,19.0,256.0,19.0,248.0,19.0" stroke="black" stroke-width="1" fill="none" />
<polyline points="245.0,24.0,253.0,23.0,261.0,23.0,269.0,23.0,277.0,23.0,285.0,23.0,288.0,28.0,285.0,36.0,278.0,44.0,267.0,52.0,261.0,60.0,253.0,68.0" stroke="black" stroke-width="1" fill="none" />
<polyline points="245.0,85.0,245.0,93.0,245.0,101.0,245.0,109.0,245.0,117.0,245.0,127.0,245.0,135.0,245.0,143.0,244.0,151.0,244.0,159.0,244.0,167.0,247.0,175.0,244.0,183.0,244.0,191.0,244.0,199.0,244.0,207.0,244.0,215.0,244.0,223.0,244.0,232.0,244.0,240.0,244.0,248.0,244.0,256.0,244.0,264.0,244.0,272.0,248.0,276.0,256.0,271.0,264.0,261.0,272.0,252.0,280.0,248.0,288.0,237.0" stroke="black" stroke-width="1" fill="none" />
<polyline points="235.0,341.0,227.0,341.0,219.0,341.0,211.0,341.0,203.0,341.0,195.0,341.0,187.0,342.0,179.0,342.0,171.0,342.0,163.0,342.0,155.0,341.0,147.0,341.0,139.0,341.0,131.0,341.0,123.0,341.0,118.0,338.0,118.0,330.0,118.0,322.0,118.0,314.0,118.0,306.0,118.0,298.0,118.0,290.0,118.0,282.0,118.0,274.0,118.0,266.0,118.0,258.0,118.0,250.0,118.0,242.0,118.0,234.0,118.0,226.0,118.0,218.0,118.0,210.0,118.0,202.0,118.0,194.0,118.0,186.0,118.0,178.0,118.0,170.0,118.0,162.0" stroke="black" stroke-width="1" fill="none" />
<polyline points="113.0,172.0,105.0,167.0,97.0,160.0,89.0,149.0,81.0,143.0,73.0,134.0" stroke="black" stroke-width="1" fill="none" />
<polyline points="69.0,136.0,77.0,146.0,85.0,151.0,93.0,162.0,101.0,170.0,109.0,175.0" stroke="black" stroke-width="1" fill="none" />
<polyline points="114.0,127.0,106.0,127.0,98.0,127.0,90.0,127.0,78.0,127.0,70.0,128.0" stroke="black" stroke-width="1" fill="none" />
<polyline points="71.0,127.0,71.0,135.0,77.0,143.0,87.0,151.0,93.0,159.0,101.0,167.0" stroke="black" stroke-width="1" fill="none" />
<polyline points="114.0,122.0,106.0,122.0,98.0,123.0,90.0,123.0,82.0,123.0,74.0,123.0,66.0,123.0" stroke="black" stroke-width="1" fill="none" />
<polyline points="66.0,123.0,66.0,131.0,68.0,139.0,74.0,147.0,85.0,155.0,91.0,163.0,99.0,171.0,112.0,179.0,114.0,187.0,114.0,195.0,114.0,203.0,114.0,211.0,114.0,219.0" stroke="black" stroke-width="1" fill="none" />
<polyline points="68.0,224.0,66.0,232.0,68.0,240.0,75.0,248.0,85.0,256.0,91.0,264.0,99.0,272.0,112.0,280.0,114.0,288.0,114.0,296.0,114.0,304.0,114.0,312.0,114.0,320.0,114.0,328.0,114.0,336.0" stroke="black" stroke-width="1" fill="none" />
<polyline points="203.0,208.0,211.0,200.0,216.0,192.0,219.0,184.0,220.0,176.0,219.0,168.0,216.0,160.0,212.0,152.0,204.0,144.0,190.0,136.0" stroke="black" stroke-width="1" fill="none" />
<polyline points="197.0,129.0,209.0,137.0,217.0,145.0,223.0,153.0,226.0,161.0,228.0,169.0,224.0,177.0,223.0,186.0,220.0,194.0,215.0,202.0,207.0,210.0,194.0,218.0" stroke="black" stroke-width="1" fill="none" />
<polyline points="156.0,213.0,146.0,205.0,140.0,197.0,137.0,189.0,135.0,181.0,135.0,173.0,136.0,165.0,139.0,157.0,144.0,149.0,151.0,141.0,167.0,133.0" stroke="black" stroke-width="1" fill="none" />
<polyline points="139.0,86.0,147.0,101.0,155.0,109.0,163.0,113.0,171.0,115.0,179.0,116.0,187.0,115.0,195.0,112.0,203.0,108.0,211.0,99.0" stroke="black" stroke-width="1" fill="none" />
<polyline points="216.0,52.0,208.0,43.0,200.0,37.0,192.0,33.0,184.0,31.0,176.0,31.0,168.0,32.0,160.0,35.0,152.0,40.0,144.0,48.0,136.0,64.0" stroke="black" stroke-width="1" fill="none" />
<polyline points="128.0,57.0,136.0,42.0,144.0,35.0,152.0,29.0,160.0,25.0,168.0,23.0,176.0,23.0,184.0,23.0,192.0,24.0,200.0,27.0,208.0,32.0,216.0,39.0,224.0,48.0" stroke="black" stroke-width="1" fill="none" />
<polyline points="190.0,35.0,205.0,43.0,212.0,51.0,217.0,59.0,219.0,67.0,220.0,75.0,219.0,83.0,216.0,91.0,211.0,99.0,204.0,107.0" stroke="black" stroke-width="1" fill="none" />
<polyline points="215.0,101.0,207.0,110.0,199.0,115.0,191.0,119.0,183.0,120.0,175.0,120.0,167.0,119.0,159.0,116.0,151.0,111.0,143.0,103.0,135.0,88.0" stroke="black" stroke-width="1" fill="none" />
<polyline points="112.0,69.0,104.0,64.0,96.0,57.0,88.0,46.0,80.0,40.0,72.0,31.0" stroke="black" stroke-width="1" fill="none" />
<polyline points="68.0,32.0,76.0,43.0,84.0,48.0,92.0,59.0,100.0,67.0,108.0,72.0,116.0,76.0" stroke="black" stroke-width="1" fill="none" />
<polyline points="109.0,24.0,101.0,24.0,93.0,24.0,85.0,24.0,77.0,24.0,69.0,25.0" stroke="black" stroke-width="1" fill="none" />
<polyline points="71.0,24.0,70.0,32.0,75.0,40.0,87.0,48.0,92.0,56.0,99.0,64.0,113.0,72.0" stroke="black" stroke-width="1" fill="none" />
<polyline points="115.0,65.0,115.0,57.0,115.0,49.0,115.0,41.0,115.0,33.0,113.0,20.0,105.0,20.0,97.0,20.0,89.0,20.0,81.0,20.0,73.0,20.0,65.0,22.0" stroke="black" stroke-width="1" fill="none" />
<polyline points="66.0,21.0,65.0,29.0,68.0,37.0,75.0,45.0,85.0,53.0,90.0,61.0,99.0,69.0,113.0,77.0,115.0,85.0,115.0,93.0,115.0,101.0,115.0,109.0,115.0,117.0" stroke="black" stroke-width="1" fill="none" />
<polyline points="156.0,112.0,146.0,104.0,141.0,96.0,137.0,88.0,135.0,80.0,135.0,72.0,136.0,64.0,139.0,56.0,144.0,48.0,152.0,40.0,168.0,32.0" stroke="black" stroke-width="1" fill="none" />
<polyline points="163.0,24.0,147.0,32.0,138.0,40.0,132.0,48.0,129.0,56.0,127.0,64.0,126.0,72.0,131.0,80.0,133.0,88.0,136.0,96.0,141.0,104.0,149.0,112.0,163.0,120.0,149.0,131.0,140.0,139.0,133.0,147.0,129.0,155.0,127.0,163.0,126.0,171.0,130.0,179.0,132.0,187.0,134.0,195.0,139.0,203.0,146.0,211.0,158.0,219.0,151.0,232.0,141.0,240.0,133.0,248.0,129.0,256.0,127.0,264.0,125.0,272.0,130.0,280.0,131.0,288.0,134.0,296.0,138.0,304.0,145.0,312.0,156.0,320.0" stroke="black" stroke-width="1" fill="none" />
<polyline points="298.0,85.0,301.0,77.0" stroke="black" stroke-width="1" fill="none" />
<polyline points="281.0,34.0,273.0,42.0,265.0,47.0,257.0,58.0,249.0,66.0,255.0,60.0,261.0,52.0,268.0,44.0,280.0,36.0,284.0,28.0,282.0,41.0,274.0,46.0,266.0,53.0,258.0,64.0,250.0,71.0,245.0,68.0,245.0,60.0,245.0,52.0,245.0,44.0,245.0,36.0,245.0,28.0,245.0,19.0,245.0,11.0,243.0,5.0,235.0,5.0,227.0,5.0,219.0,5.0,211.0,5.0,203.0,5.0,195.0,5.0,187.0,5.0,179.0,5.0,171.0,5.0,163.0,5.0,155.0,5.0,147.0,5.0,139.0,5.0,131.0,5.0,123.0,5.0,115.0,8.0" stroke="black" stroke-width="1" fill="none" />
<polyline points="116.0,6.0,115.0,14.0" stroke="black" stroke-width="1" fill="none" />
<polyline points="119.0,10.0,119.0,18.0,119.0,26.0,119.0,34.0,119.0,42.0,119.0,50.0,119.0,58.0,119.0,66.0,119.0,74.0,119.0,82.0,118.0,90.0,118.0,98.0,118.0,106.0,118.0,114.0,118.0,122.0,115.0,133.0,115.0,141.0,115.0,149.0,115.0,157.0,114.0,165.0" stroke="black" stroke-width="1" fill="none" />
<polyline points="119.0,10.0,127.0,10.0,135.0,9.0,143.0,9.0,151.0,9.0,159.0,9.0,167.0,9.0,175.0,9.0,183.0,9.0,191.0,9.0,199.0,9.0,207.0,9.0,215.0,9.0" stroke="black" stroke-width="1" fill="none" />
<polyline points="241.0,11.0,241.0,19.0,241.0,27.0,241.0,35.0,241.0,43.0,241.0,51.0,241.0,59.0,241.0,67.0,241.0,75.0,241.0,83.0,241.0,91.0,241.0,99.0,241.0,107.0,241.0,115.0,240.0,123.0,240.0,131.0,240.0,139.0,240.0,147.0,240.0,155.0,240.0,163.0,240.0,171.0,240.0,179.0,240.0,187.0,240.0,195.0,240.0,203.0,240.0,211.0,240.0,219.0,240.0,227.0,240.0,235.0,240.0,243.0,240.0,251.0,240.0,259.0,240.0,267.0,240.0,275.0,240.0,283.0,239.0,291.0,239.0,299.0,239.0,307.0,239.0,315.0,239.0,323.0,239.0,331.0" stroke="black" stroke-width="1" fill="none" />
<polyline points="199.0,115.0,210.0,107.0,217.0,99.0,221.0,91.0,223.0,83.0,224.0,75.0,228.0,67.0,226.0,59.0,223.0,51.0,217.0,43.0,208.0,35.0,193.0,27.0" stroke="black" stroke-width="1" fill="none" />
<polyline points="0.0,1.0,8.0,1.0,16.0,1.0,24.0,1.0,32.0,1.0,40.0,1.0,48.0,1.0,56.0,1.0,64.0,1.0,72.0,1.0,80.0,1.0,88.0,1.0,96.0,1.0,104.0,1.0,112.0,1.0,120.0,1.0,128.0,1.0,136.0,1.0,144.0,1.0,152.0,1.0,160.0,1.0,168.0,1.0,176.0,1.0,184.0,1.0,192.0,1.0,200.0,1.0,208.0,1.0,216.0,1.0,224.0,1.0,232.0,1.0,240.0,1.0,248.0,1.0,256.0,1.0,264.0,1.0,272.0,1.0,280.0,1.0,288.0,1.0,296.0,1.0,304.0,1.0,312.0,1.0,320.0,1.0,328.0,1.0,336.0,1.0,344.0,1.0,352.0,1.0,360.0,1.0,368.0,1.0,376.0,1.0,384.0,1.0,392.0,1.0,400.0,1.0,408.0,1.0,416.0,1.0,424.0,1.0,432.0,1.0,440.0,1.0,448.0,1.0,456.0,1.0,464.0,1.0,472.0,1.0,480.0,1.0,488.0,1.0,496.0,1.0,504.0,1.0,511.0,3.0,511.0,11.0,511.0,19.0,511.0,27.0,511.0,35.0,511.0,43.0,511.0,51.0,511.0,59.0,511.0,67.0,511.0,75.0,511.0,83.0,511.0,91.0,511.0,99.0,511.0,107.0,511.0,115.0,511.0,123.0,511.0,131.0,511.0,139.0,511.0,147.0,511.0,155.0,511.0,163.0,511.0,171.0,511.0,179.0,511.0,187.0,511.0,195.0,511.0,203.0,511.0,211.0,511.0,219.0,511.0,227.0,511.0,235.0,511.0,243.0,511.0,251.0,511.0,259.0,511.0,267.0,511.0,275.0,511.0,283.0,511.0,291.0,511.0,299.0,511.0,307.0,511.0,315.0,511.0,323.0,511.0,331.0,511.0,339.0,511.0,347.0,511.0,355.0,511.0,363.0,511.0,371.0,511.0,379.0,511.0,387.0,511.0,395.0,511.0,403.0,511.0,411.0,511.0,419.0,511.0,427.0,511.0,435.0,511.0,443.0,511.0,451.0,511.0,459.0,511.0,467.0,511.0,475.0,511.0,483.0,511.0,491.0,511.0,499.0,511.0,507.0" stroke="black" stroke-width="1" fill="none" />
<polyline points="64.0,26.0,72.0,26.0" stroke="black" stroke-width="1" fill="none" />
<polyline points="72.0,42.0,88.0,42.0" stroke="black" stroke-width="1" fill="none" />
<polyline points="88.0,58.0,96.0,58.0" stroke="black" stroke-width="1" fill="none" />
<polyline points="96.0,66.0,120.0,66.0" stroke="black" stroke-width="1" fill="none" />
<polyline points="128.0,66.0,136.0,66.0" stroke="black" stroke-width="1" fill="none" />
<polyline points="136.0,64.0,128.0,72.0" stroke="black" stroke-width="1" fill="none" />
<polyline points="128.0,74.0,136.0,74.0" stroke="black" stroke-width="1" fill="none" />
<polyline points="128.0,64.0,168.0,24.0" stroke="black" stroke-width="1" fill="none" />
<polyline points="176.0,24.0,168.0,32.0" stroke="black" stroke-width="1" fill="none" />
<polyline points="176.0,32.0,184.0,24.0" stroke="black" stroke-width="1" fill="none" />
<polyline points="192.0,24.0,184.0,32.0" stroke="black" stroke-width="1" fill="none" />
<polyline points="192.0,34.0,208.0,34.0" stroke="black" stroke-width="1" fill="none" />
<polyline points="208.0,32.0,200.0,40.0" stroke="black" stroke-width="1" fill="none" />
<polyline points="208.0,42.0,224.0,42.0" stroke="black" stroke-width="1" fill="none" />
<polyline points="224.0,48.0,216.0,56.0" stroke="black" stroke-width="1" fill="none" />
<polyline points="216.0,54.0,224.0,54.0" stroke="black" stroke-width="1" fill="none" />
<polyline points="224.0,50.0,216.0,50.0" stroke="black" stroke-width="1" fill="none" />
<polyline points="216.0,58.0,232.0,58.0" stroke="black" stroke-width="1" fill="none" />
<polyline points="232.0,64.0,224.0,72.0" stroke="black" stroke-width="1" fill="none" />
<polyline points="216.0,66.0,232.0,66.0" stroke="black" stroke-width="1" fill="none" />
<polyline points="240.0,66.0,256.0,66.0" stroke="black" stroke-width="1" fill="none" />
<polyline points="256.0,58.0,264.0,58.0" stroke="black" stroke-width="1" fill="none" />
<polyline points="264.0,50.0,272.0,50.0" stroke="black" stroke-width="1" fill="none" />
<polyline points="272.0,42.0,280.0,42.0" stroke="black" stroke-width="1" fill="none" />
<polyline points="280.0,34.0,288.0,34.0" stroke="black" stroke-width="1" fill="none" />
<polyline points="248.0,50.0,240.0,50.0" stroke="black" stroke-width="1" fill="none" />
<polyline points="240.0,42.0,248.0,42.0" stroke="black" stroke-width="1" fill="none" />
<polyline points="248.0,34.0,240.0,34.0" stroke="black" stroke-width="1" fill="none" />
<polyline points="240.0,26.0,248.0,26.0" stroke="black" stroke-width="1" fill="none" />
<polyline points="248.0,18.0,240.0,18.0" stroke="black" stroke-width="1" fill="none" />
<polyline points="240.0,10.0,248.0,10.0" stroke="black" stroke-width="1" fill="none" />
<polyline points="216.0,40.0,208.0,48.0" stroke="black" stroke-width="1" fill="none" />
<polyline points="240.0,74.0,248.0,74.0" stroke="black" stroke-width="1" fill="none" />
<polyline points="248.0,82.0,240.0,82.0" stroke="black" stroke-width="1" fill="none" />
<polyline points="240.0,90.0,248.0,90.0" stroke="black" stroke-width="1" fill="none" />
<polyline points="248.0,98.0,240.0,98.0" stroke="black" stroke-width="1" fill="none" />
<polyline points="240.0,106.0,248.0,106.0" stroke="black" stroke-width="1" fill="none" />
<polyline points="248.0,114.0,240.0,114.0" stroke="black" stroke-width="1" fill="none" />
<polyline points="240.0,122.0,272.0,122.0" stroke="black" stroke-width="1" fill="none" />
<polyline points="280.0,122.0,288.0,122.0" stroke="black" stroke-width="1" fill="none" />
<polyline points="288.0,138.0,280.0,138.0" stroke="black" stroke-width="1" fill="none" />
<polyline points="280.0,146.0,272.0,146.0" stroke="black" stroke-width="1" fill="none" />
<polyline points="272.0,154.0,264.0,154.0" stroke="black" stroke-width="1" fill="none" />
<polyline points="264.0,162.0,256.0,162.0" stroke="black" stroke-width="1" fill="none" />
<polyline points="256.0,170.0,240.0,170.0" stroke="black" stroke-width="1" fill="none" />
<polyline points="240.0,162.0,248.0,162.0" stroke="black" stroke-width="1" fill="none" />
<polyline points="248.0,154.0,240.0,154.0" stroke="black" stroke-width="1" fill="none" />
<polyline points="240.0,146.0,248.0,146.0" stroke="black" stroke-width="1" fill="none" />
<polyline points="248.0,138.0,240.0,138.0" stroke="black" stroke-width="1" fill="none" />
<polyline points="240.0,130.0,248.0,130.0" stroke="black" stroke-width="1" fill="none" />
<polyline points="224.0,152.0,216.0,160.0" stroke="black" stroke-width="1" fill="none" />
<polyline points="216.0,158.0,224.0,158.0" stroke="black" stroke-width="1" fill="none" />
<polyline points="224.0,154.0,216.0,154.0" stroke="black" stroke-width="1" fill="none" />
<polyline points="216.0,162.0,232.0,162.0" stroke="black" stroke-width="1" fill="none" />
<polyline points="232.0,170.0,224.0,170.0" stroke="black" stroke-width="1" fill="none" />
<polyline points="224.0,186.0,216.0,186.0" stroke="black" stroke-width="1" fill="none" />
<polyline points="216.0,194.0,224.0,194.0" stroke="black" stroke-width="1" fill="none" />
<polyline points="240.0,194.0,248.0,194.0" stroke="black" stroke-width="1" fill="none" />
<polyline points="248.0,186.0,240.0,186.0" stroke="black" stroke-width="1" fill="none" />
<polyline points="240.0,178.0,248.0,178.0" stroke="black" stroke-width="1" fill="none" />
<polyline points="248.0,218.0,240.0,218.0" stroke="black" stroke-width="1" fill="none" />
<polyline points="240.0,226.0,288.0,226.0" stroke="black" stroke-width="1" fill="none" />
<polyline points="288.0,242.0,280.0,242.0" stroke="black" stroke-width="1" fill="none" />
<polyline points="280.0,250.0,264.0,250.0" stroke="black" stroke-width="1" fill="none" />
<polyline points="264.0,258.0,272.0,258.0" stroke="black" stroke-width="1" fill="none" />
<polyline points="264.0,266.0,256.0,266.0" stroke="black" stroke-width="1" fill="none" />
<polyline points="256.0,274.0,240.0,274.0" stroke="black" stroke-width="1" fill="none" />
<polyline points="240.0,266.0,248.0,266.0" stroke="black" stroke-width="1" fill="none" />
<polyline points="248.0,258.0,240.0,258.0" stroke="black" stroke-width="1" fill="none" />
<polyline points="240.0,250.0,248.0,250.0" stroke="black" stroke-width="1" fill="none" />
<polyline points="248.0,242.0,240.0,242.0" stroke="black" stroke-width="1" fill="none" />
<polyline points="224.0,248.0,216.0,256.0" stroke="black" stroke-width="1" fill="none" />
<polyline points="216.0,258.0,224.0,258.0" stroke="black" stroke-width="1" fill="none" />
<polyline points="224.0,256.0,216.0,264.0" stroke="black" stroke-width="1" fill="none" />
<polyline points="216.0,266.0,232.0,266.0" stroke="black" stroke-width="1" fill="none" />
<polyline points="232.0,274.0,216.0,274.0" stroke="black" stroke-width="1" fill="none" />
<polyline points="216.0,282.0,224.0,282.0" stroke="black" stroke-width="1" fill="none" />
<polyline points="224.0,290.0,216.0,290.0" stroke="black" stroke-width="1" fill="none" />
<polyline points="216.0,306.0,208.0,306.0" stroke="black" stroke-width="1" fill="none" />
<polyline points="208.0,314.0,192.0,314.0" stroke="black" stroke-width="1" fill="none" />
<polyline points="160.0,314.0,152.0,314.0" stroke="black" stroke-width="1" fill="none" />
<polyline points="152.0,306.0,144.0,306.0" stroke="black" stroke-width="1" fill="none" />
<polyline points="144.0,298.0,136.0,298.0" stroke="black" stroke-width="1" fill="none" />
<polyline points="136.0,282.0,128.0,282.0" stroke="black" stroke-width="1" fill="none" />
<polyline points="128.0,280.0,136.0,272.0" stroke="black" stroke-width="1" fill="none" />
<polyline points="136.0,264.0,128.0,272.0" stroke="black" stroke-width="1" fill="none" />
<polyline points="128.0,274.0,136.0,274.0" stroke="black" stroke-width="1" fill="none" />
<polyline points="136.0,266.0,128.0,266.0" stroke="black" stroke-width="1" fill="none" />
<polyline points="128.0,264.0,160.0,232.0" stroke="black" stroke-width="1" fill="none" />
<polyline points="160.0,226.0,192.0,226.0" stroke="black" stroke-width="1" fill="none" />
<polyline points="200.0,232.0,192.0,240.0" stroke="black" stroke-width="1" fill="none" />
<polyline points="200.0,242.0,216.0,242.0" stroke="black" stroke-width="1" fill="none" />
<polyline points="216.0,240.0,208.0,248.0" stroke="black" stroke-width="1" fill="none" />
<polyline points="208.0,250.0,224.0,250.0" stroke="black" stroke-width="1" fill="none" />
<polyline points="240.0,282.0,248.0,282.0" stroke="black" stroke-width="1" fill="none" />
<polyline points="248.0,290.0,240.0,290.0" stroke="black" stroke-width="1" fill="none" />
<polyline points="240.0,298.0,248.0,298.0" stroke="black" stroke-width="1" fill="none" />
<polyline points="248.0,306.0,240.0,306.0" stroke="black" stroke-width="1" fill="none" />
<polyline points="168.0,232.0,160.0,240.0" stroke="black" stroke-width="1" fill="none" />
<polyline points="144.0,234.0,208.0,234.0" stroke="black" stroke-width="1" fill="none" />
<polyline points="208.0,210.0,200.0,210.0" stroke="black" stroke-width="1" fill="none" />
<polyline points="208.0,202.0,216.0,202.0" stroke="black" stroke-width="1" fill="none" />
<polyline points="192.0,218.0,184.0,218.0" stroke="black" stroke-width="1" fill="none" />
<polyline points="176.0,218.0,168.0,218.0" stroke="black" stroke-width="1" fill="none" />
<polyline points="160.0,210.0,152.0,210.0" stroke="black" stroke-width="1" fill="none" />
<polyline points="144.0,194.0,136.0,194.0" stroke="black" stroke-width="1" fill="none" />
<polyline points="136.0,178.0,128.0,178.0" stroke="black" stroke-width="1" fill="none" />
<polyline points="128.0,176.0,136.0,168.0" stroke="black" stroke-width="1" fill="none" />
<polyline points="136.0,160.0,128.0,168.0" stroke="black" stroke-width="1" fill="none" />
<polyline points="128.0,170.0,136.0,170.0" stroke="black" stroke-width="1" fill="none" />
<polyline points="136.0,162.0,128.0,162.0" stroke="black" stroke-width="1" fill="none" />
<polyline points="128.0,154.0,144.0,154.0" stroke="black" stroke-width="1" fill="none" />
<polyline points="136.0,152.0,160.0,128.0" stroke="black" stroke-width="1" fill="none" />
<polyline points="168.0,128.0,160.0,136.0" stroke="black" stroke-width="1" fill="none" />
<polyline points="168.0,136.0,176.0,128.0" stroke="black" stroke-width="1" fill="none" />
<polyline points="168.0,122.0,192.0,122.0" stroke="black" stroke-width="1" fill="none" />
<polyline points="192.0,128.0,184.0,136.0" stroke="black" stroke-width="1" fill="none" />
<polyline points="192.0,136.0,200.0,128.0" stroke="black" stroke-width="1" fill="none" />
<polyline points="200.0,138.0,216.0,138.0" stroke="black" stroke-width="1" fill="none" />
<polyline points="216.0,144.0,208.0,152.0" stroke="black" stroke-width="1" fill="none" />
<polyline points="208.0,146.0,224.0,146.0" stroke="black" stroke-width="1" fill="none" />
<polyline points="208.0,136.0,200.0,144.0" stroke="black" stroke-width="1" fill="none" />
<polyline points="200.0,114.0,192.0,114.0" stroke="black" stroke-width="1" fill="none" />
<polyline points="168.0,114.0,160.0,114.0" stroke="black" stroke-width="1" fill="none" />
<polyline points="152.0,106.0,144.0,106.0" stroke="black" stroke-width="1" fill="none" />
<polyline points="144.0,98.0,136.0,98.0" stroke="black" stroke-width="1" fill="none" />
<polyline points="136.0,90.0,144.0,90.0" stroke="black" stroke-width="1" fill="none" />
<polyline points="144.0,58.0,128.0,58.0" stroke="black" stroke-width="1" fill="none" />
<polyline points="128.0,50.0,144.0,50.0" stroke="black" stroke-width="1" fill="none" />
<polyline points="136.0,48.0,152.0,32.0" stroke="black" stroke-width="1" fill="none" />
<polyline points="144.0,34.0,168.0,34.0" stroke="black" stroke-width="1" fill="none" />
<polyline points="160.0,26.0,200.0,26.0" stroke="black" stroke-width="1" fill="none" />
<polyline points="152.0,42.0,136.0,42.0" stroke="black" stroke-width="1" fill="none" />
<polyline points="120.0,26.0,112.0,26.0" stroke="black" stroke-width="1" fill="none" />
<polyline points="112.0,18.0,120.0,18.0" stroke="black" stroke-width="1" fill="none" />
<polyline points="120.0,10.0,128.0,10.0" stroke="black" stroke-width="1" fill="none" />
<polyline points="120.0,74.0,112.0,74.0" stroke="black" stroke-width="1" fill="none" />
<polyline points="104.0,122.0,120.0,122.0" stroke="black" stroke-width="1" fill="none" />
<polyline points="136.0,146.0,144.0,146.0" stroke="black" stroke-width="1" fill="none" />
<polyline points="144.0,142.0,152.0,142.0" stroke="black" stroke-width="1" fill="none" />
<polyline points="144.0,138.0,160.0,138.0" stroke="black" stroke-width="1" fill="none" />
<polyline points="152.0,130.0,208.0,130.0" stroke="black" stroke-width="1" fill="none" />
<polyline points="216.0,90.0,224.0,90.0" stroke="black" stroke-width="1" fill="none" />
<polyline points="144.0,150.0,136.0,150.0" stroke="black" stroke-width="1" fill="none" />
<polyline points="120.0,178.0,112.0,178.0" stroke="black" stroke-width="1" fill="none" />
<polyline points="104.0,170.0,120.0,170.0" stroke="black" stroke-width="1" fill="none" />
<polyline points="104.0,162.0,96.0,162.0" stroke="black" stroke-width="1" fill="none" />
<polyline points="96.0,154.0,88.0,154.0" stroke="black" stroke-width="1" fill="none" />
<polyline points="88.0,146.0,80.0,146.0" stroke="black" stroke-width="1" fill="none" />
<polyline points="80.0,138.0,72.0,138.0" stroke="black" stroke-width="1" fill="none" />
<polyline points="72.0,130.0,64.0,130.0" stroke="black" stroke-width="1" fill="none" />
<polyline points="112.0,202.0,120.0,202.0" stroke="black" stroke-width="1" fill="none" />
<polyline points="120.0,210.0,112.0,210.0" stroke="black" stroke-width="1" fill="none" />
<polyline points="112.0,218.0,120.0,218.0" stroke="black" stroke-width="1" fill="none" />
<polyline points="120.0,234.0,112.0,234.0" stroke="black" stroke-width="1" fill="none" />
<polyline points="112.0,242.0,120.0,242.0" stroke="black" stroke-width="1" fill="none" />
<polyline points="120.0,250.0,112.0,250.0" stroke="black" stroke-width="1" fill="none" />
<polyline points="112.0,258.0,120.0,258.0" stroke="black" stroke-width="1" fill="none" />
<polyline points="128.0,258.0,144.0,258.0" stroke="black" stroke-width="1" fill="none" />
<polyline points="144.0,254.0,136.0,254.0" stroke="black" stroke-width="1" fill="none" />
<polyline points="136.0,250.0,144.0,250.0" stroke="black" stroke-width="1" fill="none" />
<polyline points="136.0,242.0,152.0,242.0" stroke="black" stroke-width="1" fill="none" />
<polyline points="120.0,282.0,112.0,282.0" stroke="black" stroke-width="1" fill="none" />
<polyline points="104.0,274.0,120.0,274.0" stroke="black" stroke-width="1" fill="none" />
<polyline points="104.0,266.0,96.0,266.0" stroke="black" stroke-width="1" fill="none" />
<polyline points="96.0,258.0,88.0,258.0" stroke="black" stroke-width="1" fill="none" />
<polyline points="88.0,250.0,80.0,250.0" stroke="black" stroke-width="1" fill="none" />
<polyline points="80.0,242.0,72.0,242.0" stroke="black" stroke-width="1" fill="none" />
<polyline points="72.0,234.0,64.0,234.0" stroke="black" stroke-width="1" fill="none" />
<polyline points="72.0,226.0,120.0,226.0" stroke="black" stroke-width="1" fill="none" />
<polyline points="120.0,338.0,240.0,338.0" stroke="black" stroke-width="1" fill="none" />
</svg>