<svg xmlns="http://www.w3.org/2000/svg" height="390px" width="512px" version="1.1"><polyline points="495.0,13.0,495.0,21.0,496.0,29.0,496.0,37.0,496.0,45.0,496.0,53.0,496.0,61.0,496.0,69.0,496.0,77.0,496.0,85.0,496.0,93.0,496.0,101.0,496.0,109.0,496.0,117.0,497.0,125.0,497.0,133.0,497.0,141.0,497.0,149.0,497.0,157.0,497.0,165.0,497.0,173.0,497.0,181.0,497.0,189.0,497.0,197.0,497.0,205.0,497.0,213.0,497.0,221.0,498.0,229.0,498.0,237.0,498.0,245.0,498.0,253.0,498.0,261.0,498.0,269.0,498.0,277.0,498.0,285.0,498.0,293.0,498.0,301.0,496.0,309.0,500.0,313.0" stroke="black" stroke-width="1" fill="none" />
<polyline points="482.0,314.0,474.0,315.0" stroke="black" stroke-width="1" fill="none" />
<polyline points="476.0,281.0,468.0,278.0,457.0,283.0,449.0,282.0,439.0,281.0,431.0,284.0" stroke="black" stroke-width="1" fill="none" />
<polyline points="435.0,281.0,431.0,289.0" stroke="black" stroke-width="1" fill="none" />
<polyline points="451.0,281.0,446.0,289.0,453.0,290.0" stroke="black" stroke-width="1" fill="none" />
<polyline points="468.0,278.0,462.0,286.0,466.0,294.0,473.0,289.0" stroke="black" stroke-width="1" fill="none" />
<polyline points="504.0,324.0,496.0,319.0,486.0,324.0,479.0,324.0,472.0,319.0,467.0,316.0,463.0,320.0,454.0,317.0,443.0,318.0,439.0,322.0,430.0,319.0,422.0,320.0,414.0,320.0,406.0,332.0,395.0,332.0,392.0,322.0,384.0,322.0,372.0,323.0,364.0,323.0,356.0,324.0,348.0,324.0,340.0,324.0,329.0,332.0,323.0,333.0,318.0,326.0,310.0,326.0,302.0,326.0,294.0,326.0" stroke="black" stroke-width="1" fill="none" />
<polyline points="284.0,336.0,285.0,344.0,285.0,352.0,285.0,360.0,281.0,368.0" stroke="black" stroke-width="1" fill="none" />
<polyline points="289.0,359.0,297.0,359.0,303.0,349.0,306.0,355.0,311.0,354.0,322.0,349.0,328.0,349.0,330.0,354.0,340.0,349.0,344.0,356.0,347.0,354.0,350.0,358.0,352.0,349.0,362.0,349.0,364.0,354.0,366.0,358.0,369.0,349.0,380.0,349.0,382.0,354.0,384.0,358.0,386.0,349.0,397.0,349.0,403.0,357.0,413.0,357.0,427.0,357.0,437.0,357.0,448.0,357.0,462.0,357.0,473.0,357.0,487.0,357.0,498.0,357.0" stroke="black" stroke-width="1" fill="none" />
<polyline points="503.0,374.0,489.0,374.0,478.0,374.0,464.0,374.0,453.0,374.0,439.0,374.0,429.0,374.0,415.0,374.0,405.0,376.0,408.0,368.0,400.0,364.0" stroke="black" stroke-width="1" fill="none" />
<polyline points="393.0,361.0,400.0,369.0,402.0,377.0,406.0,384.0,414.0,382.0,428.0,382.0,438.0,382.0,452.0,382.0,463.0,382.0,477.0,382.0,488.0,382.0,502.0,382.0" stroke="black" stroke-width="1" fill="none" />
<polyline points="401.0,387.0,393.0,387.0" stroke="black" stroke-width="1" fill="none" />
<polyline points="389.0,358.0,379.0,356.0,371.0,358.0,360.0,356.0,352.0,358.0" stroke="black" stroke-width="1" fill="none" />
<polyline points="346.0,388.0,354.0,388.0,362.0,388.0,370.0,388.0,378.0,388.0,379.0,390.0" stroke="black" stroke-width="1" fill="none" />
<polyline points="329.0,389.0,321.0,389.0,313.0,389.0" stroke="black" stroke-width="1" fill="none" />
<polyline points="326.0,325.0,334.0,325.0" stroke="black" stroke-width="1" fill="none" />
<polyline points="399.0,321.0,407.0,321.0" stroke="black" stroke-width="1" fill="none" />
<polyline points="293.0,283.0,285.0,283.0,277.0,283.0,269.0,283.0,261.0,283.0,253.0,283.0,245.0,283.0" stroke="black" stroke-width="1" fill="none" />
<polyline points="223.0,280.0,223.0,288.0,223.0,296.0,229.0,298.0,237.0,298.0,245.0,298.0,253.0,298.0,261.0,298.0,269.0,298.0,277.0,298.0,285.0,298.0,293.0,298.0" stroke="black" stroke-width="1" fill="none" />
<polyline points="238.0,332.0,246.0,332.0,254.0,332.0,262.0,332.0,270.0,332.0,278.0,332.0,288.0,328.0,288.0,336.0,288.0,344.0,288.0,352.0,289.0,361.0,287.0,369.0" stroke="black" stroke-width="1" fill="none" />
<polyline points="277.0,370.0,269.0,371.0,261.0,372.0,253.0,371.0,245.0,369.0,237.0,366.0" stroke="black" stroke-width="1" fill="none" />
<polyline points="232.0,370.0,231.0,362.0" stroke="black" stroke-width="1" fill="none" />
<polyline points="252.0,375.0,237.0,369.0,235.0,361.0,235.0,353.0,235.0,348.0,235.0,340.0,227.0,332.0" stroke="black" stroke-width="1" fill="none" />
<polyline points="223.0,280.0,231.0,281.0,239.0,281.0,247.0,280.0,255.0,280.0,263.0,280.0,271.0,280.0,279.0,280.0,287.0,280.0,295.0,280.0,295.0,288.0,295.0,296.0" stroke="black" stroke-width="1" fill="none" />
<polyline points="141.0,389.0,133.0,389.0,125.0,389.0" stroke="black" stroke-width="1" fill="none" />
<polyline points="113.0,385.0,121.0,385.0,129.0,385.0,137.0,385.0,145.0,386.0,153.0,386.0,161.0,386.0,169.0,386.0,177.0,386.0,185.0,386.0,193.0,386.0,201.0,386.0,209.0,386.0,217.0,386.0,225.0,386.0,233.0,386.0,241.0,386.0,249.0,386.0,257.0,386.0,265.0,386.0,273.0,386.0,281.0,386.0,289.0,386.0,297.0,386.0,305.0,386.0,313.0,386.0,321.0,385.0,329.0,385.0,337.0,385.0,345.0,385.0,353.0,385.0,361.0,385.0,369.0,384.0,377.0,384.0,385.0,384.0,393.0,384.0,401.0,383.0" stroke="black" stroke-width="1" fill="none" />
<polyline points="476.0,262.0,476.0,254.0,476.0,246.0,476.0,238.0,476.0,230.0,476.0,222.0,476.0,214.0,476.0,206.0,476.0,198.0,476.0,190.0,475.0,182.0,475.0,174.0,475.0,166.0,475.0,158.0,475.0,150.0,475.0,142.0,475.0,134.0,475.0,126.0,475.0,118.0,474.0,110.0,474.0,102.0,474.0,94.0,474.0,86.0,474.0,78.0,474.0,70.0,474.0,62.0,474.0,54.0,474.0,46.0,474.0,38.0,474.0,30.0,471.0,25.0,463.0,25.0,455.0,25.0,447.0,25.0,439.0,25.0,431.0,25.0,423.0,25.0,415.0,25.0,407.0,25.0,399.0,25.0,391.0,25.0,383.0,25.0,375.0,25.0,367.0,25.0,359.0,25.0,351.0,25.0,343.0,25.0,335.0,25.0,327.0,25.0,319.0,25.0,311.0,25.0,303.0,25.0,295.0,25.0,287.0,25.0,279.0,25.0,271.0,25.0,263.0,25.0,255.0,25.0,247.0,25.0,239.0,25.0,231.0,25.0,223.0,25.0,215.0,25.0,207.0,25.0,199.0,25.0,191.0,25.0,183.0,25.0,175.0,25.0,167.0,25.0,159.0,25.0,151.0,25.0,143.0,25.0,135.0,25.0,127.0,25.0,119.0,25.0,111.0,25.0,103.0,25.0,95.0,25.0,87.0,25.0,79.0,25.0,71.0,25.0,63.0,25.0,55.0,25.0,47.0,25.0,39.0,25.0,31.0,26.0" stroke="black" stroke-width="1" fill="none" />
<polyline points="34.0,25.0,31.0,33.0,31.0,41.0,31.0,49.0,31.0,57.0,31.0,65.0,31.0,73.0,31.0,81.0,31.0,89.0,31.0,97.0,31.0,105.0,31.0,113.0,31.0,121.0,31.0,129.0,31.0,137.0,31.0,145.0,31.0,153.0,31.0,161.0,31.0,169.0,31.0,177.0,31.0,185.0,31.0,193.0,31.0,201.0,31.0,209.0,31.0,217.0,31.0,225.0,31.0,233.0,31.0,241.0,31.0,249.0,31.0,257.0,31.0,265.0,37.0,267.0,45.0,267.0,53.0,267.0,61.0,267.0,69.0,267.0,77.0,267.0,85.0,267.0,93.0,267.0,101.0,267.0,109.0,267.0,117.0,267.0,125.0,267.0,133.0,267.0,141.0,267.0,149.0,268.0,157.0,268.0,165.0,268.0,173.0,268.0,181.0,268.0,189.0,268.0,197.0,268.0,205.0,268.0,213.0,268.0,221.0,268.0,229.0,268.0,237.0,268.0,245.0,268.0,253.0,268.0,261.0,268.0,269.0,268.0,277.0,268.0,285.0,268.0,293.0,268.0,301.0,268.0,309.0,268.0,317.0,268.0,325.0,268.0,333.0,268.0,341.0,268.0,349.0,268.0,357.0,268.0,365.0,268.0,373.0,268.0,381.0,268.0,389.0,268.0,397.0,268.0,405.0,268.0,413.0,268.0,421.0,268.0,429.0,268.0,437.0,268.0,445.0,268.0,453.0,268.0,461.0,268.0,469.0,268.0" stroke="black" stroke-width="1" fill="none" />
<polyline points="502.0,244.0,502.0,252.0,502.0,260.0,502.0,268.0,502.0,276.0,502.0,284.0,502.0,292.0,502.0,300.0,502.0,308.0,506.0,313.0,508.0,319.0,508.0,330.0,508.0,343.0,508.0,354.0,508.0,365.0,508.0,378.0,508.0,389.0" stroke="black" stroke-width="1" fill="none" />
<polyline points="508.0,227.0,501.0,218.0,501.0,210.0,501.0,202.0,501.0,194.0,501.0,186.0,501.0,178.0,501.0,170.0,501.0,162.0,501.0,154.0,501.0,146.0,500.0,138.0,500.0,130.0,500.0,122.0,500.0,114.0,500.0,106.0,500.0,98.0,507.0,90.0" stroke="black" stroke-width="1" fill="none" />
<polyline points="478.0,147.0,478.0,155.0,478.0,163.0,478.0,171.0,478.0,179.0" stroke="black" stroke-width="1" fill="none" />
<polyline points="507.0,199.0,508.0,196.0,505.0,193.0,506.0,181.0,504.0,179.0,508.0,169.0,504.0,165.0,508.0,155.0,503.0,144.0,508.0,138.0,507.0,127.0,508.0,123.0,508.0,112.0,502.0,110.0,508.0,96.0,503.0,94.0,503.0,88.0,508.0,77.0,508.0,73.0,503.0,71.0,499.0,67.0,499.0,59.0,499.0,51.0,499.0,43.0,499.0,35.0,499.0,27.0,499.0,19.0,499.0,11.0,501.0,9.0,490.0,10.0" stroke="black" stroke-width="1" fill="none" />
<polyline points="473.0,9.0,465.0,9.0,463.0,7.0,455.0,9.0,447.0,9.0,445.0,7.0,437.0,9.0,429.0,9.0,423.0,9.0,415.0,9.0,407.0,9.0,399.0,9.0,391.0,9.0" stroke="black" stroke-width="1" fill="none" />
<polyline points="423.0,28.0,415.0,28.0,407.0,28.0,399.0,28.0,391.0,28.0,383.0,28.0,375.0,28.0,367.0,28.0,359.0,28.0,351.0,28.0,343.0,28.0,335.0,28.0,327.0,28.0,319.0,28.0,311.0,28.0,303.0,28.0,295.0,28.0,287.0,28.0" stroke="black" stroke-width="1" fill="none" />
<polyline points="338.0,5.0,329.0,8.0,332.0,6.0,324.0,8.0,316.0,8.0,314.0,4.0,312.0,6.0,304.0,8.0,296.0,8.0,294.0,6.0,286.0,8.0,278.0,8.0,281.0,6.0,273.0,8.0,265.0,8.0,263.0,4.0,261.0,6.0,253.0,8.0,245.0,8.0,243.0,4.0,241.0,8.0,233.0,8.0,230.0,4.0,227.0,6.0,219.0,8.0,211.0,8.0,215.0,6.0,207.0,8.0,199.0,8.0,197.0,4.0,195.0,6.0,187.0,8.0,179.0,8.0,181.0,6.0,173.0,8.0,171.0,4.0,163.0,8.0,161.0,4.0,159.0,8.0,149.0,8.0,147.0,4.0,145.0,6.0,137.0,5.0,128.0,8.0,130.0,6.0,121.0,5.0,117.0,8.0,114.0,4.0,112.0,6.0,104.0,8.0,96.0,8.0,94.0,6.0,86.0,8.0,78.0,8.0,76.0,6.0,68.0,8.0,60.0,8.0,57.0,8.0,49.0,8.0,47.0,6.0,39.0,8.0,31.0,8.0" stroke="black" stroke-width="1" fill="none" />
<polyline points="9.0,4.0,14.0,9.0,14.0,17.0,14.0,19.0,14.0,27.0,12.0,35.0,14.0,37.0,14.0,45.0,12.0,53.0,14.0,55.0,14.0,63.0,11.0,71.0,5.0,73.0,5.0,85.0,7.0,96.0,5.0,106.0,7.0,110.0,5.0,120.0,10.0,122.0,7.0,132.0,10.0,137.0,7.0,148.0,10.0,154.0,7.0,164.0,10.0,168.0" stroke="black" stroke-width="1" fill="none" />
<polyline points="0.0,199.0,1.0,201.0,1.0,209.0" stroke="black" stroke-width="1" fill="none" />
<polyline points="13.0,202.0,10.0,210.0,13.0,212.0,11.0,220.0,8.0,222.0,13.0,224.0,13.0,227.0,11.0,235.0,13.0,245.0,11.0,253.0,8.0,255.0,13.0,258.0,13.0,260.0,11.0,268.0,8.0,270.0,13.0,272.0,10.0,280.0,13.0,283.0,13.0,293.0,13.0,301.0,8.0,302.0,13.0,304.0,14.0,318.0,16.0,314.0,24.0,315.0,32.0,316.0,40.0,316.0,48.0,317.0,56.0,318.0,64.0,318.0,72.0,319.0,80.0,320.0,88.0,320.0,96.0,320.0,104.0,321.0,112.0,321.0,120.0,322.0,128.0,322.0,136.0,322.0,144.0,322.0,152.0,323.0,160.0,323.0,168.0,323.0,176.0,323.0,184.0,323.0,192.0,323.0,200.0,323.0,208.0,323.0,216.0,323.0,224.0,323.0,232.0,323.0,240.0,323.0,248.0,323.0,256.0,323.0,264.0,323.0,272.0,323.0,280.0,323.0,288.0,323.0,296.0,322.0,304.0,322.0,312.0,322.0,320.0,322.0,328.0,321.0,336.0,321.0,344.0,321.0,352.0,320.0,360.0,320.0,368.0,320.0,376.0,319.0,384.0,318.0,392.0,318.0,400.0,317.0,408.0,317.0,416.0,316.0,424.0,316.0,432.0,315.0,440.0,315.0,448.0,314.0,456.0,313.0,464.0,312.0,472.0,312.0,480.0,311.0,488.0,310.0,496.0,309.0" stroke="black" stroke-width="1" fill="none" />
<polyline points="230.0,355.0,226.0,359.0,218.0,359.0,215.0,355.0,205.0,359.0,202.0,356.0,191.0,359.0,189.0,356.0,179.0,355.0,176.0,360.0,168.0,360.0,160.0,360.0,152.0,360.0,144.0,360.0,136.0,360.0,128.0,360.0,130.0,357.0,122.0,360.0,118.0,357.0,111.0,371.0" stroke="black" stroke-width="1" fill="none" />
<polyline points="102.0,374.0,110.0,379.0,107.0,387.0" stroke="black" stroke-width="1" fill="none" />
<polyline points="28.0,326.0,30.0,324.0,27.0,319.0,35.0,320.0,36.0,324.0,49.0,321.0,54.0,327.0,65.0,322.0,71.0,325.0,80.0,323.0,93.0,324.0,101.0,324.0,112.0,325.0,126.0,326.0,134.0,326.0,142.0,326.0,144.0,331.0,155.0,331.0,164.0,327.0,172.0,327.0,180.0,327.0,188.0,327.0,196.0,327.0,204.0,327.0,212.0,327.0,220.0,327.0,228.0,327.0,236.0,327.0,244.0,327.0,252.0,327.0,260.0,327.0,268.0,327.0,276.0,327.0" stroke="black" stroke-width="1" fill="none" />
<polyline points="2.0,390.0,1.0,387.0,7.0,379.0,1.0,371.0,7.0,363.0,1.0,355.0,7.0,347.0,1.0,339.0,7.0,331.0,1.0,323.0,5.0,315.0,4.0,304.0,1.0,304.0,5.0,296.0,10.0,294.0,13.0,286.0,4.0,290.0,1.0,290.0,1.0,282.0,1.0,274.0,1.0,266.0,4.0,255.0,1.0,255.0,5.0,247.0,10.0,245.0,13.0,237.0,8.0,235.0,1.0,241.0,1.0,233.0,1.0,225.0,1.0,217.0,4.0,206.0,8.0,203.0,13.0,201.0,6.0,194.0,13.0,190.0,11.0,187.0,4.0,188.0,1.0,188.0,6.0,180.0,1.0,172.0,4.0,164.0,1.0,156.0,4.0,148.0,1.0,140.0,1.0,132.0,1.0,124.0,1.0,116.0,1.0,108.0,1.0,100.0,1.0,92.0,1.0,84.0,4.0,76.0,1.0,68.0,4.0,60.0,1.0,52.0,4.0,44.0,1.0,36.0,4.0,28.0,1.0,20.0,4.0,12.0,1.0,4.0,2.0,7.0" stroke="black" stroke-width="1" fill="none" />
<polyline points="0.0,1.0,8.0,1.0,16.0,1.0,24.0,1.0,32.0,1.0,40.0,1.0,48.0,1.0,56.0,1.0,64.0,1.0,72.0,1.0,80.0,1.0,88.0,1.0,96.0,1.0,104.0,1.0,112.0,2.0,120.0,1.0,128.0,2.0,136.0,1.0,144.0,2.0,152.0,1.0,160.0,2.0,168.0,1.0,176.0,1.0,184.0,1.0,192.0,1.0,200.0,1.0,208.0,1.0,216.0,1.0,224.0,1.0,232.0,2.0,240.0,1.0,248.0,2.0,256.0,1.0,264.0,2.0,272.0,1.0,280.0,2.0,288.0,1.0,296.0,2.0,304.0,1.0,312.0,2.0,320.0,1.0,328.0,1.0,336.0,1.0,344.0,1.0,352.0,1.0,360.0,1.0,368.0,1.0,376.0,1.0,384.0,1.0,392.0,1.0,400.0,1.0,408.0,1.0,416.0,1.0,424.0,1.0,432.0,1.0,440.0,1.0,448.0,1.0,456.0,1.0,464.0,1.0,472.0,1.0,479.0,4.0,487.0,1.0,495.0,1.0,503.0,1.0,504.0,3.0" stroke="black" stroke-width="1" fill="none" />
<polyline points="14.0,69.0,14.0,77.0,11.0,85.0,14.0,88.0,14.0,96.0,14.0,104.0,14.0,112.0,14.0,120.0,14.0,128.0,14.0,136.0" stroke="black" stroke-width="1" fill="none" />
<polyline points="0.0,10.0,16.0,10.0" stroke="black" stroke-width="1" fill="none" />
<polyline points="8.0,8.0,0.0,16.0" stroke="black" stroke-width="1" fill="none" />
<polyline points="8.0,18.0,16.0,18.0" stroke="black" stroke-width="1" fill="none" />
<polyline points="16.0,34.0,8.0,34.0" stroke="black" stroke-width="1" fill="none" />
<polyline points="0.0,26.0,16.0,26.0" stroke="black" stroke-width="1" fill="none" />
<polyline points="16.0,42.0,0.0,42.0" stroke="black" stroke-width="1" fill="none" />
<polyline points="8.0,50.0,16.0,50.0" stroke="black" stroke-width="1" fill="none" />
<polyline points="16.0,66.0,8.0,66.0" stroke="black" stroke-width="1" fill="none" />
<polyline points="0.0,58.0,16.0,58.0" stroke="black" stroke-width="1" fill="none" />
<polyline points="16.0,74.0,0.0,74.0" stroke="black" stroke-width="1" fill="none" />
<polyline points="8.0,82.0,16.0,82.0" stroke="black" stroke-width="1" fill="none" />
<polyline points="16.0,98.0,8.0,98.0" stroke="black" stroke-width="1" fill="none" />
<polyline points="0.0,90.0,16.0,90.0" stroke="black" stroke-width="1" fill="none" />
<polyline points="16.0,106.0,0.0,106.0" stroke="black" stroke-width="1" fill="none" />
<polyline points="8.0,114.0,16.0,114.0" stroke="black" stroke-width="1" fill="none" />
<polyline points="16.0,130.0,8.0,130.0" stroke="black" stroke-width="1" fill="none" />
<polyline points="0.0,122.0,16.0,122.0" stroke="black" stroke-width="1" fill="none" />
<polyline points="16.0,138.0,0.0,138.0" stroke="black" stroke-width="1" fill="none" />
<polyline points="0.0,146.0,16.0,146.0" stroke="black" stroke-width="1" fill="none" />
<polyline points="16.0,162.0,0.0,162.0" stroke="black" stroke-width="1" fill="none" />
<polyline points="0.0,154.0,16.0,154.0" stroke="black" stroke-width="1" fill="none" />
<polyline points="16.0,170.0,0.0,170.0" stroke="black" stroke-width="1" fill="none" />
<polyline points="0.0,178.0,16.0,178.0" stroke="black" stroke-width="1" fill="none" />
<polyline points="16.0,194.0,0.0,194.0" stroke="black" stroke-width="1" fill="none" />
<polyline points="0.0,186.0,16.0,186.0" stroke="black" stroke-width="1" fill="none" />
<polyline points="16.0,202.0,0.0,202.0" stroke="black" stroke-width="1" fill="none" />
<polyline points="0.0,210.0,16.0,210.0" stroke="black" stroke-width="1" fill="none" />
<polyline points="16.0,226.0,0.0,226.0" stroke="black" stroke-width="1" fill="none" />
<polyline points="0.0,218.0,16.0,218.0" stroke="black" stroke-width="1" fill="none" />
<polyline points="16.0,234.0,8.0,234.0" stroke="black" stroke-width="1" fill="none" />
<polyline points="0.0,242.0,16.0,242.0" stroke="black" stroke-width="1" fill="none" />
<polyline points="16.0,250.0,8.0,250.0" stroke="black" stroke-width="1" fill="none" />
<polyline points="0.0,258.0,16.0,258.0" stroke="black" stroke-width="1" fill="none" />
<polyline points="16.0,266.0,8.0,266.0" stroke="black" stroke-width="1" fill="none" />
<polyline points="0.0,274.0,16.0,274.0" stroke="black" stroke-width="1" fill="none" />
<polyline points="16.0,282.0,8.0,282.0" stroke="black" stroke-width="1" fill="none" />
<polyline points="0.0,290.0,16.0,290.0" stroke="black" stroke-width="1" fill="none" />
<polyline points="16.0,298.0,8.0,298.0" stroke="black" stroke-width="1" fill="none" />
<polyline points="0.0,306.0,16.0,306.0" stroke="black" stroke-width="1" fill="none" />
<polyline points="8.0,314.0,96.0,314.0" stroke="black" stroke-width="1" fill="none" />
<polyline points="72.0,330.0,120.0,330.0" stroke="black" stroke-width="1" fill="none" />
<polyline points="120.0,338.0,128.0,338.0" stroke="black" stroke-width="1" fill="none" />
<polyline points="128.0,330.0,136.0,330.0" stroke="black" stroke-width="1" fill="none" />
<polyline points="136.0,338.0,144.0,338.0" stroke="black" stroke-width="1" fill="none" />
<polyline points="144.0,330.0,152.0,330.0" stroke="black" stroke-width="1" fill="none" />
<polyline points="152.0,338.0,160.0,338.0" stroke="black" stroke-width="1" fill="none" />
<polyline points="160.0,330.0,168.0,330.0" stroke="black" stroke-width="1" fill="none" />
<polyline points="168.0,338.0,176.0,338.0" stroke="black" stroke-width="1" fill="none" />
<polyline points="176.0,330.0,184.0,330.0" stroke="black" stroke-width="1" fill="none" />
<polyline points="184.0,328.0,192.0,320.0" stroke="black" stroke-width="1" fill="none" />
<polyline points="192.0,330.0,200.0,330.0" stroke="black" stroke-width="1" fill="none" />
<polyline points="200.0,328.0,208.0,320.0" stroke="black" stroke-width="1" fill="none" />
<polyline points="208.0,330.0,216.0,330.0" stroke="black" stroke-width="1" fill="none" />
<polyline points="216.0,328.0,224.0,320.0" stroke="black" stroke-width="1" fill="none" />
<polyline points="224.0,330.0,240.0,330.0" stroke="black" stroke-width="1" fill="none" />
<polyline points="232.0,344.0,224.0,352.0" stroke="black" stroke-width="1" fill="none" />
<polyline points="224.0,346.0,240.0,346.0" stroke="black" stroke-width="1" fill="none" />
<polyline points="240.0,354.0,232.0,354.0" stroke="black" stroke-width="1" fill="none" />
<polyline points="216.0,344.0,208.0,352.0" stroke="black" stroke-width="1" fill="none" />
<polyline points="208.0,346.0,216.0,346.0" stroke="black" stroke-width="1" fill="none" />
<polyline points="216.0,338.0,224.0,338.0" stroke="black" stroke-width="1" fill="none" />
<polyline points="208.0,338.0,200.0,338.0" stroke="black" stroke-width="1" fill="none" />
<polyline points="200.0,344.0,192.0,352.0" stroke="black" stroke-width="1" fill="none" />
<polyline points="192.0,346.0,200.0,346.0" stroke="black" stroke-width="1" fill="none" />
<polyline points="184.0,344.0,176.0,352.0" stroke="black" stroke-width="1" fill="none" />
<polyline points="176.0,346.0,184.0,346.0" stroke="black" stroke-width="1" fill="none" />
<polyline points="184.0,338.0,192.0,338.0" stroke="black" stroke-width="1" fill="none" />
<polyline points="168.0,344.0,160.0,352.0" stroke="black" stroke-width="1" fill="none" />
<polyline points="144.0,378.0,128.0,378.0" stroke="black" stroke-width="1" fill="none" />
<polyline points="112.0,368.0,104.0,376.0" stroke="black" stroke-width="1" fill="none" />
<polyline points="112.0,370.0,80.0,370.0" stroke="black" stroke-width="1" fill="none" />
<polyline points="72.0,362.0,104.0,362.0" stroke="black" stroke-width="1" fill="none" />
<polyline points="120.0,354.0,80.0,354.0" stroke="black" stroke-width="1" fill="none" />
<polyline points="72.0,346.0,168.0,346.0" stroke="black" stroke-width="1" fill="none" />
<polyline points="112.0,338.0,80.0,338.0" stroke="black" stroke-width="1" fill="none" />
<polyline points="72.0,338.0,64.0,338.0" stroke="black" stroke-width="1" fill="none" />
<polyline points="64.0,346.0,56.0,346.0" stroke="black" stroke-width="1" fill="none" />
<polyline points="56.0,354.0,48.0,354.0" stroke="black" stroke-width="1" fill="none" />
<polyline points="48.0,362.0,40.0,362.0" stroke="black" stroke-width="1" fill="none" />
<polyline points="40.0,370.0,32.0,370.0" stroke="black" stroke-width="1" fill="none" />
<polyline points="32.0,378.0,24.0,378.0" stroke="black" stroke-width="1" fill="none" />
<polyline points="24.0,370.0,16.0,370.0" stroke="black" stroke-width="1" fill="none" />
<polyline points="8.0,368.0,0.0,376.0" stroke="black" stroke-width="1" fill="none" />
<polyline points="0.0,370.0,8.0,370.0" stroke="black" stroke-width="1" fill="none" />
<polyline points="8.0,362.0,16.0,362.0" stroke="black" stroke-width="1" fill="none" />
<polyline points="16.0,354.0,24.0,354.0" stroke="black" stroke-width="1" fill="none" />
<polyline points="24.0,346.0,32.0,346.0" stroke="black" stroke-width="1" fill="none" />
<polyline points="32.0,338.0,40.0,338.0" stroke="black" stroke-width="1" fill="none" />
<polyline points="40.0,330.0,48.0,330.0" stroke="black" stroke-width="1" fill="none" />
<polyline points="48.0,322.0,240.0,322.0" stroke="black" stroke-width="1" fill="none" />
<polyline points="280.0,322.0,360.0,322.0" stroke="black" stroke-width="1" fill="none" />
<polyline points="360.0,330.0,368.0,330.0" stroke="black" stroke-width="1" fill="none" />
<polyline points="368.0,322.0,376.0,322.0" stroke="black" stroke-width="1" fill="none" />
<polyline points="376.0,330.0,384.0,330.0" stroke="black" stroke-width="1" fill="none" />
<polyline points="384.0,322.0,392.0,322.0" stroke="black" stroke-width="1" fill="none" />
<polyline points="392.0,330.0,400.0,330.0" stroke="black" stroke-width="1" fill="none" />
<polyline points="400.0,322.0,408.0,322.0" stroke="black" stroke-width="1" fill="none" />
<polyline points="408.0,330.0,416.0,330.0" stroke="black" stroke-width="1" fill="none" />
<polyline points="416.0,322.0,424.0,322.0" stroke="black" stroke-width="1" fill="none" />
<polyline points="424.0,330.0,432.0,330.0" stroke="black" stroke-width="1" fill="none" />
<polyline points="432.0,322.0,440.0,322.0" stroke="black" stroke-width="1" fill="none" />
<polyline points="440.0,330.0,448.0,330.0" stroke="black" stroke-width="1" fill="none" />
<polyline points="448.0,322.0,456.0,322.0" stroke="black" stroke-width="1" fill="none" />
<polyline points="456.0,330.0,504.0,330.0" stroke="black" stroke-width="1" fill="none" />
<polyline points="504.0,322.0,512.0,322.0" stroke="black" stroke-width="1" fill="none" />
<polyline points="512.0,338.0,504.0,338.0" stroke="black" stroke-width="1" fill="none" />
<polyline points="504.0,354.0,512.0,354.0" stroke="black" stroke-width="1" fill="none" />
<polyline points="512.0,370.0,504.0,370.0" stroke="black" stroke-width="1" fill="none" />
<polyline points="496.0,370.0,464.0,370.0" stroke="black" stroke-width="1" fill="none" />
<polyline points="456.0,362.0,504.0,362.0" stroke="black" stroke-width="1" fill="none" />
<polyline points="496.0,354.0,464.0,354.0" stroke="black" stroke-width="1" fill="none" />
<polyline points="456.0,346.0,504.0,346.0" stroke="black" stroke-width="1" fill="none" />
<polyline points="496.0,338.0,464.0,338.0" stroke="black" stroke-width="1" fill="none" />
<polyline points="456.0,338.0,448.0,338.0" stroke="black" stroke-width="1" fill="none" />
<polyline points="448.0,346.0,440.0,346.0" stroke="black" stroke-width="1" fill="none" />
<polyline points="440.0,354.0,432.0,354.0" stroke="black" stroke-width="1" fill="none" />
<polyline points="432.0,362.0,424.0,362.0" stroke="black" stroke-width="1" fill="none" />
<polyline points="424.0,370.0,416.0,370.0" stroke="black" stroke-width="1" fill="none" />
<polyline points="424.0,378.0,432.0,378.0" stroke="black" stroke-width="1" fill="none" />
<polyline points="432.0,370.0,440.0,370.0" stroke="black" stroke-width="1" fill="none" />
<polyline points="440.0,362.0,448.0,362.0" stroke="black" stroke-width="1" fill="none" />
<polyline points="448.0,354.0,456.0,354.0" stroke="black" stroke-width="1" fill="none" />
<polyline points="456.0,370.0,448.0,370.0" stroke="black" stroke-width="1" fill="none" />
<polyline points="448.0,378.0,440.0,378.0" stroke="black" stroke-width="1" fill="none" />
<polyline points="456.0,378.0,504.0,378.0" stroke="black" stroke-width="1" fill="none" />
<polyline points="496.0,322.0,464.0,322.0" stroke="black" stroke-width="1" fill="none" />
<polyline points="472.0,306.0,512.0,306.0" stroke="black" stroke-width="1" fill="none" />
<polyline points="512.0,298.0,496.0,298.0" stroke="black" stroke-width="1" fill="none" />
<polyline points="496.0,290.0,512.0,290.0" stroke="black" stroke-width="1" fill="none" />
<polyline points="512.0,282.0,504.0,282.0" stroke="black" stroke-width="1" fill="none" />
<polyline points="496.0,274.0,512.0,274.0" stroke="black" stroke-width="1" fill="none" />
<polyline points="512.0,266.0,496.0,266.0" stroke="black" stroke-width="1" fill="none" />
<polyline points="496.0,258.0,512.0,258.0" stroke="black" stroke-width="1" fill="none" />
<polyline points="512.0,250.0,496.0,250.0" stroke="black" stroke-width="1" fill="none" />
<polyline points="496.0,242.0,512.0,242.0" stroke="black" stroke-width="1" fill="none" />
<polyline points="512.0,234.0,496.0,234.0" stroke="black" stroke-width="1" fill="none" />
<polyline points="496.0,226.0,512.0,226.0" stroke="black" stroke-width="1" fill="none" />
<polyline points="512.0,218.0,496.0,218.0" stroke="black" stroke-width="1" fill="none" />
<polyline points="496.0,210.0,512.0,210.0" stroke="black" stroke-width="1" fill="none" />
<polyline points="512.0,202.0,496.0,202.0" stroke="black" stroke-width="1" fill="none" />
<polyline points="496.0,194.0,512.0,194.0" stroke="black" stroke-width="1" fill="none" />
<polyline points="512.0,186.0,496.0,186.0" stroke="black" stroke-width="1" fill="none" />
<polyline points="496.0,178.0,512.0,178.0" stroke="black" stroke-width="1" fill="none" />
<polyline points="512.0,170.0,496.0,170.0" stroke="black" stroke-width="1" fill="none" />
<polyline points="496.0,162.0,512.0,162.0" stroke="black" stroke-width="1" fill="none" />
<polyline points="512.0,154.0,496.0,154.0" stroke="black" stroke-width="1" fill="none" />
<polyline points="496.0,146.0,512.0,146.0" stroke="black" stroke-width="1" fill="none" />
<polyline points="512.0,138.0,496.0,138.0" stroke="black" stroke-width="1" fill="none" />
<polyline points="496.0,130.0,512.0,130.0" stroke="black" stroke-width="1" fill="none" />
<polyline points="512.0,122.0,496.0,122.0" stroke="black" stroke-width="1" fill="none" />
<polyline points="496.0,114.0,512.0,114.0" stroke="black" stroke-width="1" fill="none" />
<polyline points="512.0,106.0,496.0,106.0" stroke="black" stroke-width="1" fill="none" />
<polyline points="496.0,98.0,512.0,98.0" stroke="black" stroke-width="1" fill="none" />
<polyline points="512.0,90.0,496.0,90.0" stroke="black" stroke-width="1" fill="none" />
<polyline points="496.0,82.0,512.0,82.0" stroke="black" stroke-width="1" fill="none" />
<polyline points="512.0,74.0,496.0,74.0" stroke="black" stroke-width="1" fill="none" />
<polyline points="496.0,66.0,512.0,66.0" stroke="black" stroke-width="1" fill="none" />
<polyline points="512.0,58.0,496.0,58.0" stroke="black" stroke-width="1" fill="none" />
<polyline points="496.0,50.0,512.0,50.0" stroke="black" stroke-width="1" fill="none" />
<polyline points="512.0,42.0,496.0,42.0" stroke="black" stroke-width="1" fill="none" />
<polyline points="496.0,34.0,504.0,34.0" stroke="black" stroke-width="1" fill="none" />
<polyline points="496.0,26.0,512.0,26.0" stroke="black" stroke-width="1" fill="none" />
<polyline points="504.0,18.0,496.0,18.0" stroke="black" stroke-width="1" fill="none" />
<polyline points="496.0,16.0,504.0,8.0" stroke="black" stroke-width="1" fill="none" />
<polyline points="496.0,10.0,512.0,10.0" stroke="black" stroke-width="1" fill="none" />
<polyline points="432.0,0.0,424.0,8.0" stroke="black" stroke-width="1" fill="none" />
<polyline points="416.0,0.0,408.0,8.0" stroke="black" stroke-width="1" fill="none" />
<polyline points="400.0,0.0,392.0,8.0" stroke="black" stroke-width="1" fill="none" />
<polyline points="384.0,0.0,376.0,8.0" stroke="black" stroke-width="1" fill="none" />
<polyline points="336.0,0.0,328.0,8.0" stroke="black" stroke-width="1" fill="none" />
<polyline points="248.0,0.0,240.0,8.0" stroke="black" stroke-width="1" fill="none" />
<polyline points="232.0,0.0,224.0,8.0" stroke="black" stroke-width="1" fill="none" />
<polyline points="216.0,0.0,208.0,8.0" stroke="black" stroke-width="1" fill="none" />
<polyline points="200.0,0.0,192.0,8.0" stroke="black" stroke-width="1" fill="none" />
<polyline points="184.0,0.0,176.0,8.0" stroke="black" stroke-width="1" fill="none" />
<polyline points="168.0,0.0,160.0,8.0" stroke="black" stroke-width="1" fill="none" />
<polyline points="152.0,0.0,144.0,8.0" stroke="black" stroke-width="1" fill="none" />
<polyline points="8.0,2.0,504.0,2.0" stroke="black" stroke-width="1" fill="none" />
<polyline points="504.0,314.0,368.0,314.0" stroke="black" stroke-width="1" fill="none" />
<polyline points="360.0,314.0,352.0,314.0" stroke="black" stroke-width="1" fill="none" />
<polyline points="352.0,330.0,344.0,330.0" stroke="black" stroke-width="1" fill="none" />
<polyline points="344.0,338.0,336.0,338.0" stroke="black" stroke-width="1" fill="none" />
<polyline points="336.0,330.0,328.0,330.0" stroke="black" stroke-width="1" fill="none" />
<polyline points="328.0,338.0,320.0,338.0" stroke="black" stroke-width="1" fill="none" />
<polyline points="320.0,330.0,312.0,330.0" stroke="black" stroke-width="1" fill="none" />
<polyline points="296.0,344.0,288.0,352.0" stroke="black" stroke-width="1" fill="none" />
<polyline points="288.0,354.0,296.0,354.0" stroke="black" stroke-width="1" fill="none" />
<polyline points="288.0,346.0,400.0,346.0" stroke="black" stroke-width="1" fill="none" />
<polyline points="400.0,344.0,392.0,352.0" stroke="black" stroke-width="1" fill="none" />
<polyline points="400.0,354.0,408.0,354.0" stroke="black" stroke-width="1" fill="none" />
<polyline points="408.0,352.0,400.0,360.0" stroke="black" stroke-width="1" fill="none" />
<polyline points="400.0,362.0,416.0,362.0" stroke="black" stroke-width="1" fill="none" />
<polyline points="416.0,354.0,424.0,354.0" stroke="black" stroke-width="1" fill="none" />
<polyline points="424.0,346.0,432.0,346.0" stroke="black" stroke-width="1" fill="none" />
<polyline points="432.0,338.0,440.0,338.0" stroke="black" stroke-width="1" fill="none" />
<polyline points="424.0,338.0,416.0,338.0" stroke="black" stroke-width="1" fill="none" />
<polyline points="416.0,346.0,408.0,346.0" stroke="black" stroke-width="1" fill="none" />
<polyline points="408.0,338.0,400.0,338.0" stroke="black" stroke-width="1" fill="none" />
<polyline points="392.0,338.0,384.0,338.0" stroke="black" stroke-width="1" fill="none" />
<polyline points="384.0,344.0,376.0,352.0" stroke="black" stroke-width="1" fill="none" />
<polyline points="368.0,344.0,360.0,352.0" stroke="black" stroke-width="1" fill="none" />
<polyline points="352.0,344.0,344.0,352.0" stroke="black" stroke-width="1" fill="none" />
<polyline points="352.0,338.0,360.0,338.0" stroke="black" stroke-width="1" fill="none" />
<polyline points="368.0,338.0,376.0,338.0" stroke="black" stroke-width="1" fill="none" />
<polyline points="400.0,370.0,408.0,370.0" stroke="black" stroke-width="1" fill="none" />
<polyline points="416.0,378.0,344.0,378.0" stroke="black" stroke-width="1" fill="none" />
<polyline points="336.0,378.0,312.0,378.0" stroke="black" stroke-width="1" fill="none" />
<polyline points="288.0,362.0,280.0,362.0" stroke="black" stroke-width="1" fill="none" />
<polyline points="288.0,338.0,312.0,338.0" stroke="black" stroke-width="1" fill="none" />
<polyline points="304.0,330.0,288.0,330.0" stroke="black" stroke-width="1" fill="none" />
<polyline points="120.0,378.0,72.0,378.0" stroke="black" stroke-width="1" fill="none" />
<polyline points="72.0,370.0,64.0,370.0" stroke="black" stroke-width="1" fill="none" />
<polyline points="64.0,378.0,56.0,378.0" stroke="black" stroke-width="1" fill="none" />
<polyline points="56.0,370.0,48.0,370.0" stroke="black" stroke-width="1" fill="none" />
<polyline points="48.0,378.0,40.0,378.0" stroke="black" stroke-width="1" fill="none" />
<polyline points="32.0,362.0,24.0,362.0" stroke="black" stroke-width="1" fill="none" />
<polyline points="32.0,354.0,40.0,354.0" stroke="black" stroke-width="1" fill="none" />
<polyline points="40.0,346.0,48.0,346.0" stroke="black" stroke-width="1" fill="none" />
<polyline points="48.0,338.0,56.0,338.0" stroke="black" stroke-width="1" fill="none" />
<polyline points="56.0,330.0,64.0,330.0" stroke="black" stroke-width="1" fill="none" />
<polyline points="64.0,354.0,72.0,354.0" stroke="black" stroke-width="1" fill="none" />
<polyline points="64.0,362.0,56.0,362.0" stroke="black" stroke-width="1" fill="none" />
<polyline points="40.0,322.0,32.0,322.0" stroke="black" stroke-width="1" fill="none" />
<polyline points="32.0,330.0,24.0,330.0" stroke="black" stroke-width="1" fill="none" />
<polyline points="24.0,338.0,16.0,338.0" stroke="black" stroke-width="1" fill="none" />
<polyline points="8.0,336.0,0.0,344.0" stroke="black" stroke-width="1" fill="none" />
<polyline points="0.0,338.0,8.0,338.0" stroke="black" stroke-width="1" fill="none" />
<polyline points="8.0,330.0,16.0,330.0" stroke="black" stroke-width="1" fill="none" />
<polyline points="16.0,322.0,24.0,322.0" stroke="black" stroke-width="1" fill="none" />
<polyline points="8.0,320.0,0.0,328.0" stroke="black" stroke-width="1" fill="none" />
<polyline points="0.0,322.0,8.0,322.0" stroke="black" stroke-width="1" fill="none" />
<polyline points="8.0,346.0,16.0,346.0" stroke="black" stroke-width="1" fill="none" />
<polyline points="8.0,352.0,0.0,360.0" stroke="black" stroke-width="1" fill="none" />
<polyline points="0.0,354.0,8.0,354.0" stroke="black" stroke-width="1" fill="none" />
<polyline points="8.0,378.0,16.0,378.0" stroke="black" stroke-width="1" fill="none" />
</svg>